%TF.GenerationSoftware,Altium Limited,CircuitMaker,2.0.2 (2.0.2.40)*%
G04 Layer_Color=20142*
%FSLAX25Y25*%
%MOIN*%
%TF.SameCoordinates,55457101-24DF-47E6-B24E-7804918367A6*%
%TF.FilePolarity,Negative*%
%TF.FileFunction,Soldermask,Top*%
%TF.Part,Single*%
G01*
G75*
%TA.AperFunction,WasherPad*%
%ADD81C,0.04724*%
%ADD82C,0.04331*%
%TA.AperFunction,SMDPad,CuDef*%
%ADD95R,0.04787X0.06587*%
%ADD96R,0.04724X0.06102*%
%ADD97R,0.06587X0.04787*%
%ADD98R,0.06102X0.04724*%
%TA.AperFunction,ComponentPad*%
%ADD101R,0.08661X0.08661*%
%ADD102C,0.08661*%
%ADD103R,0.07087X0.07087*%
%ADD104C,0.07087*%
%ADD105C,0.06787*%
%ADD106C,0.02953*%
%ADD107C,0.05512*%
%ADD108C,0.14787*%
%ADD109O,0.06787X0.08787*%
%TA.AperFunction,ViaPad*%
%ADD110C,0.03187*%
%ADD111C,0.02756*%
%ADD112C,0.03150*%
%ADD113C,0.05787*%
%TA.AperFunction,SMDPad,CuDef*%
G04:AMPARAMS|DCode=114|XSize=66.93mil|YSize=25.59mil|CornerRadius=4.82mil|HoleSize=0mil|Usage=FLASHONLY|Rotation=0.000|XOffset=0mil|YOffset=0mil|HoleType=Round|Shape=RoundedRectangle|*
%AMROUNDEDRECTD114*
21,1,0.06693,0.01595,0,0,0.0*
21,1,0.05728,0.02559,0,0,0.0*
1,1,0.00965,0.02864,-0.00797*
1,1,0.00965,-0.02864,-0.00797*
1,1,0.00965,-0.02864,0.00797*
1,1,0.00965,0.02864,0.00797*
%
%ADD114ROUNDEDRECTD114*%
%ADD115R,0.10472X0.09882*%
%ADD116R,0.08661X0.07874*%
%ADD117R,0.16929X0.14567*%
%ADD118R,0.02756X0.03150*%
%ADD119R,0.07776X0.10433*%
%ADD120R,0.03150X0.01968*%
%ADD121R,0.03150X0.02756*%
%ADD122R,0.10433X0.07776*%
%ADD123R,0.01968X0.03150*%
%ADD124R,0.11024X0.11024*%
%ADD125R,0.03150X0.01673*%
%ADD126R,0.01673X0.03150*%
%ADD127R,0.04724X0.10787*%
%ADD128R,0.07677X0.05905*%
%ADD129R,0.15787X0.03787*%
G04:AMPARAMS|DCode=130|XSize=140.16mil|YSize=62.2mil|CornerRadius=13.72mil|HoleSize=0mil|Usage=FLASHONLY|Rotation=90.000|XOffset=0mil|YOffset=0mil|HoleType=Round|Shape=RoundedRectangle|*
%AMROUNDEDRECTD130*
21,1,0.14016,0.03477,0,0,90.0*
21,1,0.11272,0.06220,0,0,90.0*
1,1,0.02743,0.01739,0.05636*
1,1,0.02743,0.01739,-0.05636*
1,1,0.02743,-0.01739,-0.05636*
1,1,0.02743,-0.01739,0.05636*
%
%ADD130ROUNDEDRECTD130*%
%ADD131R,0.03787X0.15787*%
%ADD132R,0.07795X0.10039*%
%ADD133R,0.03543X0.01772*%
%ADD134R,0.23622X0.23622*%
%ADD135R,0.12598X0.07087*%
%ADD136R,0.03150X0.01968*%
%ADD137R,0.14370X0.14370*%
%ADD138R,0.06387X0.04287*%
%ADD139R,0.05512X0.04724*%
%ADD140R,0.03937X0.03150*%
%ADD141R,0.06102X0.06890*%
%ADD142R,0.07480X0.07480*%
%ADD143O,0.03543X0.01181*%
%ADD144O,0.01181X0.03543*%
%ADD145R,0.10827X0.07677*%
%ADD146R,0.01575X0.03937*%
%ADD147O,0.01575X0.03937*%
%ADD148O,0.03937X0.01575*%
%ADD149R,0.22441X0.14173*%
%TA.AperFunction,ConnectorPad*%
G04:AMPARAMS|DCode=150|XSize=15.75mil|YSize=51.18mil|CornerRadius=2.03mil|HoleSize=0mil|Usage=FLASHONLY|Rotation=0.000|XOffset=0mil|YOffset=0mil|HoleType=Round|Shape=RoundedRectangle|*
%AMROUNDEDRECTD150*
21,1,0.01575,0.04713,0,0,0.0*
21,1,0.01169,0.05118,0,0,0.0*
1,1,0.00405,0.00585,-0.02356*
1,1,0.00405,-0.00585,-0.02356*
1,1,0.00405,-0.00585,0.02356*
1,1,0.00405,0.00585,0.02356*
%
%ADD150ROUNDEDRECTD150*%
%TA.AperFunction,SMDPad,CuDef*%
G04:AMPARAMS|DCode=151|XSize=15.75mil|YSize=47.24mil|CornerRadius=3.98mil|HoleSize=0mil|Usage=FLASHONLY|Rotation=0.000|XOffset=0mil|YOffset=0mil|HoleType=Round|Shape=RoundedRectangle|*
%AMROUNDEDRECTD151*
21,1,0.01575,0.03929,0,0,0.0*
21,1,0.00779,0.04724,0,0,0.0*
1,1,0.00795,0.00390,-0.01965*
1,1,0.00795,-0.00390,-0.01965*
1,1,0.00795,-0.00390,0.01965*
1,1,0.00795,0.00390,0.01965*
%
%ADD151ROUNDEDRECTD151*%
%ADD152R,0.03787X0.04787*%
%ADD153R,0.09791X0.04787*%
%TA.AperFunction,Conductor*%
%ADD154C,0.12000*%
G36*
X290499Y154501D02*
X278501D01*
Y162999D01*
X283000D01*
X283121Y163003D01*
X283241Y163014D01*
X283361Y163032D01*
X283479Y163057D01*
X283595Y163090D01*
X283710Y163129D01*
X283821Y163175D01*
X283930Y163228D01*
X284035Y163288D01*
X284137Y163353D01*
X284234Y163425D01*
X284327Y163502D01*
X284415Y163585D01*
X284498Y163673D01*
X284575Y163766D01*
X284647Y163863D01*
X284712Y163965D01*
X284772Y164070D01*
X284825Y164179D01*
X284871Y164290D01*
X284910Y164405D01*
X284943Y164521D01*
X284968Y164639D01*
X284986Y164759D01*
X284997Y164879D01*
X285001Y165000D01*
Y166499D01*
X290499D01*
Y154501D01*
D02*
G37*
G36*
X289437Y212441D02*
X289710Y212329D01*
X289956Y212164D01*
X290164Y211956D01*
X290329Y211710D01*
X290441Y211437D01*
X290499Y211148D01*
Y211000D01*
X290499Y180001D01*
X285001Y180001D01*
X285001Y181500D01*
X284997Y181621D01*
X284986Y181741D01*
X284968Y181861D01*
X284943Y181979D01*
X284910Y182095D01*
X284871Y182210D01*
X284825Y182321D01*
X284799Y182374D01*
X284772Y182430D01*
X284712Y182535D01*
X284647Y182637D01*
X284575Y182734D01*
X284498Y182827D01*
X284415Y182915D01*
X284415D01*
Y182915D01*
X284327Y182998D01*
X284234Y183075D01*
X284137Y183147D01*
X284035Y183212D01*
X283930Y183272D01*
X283874Y183299D01*
X283821Y183325D01*
X283710Y183371D01*
X283595Y183410D01*
X283479Y183443D01*
X283361Y183468D01*
X283241Y183486D01*
X283121Y183497D01*
X283000Y183501D01*
X283000D01*
D01*
D01*
X279001Y183501D01*
X279001Y194000D01*
X278997Y194121D01*
X278986Y194241D01*
X278968Y194361D01*
X278943Y194479D01*
X278910Y194595D01*
X278871Y194710D01*
X278825Y194821D01*
X278772Y194930D01*
X278712Y195035D01*
X278647Y195137D01*
X278575Y195234D01*
X278498Y195327D01*
X278415Y195415D01*
X278327Y195498D01*
X278234Y195575D01*
X278137Y195647D01*
X278035Y195712D01*
X277930Y195772D01*
X277821Y195825D01*
X277710Y195871D01*
X277595Y195910D01*
X277479Y195943D01*
X277361Y195968D01*
X277241Y195986D01*
X277121Y195997D01*
X277000Y196001D01*
X271501Y196001D01*
Y212499D01*
X289148D01*
X289437Y212441D01*
D02*
G37*
D81*
X346457Y5512D02*
D03*
D82*
Y31496D02*
D03*
D95*
X279000Y186000D02*
D03*
X271000D02*
D03*
X59000Y136500D02*
D03*
X51000D02*
D03*
X101500Y120000D02*
D03*
X93500D02*
D03*
X101500Y105000D02*
D03*
X93500D02*
D03*
X51000Y144500D02*
D03*
X59000D02*
D03*
X64500Y160000D02*
D03*
X72500D02*
D03*
X12500Y179500D02*
D03*
X20500D02*
D03*
X37500Y122500D02*
D03*
X45500D02*
D03*
X35000Y152500D02*
D03*
X43000D02*
D03*
X35000Y144500D02*
D03*
X43000D02*
D03*
X35000Y136500D02*
D03*
X43000D02*
D03*
X12500Y152500D02*
D03*
X20500D02*
D03*
X12500Y144500D02*
D03*
X20500D02*
D03*
Y136500D02*
D03*
X12500D02*
D03*
X130000Y168000D02*
D03*
X138000D02*
D03*
X161000Y167500D02*
D03*
X153000D02*
D03*
X130000Y160000D02*
D03*
X138000D02*
D03*
X130000Y152000D02*
D03*
X138000D02*
D03*
X161000Y159500D02*
D03*
X153000D02*
D03*
X161000Y151500D02*
D03*
X153000D02*
D03*
X191500Y185000D02*
D03*
X183500D02*
D03*
X241500Y186000D02*
D03*
X233500D02*
D03*
X221500Y123500D02*
D03*
X213500D02*
D03*
X266500Y168000D02*
D03*
X258500D02*
D03*
Y160000D02*
D03*
X266500D02*
D03*
X258500Y152000D02*
D03*
X266500D02*
D03*
X252500Y78500D02*
D03*
X260500D02*
D03*
X252500Y70500D02*
D03*
X260500D02*
D03*
X252500Y54500D02*
D03*
X260500D02*
D03*
X186500Y80000D02*
D03*
X178500D02*
D03*
X223000Y87500D02*
D03*
X215000D02*
D03*
Y79500D02*
D03*
X223000D02*
D03*
X215000Y71500D02*
D03*
X223000D02*
D03*
X215000Y63500D02*
D03*
X223000D02*
D03*
X200000Y72000D02*
D03*
X192000D02*
D03*
X145000D02*
D03*
X153000D02*
D03*
X122000Y87500D02*
D03*
X130000D02*
D03*
X122000Y79500D02*
D03*
X130000D02*
D03*
X122000Y71500D02*
D03*
X130000D02*
D03*
X122000Y63500D02*
D03*
X130000D02*
D03*
X89000Y82500D02*
D03*
X81000D02*
D03*
X42000Y41000D02*
D03*
X50000D02*
D03*
X12000Y68500D02*
D03*
X20000D02*
D03*
Y44500D02*
D03*
X12000D02*
D03*
D96*
X51500Y128500D02*
D03*
X58543D02*
D03*
X101043Y112500D02*
D03*
X93957D02*
D03*
X51457Y152500D02*
D03*
X58543D02*
D03*
X316457Y60500D02*
D03*
X323543D02*
D03*
X316457Y52500D02*
D03*
X323543D02*
D03*
X252957Y86500D02*
D03*
X260043D02*
D03*
X252957Y46500D02*
D03*
X260043D02*
D03*
X192457Y80000D02*
D03*
X199543D02*
D03*
X186043Y72000D02*
D03*
X178957D02*
D03*
X152543Y80000D02*
D03*
X145457D02*
D03*
X158957Y72000D02*
D03*
X166043D02*
D03*
X81457Y67000D02*
D03*
X88543D02*
D03*
D97*
X71500Y98500D02*
D03*
Y106500D02*
D03*
X63500Y98500D02*
D03*
Y106500D02*
D03*
X88500Y161500D02*
D03*
Y153500D02*
D03*
X96500D02*
D03*
Y161500D02*
D03*
X107500Y149000D02*
D03*
Y141000D02*
D03*
X175000Y174000D02*
D03*
Y182000D02*
D03*
X201500Y187000D02*
D03*
Y195000D02*
D03*
X200500Y128500D02*
D03*
Y136500D02*
D03*
X300000Y81000D02*
D03*
Y73000D02*
D03*
X378000Y34000D02*
D03*
Y26000D02*
D03*
X300000Y39000D02*
D03*
Y31000D02*
D03*
X13500Y52500D02*
D03*
Y60500D02*
D03*
D98*
X212000Y162043D02*
D03*
Y154957D02*
D03*
X370000Y33543D02*
D03*
Y26457D02*
D03*
X331500Y31457D02*
D03*
Y38543D02*
D03*
X323500Y31457D02*
D03*
Y38543D02*
D03*
D101*
X202000Y161000D02*
D03*
D102*
Y151000D02*
D03*
D103*
X369713Y86500D02*
D03*
D104*
X359870D02*
D03*
X350028D02*
D03*
X340185D02*
D03*
X330343D02*
D03*
X320500D02*
D03*
D105*
X369764Y62500D02*
D03*
X359921D02*
D03*
X350079D02*
D03*
X340236D02*
D03*
D106*
X25984Y28858D02*
D03*
X24409Y26102D02*
D03*
X22835Y28858D02*
D03*
X21260Y26102D02*
D03*
X19685Y28858D02*
D03*
X29134D02*
D03*
X30709Y26102D02*
D03*
X32283Y28858D02*
D03*
X33858Y26102D02*
D03*
X35433Y28858D02*
D03*
X38583Y28740D02*
D03*
X37008Y25984D02*
D03*
X18110Y26102D02*
D03*
X16535Y28858D02*
D03*
D107*
X44370Y24331D02*
D03*
X10748D02*
D03*
Y5709D02*
D03*
X44370D02*
D03*
D108*
X68638Y36629D02*
D03*
X120338D02*
D03*
X139504D02*
D03*
X191204D02*
D03*
D109*
X80638Y47229D02*
D03*
X90438D02*
D03*
X98338D02*
D03*
X108038D02*
D03*
X151504D02*
D03*
X161304D02*
D03*
X169204D02*
D03*
X178904D02*
D03*
D110*
X168500Y99000D02*
D03*
X172500D02*
D03*
X176500D02*
D03*
X168500Y93000D02*
D03*
X172500D02*
D03*
X176500D02*
D03*
X235000Y161500D02*
D03*
Y165043D02*
D03*
Y157957D02*
D03*
X14942Y161000D02*
D03*
Y169000D02*
D03*
X273500Y127000D02*
D03*
X163500Y179000D02*
D03*
X192500D02*
D03*
Y174500D02*
D03*
X197500D02*
D03*
Y179000D02*
D03*
X90000Y211000D02*
D03*
X85000D02*
D03*
X80000D02*
D03*
X109500Y170000D02*
D03*
X104500D02*
D03*
X99500D02*
D03*
X109500Y175000D02*
D03*
X104500D02*
D03*
X99500D02*
D03*
X65500D02*
D03*
Y170000D02*
D03*
X70500D02*
D03*
Y175000D02*
D03*
X10000Y159000D02*
D03*
Y162500D02*
D03*
Y166000D02*
D03*
Y169500D02*
D03*
Y173000D02*
D03*
X50500Y27000D02*
D03*
Y30500D02*
D03*
Y34000D02*
D03*
X260000Y23000D02*
D03*
X255000D02*
D03*
X341500Y75000D02*
D03*
X324000D02*
D03*
X294000Y77000D02*
D03*
X200000Y54500D02*
D03*
X33000Y64000D02*
D03*
X57500Y27500D02*
D03*
X276000Y176500D02*
D03*
X262500Y20000D02*
D03*
X257500D02*
D03*
X252500D02*
D03*
X360000Y43500D02*
D03*
X355000D02*
D03*
X350000D02*
D03*
X345000D02*
D03*
X340000D02*
D03*
X277500Y34500D02*
D03*
X286500Y55500D02*
D03*
X282500D02*
D03*
X286500Y52000D02*
D03*
X282500D02*
D03*
X278500D02*
D03*
X287500Y105000D02*
D03*
X291500D02*
D03*
Y109000D02*
D03*
X273500Y122500D02*
D03*
Y147500D02*
D03*
Y142500D02*
D03*
Y137500D02*
D03*
X227500Y130000D02*
D03*
Y135000D02*
D03*
X207500Y130000D02*
D03*
X212500D02*
D03*
X217500D02*
D03*
X222500D02*
D03*
Y135000D02*
D03*
X217500D02*
D03*
X212500D02*
D03*
X207500D02*
D03*
X175000Y140500D02*
D03*
X170000D02*
D03*
X172500Y137000D02*
D03*
X167500D02*
D03*
X162500D02*
D03*
X165000Y140500D02*
D03*
X160000D02*
D03*
X236375Y115000D02*
D03*
X240250D02*
D03*
X244000Y115000D02*
D03*
X208000Y141500D02*
D03*
X212500D02*
D03*
X217500D02*
D03*
X222500D02*
D03*
X84500Y88500D02*
D03*
X81500D02*
D03*
X78500D02*
D03*
Y91500D02*
D03*
X81500D02*
D03*
X84500D02*
D03*
X56500Y99500D02*
D03*
X54006Y99673D02*
D03*
X69000Y89500D02*
D03*
X89500Y89000D02*
D03*
Y91500D02*
D03*
X65500Y90500D02*
D03*
X138500Y121000D02*
D03*
X134500D02*
D03*
X138500Y125000D02*
D03*
X142500D02*
D03*
X134500D02*
D03*
X109000Y98500D02*
D03*
Y101000D02*
D03*
X112500Y95500D02*
D03*
X97500Y127000D02*
D03*
X62000Y64500D02*
D03*
Y67500D02*
D03*
X56000Y119500D02*
D03*
X52500D02*
D03*
X60000Y119000D02*
D03*
X184500Y191000D02*
D03*
X121000Y133500D02*
D03*
X141000Y53500D02*
D03*
X172500Y82000D02*
D03*
X168500D02*
D03*
X300081Y91000D02*
D03*
X17500Y93396D02*
D03*
Y88650D02*
D03*
X273000Y97000D02*
D03*
X275000Y95000D02*
D03*
X94000Y76000D02*
D03*
X76000Y54500D02*
D03*
X63000Y58000D02*
D03*
X39000Y64000D02*
D03*
X94000Y72000D02*
D03*
X73000Y130000D02*
D03*
X115500Y161500D02*
D03*
X82000Y162500D02*
D03*
X40500Y207500D02*
D03*
X144000Y108500D02*
D03*
X152500Y94000D02*
D03*
Y103500D02*
D03*
X192500Y94000D02*
D03*
Y103500D02*
D03*
X201000Y108500D02*
D03*
X152500Y89500D02*
D03*
X192500D02*
D03*
X253500Y36000D02*
D03*
X290000Y75000D02*
D03*
X282500Y85405D02*
D03*
X355500Y23500D02*
D03*
X269000Y94000D02*
D03*
X264500D02*
D03*
X284500Y30000D02*
D03*
X272500Y40500D02*
D03*
X268500Y26000D02*
D03*
X265000Y29000D02*
D03*
X288000Y27000D02*
D03*
X266500Y74000D02*
D03*
X220000Y167500D02*
D03*
X221000Y156500D02*
D03*
Y161500D02*
D03*
X311500Y52500D02*
D03*
Y60500D02*
D03*
X78500Y122000D02*
D03*
X49500Y116500D02*
D03*
X108000Y92500D02*
D03*
X104000D02*
D03*
X108000Y63000D02*
D03*
X104000D02*
D03*
X75000Y62500D02*
D03*
X69500Y154000D02*
D03*
X86500Y118000D02*
D03*
X83463Y121000D02*
D03*
X305500Y58000D02*
D03*
Y62000D02*
D03*
Y66000D02*
D03*
X71000Y61000D02*
D03*
X356000Y30500D02*
D03*
X60000Y87000D02*
D03*
Y83000D02*
D03*
Y79000D02*
D03*
X45000Y116500D02*
D03*
X40500D02*
D03*
X57500Y165000D02*
D03*
X65000Y131500D02*
D03*
Y123500D02*
D03*
X27000Y45000D02*
D03*
X36000Y66500D02*
D03*
Y70000D02*
D03*
X88500Y148500D02*
D03*
X250000Y163500D02*
D03*
Y156500D02*
D03*
X65000Y143500D02*
D03*
Y139500D02*
D03*
Y135500D02*
D03*
Y127500D02*
D03*
X82500Y137500D02*
D03*
X87500D02*
D03*
X82500Y132500D02*
D03*
X87500D02*
D03*
X85000Y135000D02*
D03*
X272500Y169500D02*
D03*
X253500Y166500D02*
D03*
X190500Y191000D02*
D03*
X109500Y127500D02*
D03*
X114500D02*
D03*
X118000Y130500D02*
D03*
X104500Y127500D02*
D03*
X121000Y141000D02*
D03*
D111*
X72165Y76665D02*
D03*
Y72335D02*
D03*
X70000Y74500D02*
D03*
X67835Y76665D02*
D03*
Y72335D02*
D03*
D112*
X26433Y84925D02*
D03*
X33433D02*
D03*
X29933D02*
D03*
X26433Y88925D02*
D03*
X29933D02*
D03*
X33433D02*
D03*
X37933Y84925D02*
D03*
X44933D02*
D03*
X41433D02*
D03*
X37933Y88925D02*
D03*
X41433D02*
D03*
X44933D02*
D03*
X26433Y93425D02*
D03*
X44433D02*
D03*
X31933D02*
D03*
X38433D02*
D03*
X26433Y103425D02*
D03*
X31933D02*
D03*
X44433D02*
D03*
X38433D02*
D03*
X29433Y98425D02*
D03*
X35433D02*
D03*
X41433D02*
D03*
D113*
X207000Y39500D02*
D03*
X212500Y45500D02*
D03*
X217500Y51500D02*
D03*
X243000Y51000D02*
D03*
Y43500D02*
D03*
Y36000D02*
D03*
Y28500D02*
D03*
X235000D02*
D03*
Y36000D02*
D03*
Y43500D02*
D03*
Y51000D02*
D03*
X257500Y206500D02*
D03*
X250000D02*
D03*
X242500D02*
D03*
X245000Y177500D02*
D03*
X252500D02*
D03*
X260000D02*
D03*
X267500D02*
D03*
X232500D02*
D03*
X225000D02*
D03*
X217500D02*
D03*
X210000D02*
D03*
X225000Y206500D02*
D03*
X217500D02*
D03*
X210000D02*
D03*
X15000Y205000D02*
D03*
Y197500D02*
D03*
Y190000D02*
D03*
X22000Y205000D02*
D03*
Y197500D02*
D03*
Y190000D02*
D03*
X47500Y205000D02*
D03*
X55000D02*
D03*
X62500D02*
D03*
X70000D02*
D03*
X51000Y199000D02*
D03*
X58500D02*
D03*
X66500D02*
D03*
X127500Y205000D02*
D03*
X120000D02*
D03*
X112500D02*
D03*
X105000D02*
D03*
X124000Y199500D02*
D03*
X116500Y199000D02*
D03*
X109000D02*
D03*
X101000D02*
D03*
X142500Y205000D02*
D03*
X150000D02*
D03*
X157500D02*
D03*
X142500Y197500D02*
D03*
X150000D02*
D03*
X157500D02*
D03*
D114*
X161083Y104957D02*
D03*
Y102398D02*
D03*
Y99839D02*
D03*
Y97280D02*
D03*
Y94721D02*
D03*
Y92161D02*
D03*
Y89602D02*
D03*
Y87043D02*
D03*
X183917D02*
D03*
Y89602D02*
D03*
Y92161D02*
D03*
Y94721D02*
D03*
Y97280D02*
D03*
Y99839D02*
D03*
Y102398D02*
D03*
Y104957D02*
D03*
D115*
X172500Y96000D02*
D03*
D116*
X118642Y105000D02*
D03*
X136358D02*
D03*
X226358D02*
D03*
X208642D02*
D03*
D117*
X66299Y187000D02*
D03*
X103701D02*
D03*
D118*
X34500Y200512D02*
D03*
Y189488D02*
D03*
X138500Y182488D02*
D03*
Y193512D02*
D03*
X160500Y182488D02*
D03*
Y193512D02*
D03*
D119*
X32295Y195000D02*
D03*
X140705Y188000D02*
D03*
X158295D02*
D03*
D120*
X28000Y191161D02*
D03*
Y193720D02*
D03*
Y196280D02*
D03*
Y198839D02*
D03*
X40500D02*
D03*
Y196280D02*
D03*
Y193720D02*
D03*
X40602Y191161D02*
D03*
X145000Y191839D02*
D03*
Y189279D02*
D03*
Y186721D02*
D03*
Y184161D02*
D03*
X132500D02*
D03*
Y186721D02*
D03*
Y189279D02*
D03*
X132398Y191839D02*
D03*
X166602Y184161D02*
D03*
X166500Y186721D02*
D03*
Y189279D02*
D03*
Y191839D02*
D03*
X154000D02*
D03*
Y189279D02*
D03*
Y186721D02*
D03*
Y184161D02*
D03*
D121*
X55012Y180500D02*
D03*
X43988D02*
D03*
X125512Y181000D02*
D03*
X114488D02*
D03*
D122*
X49500Y182705D02*
D03*
X120000Y183205D02*
D03*
D123*
X45661Y187000D02*
D03*
X48221D02*
D03*
X50779D02*
D03*
X53339D02*
D03*
Y174500D02*
D03*
X50779D02*
D03*
X48221D02*
D03*
X45661Y174398D02*
D03*
X116161Y187500D02*
D03*
X118720D02*
D03*
X121280D02*
D03*
X123839D02*
D03*
Y175000D02*
D03*
X121280D02*
D03*
X118720D02*
D03*
X116161Y174898D02*
D03*
X289390Y46248D02*
D03*
X285453D02*
D03*
X283484D02*
D03*
X281516D02*
D03*
X279547D02*
D03*
X277579D02*
D03*
X275610D02*
D03*
X287421D02*
D03*
Y64752D02*
D03*
X275610D02*
D03*
X277579D02*
D03*
X279547D02*
D03*
X281516D02*
D03*
X283484D02*
D03*
X285453D02*
D03*
X289390D02*
D03*
D124*
X85000Y135000D02*
D03*
D125*
X92874Y129488D02*
D03*
Y131063D02*
D03*
Y132638D02*
D03*
Y134213D02*
D03*
Y135787D02*
D03*
Y137362D02*
D03*
Y138937D02*
D03*
Y140512D02*
D03*
X77126Y129488D02*
D03*
Y131063D02*
D03*
Y132638D02*
D03*
Y134213D02*
D03*
Y135787D02*
D03*
Y137362D02*
D03*
Y138937D02*
D03*
Y140512D02*
D03*
D126*
X90512Y142874D02*
D03*
X88937D02*
D03*
X87362D02*
D03*
X85787D02*
D03*
X84213D02*
D03*
X82638D02*
D03*
X81063D02*
D03*
X79488D02*
D03*
X90512Y127126D02*
D03*
X88937D02*
D03*
X87362D02*
D03*
X85787D02*
D03*
X84213D02*
D03*
X82638D02*
D03*
X81063D02*
D03*
X79488D02*
D03*
D127*
X273000Y208500D02*
D03*
X200000D02*
D03*
X235500D02*
D03*
D128*
X262500Y198504D02*
D03*
Y186496D02*
D03*
X250000Y198504D02*
D03*
Y186496D02*
D03*
X212500Y198504D02*
D03*
Y186496D02*
D03*
X225000Y198504D02*
D03*
Y186496D02*
D03*
D129*
X27500Y161000D02*
D03*
Y169000D02*
D03*
D130*
X179500Y161941D02*
D03*
Y142059D02*
D03*
D131*
X183500Y202500D02*
D03*
X191500D02*
D03*
D132*
X235000Y161500D02*
D03*
D133*
X229193Y156776D02*
D03*
Y158350D02*
D03*
Y159925D02*
D03*
Y161500D02*
D03*
Y163075D02*
D03*
Y164650D02*
D03*
Y166224D02*
D03*
X240807D02*
D03*
Y164650D02*
D03*
Y163075D02*
D03*
Y161500D02*
D03*
Y159925D02*
D03*
Y158350D02*
D03*
Y156776D02*
D03*
D134*
X258524Y132500D02*
D03*
D135*
X232677Y123484D02*
D03*
Y141516D02*
D03*
D136*
X273248Y48610D02*
D03*
Y52547D02*
D03*
Y50579D02*
D03*
Y56484D02*
D03*
Y54516D02*
D03*
Y60421D02*
D03*
Y58453D02*
D03*
X291752D02*
D03*
Y60421D02*
D03*
Y62390D02*
D03*
Y54516D02*
D03*
Y56484D02*
D03*
Y50579D02*
D03*
Y52547D02*
D03*
Y48610D02*
D03*
X273248Y62390D02*
D03*
D137*
X282500Y55500D02*
D03*
D138*
X362500Y26500D02*
D03*
Y33500D02*
D03*
D139*
X379528Y8071D02*
D03*
Y14764D02*
D03*
X357480D02*
D03*
Y8071D02*
D03*
D140*
X346457Y27362D02*
D03*
Y22244D02*
D03*
Y12244D02*
D03*
Y17362D02*
D03*
D141*
X260339Y62500D02*
D03*
X252661D02*
D03*
D142*
X70000Y74500D02*
D03*
D143*
X64095Y71350D02*
D03*
Y72925D02*
D03*
Y74500D02*
D03*
Y76075D02*
D03*
Y77650D02*
D03*
X75906D02*
D03*
Y76075D02*
D03*
Y74500D02*
D03*
Y72925D02*
D03*
Y71350D02*
D03*
D144*
X66850Y80405D02*
D03*
X68425D02*
D03*
X70000D02*
D03*
X71575D02*
D03*
X73150D02*
D03*
Y68594D02*
D03*
X71575D02*
D03*
X70000D02*
D03*
X68425D02*
D03*
X66850D02*
D03*
D145*
X41575Y86799D02*
D03*
X29961D02*
D03*
D146*
X25433Y80382D02*
D03*
D147*
X27008D02*
D03*
X28583D02*
D03*
X30158D02*
D03*
X31732D02*
D03*
X33307D02*
D03*
X34882D02*
D03*
X36457D02*
D03*
X38032D02*
D03*
X39606D02*
D03*
X41181D02*
D03*
X42756D02*
D03*
X44331D02*
D03*
X45906D02*
D03*
Y107941D02*
D03*
X44331D02*
D03*
X42756D02*
D03*
X41181D02*
D03*
X39606D02*
D03*
X38032D02*
D03*
X36457D02*
D03*
X34882D02*
D03*
X33307D02*
D03*
X31732D02*
D03*
X30158D02*
D03*
X28583D02*
D03*
X27008D02*
D03*
X25433D02*
D03*
D148*
X49409Y83925D02*
D03*
Y85500D02*
D03*
Y87075D02*
D03*
Y88650D02*
D03*
Y90224D02*
D03*
Y91799D02*
D03*
Y93374D02*
D03*
Y94949D02*
D03*
Y96524D02*
D03*
Y98098D02*
D03*
Y99673D02*
D03*
Y101248D02*
D03*
Y102823D02*
D03*
Y104398D02*
D03*
X21929D02*
D03*
Y102823D02*
D03*
Y101248D02*
D03*
Y99673D02*
D03*
Y98098D02*
D03*
Y96524D02*
D03*
Y94949D02*
D03*
Y93374D02*
D03*
Y91799D02*
D03*
Y90224D02*
D03*
Y88650D02*
D03*
Y87075D02*
D03*
Y85500D02*
D03*
Y83925D02*
D03*
D149*
X35669Y98216D02*
D03*
D150*
X30512Y33779D02*
D03*
X26575D02*
D03*
X28543D02*
D03*
X24606D02*
D03*
X32480D02*
D03*
X34449D02*
D03*
X36417D02*
D03*
X38386D02*
D03*
X22638D02*
D03*
X20669D02*
D03*
X18701D02*
D03*
X16732D02*
D03*
D151*
X27559Y15748D02*
D03*
Y3543D02*
D03*
D152*
X280250Y176500D02*
D03*
Y169500D02*
D03*
D153*
X287750Y176500D02*
D03*
Y169500D02*
D03*
D154*
X284500Y117500D02*
Y157000D01*
X239000Y33000D02*
Y94500D01*
X254000Y109500D01*
X276500D02*
X284500Y117500D01*
X254000Y109500D02*
X276500D01*
%TF.MD5,8b84fc7e867dc41557ad64a99f924b15*%
M02*
