%TF.GenerationSoftware,Altium Limited,CircuitMaker,2.0.2 (2.0.2.40)*%
G04 Layer_Color=7318015*
%FSLAX25Y25*%
%MOIN*%
%TF.SameCoordinates,55457101-24DF-47E6-B24E-7804918367A6*%
%TF.FilePolarity,Positive*%
%TF.FileFunction,Paste,Top*%
%TF.Part,Single*%
G01*
G75*
%TA.AperFunction,SMDPad,CuDef*%
%ADD10R,0.04000X0.05800*%
%ADD11R,0.03937X0.05315*%
G04:AMPARAMS|DCode=12|XSize=59.05mil|YSize=17.72mil|CornerRadius=0.89mil|HoleSize=0mil|Usage=FLASHONLY|Rotation=0.000|XOffset=0mil|YOffset=0mil|HoleType=Round|Shape=RoundedRectangle|*
%AMROUNDEDRECTD12*
21,1,0.05905,0.01595,0,0,0.0*
21,1,0.05728,0.01772,0,0,0.0*
1,1,0.00177,0.02864,-0.00797*
1,1,0.00177,-0.02864,-0.00797*
1,1,0.00177,-0.02864,0.00797*
1,1,0.00177,0.02864,0.00797*
%
%ADD12ROUNDEDRECTD12*%
%ADD13R,0.09685X0.09094*%
%ADD14R,0.07874X0.07087*%
%ADD15R,0.16142X0.13780*%
%ADD16R,0.01968X0.02362*%
%ADD17R,0.06988X0.09646*%
%ADD18R,0.02362X0.01181*%
%ADD19R,0.02362X0.01968*%
%ADD20R,0.09646X0.06988*%
%ADD21R,0.01181X0.02362*%
%ADD22R,0.10236X0.10236*%
%ADD23R,0.02362X0.00886*%
%ADD24R,0.00886X0.02362*%
%ADD25R,0.03937X0.10000*%
%ADD26R,0.06890X0.05118*%
%ADD27R,0.05800X0.04000*%
%ADD28R,0.15000X0.03000*%
G04:AMPARAMS|DCode=29|XSize=132.28mil|YSize=54.33mil|CornerRadius=9.78mil|HoleSize=0mil|Usage=FLASHONLY|Rotation=90.000|XOffset=0mil|YOffset=0mil|HoleType=Round|Shape=RoundedRectangle|*
%AMROUNDEDRECTD29*
21,1,0.13228,0.03477,0,0,90.0*
21,1,0.11272,0.05433,0,0,90.0*
1,1,0.01956,0.01739,0.05636*
1,1,0.01956,0.01739,-0.05636*
1,1,0.01956,-0.01739,-0.05636*
1,1,0.01956,-0.01739,0.05636*
%
%ADD29ROUNDEDRECTD29*%
%ADD30R,0.03000X0.15000*%
%ADD31R,0.05315X0.03937*%
%ADD32R,0.07008X0.09252*%
%ADD33R,0.02756X0.00984*%
%ADD34R,0.22835X0.22835*%
%ADD35R,0.11811X0.06299*%
%ADD36R,0.02362X0.01181*%
%ADD37R,0.13583X0.13583*%
%ADD38R,0.05600X0.03500*%
%ADD39R,0.04724X0.03937*%
%ADD40R,0.03150X0.02362*%
%ADD41R,0.05315X0.06102*%
%ADD42R,0.03543X0.03347*%
%ADD44O,0.03150X0.00787*%
%ADD45O,0.00787X0.03150*%
%ADD46R,0.10039X0.06890*%
%ADD47R,0.00787X0.03150*%
%ADD48R,0.21654X0.13386*%
%TA.AperFunction,ConnectorPad*%
G04:AMPARAMS|DCode=49|XSize=11.81mil|YSize=47.24mil|CornerRadius=0.06mil|HoleSize=0mil|Usage=FLASHONLY|Rotation=0.000|XOffset=0mil|YOffset=0mil|HoleType=Round|Shape=RoundedRectangle|*
%AMROUNDEDRECTD49*
21,1,0.01181,0.04713,0,0,0.0*
21,1,0.01169,0.04724,0,0,0.0*
1,1,0.00012,0.00585,-0.02356*
1,1,0.00012,-0.00585,-0.02356*
1,1,0.00012,-0.00585,0.02356*
1,1,0.00012,0.00585,0.02356*
%
%ADD49ROUNDEDRECTD49*%
%TA.AperFunction,SMDPad,CuDef*%
G04:AMPARAMS|DCode=50|XSize=7.87mil|YSize=39.37mil|CornerRadius=0.04mil|HoleSize=0mil|Usage=FLASHONLY|Rotation=0.000|XOffset=0mil|YOffset=0mil|HoleType=Round|Shape=RoundedRectangle|*
%AMROUNDEDRECTD50*
21,1,0.00787,0.03929,0,0,0.0*
21,1,0.00779,0.03937,0,0,0.0*
1,1,0.00008,0.00390,-0.01965*
1,1,0.00008,-0.00390,-0.01965*
1,1,0.00008,-0.00390,0.01965*
1,1,0.00008,0.00390,0.01965*
%
%ADD50ROUNDEDRECTD50*%
%ADD51R,0.03347X0.03543*%
%ADD52R,0.03000X0.04000*%
%ADD53R,0.09004X0.04000*%
%TA.AperFunction,NonConductor*%
%ADD91C,0.00787*%
%ADD92R,0.02874X0.02874*%
D10*
X279000Y186000D02*
D03*
X271000D02*
D03*
X59000Y136500D02*
D03*
X51000D02*
D03*
X101500Y120000D02*
D03*
X93500D02*
D03*
X101500Y105000D02*
D03*
X93500D02*
D03*
X51000Y144500D02*
D03*
X59000D02*
D03*
X64500Y160000D02*
D03*
X72500D02*
D03*
X12500Y179500D02*
D03*
X20500D02*
D03*
X37500Y122500D02*
D03*
X45500D02*
D03*
X35000Y152500D02*
D03*
X43000D02*
D03*
X35000Y144500D02*
D03*
X43000D02*
D03*
X35000Y136500D02*
D03*
X43000D02*
D03*
X12500Y152500D02*
D03*
X20500D02*
D03*
X12500Y144500D02*
D03*
X20500D02*
D03*
Y136500D02*
D03*
X12500D02*
D03*
X130000Y168000D02*
D03*
X138000D02*
D03*
X161000Y167500D02*
D03*
X153000D02*
D03*
X130000Y160000D02*
D03*
X138000D02*
D03*
X130000Y152000D02*
D03*
X138000D02*
D03*
X161000Y159500D02*
D03*
X153000D02*
D03*
X161000Y151500D02*
D03*
X153000D02*
D03*
X191500Y185000D02*
D03*
X183500D02*
D03*
X241500Y186000D02*
D03*
X233500D02*
D03*
X221500Y123500D02*
D03*
X213500D02*
D03*
X266500Y168000D02*
D03*
X258500D02*
D03*
Y160000D02*
D03*
X266500D02*
D03*
X258500Y152000D02*
D03*
X266500D02*
D03*
X252500Y78500D02*
D03*
X260500D02*
D03*
X252500Y70500D02*
D03*
X260500D02*
D03*
X252500Y54500D02*
D03*
X260500D02*
D03*
X186500Y80000D02*
D03*
X178500D02*
D03*
X223000Y87500D02*
D03*
X215000D02*
D03*
Y79500D02*
D03*
X223000D02*
D03*
X215000Y71500D02*
D03*
X223000D02*
D03*
X215000Y63500D02*
D03*
X223000D02*
D03*
X200000Y72000D02*
D03*
X192000D02*
D03*
X145000D02*
D03*
X153000D02*
D03*
X122000Y87500D02*
D03*
X130000D02*
D03*
X122000Y79500D02*
D03*
X130000D02*
D03*
X122000Y71500D02*
D03*
X130000D02*
D03*
X122000Y63500D02*
D03*
X130000D02*
D03*
X89000Y82500D02*
D03*
X81000D02*
D03*
X42000Y41000D02*
D03*
X50000D02*
D03*
X12000Y68500D02*
D03*
X20000D02*
D03*
Y44500D02*
D03*
X12000D02*
D03*
D11*
X51500Y128500D02*
D03*
X58543D02*
D03*
X101043Y112500D02*
D03*
X93957D02*
D03*
X51457Y152500D02*
D03*
X58543D02*
D03*
X316457Y60500D02*
D03*
X323543D02*
D03*
X316457Y52500D02*
D03*
X323543D02*
D03*
X252957Y86500D02*
D03*
X260043D02*
D03*
X252957Y46500D02*
D03*
X260043D02*
D03*
X192457Y80000D02*
D03*
X199543D02*
D03*
X186043Y72000D02*
D03*
X178957D02*
D03*
X152543Y80000D02*
D03*
X145457D02*
D03*
X158957Y72000D02*
D03*
X166043D02*
D03*
X81457Y67000D02*
D03*
X88543D02*
D03*
D12*
X161083Y104957D02*
D03*
Y102398D02*
D03*
Y99839D02*
D03*
Y97280D02*
D03*
Y94721D02*
D03*
Y92161D02*
D03*
Y89602D02*
D03*
Y87043D02*
D03*
X183917D02*
D03*
Y89602D02*
D03*
Y92161D02*
D03*
Y94721D02*
D03*
Y97280D02*
D03*
Y99839D02*
D03*
Y102398D02*
D03*
Y104957D02*
D03*
D13*
X172500Y96000D02*
D03*
D14*
X118642Y105000D02*
D03*
X136358D02*
D03*
X226358D02*
D03*
X208642D02*
D03*
D15*
X66299Y187000D02*
D03*
X103701D02*
D03*
D16*
X34500Y200512D02*
D03*
Y189488D02*
D03*
X138500Y182488D02*
D03*
Y193512D02*
D03*
X160500Y182488D02*
D03*
Y193512D02*
D03*
D17*
X32295Y195000D02*
D03*
X140705Y188000D02*
D03*
X158295D02*
D03*
D18*
X28000Y191161D02*
D03*
Y193720D02*
D03*
Y196280D02*
D03*
Y198839D02*
D03*
X40500D02*
D03*
Y196280D02*
D03*
Y193720D02*
D03*
X40602Y191161D02*
D03*
X145000Y191839D02*
D03*
Y189279D02*
D03*
Y186721D02*
D03*
Y184161D02*
D03*
X132500D02*
D03*
Y186721D02*
D03*
Y189279D02*
D03*
X132398Y191839D02*
D03*
X166602Y184161D02*
D03*
X166500Y186721D02*
D03*
Y189279D02*
D03*
Y191839D02*
D03*
X154000D02*
D03*
Y189279D02*
D03*
Y186721D02*
D03*
Y184161D02*
D03*
D19*
X55012Y180500D02*
D03*
X43988D02*
D03*
X125512Y181000D02*
D03*
X114488D02*
D03*
D20*
X49500Y182705D02*
D03*
X120000Y183205D02*
D03*
D21*
X45661Y187000D02*
D03*
X48221D02*
D03*
X50779D02*
D03*
X53339D02*
D03*
Y174500D02*
D03*
X50779D02*
D03*
X48221D02*
D03*
X45661Y174398D02*
D03*
X116161Y187500D02*
D03*
X118720D02*
D03*
X121280D02*
D03*
X123839D02*
D03*
Y175000D02*
D03*
X121280D02*
D03*
X118720D02*
D03*
X116161Y174898D02*
D03*
X289390Y46248D02*
D03*
X285453D02*
D03*
X283484D02*
D03*
X281516D02*
D03*
X279547D02*
D03*
X277579D02*
D03*
X275610D02*
D03*
X287421D02*
D03*
Y64752D02*
D03*
X275610D02*
D03*
X277579D02*
D03*
X279547D02*
D03*
X281516D02*
D03*
X283484D02*
D03*
X285453D02*
D03*
X289390D02*
D03*
D22*
X85000Y135000D02*
D03*
D23*
X92874Y129488D02*
D03*
Y131063D02*
D03*
Y132638D02*
D03*
Y134213D02*
D03*
Y135787D02*
D03*
Y137362D02*
D03*
Y138937D02*
D03*
Y140512D02*
D03*
X77126Y129488D02*
D03*
Y131063D02*
D03*
Y132638D02*
D03*
Y134213D02*
D03*
Y135787D02*
D03*
Y137362D02*
D03*
Y138937D02*
D03*
Y140512D02*
D03*
D24*
X90512Y142874D02*
D03*
X88937D02*
D03*
X87362D02*
D03*
X85787D02*
D03*
X84213D02*
D03*
X82638D02*
D03*
X81063D02*
D03*
X79488D02*
D03*
X90512Y127126D02*
D03*
X88937D02*
D03*
X87362D02*
D03*
X85787D02*
D03*
X84213D02*
D03*
X82638D02*
D03*
X81063D02*
D03*
X79488D02*
D03*
D25*
X273000Y208500D02*
D03*
X200000D02*
D03*
X235500D02*
D03*
D26*
X262500Y198504D02*
D03*
Y186496D02*
D03*
X250000Y198504D02*
D03*
Y186496D02*
D03*
X212500Y198504D02*
D03*
Y186496D02*
D03*
X225000Y198504D02*
D03*
Y186496D02*
D03*
D27*
X71500Y98500D02*
D03*
Y106500D02*
D03*
X63500Y98500D02*
D03*
Y106500D02*
D03*
X88500Y161500D02*
D03*
Y153500D02*
D03*
X96500D02*
D03*
Y161500D02*
D03*
X107500Y149000D02*
D03*
Y141000D02*
D03*
X175000Y174000D02*
D03*
Y182000D02*
D03*
X201500Y187000D02*
D03*
Y195000D02*
D03*
X200500Y128500D02*
D03*
Y136500D02*
D03*
X300000Y81000D02*
D03*
Y73000D02*
D03*
X378000Y34000D02*
D03*
Y26000D02*
D03*
X300000Y39000D02*
D03*
Y31000D02*
D03*
X13500Y52500D02*
D03*
Y60500D02*
D03*
D28*
X27500Y161000D02*
D03*
Y169000D02*
D03*
D29*
X179500Y161941D02*
D03*
Y142059D02*
D03*
D30*
X183500Y202500D02*
D03*
X191500D02*
D03*
D31*
X212000Y162043D02*
D03*
Y154957D02*
D03*
X370000Y33543D02*
D03*
Y26457D02*
D03*
X331500Y31457D02*
D03*
Y38543D02*
D03*
X323500Y31457D02*
D03*
Y38543D02*
D03*
D32*
X235000Y161500D02*
D03*
D33*
X229193Y156776D02*
D03*
Y158350D02*
D03*
Y159925D02*
D03*
Y161500D02*
D03*
Y163075D02*
D03*
Y164650D02*
D03*
Y166224D02*
D03*
X240807D02*
D03*
Y164650D02*
D03*
Y163075D02*
D03*
Y161500D02*
D03*
Y159925D02*
D03*
Y158350D02*
D03*
Y156776D02*
D03*
D34*
X258524Y132500D02*
D03*
D35*
X232677Y123484D02*
D03*
Y141516D02*
D03*
D36*
X273248Y48610D02*
D03*
Y52547D02*
D03*
Y50579D02*
D03*
Y56484D02*
D03*
Y54516D02*
D03*
Y60421D02*
D03*
Y58453D02*
D03*
X291752D02*
D03*
Y60421D02*
D03*
Y62390D02*
D03*
Y54516D02*
D03*
Y56484D02*
D03*
Y50579D02*
D03*
Y52547D02*
D03*
Y48610D02*
D03*
X273248Y62390D02*
D03*
D37*
X282500Y55500D02*
D03*
D38*
X362500Y26500D02*
D03*
Y33500D02*
D03*
D39*
X379528Y8071D02*
D03*
Y14764D02*
D03*
X357480D02*
D03*
Y8071D02*
D03*
D40*
X346457Y27362D02*
D03*
Y22244D02*
D03*
Y12244D02*
D03*
Y17362D02*
D03*
D41*
X260339Y62500D02*
D03*
X252661D02*
D03*
D42*
X209000Y55000D02*
D03*
Y59500D02*
D03*
X135500D02*
D03*
Y55000D02*
D03*
D44*
X49409Y83925D02*
D03*
Y85500D02*
D03*
Y87075D02*
D03*
Y88650D02*
D03*
Y90224D02*
D03*
Y91799D02*
D03*
Y93374D02*
D03*
Y94949D02*
D03*
Y96524D02*
D03*
Y98098D02*
D03*
Y99673D02*
D03*
Y101248D02*
D03*
Y102823D02*
D03*
Y104398D02*
D03*
X21929D02*
D03*
Y102823D02*
D03*
Y101248D02*
D03*
Y99673D02*
D03*
Y98098D02*
D03*
Y96524D02*
D03*
Y94949D02*
D03*
Y93374D02*
D03*
Y91799D02*
D03*
Y90224D02*
D03*
Y88650D02*
D03*
Y87075D02*
D03*
Y85500D02*
D03*
Y83925D02*
D03*
D45*
X27008Y80382D02*
D03*
X28583D02*
D03*
X30158D02*
D03*
X31732D02*
D03*
X33307D02*
D03*
X34882D02*
D03*
X36457D02*
D03*
X38032D02*
D03*
X39606D02*
D03*
X41181D02*
D03*
X42756D02*
D03*
X44331D02*
D03*
X45906D02*
D03*
Y107941D02*
D03*
X44331D02*
D03*
X42756D02*
D03*
X41181D02*
D03*
X39606D02*
D03*
X38032D02*
D03*
X36457D02*
D03*
X34882D02*
D03*
X33307D02*
D03*
X31732D02*
D03*
X30158D02*
D03*
X28583D02*
D03*
X27008D02*
D03*
X25433D02*
D03*
D46*
X41575Y86799D02*
D03*
X29961D02*
D03*
D47*
X25433Y80382D02*
D03*
D48*
X35669Y98216D02*
D03*
D49*
X30512Y33779D02*
D03*
X26575D02*
D03*
X28543D02*
D03*
X24606D02*
D03*
X32480D02*
D03*
X34449D02*
D03*
X36417D02*
D03*
X38386D02*
D03*
X22638D02*
D03*
X20669D02*
D03*
X18701D02*
D03*
X16732D02*
D03*
D50*
X27559Y15748D02*
D03*
Y3543D02*
D03*
D51*
X271000Y132000D02*
D03*
X275500D02*
D03*
D52*
X280250Y176500D02*
D03*
Y169500D02*
D03*
D53*
X287750Y176500D02*
D03*
Y169500D02*
D03*
D91*
X70000Y67512D02*
Y69677D01*
X68425Y67512D02*
Y69677D01*
X66850Y67512D02*
Y69677D01*
X71575Y67512D02*
Y69677D01*
X73150Y67512D02*
Y69677D01*
X74823Y77650D02*
X76988D01*
X74823Y76075D02*
X76988D01*
X74823Y71350D02*
X76988D01*
X74823Y72925D02*
X76988D01*
X74823Y74500D02*
X76988D01*
X66850Y79323D02*
Y81488D01*
X68425Y79323D02*
Y81488D01*
X73150Y79323D02*
Y81488D01*
X71575Y79323D02*
Y81488D01*
X70000Y79323D02*
Y81488D01*
X63012Y71350D02*
X65177D01*
X63012Y72925D02*
X65177D01*
X63012Y77650D02*
X65177D01*
X63012Y76075D02*
X65177D01*
X63012Y74500D02*
X65177D01*
D92*
X72027Y76526D02*
D03*
X72027Y72471D02*
D03*
X67972Y72471D02*
D03*
X67972Y76526D02*
D03*
%TF.MD5,5b81bca104b87d6dcbfac2c0dd619891*%
M02*
