M48
;Layer_Color=6321
;FILE_FORMAT=2:5
INCH,TZ
;TYPE=PLATED
T1F00S00C0.00787
T2F00S00C0.01181
T3F00S00C0.01200
T4F00S00C0.01575
T5F00S00C0.02362
T6F00S00C0.02800
T7F00S00C0.03000
T8F00S00C0.03800
T9F00S00C0.03937
T10F00S00C0.09000
;TYPE=NON_PLATED
T11F00S00C0.04331
T12F00S00C0.04724
%
T01
X170197Y174697
X174528
Y179027
X172362Y176862
X170197Y179027
T02
X128795Y187287
X132295
X135795
Y191287
X132295
X128795
Y195787
X134295
X140795
X140295Y191287
X143795
X147295
Y187287
X143795
X140295
X146795Y195787
X143795Y200787
X137795
X131795
X134295Y205787
X128795
X140795
X146795
T03
X129362Y147362
X136362Y144862
Y141362
X140362
Y144862
X152862Y136362
Y132862
Y129362
X159862Y129862
X243362Y155862
X355862Y138362
X357362Y125362
X362362
X364862Y122362
X359862
X354862
X367362Y131362
X370862Y128362
X379862Y136862
X374862Y142862
X380862Y154362
X384862
X388862
X386862Y132362
X390362Y129362
X413862Y154862
X442362Y145862
X447362
X452362
X457362
X462362
X458362Y132862
X457862Y125862
X443862Y177362
X426362
X413862Y162862
X407862Y164362
Y160362
Y168362
X396362Y179362
X392362Y177362
X384862Y187768
X377362Y197362
X375362Y199362
X371362Y196362
X366862
X368862Y176362
X384862Y157862
X388862
X402443Y193362
X393862Y207362
X389862
X393862Y211362
X375862Y224862
Y229362
Y239862
Y244862
Y249862
X374862Y271862
X378362Y278862
X355862Y268862
X352362Y265862
Y258862
X337362Y260319
Y263862
Y267406
X322362Y269862
X323362Y263862
Y258862
X324862Y243862
X319862
X314862
Y237362
Y232362
X319862
X324862
X329862
Y237362
X324862
X319862
X338737Y217362
X342612
X346362Y217362
X303362Y210862
X294862Y205862
Y196362
Y191862
X278862Y195362
X274862
X270862
Y201362
X274862
X278862
X274862Y184362
X270862
X254862Y191862
Y196362
Y205862
X246362Y210862
X240862Y223362
X236862
Y227362
X240862
X244862
X223362Y235862
X220362Y232862
X216862Y229862
X211862
X206862
X199862Y229362
X189862Y234862
Y239862
X184862
Y234862
X187362Y237362
X185825Y223362
X180862Y224362
X188862Y220362
X175362Y232362
X167362Y233862
Y237862
Y241862
Y245862
X171862Y256362
X172862Y272362
X167862
Y277362
X172862
X159862Y267362
X184362Y264862
X190862Y250862
X201862Y272362
X206862
X211862
Y277362
X206862
X201862
X217862Y263862
X223362Y243362
X262362Y242862
X267362
X272362
X277362
X274862Y239362
X269862
X264862
X265862Y281362
X294862
Y276862
X299862
Y281362
X292862Y293362
X286862
X310362Y243862
X309862Y237362
Y232362
X302362Y156862
X210362Y165362
X206362
X196362Y174362
Y178362
X191862Y191362
Y193862
X186862
Y190862
X183862
X180862
Y193862
X183862
X171362Y191862
X167862Y192862
X162362Y189362
Y185362
Y181362
X164362Y169862
Y166862
X165362Y160362
X173362Y163362
X177362Y164862
X178362Y156862
X158862Y201862
X156368Y202035
X158362Y221862
X162362Y221362
X167362Y225862
Y229862
X211362Y203362
Y200862
X214862Y197862
X210362Y194862
X206362
X154862Y221862
X151862Y218862
X147362
X142862
X119862Y195758
Y191012
X121362Y181362
X117862
Y177862
X121362
X124862
Y181362
X125362Y161362
X128862
X132362
Y157862
X128862
X125362
X135362Y166362
X138362Y168862
Y172362
X145362Y173362
Y170362
Y167362
X148862
Y170362
Y173362
X141362Y166362
X117304Y263362
X112362Y264862
Y261362
Y268362
Y271862
Y275362
X117304Y271362
X142862Y309862
X182362Y313362
X187362
X192362
T04
X120472Y128464
X123622
X126772
X125197Y131220
X128347
X131496
X134646
X137795
X140945Y131102
X139370Y128346
X136221Y128464
X133071
X122047Y131220
X118898
T05
X113110Y108071
Y126693
X146732
Y108071
T06
X309362Y141862
X314862Y147862
X319862Y153862
X337362Y153362
Y145862
Y138362
Y130862
X345362
Y138362
Y145862
Y153362
X347362Y279862
X354862
X362362
X369862
X334862
X327362
X319862
Y308862
X327362
X344862
X352362
X359862
X312362
Y279862
X259862Y299862
Y307362
X252362
X244862
Y299862
X252362
X226362Y301862
X218862Y301362
X211362
X203362
X207362Y307362
X214862
X222362
X229862
X172362
X164862
X157362
X160862Y301362
X168862
X153362
X149862Y307362
X124362
X117362
Y299862
X124362
Y292362
X117362
T07
X472126Y164862
X462283
X452441
X442598
T08
X183000Y149591
X192800
X200700
X210400
X253867
X263667
X271567
X281266
T09
X472075Y188862
X462232
X452390
X442547
X432705
X422862
X304362Y253362
Y263362
T10
X171000Y138991
X222700
X241866
X293566
T11
X448819Y133858
T12
X448819Y107874
M30
