%TF.GenerationSoftware,Altium Limited,CircuitMaker,2.0.2 (2.0.2.40)*%
G04 Layer_Physical_Order=1*
G04 Layer_Color=25308*
%FSLAX25Y25*%
%MOIN*%
%TF.SameCoordinates,55457101-24DF-47E6-B24E-7804918367A6*%
%TF.FilePolarity,Positive*%
%TF.FileFunction,Copper,L1,Top,Signal*%
%TF.Part,Single*%
G01*
G75*
%TA.AperFunction,SMDPad,CuDef*%
%ADD10R,0.04000X0.05800*%
%ADD11R,0.03937X0.05315*%
G04:AMPARAMS|DCode=12|XSize=59.05mil|YSize=17.72mil|CornerRadius=0.89mil|HoleSize=0mil|Usage=FLASHONLY|Rotation=0.000|XOffset=0mil|YOffset=0mil|HoleType=Round|Shape=RoundedRectangle|*
%AMROUNDEDRECTD12*
21,1,0.05905,0.01595,0,0,0.0*
21,1,0.05728,0.01772,0,0,0.0*
1,1,0.00177,0.02864,-0.00797*
1,1,0.00177,-0.02864,-0.00797*
1,1,0.00177,-0.02864,0.00797*
1,1,0.00177,0.02864,0.00797*
%
%ADD12ROUNDEDRECTD12*%
%ADD13R,0.09685X0.09094*%
%ADD14R,0.07874X0.07087*%
%ADD15R,0.16142X0.13780*%
%ADD16R,0.01968X0.02362*%
%ADD17R,0.06988X0.09646*%
%ADD18R,0.02362X0.01181*%
%ADD19R,0.02362X0.01968*%
%ADD20R,0.09646X0.06988*%
%ADD21R,0.01181X0.02362*%
%ADD22R,0.10236X0.10236*%
%ADD23R,0.02362X0.00886*%
%ADD24R,0.00886X0.02362*%
%ADD25R,0.03937X0.10000*%
%ADD26R,0.06890X0.05118*%
%ADD27R,0.05800X0.04000*%
%ADD28R,0.15000X0.03000*%
G04:AMPARAMS|DCode=29|XSize=132.28mil|YSize=54.33mil|CornerRadius=9.78mil|HoleSize=0mil|Usage=FLASHONLY|Rotation=90.000|XOffset=0mil|YOffset=0mil|HoleType=Round|Shape=RoundedRectangle|*
%AMROUNDEDRECTD29*
21,1,0.13228,0.03477,0,0,90.0*
21,1,0.11272,0.05433,0,0,90.0*
1,1,0.01956,0.01739,0.05636*
1,1,0.01956,0.01739,-0.05636*
1,1,0.01956,-0.01739,-0.05636*
1,1,0.01956,-0.01739,0.05636*
%
%ADD29ROUNDEDRECTD29*%
%ADD30R,0.03000X0.15000*%
%ADD31R,0.05315X0.03937*%
%ADD32R,0.07008X0.09252*%
%ADD33R,0.02756X0.00984*%
%ADD34R,0.22835X0.22835*%
%ADD35R,0.11811X0.06299*%
%ADD36R,0.02362X0.01181*%
%ADD37R,0.13583X0.13583*%
%ADD38R,0.05600X0.03500*%
%ADD39R,0.04724X0.03937*%
%ADD40R,0.03150X0.02362*%
%ADD41R,0.05315X0.06102*%
%ADD42R,0.03543X0.03347*%
%ADD43R,0.07087X0.07087*%
%ADD44O,0.03150X0.00787*%
%ADD45O,0.00787X0.03150*%
%ADD46R,0.10039X0.06890*%
%ADD47R,0.00787X0.03150*%
%ADD48R,0.21654X0.13386*%
%TA.AperFunction,ConnectorPad*%
G04:AMPARAMS|DCode=49|XSize=11.81mil|YSize=47.24mil|CornerRadius=0.06mil|HoleSize=0mil|Usage=FLASHONLY|Rotation=0.000|XOffset=0mil|YOffset=0mil|HoleType=Round|Shape=RoundedRectangle|*
%AMROUNDEDRECTD49*
21,1,0.01181,0.04713,0,0,0.0*
21,1,0.01169,0.04724,0,0,0.0*
1,1,0.00012,0.00585,-0.02356*
1,1,0.00012,-0.00585,-0.02356*
1,1,0.00012,-0.00585,0.02356*
1,1,0.00012,0.00585,0.02356*
%
%ADD49ROUNDEDRECTD49*%
%TA.AperFunction,SMDPad,CuDef*%
G04:AMPARAMS|DCode=50|XSize=7.87mil|YSize=39.37mil|CornerRadius=0.04mil|HoleSize=0mil|Usage=FLASHONLY|Rotation=0.000|XOffset=0mil|YOffset=0mil|HoleType=Round|Shape=RoundedRectangle|*
%AMROUNDEDRECTD50*
21,1,0.00787,0.03929,0,0,0.0*
21,1,0.00779,0.03937,0,0,0.0*
1,1,0.00008,0.00390,-0.01965*
1,1,0.00008,-0.00390,-0.01965*
1,1,0.00008,-0.00390,0.01965*
1,1,0.00008,0.00390,0.01965*
%
%ADD50ROUNDEDRECTD50*%
%ADD51R,0.03347X0.03543*%
%ADD52R,0.03000X0.04000*%
%ADD53R,0.09004X0.04000*%
%TA.AperFunction,Conductor*%
%ADD54C,0.02000*%
%ADD55C,0.06000*%
%ADD56C,0.14000*%
%ADD57C,0.01000*%
%ADD58C,0.16000*%
%ADD59C,0.00800*%
%ADD60C,0.01500*%
%ADD61C,0.03000*%
%ADD62C,0.02500*%
%ADD63C,0.04000*%
%ADD64C,0.08000*%
%ADD65C,0.01800*%
%ADD66C,0.00600*%
%ADD67C,0.01200*%
%ADD68C,0.00900*%
%ADD69C,0.10000*%
%ADD70C,0.01700*%
%ADD71R,0.13386X0.19685*%
%TA.AperFunction,NonConductor*%
%ADD72R,0.04000X0.02900*%
%TA.AperFunction,Conductor*%
%ADD73R,0.02900X0.04000*%
%TA.AperFunction,ComponentPad*%
%ADD74R,0.07874X0.07874*%
%ADD75C,0.07874*%
%ADD76R,0.06299X0.06299*%
%ADD77C,0.06299*%
%ADD78C,0.06000*%
%ADD79C,0.02559*%
%ADD80C,0.04724*%
%TA.AperFunction,WasherPad*%
%ADD81C,0.04724*%
%ADD82C,0.04331*%
%TA.AperFunction,ComponentPad*%
%ADD83C,0.14000*%
%ADD84O,0.06000X0.08000*%
%TA.AperFunction,ViaPad*%
%ADD85C,0.02400*%
%ADD86C,0.01968*%
%ADD87C,0.02362*%
%ADD88C,0.05000*%
G36*
X267500Y194000D02*
X232000D01*
Y214500D01*
X267500D01*
Y194000D01*
D02*
G37*
G36*
X230000D02*
X190000D01*
Y214500D01*
X230000D01*
Y194000D01*
D02*
G37*
G36*
X269000Y214861D02*
X268851Y214500D01*
Y194000D01*
X269041Y193541D01*
X269500Y193351D01*
X276351Y193351D01*
X276351Y181500D01*
X276541Y181041D01*
X277000Y180851D01*
X282350Y180851D01*
X282351Y179600D01*
X281851Y179100D01*
X278150D01*
Y177622D01*
X277424D01*
X277020Y178026D01*
X276358Y178300D01*
X275642D01*
X274980Y178026D01*
X274474Y177520D01*
X274200Y176858D01*
Y176142D01*
X274474Y175480D01*
X274980Y174974D01*
X275642Y174700D01*
X276358D01*
X277020Y174974D01*
X277424Y175378D01*
X278150D01*
Y173900D01*
X282148D01*
X282648Y173900D01*
X282850Y173900D01*
X291339D01*
Y172500D01*
X288250D01*
Y169500D01*
Y168500D01*
X292500D01*
Y152500D01*
X276500D01*
Y156000D01*
X268131D01*
Y156500D01*
X269100D01*
Y163500D01*
X263900D01*
Y156500D01*
X264869D01*
Y156000D01*
X251895D01*
X251800Y156142D01*
Y156858D01*
X251526Y157520D01*
X251020Y158026D01*
X250358Y158300D01*
X249980D01*
X249909Y158406D01*
X250177Y158906D01*
X255900D01*
Y156500D01*
X261100D01*
Y163500D01*
X255900D01*
Y160945D01*
X249702D01*
X249576Y161143D01*
X249486Y161423D01*
X249709Y161700D01*
X250358D01*
X251020Y161974D01*
X251526Y162480D01*
X251800Y163142D01*
Y163858D01*
X251526Y164520D01*
X251347Y164698D01*
X251554Y165198D01*
X252256D01*
X252480Y164974D01*
X253142Y164700D01*
X253858D01*
X254520Y164974D01*
X254744Y165198D01*
X255900D01*
Y164500D01*
X261100D01*
Y171351D01*
X261455Y171851D01*
X263500D01*
Y168500D01*
X266500D01*
X269500D01*
Y171851D01*
X273000D01*
X273459Y172041D01*
X273649Y172500D01*
Y191500D01*
X273459Y191959D01*
X273000Y192149D01*
X239500D01*
X239041Y191959D01*
X238851Y191500D01*
Y167316D01*
X238829D01*
Y167126D01*
X235721D01*
X235500Y167218D01*
Y165043D01*
X234500D01*
Y167218D01*
X234279Y167126D01*
X231171D01*
Y167316D01*
X227215D01*
Y167244D01*
X221800D01*
Y167858D01*
X221526Y168520D01*
X221020Y169026D01*
X220358Y169300D01*
X219642D01*
X218980Y169026D01*
X218474Y168520D01*
X218200Y167858D01*
Y167142D01*
X218474Y166480D01*
X218785Y166169D01*
X218693Y165829D01*
X218590Y165657D01*
X218259Y165592D01*
X217929Y165371D01*
X217121Y164563D01*
X215258D01*
Y164612D01*
X208742D01*
Y164563D01*
X206537D01*
Y165537D01*
X197463D01*
Y156463D01*
X197463D01*
X197374Y156000D01*
X195000D01*
Y120079D01*
X210900D01*
Y120000D01*
X216100D01*
Y120079D01*
X218900D01*
Y120000D01*
X224100D01*
Y120079D01*
X226172D01*
Y119735D01*
X229878D01*
Y118875D01*
X229878Y118875D01*
X229967Y118196D01*
X230229Y117564D01*
X230646Y117021D01*
X234521Y113146D01*
X234521Y113146D01*
X235064Y112729D01*
X235696Y112467D01*
X236375Y112378D01*
X236375Y112378D01*
X244000D01*
X244000Y112378D01*
X244679Y112467D01*
X244759Y112500D01*
X247500D01*
Y91428D01*
Y55000D01*
Y25000D01*
Y22129D01*
X247462Y22038D01*
X247371Y22000D01*
X207471D01*
X207471Y22000D01*
X207342D01*
X207233Y22473D01*
X207234Y22599D01*
X228926Y44291D01*
X229503Y45043D01*
X229866Y45919D01*
X229989Y46858D01*
Y79500D01*
Y100857D01*
X230895D01*
Y109143D01*
X222013D01*
Y115827D01*
X221936Y116215D01*
X221716Y116543D01*
X221388Y116763D01*
X221000Y116840D01*
X214000D01*
X213612Y116763D01*
X213284Y116543D01*
X213064Y116215D01*
X212987Y115827D01*
Y109143D01*
X205515D01*
X205500Y109149D01*
X202679D01*
X202526Y109520D01*
X202020Y110026D01*
X201358Y110300D01*
X200642D01*
X199980Y110026D01*
X199474Y109520D01*
X199200Y108858D01*
Y108142D01*
X199353Y107772D01*
X194800Y103218D01*
X194300Y103426D01*
Y103858D01*
X194026Y104520D01*
X193520Y105026D01*
X192858Y105300D01*
X192142D01*
X191480Y105026D01*
X191149Y104695D01*
X190649Y104902D01*
Y110000D01*
X190459Y110459D01*
X187959Y112959D01*
X187500Y113149D01*
X178148D01*
Y130657D01*
X178422Y130740D01*
X179743Y131446D01*
X180900Y132395D01*
X181850Y133553D01*
X182555Y134873D01*
X182990Y136305D01*
X183137Y137795D01*
X182990Y139285D01*
X182847Y139755D01*
Y147695D01*
X182725Y148311D01*
X182376Y148833D01*
X181854Y149182D01*
X181239Y149304D01*
X177761D01*
X177146Y149182D01*
X176624Y148833D01*
X176275Y148311D01*
X176153Y147695D01*
Y145740D01*
X175782Y145404D01*
X175500Y145432D01*
X152137D01*
Y148000D01*
X155600D01*
Y155000D01*
X152137D01*
Y156000D01*
X155600D01*
Y163000D01*
X152137D01*
Y164000D01*
X155600D01*
Y171000D01*
X152137D01*
Y171851D01*
X157881D01*
X158000Y171400D01*
X158000Y171351D01*
Y168000D01*
X161000D01*
X162500D01*
Y171400D01*
X161242D01*
X161143Y171900D01*
X161483Y172041D01*
X161673Y172500D01*
Y177574D01*
X162173Y177781D01*
X162480Y177474D01*
X163142Y177200D01*
X163858D01*
X164520Y177474D01*
X165026Y177980D01*
X165300Y178642D01*
Y179358D01*
X165026Y180020D01*
X164520Y180526D01*
X164520Y180526D01*
Y182596D01*
X164821Y182971D01*
X165209D01*
X165500Y182851D01*
X171500D01*
Y179400D01*
X178500D01*
Y183139D01*
X178649Y183500D01*
Y189731D01*
X182269Y193351D01*
X183378D01*
Y192424D01*
X182974Y192020D01*
X182700Y191358D01*
Y190642D01*
X182974Y189980D01*
X183378Y189576D01*
Y188500D01*
X180900D01*
Y181500D01*
X186100D01*
Y188500D01*
X185622D01*
Y189576D01*
X186026Y189980D01*
X186300Y190642D01*
Y191358D01*
X186026Y192020D01*
X185622Y192424D01*
Y193933D01*
X185649Y194000D01*
Y210000D01*
X185600Y210119D01*
Y210600D01*
X185119D01*
X185000Y210649D01*
X168898D01*
X168438Y210459D01*
X168248Y210000D01*
Y193029D01*
X164719D01*
Y192858D01*
X164339D01*
X163948Y192781D01*
X163618Y192560D01*
X162889Y191831D01*
X162454Y191967D01*
X162389Y192016D01*
Y193423D01*
X162084D01*
Y195293D01*
X161673D01*
Y210000D01*
X161483Y210459D01*
X161024Y210649D01*
X137500D01*
X137041Y210459D01*
X136851Y210000D01*
Y193423D01*
X136611D01*
Y182577D01*
X136851D01*
Y172500D01*
X136863Y172469D01*
Y171500D01*
X135400D01*
X135020Y171789D01*
Y178500D01*
X134942Y178890D01*
X134721Y179221D01*
X133520Y180422D01*
Y182971D01*
X134281D01*
Y185352D01*
X134281Y185352D01*
Y185530D01*
X134281D01*
X134281Y185852D01*
Y187911D01*
X134281D01*
Y188089D01*
X134281D01*
Y190470D01*
X134281D01*
X134179Y190648D01*
Y193029D01*
X134149D01*
Y210000D01*
X133959Y210459D01*
X133500Y210649D01*
X95500D01*
X95041Y210459D01*
X94851Y210000D01*
Y180000D01*
X95030Y179567D01*
Y179510D01*
X95114D01*
X95500Y179351D01*
X114577D01*
Y179111D01*
X125423D01*
Y179351D01*
X129000D01*
X129459Y179541D01*
X129649Y180000D01*
Y185351D01*
X130719D01*
Y182971D01*
X131480D01*
Y180000D01*
X131558Y179610D01*
X131779Y179279D01*
X132980Y178078D01*
Y171900D01*
X130500D01*
Y168000D01*
X130000D01*
Y167500D01*
X127000D01*
Y164100D01*
X127000D01*
Y163900D01*
X127000D01*
Y160500D01*
X130000D01*
Y159500D01*
X127000D01*
Y156100D01*
X127000D01*
Y155900D01*
X127000D01*
Y152500D01*
X130000D01*
Y152000D01*
X130500D01*
Y148100D01*
X132005D01*
X132196Y147638D01*
X130578Y146020D01*
X111289D01*
X111000Y146400D01*
Y151600D01*
X104000D01*
Y150020D01*
X95669D01*
X95461Y150520D01*
X95842Y150900D01*
X100000D01*
Y152480D01*
X117500D01*
X117890Y152558D01*
X118221Y152779D01*
X124559Y159118D01*
X124781Y159448D01*
X124858Y159839D01*
Y173219D01*
X125029D01*
Y176781D01*
X122870D01*
Y177181D01*
X121780D01*
Y175000D01*
Y172819D01*
X122819D01*
Y160261D01*
X117078Y154520D01*
X100000D01*
Y156100D01*
X100385Y156378D01*
X111500D01*
X111500Y156378D01*
X111929Y156464D01*
X112293Y156707D01*
X115286Y159700D01*
X115858D01*
X116520Y159974D01*
X117026Y160480D01*
X117300Y161142D01*
Y161858D01*
X117026Y162520D01*
X116520Y163026D01*
X115858Y163300D01*
X115142D01*
X114480Y163026D01*
X113974Y162520D01*
X113700Y161858D01*
Y161286D01*
X111035Y158622D01*
X100400D01*
Y161000D01*
X96500D01*
Y161500D01*
X96000D01*
Y164500D01*
X92600D01*
Y164500D01*
X92400D01*
Y164500D01*
X89000D01*
Y161500D01*
X88500D01*
Y161000D01*
X84600D01*
Y160139D01*
X84138Y159948D01*
X83122Y160965D01*
Y161076D01*
X83526Y161480D01*
X83800Y162142D01*
Y162858D01*
X83526Y163520D01*
X83020Y164026D01*
X82358Y164300D01*
X81642D01*
X80980Y164026D01*
X80474Y163520D01*
X80200Y162858D01*
Y162142D01*
X80474Y161480D01*
X80722Y161232D01*
X80684Y160965D01*
X80155Y160787D01*
X75221Y165721D01*
X74890Y165942D01*
X74500Y166020D01*
X61422D01*
X54529Y172913D01*
Y176281D01*
X52370D01*
Y176681D01*
X51279D01*
Y174500D01*
Y172319D01*
X52370D01*
X52395Y172281D01*
X52397Y172271D01*
X52618Y171941D01*
X57296Y167262D01*
X57078Y166773D01*
X56480Y166526D01*
X55974Y166020D01*
X55700Y165358D01*
Y164642D01*
X55974Y163980D01*
X56480Y163474D01*
X57142Y163200D01*
X57858D01*
X57858Y163200D01*
X61779Y159279D01*
X61900Y159198D01*
Y156500D01*
X63480D01*
Y154000D01*
X63558Y153610D01*
X63779Y153279D01*
X67779Y149279D01*
X68110Y149058D01*
X68500Y148980D01*
X74078D01*
X78445Y144613D01*
Y141555D01*
X75345D01*
Y141531D01*
X73410D01*
X61721Y153221D01*
X61390Y153442D01*
X61112Y153497D01*
Y155757D01*
X55975D01*
Y149242D01*
X57878D01*
Y148000D01*
X56400D01*
Y141000D01*
X61600D01*
Y148000D01*
X60122D01*
Y149242D01*
X61112D01*
Y150293D01*
X61574Y150484D01*
X71640Y140419D01*
X71448Y139957D01*
X69985D01*
X66800Y143142D01*
X66800Y143142D01*
Y143858D01*
X66526Y144520D01*
X66020Y145026D01*
X65358Y145300D01*
X64642D01*
X63980Y145026D01*
X63474Y144520D01*
X63200Y143858D01*
Y143142D01*
X63474Y142480D01*
X63980Y141974D01*
X64492Y141762D01*
Y141238D01*
X63980Y141026D01*
X63474Y140520D01*
X63200Y139858D01*
Y139142D01*
X63474Y138480D01*
X63980Y137974D01*
X64492Y137762D01*
Y137238D01*
X63980Y137026D01*
X63474Y136520D01*
X63200Y135858D01*
Y135142D01*
X63474Y134480D01*
X63980Y133974D01*
X64492Y133762D01*
Y133238D01*
X63980Y133026D01*
X63474Y132520D01*
X63200Y131858D01*
Y131142D01*
X63474Y130480D01*
X63980Y129974D01*
X64492Y129762D01*
Y129238D01*
X63980Y129026D01*
X63474Y128520D01*
X63200Y127858D01*
Y127142D01*
X63474Y126480D01*
X63980Y125974D01*
X64492Y125762D01*
Y125238D01*
X63980Y125026D01*
X63474Y124520D01*
X63200Y123858D01*
Y123142D01*
X63336Y122813D01*
X62912Y122529D01*
X60661Y124781D01*
X60853Y125242D01*
X61112D01*
Y131757D01*
X60020D01*
Y133000D01*
X61600D01*
Y140000D01*
X56400D01*
Y133000D01*
X57980D01*
Y131757D01*
X55975D01*
Y131149D01*
X54469D01*
X54068Y131417D01*
Y131757D01*
X53131D01*
Y133000D01*
X53600D01*
Y140000D01*
X48400D01*
Y133000D01*
X49869D01*
Y131757D01*
X48932D01*
Y131417D01*
X48531Y131149D01*
X44256D01*
X44195Y131124D01*
X44129Y131137D01*
X43972Y131032D01*
X43797Y130959D01*
X43771Y130898D01*
X43716Y130861D01*
X43685Y130815D01*
X43371Y130605D01*
X43000Y130531D01*
X42629Y130605D01*
X42315Y130815D01*
X42284Y130861D01*
X42229Y130898D01*
X42203Y130959D01*
X42028Y131032D01*
X41871Y131137D01*
X41805Y131124D01*
X41744Y131149D01*
X35137D01*
Y133000D01*
X37600D01*
Y140000D01*
X35137D01*
Y141000D01*
X37600D01*
Y148000D01*
X35137D01*
Y149000D01*
X37600D01*
Y156000D01*
X35149D01*
Y158900D01*
X35600D01*
Y163100D01*
X19400D01*
Y162122D01*
X16366D01*
X15962Y162526D01*
X15300Y162800D01*
X14584D01*
X13922Y162526D01*
X13416Y162020D01*
X13142Y161358D01*
Y160642D01*
X13416Y159980D01*
X13922Y159474D01*
X14584Y159200D01*
X15300D01*
X15962Y159474D01*
X16366Y159878D01*
X19400D01*
Y158900D01*
X19851D01*
Y156000D01*
X17900D01*
Y149000D01*
X19863D01*
Y148000D01*
X17900D01*
Y141000D01*
X19863D01*
Y140000D01*
X17900D01*
Y133000D01*
X18547D01*
X18738Y132538D01*
X3100Y116900D01*
X2150Y115743D01*
X1681Y114865D01*
X1181Y114990D01*
Y215354D01*
X189283D01*
X189497Y214854D01*
X189351Y214500D01*
Y194000D01*
X189378Y193933D01*
Y192424D01*
X188974Y192020D01*
X188700Y191358D01*
Y190642D01*
X188974Y189980D01*
X189378Y189576D01*
Y188500D01*
X188900D01*
Y181500D01*
X194100D01*
Y188500D01*
X191622D01*
Y189576D01*
X192026Y189980D01*
X192300Y190642D01*
Y191358D01*
X192026Y192020D01*
X191622Y192424D01*
Y193351D01*
X198000D01*
Y192400D01*
X205000D01*
Y193351D01*
X230000D01*
X230459Y193541D01*
X230649Y194000D01*
Y214500D01*
X230503Y214854D01*
X230717Y215354D01*
X231283D01*
X231497Y214854D01*
X231351Y214500D01*
Y194000D01*
X231541Y193541D01*
X232000Y193351D01*
X267500D01*
X267959Y193541D01*
X268149Y194000D01*
Y214500D01*
X268003Y214854D01*
X268217Y215354D01*
X269000D01*
Y214861D01*
D02*
G37*
G36*
X185000Y194000D02*
X182000D01*
X178000Y190000D01*
Y183500D01*
X165500D01*
Y190000D01*
X168898D01*
Y210000D01*
X185000D01*
Y194000D01*
D02*
G37*
G36*
X133500Y186000D02*
X129000D01*
Y180000D01*
X95500D01*
Y210000D01*
X133500D01*
Y186000D01*
D02*
G37*
G36*
X290021Y214366D02*
X290658Y214102D01*
X291231Y213719D01*
X291719Y213231D01*
X292102Y212658D01*
X292366Y212021D01*
X292500Y211345D01*
Y211000D01*
X292500Y180000D01*
X292500Y178000D01*
X283000Y178000D01*
X283000Y181500D01*
X277000Y181500D01*
X277000Y194000D01*
X269500Y194000D01*
Y214500D01*
X289345D01*
X290021Y214366D01*
D02*
G37*
G36*
X161024Y172500D02*
X137500D01*
Y210000D01*
X161024D01*
Y172500D01*
D02*
G37*
G36*
X273000Y172500D02*
X246000Y172500D01*
Y167000D01*
X243500Y164500D01*
X239500D01*
Y191500D01*
X273000D01*
Y172500D01*
D02*
G37*
G36*
X34500Y154500D02*
X20500D01*
Y161000D01*
X34500D01*
Y154500D01*
D02*
G37*
G36*
X275851Y152500D02*
X275858Y152481D01*
Y148862D01*
X275500Y148778D01*
Y146222D01*
X275858Y146138D01*
Y143862D01*
X275500Y143778D01*
Y135500D01*
X271000D01*
Y143366D01*
X270941Y143377D01*
Y144917D01*
X259024D01*
Y132500D01*
Y120083D01*
X270941D01*
Y121623D01*
Y128500D01*
X275500D01*
Y120721D01*
X274862Y120083D01*
X272920Y118142D01*
X254000D01*
X252314Y117976D01*
X250693Y117484D01*
X249199Y116685D01*
X247889Y115611D01*
X247279Y115000D01*
X246622D01*
X246533Y115679D01*
X246271Y116311D01*
X245854Y116854D01*
X245311Y117271D01*
X244679Y117533D01*
X244000Y117622D01*
X244000Y117622D01*
X237461D01*
X236500Y118584D01*
Y119735D01*
X239183D01*
Y127234D01*
X226172D01*
Y126107D01*
X224100D01*
Y127000D01*
X218900D01*
Y122047D01*
X216500D01*
Y123000D01*
X213500D01*
X210500D01*
Y122047D01*
X197500D01*
Y125500D01*
X200000D01*
Y128500D01*
Y131500D01*
X197500D01*
Y133900D01*
X200329D01*
X200500Y133878D01*
X200671Y133900D01*
X204000D01*
Y136291D01*
X206586Y138878D01*
X208000D01*
X208120Y138893D01*
X226172D01*
Y137766D01*
X239183D01*
Y145265D01*
X226172D01*
Y144138D01*
X207500D01*
X207380Y144122D01*
X205500D01*
X205500Y144123D01*
X204821Y144033D01*
X204189Y143771D01*
X203646Y143354D01*
X203646Y143354D01*
X199391Y139100D01*
X197500D01*
Y147954D01*
X197983Y148084D01*
X198049Y147969D01*
X198969Y147049D01*
X200094Y146399D01*
X201350Y146063D01*
X201500D01*
Y151000D01*
X202000D01*
Y151500D01*
X206937D01*
Y151650D01*
X206601Y152906D01*
X206482Y153110D01*
X206732Y153543D01*
X208742D01*
Y152388D01*
X215258D01*
Y152480D01*
X222000D01*
X222390Y152558D01*
X222721Y152779D01*
X223485Y153543D01*
X247015D01*
X249279Y151279D01*
X249610Y151058D01*
X250000Y150980D01*
X255900D01*
Y148500D01*
X261100D01*
Y153543D01*
X263500D01*
Y152500D01*
X266500D01*
X269500D01*
Y153543D01*
X275851D01*
Y152500D01*
D02*
G37*
G36*
X55975Y125242D02*
X57980D01*
Y125000D01*
X58058Y124610D01*
X58279Y124279D01*
X62779Y119779D01*
X63110Y119558D01*
X63500Y119480D01*
X67000D01*
X67390Y119558D01*
X67721Y119779D01*
X76387Y128445D01*
X78445D01*
Y125345D01*
X80250D01*
X80441Y124883D01*
X79212Y123653D01*
X78858Y123800D01*
X78142D01*
X77480Y123526D01*
X76974Y123020D01*
X76700Y122358D01*
Y121642D01*
X76974Y120980D01*
X77480Y120474D01*
X78142Y120200D01*
X78858D01*
X79520Y120474D01*
X80026Y120980D01*
X80300Y121642D01*
Y121858D01*
X82731Y124289D01*
X83193Y124098D01*
Y122800D01*
X83105D01*
X82443Y122526D01*
X81937Y122020D01*
X81663Y121358D01*
Y120642D01*
X81937Y119980D01*
X81988Y119930D01*
X75078Y113020D01*
X58315D01*
X57925Y112942D01*
X57594Y112721D01*
X50290Y105417D01*
X49409D01*
X49377Y105411D01*
X48228D01*
X47996Y105365D01*
X47590Y105604D01*
X47496Y105705D01*
Y105909D01*
X47134D01*
X46853Y106354D01*
X46849Y106409D01*
X46919Y106760D01*
Y107909D01*
X46925Y107941D01*
Y108983D01*
X53422Y115480D01*
X57500D01*
X57890Y115558D01*
X58221Y115779D01*
X59642Y117200D01*
X59642Y117200D01*
X60358D01*
X61020Y117474D01*
X61526Y117980D01*
X61800Y118642D01*
Y119358D01*
X61526Y120020D01*
X61020Y120526D01*
X60358Y120800D01*
X59642D01*
X58980Y120526D01*
X58639Y120185D01*
X58090Y120249D01*
X58065Y120264D01*
X57865Y120746D01*
X57246Y121365D01*
X56500Y121674D01*
Y119500D01*
X55500D01*
Y121674D01*
X54754Y121365D01*
X54250Y120861D01*
X53746Y121365D01*
X53000Y121674D01*
Y119500D01*
X52500D01*
Y119000D01*
X50326D01*
X50502Y118574D01*
X50119Y118192D01*
X49858Y118300D01*
X49142D01*
X48480Y118026D01*
X47974Y117520D01*
X47700Y116858D01*
Y116642D01*
X47300Y116242D01*
X46800Y116449D01*
Y116858D01*
X46526Y117520D01*
X46020Y118026D01*
X45841Y118100D01*
X45940Y118600D01*
X48500D01*
Y122000D01*
X45500D01*
X42500D01*
Y118600D01*
X44060D01*
X44159Y118100D01*
X43980Y118026D01*
X43474Y117520D01*
X43200Y116858D01*
Y116142D01*
X43200Y116142D01*
X42588Y115529D01*
X42164Y115813D01*
X42300Y116142D01*
Y116858D01*
X42026Y117520D01*
X41520Y118026D01*
X40858Y118300D01*
X40142D01*
X39480Y118026D01*
X38974Y117520D01*
X38700Y116858D01*
Y116142D01*
X38723Y116085D01*
X38664Y115997D01*
X38587Y115606D01*
Y110502D01*
X38087Y110124D01*
X38032Y110135D01*
X37976Y110124D01*
X37476Y110502D01*
Y119000D01*
X40100D01*
Y126000D01*
X34900D01*
Y119000D01*
X35437D01*
Y110942D01*
X35382Y110897D01*
Y107941D01*
X34382D01*
Y110443D01*
X34338Y110435D01*
X34095Y110272D01*
X33851Y110435D01*
X33807Y110443D01*
Y107941D01*
X32807D01*
Y110443D01*
X32763Y110435D01*
X32520Y110272D01*
X32276Y110435D01*
X32232Y110443D01*
Y107941D01*
X31232D01*
Y110443D01*
X31188Y110435D01*
X30945Y110272D01*
X30701Y110435D01*
X30658Y110443D01*
Y107941D01*
X29658D01*
Y110443D01*
X29614Y110435D01*
X29153Y110127D01*
X29128Y110089D01*
X28970Y110058D01*
X28583Y110135D01*
X28195Y110058D01*
X28184Y110051D01*
X27795Y109871D01*
X27407Y110051D01*
X27396Y110058D01*
X27008Y110135D01*
X26620Y110058D01*
X26609Y110051D01*
X26221Y109871D01*
X25832Y110051D01*
X25821Y110058D01*
X25433Y110135D01*
X25045Y110058D01*
X24717Y109838D01*
X24497Y109510D01*
X24420Y109122D01*
Y106760D01*
X24490Y106409D01*
X24486Y106354D01*
X24205Y105909D01*
X23843D01*
Y105705D01*
X23749Y105604D01*
X23343Y105365D01*
X23110Y105411D01*
X20748D01*
X20360Y105334D01*
X20032Y105114D01*
X19812Y104785D01*
X19735Y104398D01*
X19812Y104010D01*
X19781Y103853D01*
X19743Y103828D01*
X19435Y103367D01*
X19426Y103323D01*
X21929D01*
Y103000D01*
X25000D01*
Y98000D01*
X20500D01*
Y100748D01*
X19426D01*
X19435Y100704D01*
X19598Y100461D01*
X19435Y100217D01*
X19392Y100000D01*
X16137D01*
Y108337D01*
X32900Y125100D01*
X33850Y126257D01*
X34556Y127577D01*
X34990Y129010D01*
X35137Y130500D01*
X41744D01*
X41846Y130347D01*
X42376Y129993D01*
X43000Y129869D01*
X43624Y129993D01*
X44153Y130347D01*
X44256Y130500D01*
X48531D01*
Y129000D01*
X51500D01*
X54469D01*
Y130500D01*
X55975D01*
Y125242D01*
D02*
G37*
G36*
X143392Y130305D02*
X144882Y130158D01*
X166852D01*
Y113149D01*
X157500D01*
X157041Y112959D01*
X154541Y110459D01*
X154351Y110000D01*
Y104902D01*
X153851Y104695D01*
X153520Y105026D01*
X152858Y105300D01*
X152142D01*
X151480Y105026D01*
X150974Y104520D01*
X150700Y103858D01*
Y103426D01*
X150200Y103218D01*
X145647Y107772D01*
X145800Y108142D01*
Y108858D01*
X145526Y109520D01*
X145020Y110026D01*
X144358Y110300D01*
X143642D01*
X142980Y110026D01*
X142474Y109520D01*
X142321Y109149D01*
X139500D01*
X139485Y109143D01*
X132013D01*
Y115827D01*
X131936Y116215D01*
X131716Y116543D01*
X131388Y116763D01*
X131000Y116840D01*
X124000D01*
X123612Y116763D01*
X123284Y116543D01*
X123064Y116215D01*
X122987Y115827D01*
Y109143D01*
X114105D01*
Y100857D01*
X115011D01*
Y96000D01*
X114241D01*
X114026Y96520D01*
X113520Y97026D01*
X112858Y97300D01*
X112142D01*
X111480Y97026D01*
X111331Y96876D01*
X110629D01*
X110422Y97376D01*
X110526Y97480D01*
X110800Y98142D01*
Y98858D01*
X110631Y99265D01*
Y100235D01*
X110800Y100642D01*
Y101358D01*
X110526Y102020D01*
X110020Y102526D01*
X109358Y102800D01*
X108642D01*
X107980Y102526D01*
X107474Y102020D01*
X107200Y101358D01*
Y100642D01*
X107204Y100631D01*
X106870Y100131D01*
X96500D01*
X95876Y100007D01*
X95346Y99654D01*
X88888Y93195D01*
X88480Y93026D01*
X87974Y92520D01*
X87700Y91858D01*
Y91142D01*
X87869Y90735D01*
Y89765D01*
X87700Y89358D01*
Y88642D01*
X87974Y87980D01*
X88480Y87474D01*
X89142Y87200D01*
X89858D01*
X90520Y87474D01*
X91026Y87980D01*
X91300Y88642D01*
Y89358D01*
X91131Y89765D01*
Y90735D01*
X91195Y90887D01*
X97176Y96869D01*
X100735D01*
X100800Y96781D01*
X100922Y96369D01*
X97527Y92973D01*
X97228Y92527D01*
X97124Y92000D01*
Y83876D01*
X91600D01*
Y86000D01*
X86400D01*
Y79000D01*
X85995Y78771D01*
X84000D01*
Y82000D01*
X81000D01*
X78000D01*
Y78771D01*
X75906D01*
X75476Y78686D01*
X75442Y78663D01*
X74724D01*
X74543Y78811D01*
Y79043D01*
X74311D01*
X74163Y79224D01*
Y81373D01*
X74169Y81406D01*
Y95900D01*
X75000D01*
Y101100D01*
X69842D01*
X67942Y103000D01*
X68149Y103500D01*
X71000D01*
Y106500D01*
X71500D01*
Y107000D01*
X75400D01*
Y108980D01*
X77500D01*
X77890Y109058D01*
X78221Y109279D01*
X85448Y116506D01*
X85480Y116474D01*
X86142Y116200D01*
X86858D01*
X87520Y116474D01*
X88026Y116980D01*
X88300Y117642D01*
Y118358D01*
X88026Y119020D01*
X87520Y119526D01*
X86858Y119800D01*
X86807D01*
Y124945D01*
X86862D01*
Y127126D01*
X87862D01*
Y124945D01*
X88437D01*
Y127126D01*
X89437D01*
Y124945D01*
X89501D01*
X89570Y124598D01*
X89791Y124267D01*
X90279Y123779D01*
X90500Y123631D01*
Y120500D01*
X93500D01*
X96500D01*
Y123480D01*
X98900D01*
Y116500D01*
X100378D01*
Y115758D01*
X98475D01*
Y110265D01*
X98013Y110073D01*
X96525Y111561D01*
Y115610D01*
X96525Y115758D01*
X96525D01*
X96500Y116100D01*
X96500D01*
Y119500D01*
X93500D01*
X90500D01*
Y116100D01*
X91030D01*
X91388Y115758D01*
Y109242D01*
X91030Y108900D01*
X90500D01*
Y105500D01*
X93500D01*
X96500D01*
Y107761D01*
X96962Y107952D01*
X98900Y106014D01*
Y101500D01*
X104100D01*
Y108500D01*
X99678D01*
X99481Y108749D01*
X99701Y109242D01*
X103612D01*
Y115758D01*
X102622D01*
Y116500D01*
X104100D01*
Y123500D01*
X102520D01*
X102442Y123890D01*
X102221Y124221D01*
X101221Y125221D01*
X100890Y125442D01*
X100500Y125520D01*
X99784D01*
X99475Y126020D01*
X99674Y126500D01*
X97500D01*
Y127500D01*
X99674D01*
X99480Y127969D01*
X99796Y128469D01*
X102090D01*
X102700Y127858D01*
X102700Y127858D01*
Y127142D01*
X102974Y126480D01*
X103480Y125974D01*
X104142Y125700D01*
X104858D01*
X105520Y125974D01*
X106026Y126480D01*
X106300Y127142D01*
Y127858D01*
X106026Y128520D01*
X105520Y129026D01*
X104858Y129300D01*
X104232D01*
X104033Y129551D01*
X104083Y129751D01*
X104275Y130043D01*
X105515D01*
X107700Y127858D01*
X107700Y127858D01*
Y127142D01*
X107974Y126480D01*
X108480Y125974D01*
X109142Y125700D01*
X109858D01*
X110520Y125974D01*
X111026Y126480D01*
X111300Y127142D01*
Y127858D01*
X111026Y128520D01*
X110520Y129026D01*
X109858Y129300D01*
X109142D01*
X109142Y129300D01*
X108404Y130038D01*
X108595Y130500D01*
X110058D01*
X112700Y127858D01*
X112700Y127858D01*
Y127142D01*
X112974Y126480D01*
X113480Y125974D01*
X114142Y125700D01*
X114858D01*
X115520Y125974D01*
X116026Y126480D01*
X116300Y127142D01*
Y127858D01*
X116026Y128520D01*
X115520Y129026D01*
X114858Y129300D01*
X114142D01*
X114142Y129300D01*
X113404Y130038D01*
X113595Y130500D01*
X116200D01*
Y130142D01*
X116474Y129480D01*
X116980Y128974D01*
X117642Y128700D01*
X118358D01*
X119020Y128974D01*
X119526Y129480D01*
X119800Y130142D01*
Y130500D01*
X142750D01*
X143392Y130305D01*
D02*
G37*
G36*
X294000Y104562D02*
X294200D01*
X294582Y103015D01*
X295303Y101475D01*
X296310Y100106D01*
X297566Y98960D01*
X299020Y98081D01*
X300618Y97503D01*
X302299Y97247D01*
X303150Y97244D01*
X392520D01*
Y5118D01*
X382769D01*
X382490Y5502D01*
X382490Y5618D01*
Y10639D01*
X376565D01*
Y9192D01*
X360442D01*
Y10639D01*
X354518D01*
X354121Y10889D01*
Y11946D01*
X354518Y12195D01*
X360442D01*
Y13387D01*
X376565D01*
Y12195D01*
X382490D01*
Y13432D01*
X382790Y13492D01*
X383237Y13791D01*
X385973Y16527D01*
X386272Y16973D01*
X386377Y17500D01*
Y37500D01*
X386377Y37500D01*
X386272Y38027D01*
X385973Y38473D01*
X371089Y53358D01*
Y59128D01*
X371153Y59145D01*
X371974Y59619D01*
X372644Y60290D01*
X373118Y61111D01*
X373364Y62026D01*
Y62974D01*
X373118Y63889D01*
X372644Y64710D01*
X371974Y65381D01*
X371153Y65855D01*
X371089Y65872D01*
Y75000D01*
Y82750D01*
X373462D01*
Y90250D01*
X371089D01*
Y90287D01*
X370984Y90814D01*
X370686Y91261D01*
X365973Y95973D01*
X365527Y96272D01*
X365000Y96376D01*
X276169D01*
X276020Y96526D01*
X275612Y96695D01*
X274695Y97613D01*
X274526Y98020D01*
X274020Y98526D01*
X273358Y98800D01*
X273147D01*
X272973Y98973D01*
X272527Y99272D01*
X272000Y99376D01*
X262000D01*
X261473Y99272D01*
X261027Y98973D01*
X261027Y98973D01*
X255527Y93473D01*
X255228Y93027D01*
X255123Y92500D01*
Y90158D01*
X253457D01*
Y86500D01*
X252957D01*
Y86000D01*
X249988D01*
Y82842D01*
X249988D01*
X249849Y82400D01*
X249500D01*
Y79000D01*
X252500D01*
X255500D01*
Y80846D01*
X256000Y81053D01*
X257900Y79153D01*
Y75000D01*
X259379D01*
Y74000D01*
X257900D01*
Y67000D01*
X259379D01*
Y66151D01*
X257081D01*
Y60158D01*
X256619Y59967D01*
X255919Y60667D01*
Y66151D01*
X255624D01*
X255500Y66600D01*
X255500Y66651D01*
Y70000D01*
X252500D01*
X249500D01*
Y66651D01*
X249500Y66611D01*
X249404Y66151D01*
X249404Y66140D01*
Y58860D01*
X249404Y58849D01*
X249404Y58849D01*
X249500Y58400D01*
X249500D01*
Y55000D01*
X252500D01*
X255500D01*
Y57261D01*
X255962Y57452D01*
X257900Y55514D01*
Y51000D01*
X263100D01*
Y53394D01*
X266101D01*
X266308Y52894D01*
X263007Y49594D01*
X262612Y49758D01*
Y49758D01*
X257475D01*
Y43242D01*
X258922D01*
Y28539D01*
X258922Y28539D01*
X259007Y28110D01*
X259250Y27746D01*
X265290Y21707D01*
X265290Y21707D01*
X265653Y21464D01*
X266083Y21378D01*
X266083Y21378D01*
X306000D01*
X306000Y21378D01*
X306429Y21464D01*
X306793Y21707D01*
X318965Y33878D01*
X320243D01*
Y28888D01*
X322401D01*
X322464Y28571D01*
X322707Y28207D01*
X327207Y23707D01*
X327207Y23707D01*
X327571Y23464D01*
X328000Y23378D01*
X328000Y23379D01*
X340035D01*
X341378Y22035D01*
Y14000D01*
X341378Y14000D01*
X341464Y13571D01*
X341707Y13207D01*
X343463Y11451D01*
X343463Y11451D01*
X343827Y11208D01*
X344256Y11123D01*
X344282D01*
Y10463D01*
X348632D01*
Y14025D01*
X344282D01*
X344282Y14025D01*
Y14025D01*
X343862Y14224D01*
X343621Y14465D01*
Y22500D01*
X343622Y22500D01*
X343536Y22929D01*
X343293Y23293D01*
X343293Y23293D01*
X341293Y25293D01*
X340929Y25536D01*
X340500Y25622D01*
X340500Y25622D01*
X328465D01*
X325660Y28426D01*
X325851Y28888D01*
X326758D01*
Y33878D01*
X328242D01*
Y28888D01*
X330401D01*
X330464Y28571D01*
X330707Y28207D01*
X332345Y26569D01*
X332345Y26569D01*
X332709Y26326D01*
X333138Y26241D01*
X344282D01*
Y25581D01*
X348632D01*
Y29143D01*
X348632Y29143D01*
X348632D01*
X348515Y29643D01*
X348670Y29798D01*
X349034Y30429D01*
X349222Y31132D01*
Y31860D01*
X349034Y32563D01*
X348670Y33194D01*
X348485Y33378D01*
X348692Y33878D01*
X359100D01*
Y31150D01*
X364114D01*
X365924Y29340D01*
X365707Y28850D01*
X359100D01*
Y24686D01*
X357800Y23386D01*
X357300Y23593D01*
Y23858D01*
X357026Y24520D01*
X356520Y25026D01*
X355858Y25300D01*
X355142D01*
X354480Y25026D01*
X353974Y24520D01*
X353700Y23858D01*
Y23286D01*
X349131Y18718D01*
X348632Y18925D01*
Y19143D01*
X344282D01*
Y15581D01*
X348632D01*
Y16241D01*
X349362D01*
X349362Y16241D01*
X349791Y16326D01*
X350155Y16569D01*
X354989Y21403D01*
X355089Y21383D01*
X355254Y20840D01*
X352207Y17793D01*
X351964Y17429D01*
X351878Y17000D01*
X351878Y17000D01*
Y9500D01*
X351878Y9500D01*
X351964Y9071D01*
X352207Y8707D01*
X353636Y7278D01*
X354000Y7035D01*
X354429Y6949D01*
X354518Y6461D01*
Y5618D01*
X354518Y5502D01*
X354239Y5118D01*
X349422D01*
X349419Y5122D01*
Y5902D01*
X349217Y6655D01*
X348827Y7331D01*
X348275Y7882D01*
X347600Y8272D01*
X346847Y8474D01*
X346067D01*
X345313Y8272D01*
X344638Y7882D01*
X344086Y7331D01*
X343696Y6655D01*
X343495Y5902D01*
Y5122D01*
X343492Y5118D01*
X341339D01*
Y7874D01*
X341339Y7874D01*
X341338Y7874D01*
X341315Y8743D01*
X341014Y10454D01*
X340385Y12073D01*
X339453Y13538D01*
X338252Y14794D01*
X336830Y15790D01*
X335240Y16490D01*
X333544Y16867D01*
X332677Y16929D01*
X198819Y16929D01*
X198819Y16929D01*
X197931Y16885D01*
X196190Y16539D01*
X194550Y15860D01*
X193074Y14874D01*
X191819Y13618D01*
X190833Y12143D01*
X190154Y10503D01*
X189807Y8761D01*
X189764Y7874D01*
Y1181D01*
X28868D01*
X28603Y1579D01*
Y5508D01*
X28411Y5970D01*
X27949Y6162D01*
X27169D01*
X26707Y5970D01*
X26516Y5508D01*
Y1579D01*
X26250Y1181D01*
X1181D01*
Y21351D01*
X7838D01*
X7916Y21383D01*
X7923Y21380D01*
X7938Y21386D01*
X7962Y21380D01*
X8005Y21385D01*
X8075Y21425D01*
X8160Y21436D01*
X8196Y21457D01*
X8211Y21454D01*
X8253Y21481D01*
X8278Y21492D01*
X8286Y21500D01*
X8927D01*
X9450Y21198D01*
X10306Y20968D01*
X11191D01*
X12046Y21198D01*
X12570Y21500D01*
X13210D01*
X13218Y21492D01*
X13243Y21481D01*
X13286Y21454D01*
X13300Y21457D01*
X13336Y21436D01*
X13421Y21425D01*
X13492Y21385D01*
X13535Y21380D01*
X13558Y21386D01*
X13574Y21380D01*
X13580Y21383D01*
X13659Y21351D01*
X41460D01*
X41538Y21383D01*
X41545Y21380D01*
X41560Y21386D01*
X41584Y21380D01*
X41627Y21385D01*
X41697Y21425D01*
X41782Y21436D01*
X41818Y21457D01*
X41833Y21454D01*
X41875Y21481D01*
X41900Y21492D01*
X41909Y21500D01*
X42549D01*
X43072Y21198D01*
X43927Y20968D01*
X44813D01*
X45668Y21198D01*
X46192Y21500D01*
X46832D01*
X46840Y21492D01*
X46865Y21481D01*
X46908Y21454D01*
X46922Y21457D01*
X46959Y21436D01*
X47044Y21425D01*
X47114Y21385D01*
X47157Y21380D01*
X47181Y21386D01*
X47196Y21380D01*
X47202Y21383D01*
X47281Y21351D01*
X66368D01*
X66487Y21400D01*
X66616Y21400D01*
X66746Y21453D01*
X66792Y21500D01*
X70882D01*
X71037Y21442D01*
X71257Y21351D01*
X118068D01*
X118187Y21400D01*
X118316Y21400D01*
X118446Y21453D01*
X118492Y21500D01*
X122582D01*
X122737Y21442D01*
X122957Y21351D01*
X130280Y21351D01*
X137234D01*
X137353Y21400D01*
X137483D01*
X137612Y21453D01*
X137658Y21500D01*
X141350D01*
X141397Y21453D01*
X141526Y21400D01*
X141655D01*
X141775Y21351D01*
X165879D01*
X165903Y21361D01*
X165929Y21352D01*
X166130Y21455D01*
X166239Y21500D01*
X167764D01*
X168257Y21296D01*
X169197Y21172D01*
X204303D01*
X205243Y21296D01*
X205736Y21500D01*
X206962D01*
X206998Y21449D01*
X207176Y21419D01*
X207342Y21351D01*
X207471D01*
X207471Y21351D01*
X247371D01*
X247490Y21400D01*
X247619Y21400D01*
X247711Y21438D01*
X247802Y21529D01*
X247830Y21541D01*
X247842Y21569D01*
X247931Y21658D01*
X247959Y21670D01*
X247971Y21698D01*
X248062Y21789D01*
X248100Y21881D01*
X248100Y22010D01*
X248149Y22129D01*
Y91428D01*
X257579Y100858D01*
X276500D01*
X278186Y101024D01*
X279807Y101516D01*
X281301Y102315D01*
X282611Y103390D01*
X284838Y105617D01*
X285039Y105539D01*
X291500Y112000D01*
X294000D01*
Y104562D01*
D02*
G37*
G36*
X190000Y110000D02*
Y104000D01*
X181000D01*
Y107000D01*
X164000D01*
Y104000D01*
X155000D01*
Y110000D01*
X157500Y112500D01*
X187500D01*
X190000Y110000D01*
D02*
G37*
G36*
X205500Y101500D02*
X203000Y99000D01*
X190500D01*
Y100500D01*
X193000D01*
X201000Y108500D01*
X205500D01*
Y101500D01*
D02*
G37*
G36*
X152000Y100500D02*
X155500D01*
Y99000D01*
X142919D01*
X139500Y102419D01*
Y108500D01*
X144000D01*
X152000Y100500D01*
D02*
G37*
G36*
X52714Y96214D02*
X53045Y95993D01*
X53435Y95915D01*
X60000D01*
Y95900D01*
X65158D01*
X69258Y91800D01*
X69051Y91300D01*
X68642D01*
X67980Y91026D01*
X67800Y90846D01*
X67646Y90849D01*
X67243Y90996D01*
X67026Y91520D01*
X66520Y92026D01*
X65858Y92300D01*
X65142D01*
X64480Y92026D01*
X63974Y91520D01*
X63700Y90858D01*
Y90142D01*
X63974Y89480D01*
X64480Y88974D01*
X64486Y88972D01*
X64558Y88610D01*
X64779Y88279D01*
X65831Y87227D01*
Y80405D01*
X65837Y80373D01*
Y79336D01*
X65498Y79103D01*
X65361Y79053D01*
X65276Y79071D01*
X64595D01*
Y77650D01*
X64040D01*
X64059Y76575D01*
X64095D01*
Y75575D01*
X64076D01*
X64086Y75000D01*
X64095D01*
Y74000D01*
X61592D01*
X61601Y73956D01*
X61909Y73495D01*
X61946Y73470D01*
X61977Y73313D01*
X61900Y72925D01*
X61977Y72537D01*
X61985Y72526D01*
X62164Y72138D01*
X61985Y71749D01*
X61977Y71738D01*
X61900Y71350D01*
X61977Y70963D01*
X62197Y70634D01*
X62526Y70414D01*
X62913Y70337D01*
X65276D01*
X65457Y70189D01*
Y69957D01*
X65502D01*
X65831Y69595D01*
Y58376D01*
X65707Y58293D01*
X65300Y57886D01*
X64800Y57937D01*
Y58358D01*
X64526Y59020D01*
X64020Y59526D01*
X63358Y59800D01*
X62642D01*
X61980Y59526D01*
X61474Y59020D01*
X61200Y58358D01*
Y57850D01*
X58640D01*
Y72976D01*
X58649Y73000D01*
Y77152D01*
X59149Y77404D01*
X59642Y77200D01*
X60358D01*
X61020Y77474D01*
X61367Y77367D01*
X62000Y78000D01*
Y79076D01*
X61800Y79183D01*
Y79358D01*
X61526Y80020D01*
X61020Y80526D01*
X60508Y80738D01*
Y81262D01*
X61020Y81474D01*
X61526Y81980D01*
X61800Y82642D01*
Y83358D01*
X61526Y84020D01*
X61020Y84526D01*
X60508Y84738D01*
Y85262D01*
X61020Y85474D01*
X61526Y85980D01*
X61800Y86642D01*
Y87358D01*
X61526Y88020D01*
X61020Y88526D01*
X60358Y88800D01*
X59642D01*
X59642Y88800D01*
X59071Y89371D01*
X58741Y89592D01*
X58350Y89669D01*
X51970D01*
X51593Y90169D01*
X51604Y90224D01*
X51527Y90612D01*
X51558Y90769D01*
X51595Y90794D01*
X51903Y91255D01*
X51912Y91299D01*
X49645D01*
X49409Y91346D01*
Y92299D01*
X51912D01*
X51903Y92343D01*
X51595Y92804D01*
X51558Y92829D01*
X51527Y92986D01*
X51604Y93374D01*
X51527Y93762D01*
X51519Y93773D01*
X51340Y94161D01*
X51519Y94550D01*
X51527Y94561D01*
X51604Y94949D01*
X51527Y95337D01*
X51519Y95348D01*
X51340Y95736D01*
X51519Y96125D01*
X51527Y96136D01*
X51604Y96524D01*
X51593Y96579D01*
X51635Y96661D01*
X52116Y96812D01*
X52714Y96214D01*
D02*
G37*
G36*
X271474Y95980D02*
X271980Y95474D01*
X272388Y95305D01*
X273305Y94388D01*
X273474Y93980D01*
X273980Y93474D01*
X274642Y93200D01*
X275358D01*
X276020Y93474D01*
X276169Y93624D01*
X364430D01*
X367342Y90711D01*
X367150Y90250D01*
X365963D01*
Y82750D01*
X368336D01*
Y76376D01*
X342669D01*
X342520Y76526D01*
X341858Y76800D01*
X341142D01*
X340480Y76526D01*
X339974Y76020D01*
X339700Y75358D01*
Y74642D01*
X339974Y73980D01*
X340480Y73474D01*
X341142Y73200D01*
X341858D01*
X342520Y73474D01*
X342669Y73624D01*
X368336D01*
Y65833D01*
X367553Y65381D01*
X366883Y64710D01*
X366409Y63889D01*
X366164Y62974D01*
Y62026D01*
X366409Y61111D01*
X366883Y60290D01*
X367553Y59619D01*
X368336Y59167D01*
Y54164D01*
X326112D01*
Y55757D01*
X325207D01*
Y57243D01*
X326112D01*
Y63757D01*
X322497D01*
X322305Y64219D01*
X324465Y66378D01*
X334772D01*
X337020Y64130D01*
X336882Y63889D01*
X336636Y62974D01*
Y62026D01*
X336882Y61111D01*
X337355Y60290D01*
X338026Y59619D01*
X338847Y59145D01*
X339762Y58900D01*
X340710D01*
X341626Y59145D01*
X342447Y59619D01*
X343117Y60290D01*
X343591Y61111D01*
X343836Y62026D01*
Y62974D01*
X343591Y63889D01*
X343117Y64710D01*
X342447Y65381D01*
X341626Y65855D01*
X340710Y66100D01*
X339762D01*
X338847Y65855D01*
X338606Y65716D01*
X336029Y68293D01*
X335665Y68536D01*
X335236Y68622D01*
X335236Y68622D01*
X324000D01*
X323571Y68536D01*
X323207Y68293D01*
X323207Y68293D01*
X319207Y64293D01*
X318964Y63929D01*
X318930Y63757D01*
X313888D01*
Y61622D01*
X312924D01*
X312520Y62026D01*
X311858Y62300D01*
X311142D01*
X310480Y62026D01*
X309974Y61520D01*
X309700Y60858D01*
Y60142D01*
X309974Y59480D01*
X310104Y59351D01*
Y58690D01*
X307051Y55637D01*
X305964D01*
X305697Y56137D01*
X305739Y56200D01*
X305858D01*
X306520Y56474D01*
X307026Y56980D01*
X307300Y57642D01*
Y58358D01*
X307026Y59020D01*
X306520Y59526D01*
X306008Y59738D01*
Y60262D01*
X306520Y60474D01*
X307026Y60980D01*
X307300Y61642D01*
Y62358D01*
X307026Y63020D01*
X306520Y63526D01*
X306008Y63738D01*
Y64262D01*
X306520Y64474D01*
X307026Y64980D01*
X307300Y65642D01*
Y66214D01*
X310965Y69878D01*
X327500D01*
X327500Y69878D01*
X327929Y69964D01*
X328293Y70207D01*
X340894Y82808D01*
X341632Y83006D01*
X342487Y83500D01*
X343185Y84198D01*
X343679Y85053D01*
X343935Y86006D01*
Y86994D01*
X343679Y87947D01*
X343185Y88802D01*
X342487Y89500D01*
X341632Y89994D01*
X340679Y90250D01*
X339691D01*
X338738Y89994D01*
X337883Y89500D01*
X337185Y88802D01*
X336691Y87947D01*
X336435Y86994D01*
Y86006D01*
X336691Y85053D01*
X337185Y84198D01*
X337794Y83588D01*
X337935Y83021D01*
X327035Y72122D01*
X310500D01*
X310500Y72122D01*
X310071Y72036D01*
X309707Y71793D01*
X309707Y71793D01*
X305714Y67800D01*
X305142D01*
X304480Y67526D01*
X303974Y67020D01*
X303700Y66358D01*
Y65786D01*
X299457Y61543D01*
X296336D01*
X296129Y62043D01*
X300793Y66707D01*
X301036Y67071D01*
X301122Y67500D01*
X301121Y67500D01*
Y70400D01*
X303500D01*
Y73878D01*
X322576D01*
X322980Y73474D01*
X323642Y73200D01*
X324358D01*
X325020Y73474D01*
X325526Y73980D01*
X325800Y74642D01*
Y75358D01*
X325526Y76020D01*
X325020Y76526D01*
X324358Y76800D01*
X323642D01*
X322980Y76526D01*
X322719Y76265D01*
X322439Y76303D01*
X322261Y76832D01*
X328603Y83175D01*
X328895Y83006D01*
X329849Y82750D01*
X330836D01*
X331790Y83006D01*
X332645Y83500D01*
X333343Y84198D01*
X333837Y85053D01*
X334092Y86006D01*
Y86994D01*
X333837Y87947D01*
X333343Y88802D01*
X332645Y89500D01*
X331790Y89994D01*
X330836Y90250D01*
X329849D01*
X328895Y89994D01*
X328040Y89500D01*
X327342Y88802D01*
X326848Y87947D01*
X326593Y86994D01*
Y86006D01*
X326848Y85053D01*
X327017Y84761D01*
X320378Y78122D01*
X303900D01*
Y80500D01*
X300000D01*
Y81000D01*
X299500D01*
Y84000D01*
X298739D01*
X298548Y84462D01*
X304965Y90878D01*
X348404D01*
X348469Y90378D01*
X348426Y90367D01*
X347480Y89820D01*
X346707Y89048D01*
X346161Y88102D01*
X345878Y87046D01*
Y87000D01*
X354177D01*
Y87046D01*
X353894Y88102D01*
X353348Y89048D01*
X352575Y89820D01*
X351629Y90367D01*
X351586Y90378D01*
X351652Y90878D01*
X353535D01*
X356409Y88005D01*
X356376Y87947D01*
X356120Y86994D01*
Y86006D01*
X356376Y85053D01*
X356870Y84198D01*
X357568Y83500D01*
X358423Y83006D01*
X359376Y82750D01*
X360364D01*
X361317Y83006D01*
X362172Y83500D01*
X362871Y84198D01*
X363364Y85053D01*
X363620Y86006D01*
Y86994D01*
X363364Y87947D01*
X362871Y88802D01*
X362172Y89500D01*
X361317Y89994D01*
X360364Y90250D01*
X359376D01*
X358423Y89994D01*
X357896Y89690D01*
X354793Y92793D01*
X354429Y93036D01*
X354000Y93122D01*
X354000Y93122D01*
X304500D01*
X304500Y93122D01*
X304071Y93036D01*
X303707Y92793D01*
X303707Y92793D01*
X302343Y91429D01*
X301788Y91581D01*
X301607Y92020D01*
X301100Y92526D01*
X300439Y92800D01*
X299723D01*
X299061Y92526D01*
X298555Y92020D01*
X298281Y91358D01*
Y91205D01*
X287074Y79999D01*
X286574Y80206D01*
Y82453D01*
X286489Y82882D01*
X286246Y83246D01*
X286246Y83246D01*
X284300Y85192D01*
Y85764D01*
X284026Y86425D01*
X283520Y86932D01*
X282858Y87205D01*
X282142D01*
X281480Y86932D01*
X280974Y86425D01*
X280700Y85764D01*
Y85048D01*
X280974Y84386D01*
X281480Y83880D01*
X282142Y83605D01*
X282714D01*
X284331Y81988D01*
Y80962D01*
X283831Y80755D01*
X270800Y93786D01*
Y94358D01*
X270526Y95020D01*
X270020Y95526D01*
X269358Y95800D01*
X268642D01*
X267980Y95526D01*
X267474Y95020D01*
X267200Y94358D01*
Y93642D01*
X267234Y93559D01*
X266811Y93275D01*
X266300Y93786D01*
Y94358D01*
X266026Y95020D01*
X265520Y95526D01*
X264858Y95800D01*
X264142D01*
X263480Y95526D01*
X262974Y95020D01*
X262700Y94358D01*
Y93642D01*
X262974Y92980D01*
X263480Y92474D01*
X264142Y92200D01*
X264714D01*
X280394Y76520D01*
Y75899D01*
X279894Y75692D01*
X268293Y87293D01*
X267929Y87536D01*
X267500Y87622D01*
X267500Y87622D01*
X262612D01*
Y89758D01*
X257876D01*
Y91930D01*
X262570Y96624D01*
X271208D01*
X271474Y95980D01*
D02*
G37*
G36*
X58000Y78000D02*
Y73000D01*
X50000D01*
X43900Y79100D01*
X43900Y82000D01*
X54000D01*
X58000Y78000D01*
D02*
G37*
G36*
X18000Y82000D02*
X27400D01*
X27400Y76613D01*
X23287Y72500D01*
X8500D01*
Y84646D01*
X15354D01*
X18000Y82000D01*
D02*
G37*
G36*
X164000Y84500D02*
X178000D01*
Y69000D01*
X167000D01*
Y77500D01*
X158000D01*
Y86500D01*
X164000D01*
Y84500D01*
D02*
G37*
G36*
X180351Y104000D02*
X180508Y103619D01*
X180404Y103464D01*
X180351Y103195D01*
Y101600D01*
X180404Y101332D01*
X180547Y101118D01*
X180404Y100905D01*
X180351Y100636D01*
Y99041D01*
X180404Y98773D01*
X180547Y98559D01*
X180404Y98345D01*
X180351Y98077D01*
Y96482D01*
X180404Y96214D01*
X180547Y96000D01*
X180404Y95786D01*
X180351Y95518D01*
Y93923D01*
X180404Y93655D01*
X180547Y93441D01*
X180404Y93227D01*
X180351Y92959D01*
Y91364D01*
X180404Y91096D01*
X180547Y90882D01*
X180404Y90668D01*
X180351Y90400D01*
Y88805D01*
X180404Y88537D01*
X180547Y88323D01*
X180404Y88109D01*
X180351Y87840D01*
Y86246D01*
X180404Y85977D01*
X180557Y85750D01*
X180784Y85597D01*
X181053Y85544D01*
X183971D01*
Y83500D01*
X183900D01*
Y76500D01*
X189100D01*
Y83500D01*
X187029D01*
Y85593D01*
X187050Y85597D01*
X187278Y85750D01*
X187430Y85977D01*
X187484Y86246D01*
Y87363D01*
X187984Y87570D01*
X191080Y84473D01*
Y83258D01*
X189888D01*
Y76743D01*
X191080D01*
Y75500D01*
X189400D01*
Y73376D01*
X188612D01*
Y75257D01*
X183475D01*
Y68743D01*
X188612D01*
Y70624D01*
X189400D01*
Y68500D01*
X194600D01*
Y75500D01*
X193833D01*
Y76743D01*
X195025D01*
Y83258D01*
X193833D01*
Y85043D01*
X193728Y85570D01*
X193430Y86017D01*
X192247Y87200D01*
X192454Y87700D01*
X192858D01*
X193520Y87974D01*
X194026Y88480D01*
X194300Y89142D01*
Y89858D01*
X194109Y90319D01*
X194541Y90541D01*
X201362Y83719D01*
X201171Y83258D01*
X196975D01*
Y76743D01*
X198878D01*
Y75500D01*
X197400D01*
Y68500D01*
X198878D01*
Y55924D01*
X198474Y55520D01*
X198200Y54858D01*
Y54142D01*
X198474Y53480D01*
X198980Y52974D01*
X199642Y52700D01*
X200358D01*
X201020Y52974D01*
X201526Y53480D01*
X201800Y54142D01*
Y54858D01*
X201526Y55520D01*
X201122Y55924D01*
Y68500D01*
X202600D01*
X202851Y68104D01*
Y57500D01*
X203041Y57041D01*
X203500Y56850D01*
X206228D01*
Y52327D01*
X211772D01*
Y56850D01*
X214500D01*
X214959Y57041D01*
X215149Y57500D01*
Y60000D01*
X217600D01*
Y67000D01*
X215149D01*
Y68000D01*
X217600D01*
Y75000D01*
X215149D01*
Y76000D01*
X217600D01*
Y83000D01*
X215149D01*
Y84000D01*
X217600D01*
Y91000D01*
X215149D01*
Y93000D01*
X215256Y93160D01*
X221000D01*
X221388Y93237D01*
X221716Y93457D01*
X221936Y93786D01*
X222013Y94173D01*
Y100857D01*
X222727D01*
Y91000D01*
X220400D01*
Y84000D01*
X222727D01*
Y83000D01*
X220400D01*
Y76000D01*
X222727D01*
Y75000D01*
X220400D01*
Y68000D01*
X222727D01*
Y67000D01*
X220400D01*
Y60000D01*
X222727D01*
Y48362D01*
X202799Y28434D01*
X170701D01*
X155135Y44000D01*
Y48229D01*
X155012Y49169D01*
X154649Y50045D01*
X154072Y50797D01*
X153320Y51374D01*
X152444Y51736D01*
X151504Y51860D01*
X150565Y51736D01*
X149689Y51374D01*
X148937Y50797D01*
X148360Y50045D01*
X147997Y49169D01*
X147873Y48229D01*
Y42496D01*
X147997Y41556D01*
X148360Y40680D01*
X148937Y39928D01*
X166266Y22599D01*
X166267Y22455D01*
X165879Y22000D01*
X141775D01*
X141646Y22053D01*
Y29306D01*
X141721Y29321D01*
X143104Y29894D01*
X144349Y30726D01*
X145408Y31784D01*
X146239Y33029D01*
X146812Y34412D01*
X147104Y35881D01*
Y37378D01*
X146812Y38846D01*
X146239Y40229D01*
X145408Y41474D01*
X144349Y42532D01*
X143104Y43364D01*
X141721Y43937D01*
X140881Y44104D01*
Y46021D01*
X158984Y64124D01*
X162000D01*
X162527Y64228D01*
X162973Y64527D01*
X166857Y68410D01*
X167000Y68351D01*
X178000D01*
X178459Y68541D01*
X178543Y68743D01*
X181525D01*
Y75257D01*
X178649D01*
Y76500D01*
X181100D01*
Y83500D01*
X178649D01*
Y84500D01*
X178459Y84959D01*
X178000Y85149D01*
X164649D01*
Y86500D01*
X164649Y86501D01*
Y87840D01*
X164595Y88109D01*
X164453Y88323D01*
X164595Y88537D01*
X164649Y88805D01*
Y90400D01*
X164595Y90668D01*
X164453Y90882D01*
X164595Y91096D01*
X164649Y91364D01*
Y92959D01*
X164595Y93227D01*
X164453Y93441D01*
X164595Y93655D01*
X164649Y93923D01*
Y95518D01*
X164595Y95786D01*
X164453Y96000D01*
X164595Y96214D01*
X164649Y96482D01*
Y98077D01*
X164595Y98345D01*
X164453Y98559D01*
X164595Y98773D01*
X164649Y99041D01*
Y100636D01*
X164595Y100905D01*
X164453Y101118D01*
X164595Y101332D01*
X164649Y101600D01*
Y103195D01*
X164595Y103464D01*
X164492Y103619D01*
X164649Y104000D01*
Y106351D01*
X180351D01*
Y104000D01*
D02*
G37*
G36*
X278426Y73988D02*
Y66933D01*
X278079D01*
Y64752D01*
X277079D01*
Y66933D01*
X276732D01*
Y72390D01*
X276646Y72819D01*
X276403Y73183D01*
X276403Y73183D01*
X270293Y79293D01*
X269929Y79536D01*
X269500Y79622D01*
X269500Y79622D01*
X263100D01*
Y82000D01*
X258947D01*
X258204Y82743D01*
X258411Y83242D01*
X262612D01*
Y85378D01*
X267035D01*
X278426Y73988D01*
D02*
G37*
G36*
X43200Y78100D02*
X48500Y72800D01*
X48500Y62500D01*
X40800Y62500D01*
Y82000D01*
X43200Y82000D01*
X43200Y78100D01*
D02*
G37*
G36*
X274489Y71925D02*
Y66533D01*
X274420D01*
Y63580D01*
X271467D01*
Y59574D01*
X269512D01*
X267621Y61465D01*
Y72576D01*
X268026Y72980D01*
X268300Y73642D01*
Y74358D01*
X268026Y75020D01*
X267520Y75526D01*
X266858Y75800D01*
X266142D01*
X265480Y75526D01*
X264974Y75020D01*
X264700Y74358D01*
Y73642D01*
X264974Y72980D01*
X265378Y72576D01*
Y61000D01*
X265378Y61000D01*
X265464Y60571D01*
X265707Y60207D01*
X268254Y57660D01*
X268254Y57660D01*
X268618Y57417D01*
X269047Y57331D01*
X269047Y57331D01*
X271067D01*
Y56984D01*
X273248D01*
Y55984D01*
X271067D01*
Y55637D01*
X263100D01*
Y58000D01*
X258586D01*
X258199Y58387D01*
X258391Y58849D01*
X263596D01*
Y66151D01*
X261621D01*
Y67000D01*
X263100D01*
Y74000D01*
X261621D01*
Y75000D01*
X263100D01*
Y77378D01*
X269035D01*
X274489Y71925D01*
D02*
G37*
G36*
X154000Y96500D02*
X151500D01*
X150000Y95000D01*
Y91000D01*
X141500Y82500D01*
Y57500D01*
X130500D01*
Y93000D01*
X137500Y93000D01*
X142500Y98000D01*
X154000D01*
Y96500D01*
D02*
G37*
G36*
X208000Y93000D02*
X214500D01*
Y57500D01*
X203500D01*
Y82500D01*
X195000Y91000D01*
Y95000D01*
X193500Y96500D01*
X192500Y96500D01*
Y98000D01*
X203000D01*
X208000Y93000D01*
D02*
G37*
G36*
X122987Y94173D02*
X123064Y93786D01*
X123284Y93457D01*
X123612Y93237D01*
X124000Y93160D01*
X129744D01*
X129851Y93000D01*
Y91000D01*
X127400D01*
Y84000D01*
X129851D01*
Y83000D01*
X127400D01*
Y76000D01*
X129851D01*
Y75000D01*
X127400D01*
Y68000D01*
X129851D01*
Y67000D01*
X127400D01*
Y60000D01*
X129851D01*
Y57500D01*
X130041Y57041D01*
X130500Y56851D01*
X132728D01*
Y52327D01*
X138272D01*
Y56851D01*
X141500D01*
X141959Y57041D01*
X142149Y57500D01*
Y68104D01*
X142400Y68500D01*
X143878D01*
Y57965D01*
X141214Y55300D01*
X140642D01*
X139980Y55026D01*
X139474Y54520D01*
X139200Y53858D01*
Y53142D01*
X139474Y52480D01*
X139980Y51974D01*
X140642Y51700D01*
X141358D01*
X142020Y51974D01*
X142526Y52480D01*
X142800Y53142D01*
Y53714D01*
X145793Y56707D01*
X145793Y56707D01*
X146036Y57071D01*
X146122Y57500D01*
Y68500D01*
X147600D01*
Y75500D01*
X146122D01*
Y76743D01*
X148025D01*
Y83258D01*
X143829D01*
X143638Y83719D01*
X150459Y90541D01*
X150891Y90319D01*
X150700Y89858D01*
Y89142D01*
X150974Y88480D01*
X151480Y87974D01*
X152142Y87700D01*
X152546D01*
X152753Y87200D01*
X151570Y86017D01*
X151272Y85570D01*
X151167Y85043D01*
Y83258D01*
X149975D01*
Y76743D01*
X151167D01*
Y75500D01*
X150400D01*
Y68500D01*
X155600D01*
Y70624D01*
X156388D01*
Y68743D01*
X161525D01*
Y75257D01*
X156388D01*
Y73376D01*
X155600D01*
Y75500D01*
X153920D01*
Y76743D01*
X155112D01*
Y83258D01*
X153920D01*
Y84473D01*
X157016Y87570D01*
X157516Y87363D01*
Y86901D01*
X157351Y86500D01*
Y77500D01*
X157541Y77041D01*
X158000Y76851D01*
X166351D01*
Y75257D01*
X163475D01*
Y68921D01*
X161430Y66876D01*
X158413D01*
X157887Y66772D01*
X157440Y66473D01*
X138531Y47564D01*
X138233Y47118D01*
X138128Y46591D01*
Y44104D01*
X137287Y43937D01*
X135904Y43364D01*
X134660Y42532D01*
X133601Y41474D01*
X132769Y40229D01*
X132196Y38846D01*
X131904Y37378D01*
Y35881D01*
X132196Y34412D01*
X132769Y33029D01*
X133601Y31784D01*
X134660Y30726D01*
X135904Y29894D01*
X137287Y29321D01*
X137363Y29306D01*
Y22053D01*
X137234Y22000D01*
X130280D01*
X122957Y22000D01*
X122479Y22446D01*
Y29306D01*
X122555Y29321D01*
X123938Y29894D01*
X125183Y30726D01*
X126242Y31784D01*
X127073Y33029D01*
X127646Y34412D01*
X127938Y35881D01*
Y37378D01*
X127646Y38846D01*
X127073Y40229D01*
X126242Y41474D01*
X125183Y42532D01*
X123938Y43364D01*
X122555Y43937D01*
X121087Y44229D01*
X119590D01*
X118121Y43937D01*
X116738Y43364D01*
X115494Y42532D01*
X114435Y41474D01*
X113603Y40229D01*
X113030Y38846D01*
X112738Y37378D01*
Y35881D01*
X113030Y34412D01*
X113603Y33029D01*
X114435Y31784D01*
X115494Y30726D01*
X116738Y29894D01*
X118121Y29321D01*
X118197Y29306D01*
Y22053D01*
X118068Y22000D01*
X71257D01*
X70779Y22446D01*
Y29306D01*
X70855Y29321D01*
X72238Y29894D01*
X73483Y30726D01*
X74541Y31784D01*
X75373Y33029D01*
X75946Y34412D01*
X76238Y35881D01*
Y37378D01*
X75946Y38846D01*
X75373Y40229D01*
X74541Y41474D01*
X73483Y42532D01*
X72238Y43364D01*
X70855Y43937D01*
X69387Y44229D01*
X67890D01*
X66421Y43937D01*
X65038Y43364D01*
X63793Y42532D01*
X62735Y41474D01*
X61903Y40229D01*
X61330Y38846D01*
X61038Y37378D01*
Y35881D01*
X61330Y34412D01*
X61903Y33029D01*
X62735Y31784D01*
X63793Y30726D01*
X65038Y29894D01*
X66421Y29321D01*
X66497Y29306D01*
Y22053D01*
X66368Y22000D01*
X47281D01*
X47238Y22024D01*
X47196Y22029D01*
X47165Y22060D01*
X47088Y22092D01*
X47028D01*
X46860Y22337D01*
X46795Y22607D01*
X47131Y23187D01*
X47332Y23941D01*
Y24721D01*
X47131Y25474D01*
X46740Y26149D01*
X46189Y26701D01*
X45513Y27091D01*
X44760Y27293D01*
X43980D01*
X43227Y27091D01*
X42551Y26701D01*
X42000Y26149D01*
X41610Y25474D01*
X41408Y24721D01*
Y23941D01*
X41610Y23187D01*
X41945Y22607D01*
X41880Y22337D01*
X41713Y22092D01*
X41652D01*
X41575Y22060D01*
X41545Y22029D01*
X41502Y22024D01*
X41460Y22000D01*
X13659D01*
X13616Y22024D01*
X13574Y22029D01*
X13543Y22060D01*
X13466Y22092D01*
X13406D01*
X13238Y22337D01*
X13173Y22607D01*
X13508Y23187D01*
X13710Y23941D01*
Y24721D01*
X13508Y25474D01*
X13118Y26149D01*
X12567Y26701D01*
X11891Y27091D01*
X11138Y27293D01*
X10358D01*
X9605Y27091D01*
X8929Y26701D01*
X8378Y26149D01*
X7988Y25474D01*
X7786Y24721D01*
Y23941D01*
X7988Y23187D01*
X8323Y22607D01*
X8258Y22337D01*
X8091Y22092D01*
X8030D01*
X7953Y22060D01*
X7923Y22029D01*
X7880Y22024D01*
X7838Y22000D01*
X1181D01*
Y76010D01*
X1681Y76135D01*
X2150Y75257D01*
X3100Y74100D01*
X4257Y73150D01*
X5578Y72444D01*
X7010Y72010D01*
X8460Y71867D01*
X8500Y71851D01*
X9000D01*
Y69000D01*
X12000D01*
X15000D01*
Y71851D01*
X17400D01*
Y65207D01*
X15293Y63100D01*
X10000D01*
Y57900D01*
X17000D01*
Y60193D01*
X17350Y60544D01*
X17851Y60336D01*
Y55619D01*
X17400Y55500D01*
X17350Y55500D01*
X14000D01*
Y52500D01*
Y49500D01*
X17350D01*
X17400Y49500D01*
X17851Y49381D01*
Y48000D01*
X17400D01*
Y41000D01*
X17851D01*
Y40000D01*
X18041Y39541D01*
X20328Y37254D01*
X20147Y36817D01*
X19675Y36630D01*
X19286Y36792D01*
X18116D01*
X18095Y36783D01*
X18042Y36861D01*
X17709Y37083D01*
X17317Y37161D01*
X17232D01*
Y33779D01*
X16732D01*
Y33279D01*
X16500D01*
Y31500D01*
X15122D01*
Y31423D01*
X15200Y31031D01*
X15281Y30910D01*
X15244Y30791D01*
X14603Y30149D01*
X14275Y29358D01*
X16535D01*
Y28358D01*
X14275D01*
X14603Y27567D01*
X15244Y26926D01*
X16082Y26579D01*
X16162D01*
X16231Y26476D01*
Y25728D01*
X16517Y25038D01*
X17046Y24509D01*
X17736Y24223D01*
X18484D01*
X19175Y24509D01*
X19685Y25019D01*
X20195Y24509D01*
X20886Y24223D01*
X21634D01*
X22325Y24509D01*
X22835Y25019D01*
X23345Y24509D01*
X24036Y24223D01*
X24783D01*
X25474Y24509D01*
X26003Y25038D01*
X26289Y25728D01*
Y26476D01*
X26187Y26723D01*
X26358Y26979D01*
X27049Y27265D01*
X27559Y27775D01*
X28069Y27265D01*
X28760Y26979D01*
X28931Y26723D01*
X28829Y26476D01*
Y25728D01*
X29115Y25038D01*
X29644Y24509D01*
X30335Y24223D01*
X31083D01*
X31773Y24509D01*
X32283Y25019D01*
X32794Y24509D01*
X33485Y24223D01*
X34232D01*
X34923Y24509D01*
X35347Y24933D01*
X35415Y24920D01*
X35943Y24391D01*
X36634Y24105D01*
X37382D01*
X38073Y24391D01*
X38601Y24920D01*
X38888Y25610D01*
Y26358D01*
X38956Y26461D01*
X39036D01*
X39874Y26808D01*
X40515Y27449D01*
X40843Y28240D01*
X38583D01*
Y29240D01*
X40843D01*
X40515Y30031D01*
X39874Y30673D01*
X39813Y30874D01*
X39918Y31031D01*
X39996Y31423D01*
Y31500D01*
X38500D01*
Y33279D01*
X38386D01*
Y34280D01*
X38500D01*
Y36000D01*
X39996D01*
Y36136D01*
X40172Y36351D01*
X40500D01*
X40959Y36541D01*
X41149Y37000D01*
Y37500D01*
X44600D01*
Y44500D01*
X44894Y44878D01*
X47000D01*
Y41500D01*
X50000D01*
X53000D01*
Y44878D01*
X58000D01*
X58000Y44878D01*
X58429Y44964D01*
X58793Y45207D01*
X68793Y55207D01*
X69036Y55571D01*
X69042Y55600D01*
X69146Y55704D01*
X69367Y56035D01*
X69445Y56425D01*
Y59303D01*
X69945Y59510D01*
X69980Y59474D01*
X70642Y59200D01*
X71358D01*
X72020Y59474D01*
X72526Y59980D01*
X72800Y60642D01*
Y61358D01*
X72526Y62020D01*
X72020Y62526D01*
X71358Y62800D01*
X71020D01*
Y64385D01*
X71482Y64577D01*
X73200Y62858D01*
X73200Y62858D01*
Y62142D01*
X73474Y61480D01*
X73980Y60974D01*
X74642Y60700D01*
X75358D01*
X76020Y60974D01*
X76526Y61480D01*
X76800Y62142D01*
Y62858D01*
X76526Y63520D01*
X76065Y63980D01*
X76092Y64192D01*
X76218Y64480D01*
X78888D01*
Y63743D01*
X78949D01*
X79156Y63243D01*
X56707Y40793D01*
X56464Y40429D01*
X56378Y40000D01*
X56378Y40000D01*
Y28924D01*
X55974Y28520D01*
X55700Y27858D01*
Y27142D01*
X55974Y26480D01*
X56480Y25974D01*
X57142Y25700D01*
X57858D01*
X58520Y25974D01*
X59026Y26480D01*
X59300Y27142D01*
Y27858D01*
X59026Y28520D01*
X58622Y28924D01*
Y39535D01*
X73700Y54614D01*
X74200Y54407D01*
Y54142D01*
X74474Y53480D01*
X74980Y52974D01*
X75642Y52700D01*
X76358D01*
X77020Y52974D01*
X77526Y53480D01*
X77800Y54142D01*
Y54353D01*
X84669Y61222D01*
X93598D01*
X94125Y61327D01*
X94572Y61625D01*
X99473Y66527D01*
X99473Y66527D01*
X99772Y66973D01*
X99876Y67500D01*
X99876Y67500D01*
Y82500D01*
Y91430D01*
X101909Y93463D01*
X102333Y93179D01*
X102200Y92858D01*
Y92142D01*
X102474Y91480D01*
X102878Y91076D01*
Y64424D01*
X102474Y64020D01*
X102200Y63358D01*
Y62642D01*
X102474Y61980D01*
X102980Y61474D01*
X103642Y61200D01*
X104358D01*
X105020Y61474D01*
X105526Y61980D01*
X105738Y62492D01*
X106262D01*
X106474Y61980D01*
X106980Y61474D01*
X107642Y61200D01*
X108358D01*
X109020Y61474D01*
X109526Y61980D01*
X109800Y62642D01*
Y63358D01*
X109526Y64020D01*
X109122Y64424D01*
Y91076D01*
X109526Y91480D01*
X109800Y92142D01*
Y92858D01*
X109526Y93520D01*
X109422Y93624D01*
X109629Y94124D01*
X111331D01*
X111480Y93974D01*
X112142Y93700D01*
X112858D01*
X113520Y93974D01*
X114026Y94480D01*
X114300Y95142D01*
Y95351D01*
X115011D01*
Y79500D01*
Y65146D01*
X109996Y60131D01*
X86500D01*
X85560Y60007D01*
X84684Y59645D01*
X83932Y59068D01*
X78071Y53206D01*
X77494Y52454D01*
X77131Y51578D01*
X77007Y50638D01*
Y46229D01*
X77131Y45289D01*
X77494Y44414D01*
X78071Y43662D01*
X78823Y43084D01*
X79698Y42722D01*
X80638Y42598D01*
X81578Y42722D01*
X82454Y43084D01*
X83206Y43662D01*
X83783Y44414D01*
X84145Y45289D01*
X84269Y46229D01*
Y49134D01*
X88004Y52869D01*
X111500D01*
X112440Y52993D01*
X113315Y53355D01*
X114068Y53932D01*
X120135Y60000D01*
X124600D01*
Y67000D01*
X122273D01*
Y68000D01*
X124600D01*
Y75000D01*
X122273D01*
Y76000D01*
X124600D01*
Y83000D01*
X122273D01*
Y84000D01*
X124600D01*
Y91000D01*
X122273D01*
Y100857D01*
X122987D01*
Y94173D01*
D02*
G37*
G36*
X40500Y37000D02*
X33500D01*
X33000Y36500D01*
X31600D01*
Y43100D01*
X33000Y44500D01*
X40500D01*
Y37000D01*
D02*
G37*
G36*
X30600Y82000D02*
X30600Y61929D01*
X32000Y60429D01*
Y53000D01*
X29000D01*
X23000Y47000D01*
Y36500D01*
X22000D01*
X18500Y40000D01*
Y61000D01*
X24500Y67000D01*
Y72500D01*
X28200Y76200D01*
Y82000D01*
X30600Y82000D01*
D02*
G37*
G36*
X267815Y51108D02*
X267980Y50566D01*
X264207Y46793D01*
X263964Y46429D01*
X263878Y46000D01*
X263878Y46000D01*
Y30424D01*
X263474Y30020D01*
X263200Y29358D01*
Y28642D01*
X263474Y27980D01*
X263980Y27474D01*
X264642Y27200D01*
X265358D01*
X266020Y27474D01*
X266526Y27980D01*
X266800Y28642D01*
Y29358D01*
X266526Y30020D01*
X266122Y30424D01*
Y45535D01*
X266939Y46353D01*
X267400Y46106D01*
X267378Y46000D01*
X267378Y46000D01*
Y27424D01*
X266974Y27020D01*
X266700Y26358D01*
Y25642D01*
X266974Y24980D01*
X267480Y24474D01*
X268142Y24200D01*
X268858D01*
X269520Y24474D01*
X270026Y24980D01*
X270300Y25642D01*
Y26358D01*
X270026Y27020D01*
X269621Y27424D01*
Y45535D01*
X271506Y47420D01*
X274420D01*
Y44467D01*
X274420D01*
X274392Y43978D01*
X272714Y42300D01*
X272142D01*
X271480Y42026D01*
X270974Y41520D01*
X270700Y40858D01*
Y40142D01*
X270974Y39480D01*
X271480Y38974D01*
X272142Y38700D01*
X272858D01*
X273520Y38974D01*
X274026Y39480D01*
X274300Y40142D01*
Y40714D01*
X275957Y42371D01*
X276457Y42164D01*
Y37579D01*
X276543Y37150D01*
X276559Y37125D01*
Y36059D01*
X276480Y36026D01*
X275974Y35520D01*
X275700Y34858D01*
Y34142D01*
X275974Y33480D01*
X276480Y32974D01*
X277142Y32700D01*
X277858D01*
X278520Y32974D01*
X279026Y33480D01*
X279300Y34142D01*
Y34858D01*
X279026Y35520D01*
X278598Y35947D01*
Y37125D01*
X278615Y37150D01*
X278700Y37579D01*
Y44467D01*
X284331D01*
Y31800D01*
X284142D01*
X283480Y31526D01*
X282974Y31020D01*
X282700Y30358D01*
Y29642D01*
X282974Y28980D01*
X283480Y28474D01*
X284142Y28200D01*
X284858D01*
X285520Y28474D01*
X285800Y28754D01*
X286300Y28547D01*
Y27599D01*
X286200Y27358D01*
Y26642D01*
X286474Y25980D01*
X286980Y25474D01*
X287642Y25200D01*
X288358D01*
X289020Y25474D01*
X289526Y25980D01*
X289800Y26642D01*
Y27358D01*
X289526Y28020D01*
X289020Y28526D01*
X288543Y28723D01*
Y44067D01*
X288890D01*
Y46248D01*
X289390D01*
Y46748D01*
X290980D01*
Y47420D01*
X293533D01*
Y47489D01*
X294425D01*
X298879Y43035D01*
Y41600D01*
X296500D01*
Y36400D01*
X303500D01*
Y37624D01*
X320243D01*
Y36122D01*
X318500D01*
X318500Y36122D01*
X318071Y36036D01*
X317707Y35793D01*
X305535Y23621D01*
X266547D01*
X261165Y29004D01*
Y43242D01*
X262612D01*
Y46026D01*
X267714Y51128D01*
X267815Y51108D01*
D02*
G37*
G36*
X383624Y36930D02*
Y18070D01*
X382770Y17216D01*
X382490Y17332D01*
Y17332D01*
X376565D01*
Y16140D01*
X360442D01*
Y17332D01*
X355572D01*
X355380Y17794D01*
X361736Y24150D01*
X365900D01*
Y28657D01*
X366390Y28874D01*
X366742Y28522D01*
Y23888D01*
X373257D01*
Y25335D01*
X374500D01*
Y23400D01*
X381500D01*
Y28600D01*
X374500D01*
Y27578D01*
X373257D01*
Y29025D01*
X369411D01*
X368324Y30113D01*
X368515Y30575D01*
X369500D01*
Y33543D01*
Y36512D01*
X366342D01*
Y35989D01*
X365900Y35850D01*
Y35850D01*
X362708D01*
X362429Y36036D01*
X362000Y36122D01*
X334757D01*
Y41112D01*
X328242D01*
Y40376D01*
X326758D01*
Y41112D01*
X324920D01*
Y49242D01*
X326112D01*
Y51411D01*
X369143D01*
X383624Y36930D01*
D02*
G37*
%LPC*%
G36*
X74500Y210649D02*
X42913D01*
X42454Y210459D01*
X42264Y210000D01*
Y208989D01*
X41764Y208782D01*
X41520Y209026D01*
X40858Y209300D01*
X40142D01*
X39480Y209026D01*
X38974Y208520D01*
X38700Y207858D01*
Y207142D01*
X38974Y206480D01*
X39378Y206076D01*
Y200029D01*
X38719D01*
Y197648D01*
X38719Y197648D01*
Y197470D01*
X38719D01*
X38719Y197148D01*
Y195089D01*
X38719D01*
Y194911D01*
X38719D01*
Y192530D01*
X38719D01*
X38821Y192352D01*
Y189971D01*
X39210D01*
X39500Y189851D01*
X42264D01*
Y182084D01*
X42207D01*
Y178916D01*
X44077D01*
Y178611D01*
X54923D01*
Y178916D01*
X56793D01*
Y179351D01*
X74500D01*
X74885Y179510D01*
X74970D01*
Y179567D01*
X75149Y180000D01*
X75633Y179961D01*
Y167315D01*
X75699Y166983D01*
X75887Y166702D01*
X76168Y166514D01*
X76500Y166448D01*
X93000D01*
X93332Y166514D01*
X93613Y166702D01*
X93801Y166983D01*
X93867Y167315D01*
Y206685D01*
X93801Y207017D01*
X93613Y207298D01*
X93332Y207486D01*
X93000Y207552D01*
X76500D01*
X76168Y207486D01*
X75887Y207298D01*
X75699Y207017D01*
X75649Y206766D01*
X75149Y206815D01*
Y210000D01*
X74959Y210459D01*
X74500Y210649D01*
D02*
G37*
G36*
X201000Y190000D02*
X197600D01*
Y187500D01*
X201000D01*
Y190000D01*
D02*
G37*
G36*
Y186500D02*
X197600D01*
Y184000D01*
X201000D01*
Y186500D01*
D02*
G37*
G36*
X15500Y183400D02*
X13000D01*
Y180000D01*
X15500D01*
Y183400D01*
D02*
G37*
G36*
X12000D02*
X9500D01*
Y180000D01*
X12000D01*
Y183400D01*
D02*
G37*
G36*
X15500Y179000D02*
X13000D01*
Y175600D01*
X15500D01*
Y179000D01*
D02*
G37*
G36*
X12000D02*
X9500D01*
Y175674D01*
X9500Y175600D01*
D01*
X12000D01*
Y179000D01*
D02*
G37*
G36*
X115661Y177079D02*
X114571D01*
Y175398D01*
X115661D01*
Y177079D01*
D02*
G37*
G36*
X45161Y176579D02*
X44071D01*
Y174898D01*
X45161D01*
Y176579D01*
D02*
G37*
G36*
X178900Y177000D02*
X175500D01*
Y174500D01*
X178900D01*
Y177000D01*
D02*
G37*
G36*
X174500D02*
X171100D01*
Y174500D01*
X174500D01*
Y177000D01*
D02*
G37*
G36*
X120780Y177181D02*
X119220D01*
Y175000D01*
Y172819D01*
X120780D01*
Y175000D01*
Y177181D01*
D02*
G37*
G36*
X118220D02*
X117130D01*
Y177079D01*
X116661D01*
Y174898D01*
Y172716D01*
X117752D01*
Y172819D01*
X118220D01*
Y175000D01*
Y177181D01*
D02*
G37*
G36*
X115661Y174398D02*
X114571D01*
Y172716D01*
X115661D01*
Y174398D01*
D02*
G37*
G36*
X50279Y176681D02*
X48720D01*
Y174500D01*
Y172319D01*
X50279D01*
Y174500D01*
Y176681D01*
D02*
G37*
G36*
X47721D02*
X46630D01*
Y176579D01*
X46161D01*
Y174398D01*
Y172216D01*
X47252D01*
Y172319D01*
X47721D01*
Y174500D01*
Y176681D01*
D02*
G37*
G36*
X45161Y173898D02*
X44071D01*
Y172216D01*
X45161D01*
Y173898D01*
D02*
G37*
G36*
X236500Y192149D02*
X206000Y192149D01*
X205541Y191959D01*
X205351Y191500D01*
Y190000D01*
X202000D01*
Y187000D01*
Y184000D01*
X205351D01*
Y172500D01*
X205541Y172041D01*
X206000Y171851D01*
X236500Y171851D01*
X236959Y172041D01*
X237149Y172500D01*
Y191500D01*
X236959Y191959D01*
X236500Y192149D01*
D02*
G37*
G36*
X178900Y173500D02*
X175500D01*
Y171000D01*
X178900D01*
Y173500D01*
D02*
G37*
G36*
X174500D02*
X171100D01*
Y171000D01*
X174500D01*
Y173500D01*
D02*
G37*
G36*
X287250Y172500D02*
X282248D01*
Y172100D01*
X278150D01*
Y170622D01*
X273924D01*
X273520Y171026D01*
X272858Y171300D01*
X272142D01*
X271480Y171026D01*
X270974Y170520D01*
X270700Y169858D01*
Y169142D01*
X270974Y168480D01*
X271480Y167974D01*
X272142Y167700D01*
X272858D01*
X273520Y167974D01*
X273924Y168378D01*
X278150D01*
Y166900D01*
X282248D01*
Y166500D01*
X283000D01*
Y168500D01*
X287250D01*
Y169500D01*
Y172500D01*
D02*
G37*
G36*
X35000Y210649D02*
X10000D01*
X9541Y210459D01*
X9351Y210000D01*
Y185000D01*
X9541Y184541D01*
X10000Y184351D01*
X19351D01*
Y183000D01*
X17900D01*
Y176000D01*
X19351D01*
Y170122D01*
X16366D01*
X15962Y170526D01*
X15300Y170800D01*
X14584D01*
X13922Y170526D01*
X13416Y170020D01*
X13142Y169358D01*
Y168642D01*
X13416Y167980D01*
X13922Y167474D01*
X14584Y167200D01*
X15300D01*
X15962Y167474D01*
X16366Y167878D01*
X19400D01*
Y166900D01*
X35600D01*
Y167878D01*
X37035D01*
X48715Y156199D01*
X48888Y155757D01*
X48888D01*
X48888Y155757D01*
Y149242D01*
X54025D01*
Y155757D01*
X52317D01*
X52293Y155793D01*
X38293Y169793D01*
X37929Y170036D01*
X37500Y170122D01*
X37500Y170122D01*
X35649D01*
Y187707D01*
X36084D01*
Y189577D01*
X36389D01*
Y200423D01*
X36084D01*
Y202293D01*
X35649D01*
Y210000D01*
X35459Y210459D01*
X35000Y210649D01*
D02*
G37*
G36*
X129500Y171900D02*
X127000D01*
Y168500D01*
X129500D01*
Y171900D01*
D02*
G37*
G36*
X269500Y167500D02*
X267000D01*
Y164100D01*
X269500D01*
Y167500D01*
D02*
G37*
G36*
X266000D02*
X263500D01*
Y164100D01*
X266000D01*
Y167500D01*
D02*
G37*
G36*
X181239Y169594D02*
X180000D01*
Y162441D01*
X183255D01*
Y167577D01*
X183102Y168349D01*
X182665Y169003D01*
X182010Y169440D01*
X181239Y169594D01*
D02*
G37*
G36*
X179000D02*
X177761D01*
X176990Y169440D01*
X176335Y169003D01*
X175898Y168349D01*
X175745Y167577D01*
Y162441D01*
X179000D01*
Y169594D01*
D02*
G37*
G36*
X100400Y164500D02*
X97000D01*
Y162000D01*
X100400D01*
Y164500D01*
D02*
G37*
G36*
X88000D02*
X84600D01*
Y162000D01*
X88000D01*
Y164500D01*
D02*
G37*
G36*
X162500Y167000D02*
X161000D01*
X158000D01*
Y163900D01*
X158000Y163600D01*
X158000Y163100D01*
Y160000D01*
X161000D01*
X162500D01*
Y167000D01*
D02*
G37*
G36*
X183255Y161441D02*
X180000D01*
Y154288D01*
X181239D01*
X182010Y154441D01*
X182665Y154879D01*
X183102Y155533D01*
X183255Y156305D01*
Y161441D01*
D02*
G37*
G36*
X179000D02*
X175745D01*
Y156305D01*
X175898Y155533D01*
X176335Y154879D01*
X176990Y154441D01*
X177761Y154288D01*
X179000D01*
Y161441D01*
D02*
G37*
G36*
X46000Y156400D02*
X43500D01*
Y153000D01*
X46000D01*
Y156400D01*
D02*
G37*
G36*
X15500D02*
X13000D01*
Y153000D01*
X15500D01*
Y156400D01*
D02*
G37*
G36*
X12000D02*
X11246D01*
Y153000D01*
X12000D01*
Y156400D01*
D02*
G37*
G36*
X42500D02*
X40000D01*
Y153000D01*
X42500D01*
Y156400D01*
D02*
G37*
G36*
X162500Y159000D02*
X161000D01*
X158000D01*
Y155900D01*
X158000Y155600D01*
X158000Y155100D01*
Y152000D01*
X161000D01*
X162500D01*
Y159000D01*
D02*
G37*
G36*
X129500Y151500D02*
X127000D01*
Y148100D01*
X129500D01*
Y151500D01*
D02*
G37*
G36*
X162500Y151000D02*
X161500D01*
Y147600D01*
X162500D01*
Y151000D01*
D02*
G37*
G36*
X160500D02*
X158000D01*
Y147600D01*
X160500D01*
Y151000D01*
D02*
G37*
G36*
X54000Y148400D02*
X51500D01*
Y145000D01*
X54000D01*
Y148400D01*
D02*
G37*
G36*
X15500Y152000D02*
X12500D01*
X11246D01*
Y145000D01*
X12500D01*
X15500D01*
Y148100D01*
X15500Y148400D01*
X15500Y148900D01*
Y152000D01*
D02*
G37*
G36*
X50500Y148400D02*
X48000D01*
Y145000D01*
X50500D01*
Y148400D01*
D02*
G37*
G36*
X46000Y152000D02*
X43000D01*
X40000D01*
Y148900D01*
X40000Y148600D01*
X40000Y148100D01*
Y145000D01*
X43000D01*
X46000D01*
Y148100D01*
X46000Y148400D01*
X46000Y148900D01*
Y152000D01*
D02*
G37*
G36*
X54000Y144000D02*
X51500D01*
Y140600D01*
X54000D01*
Y144000D01*
D02*
G37*
G36*
X50500D02*
X48000D01*
Y140600D01*
X50500D01*
Y144000D01*
D02*
G37*
G36*
X15500D02*
X12500D01*
X11246D01*
Y137000D01*
X12500D01*
X15500D01*
Y140100D01*
X15500Y140400D01*
X15500Y140900D01*
Y144000D01*
D02*
G37*
G36*
X46000D02*
X43000D01*
X40000D01*
Y140900D01*
X40000Y140600D01*
X40000Y140100D01*
Y137000D01*
X43000D01*
X46000D01*
Y140100D01*
X46000Y140400D01*
X46000Y140900D01*
Y144000D01*
D02*
G37*
G36*
Y136000D02*
X43500D01*
Y132600D01*
X46000D01*
Y136000D01*
D02*
G37*
G36*
X42500D02*
X40000D01*
Y132600D01*
X42500D01*
Y136000D01*
D02*
G37*
G36*
X15500D02*
X13000D01*
Y132600D01*
X15500D01*
Y136000D01*
D02*
G37*
G36*
X12000D02*
X11246D01*
Y132600D01*
X12000D01*
Y136000D01*
D02*
G37*
%LPD*%
G36*
X74500Y180000D02*
X42913D01*
Y190500D01*
X39500D01*
Y197000D01*
X42913D01*
Y210000D01*
X74500D01*
Y180000D01*
D02*
G37*
G36*
X236500Y172500D02*
X206000Y172500D01*
Y191500D01*
X236500Y191500D01*
Y172500D01*
D02*
G37*
G36*
X35000Y170000D02*
X20000D01*
Y185000D01*
X10000D01*
Y210000D01*
X35000D01*
Y170000D01*
D02*
G37*
%LPC*%
G36*
X269500Y151500D02*
X267000D01*
Y148100D01*
X269500D01*
Y151500D01*
D02*
G37*
G36*
X266000D02*
X263500D01*
Y148100D01*
X266000D01*
Y151500D01*
D02*
G37*
G36*
X206937Y150500D02*
X202500D01*
Y146063D01*
X202650D01*
X203906Y146399D01*
X205031Y147049D01*
X205951Y147969D01*
X206601Y149094D01*
X206937Y150350D01*
Y150500D01*
D02*
G37*
G36*
X258024Y144917D02*
X246106D01*
Y133000D01*
X258024D01*
Y144917D01*
D02*
G37*
G36*
X204400Y131500D02*
X201000D01*
Y129000D01*
X204400D01*
Y131500D01*
D02*
G37*
G36*
Y128000D02*
X201000D01*
Y125500D01*
X204400D01*
Y128000D01*
D02*
G37*
G36*
X213259Y127500D02*
X211741D01*
X211721Y127400D01*
X210500D01*
Y124000D01*
X213500D01*
X216500D01*
Y127400D01*
X213279D01*
X213259Y127500D01*
D02*
G37*
G36*
X258024Y132000D02*
X246106D01*
Y120083D01*
X258024D01*
Y132000D01*
D02*
G37*
G36*
X54469Y128000D02*
X52000D01*
Y124843D01*
X54469D01*
Y128000D01*
D02*
G37*
G36*
X51000D02*
X48531D01*
Y126887D01*
X48500Y126400D01*
X48031Y126400D01*
X46000D01*
Y123000D01*
X48500D01*
Y124356D01*
X48531Y124843D01*
X49000Y124843D01*
X51000D01*
Y128000D01*
D02*
G37*
G36*
X45000Y126400D02*
X42500D01*
Y123000D01*
X45000D01*
Y126400D01*
D02*
G37*
G36*
X52000Y121674D02*
X51254Y121365D01*
X50635Y120746D01*
X50326Y120000D01*
X52000D01*
Y121674D01*
D02*
G37*
G36*
X20500Y102323D02*
X19426D01*
X19435Y102279D01*
X19598Y102035D01*
X19435Y101792D01*
X19426Y101748D01*
X20500D01*
Y102323D01*
D02*
G37*
G36*
X75400Y106000D02*
X72000D01*
Y103500D01*
X75400D01*
Y106000D01*
D02*
G37*
G36*
X96500Y104500D02*
X94000D01*
Y101100D01*
X96500D01*
Y104500D01*
D02*
G37*
G36*
X93000D02*
X90500D01*
Y101100D01*
X93000D01*
Y104500D01*
D02*
G37*
G36*
X84000Y85000D02*
X78000D01*
Y83000D01*
X81000D01*
X84000D01*
Y85000D01*
D02*
G37*
G36*
X252457Y90158D02*
X249988D01*
Y87000D01*
X252457D01*
Y90158D01*
D02*
G37*
G36*
X255500Y78000D02*
X252500D01*
X249500D01*
Y74900D01*
X249500Y74600D01*
X249500Y74100D01*
Y71000D01*
X252500D01*
X255500D01*
Y74100D01*
X255500Y74400D01*
X255500Y74900D01*
Y78000D01*
D02*
G37*
G36*
Y54000D02*
X253000D01*
Y50600D01*
X255500D01*
Y54000D01*
D02*
G37*
G36*
X252000D02*
X249500D01*
Y50600D01*
X252000D01*
Y54000D01*
D02*
G37*
G36*
X255525Y49758D02*
X250388D01*
Y43242D01*
X252379D01*
Y37424D01*
X251974Y37020D01*
X251700Y36358D01*
Y35642D01*
X251974Y34980D01*
X252480Y34474D01*
X253142Y34200D01*
X253858D01*
X254520Y34474D01*
X255026Y34980D01*
X255300Y35642D01*
Y36358D01*
X255026Y37020D01*
X254622Y37424D01*
Y43242D01*
X255525D01*
Y49758D01*
D02*
G37*
G36*
X356358Y32300D02*
X355642D01*
X354980Y32026D01*
X354474Y31520D01*
X354200Y30858D01*
Y30286D01*
X347939Y24025D01*
X344282D01*
Y20463D01*
X348632D01*
Y21545D01*
X355786Y28700D01*
X356358D01*
X357020Y28974D01*
X357526Y29480D01*
X357800Y30142D01*
Y30858D01*
X357526Y31520D01*
X357020Y32026D01*
X356358Y32300D01*
D02*
G37*
G36*
X27949Y18366D02*
X27169D01*
X26707Y18175D01*
X26516Y17713D01*
Y13783D01*
X26707Y13321D01*
X27169Y13130D01*
X27949D01*
X28411Y13321D01*
X28603Y13783D01*
Y17713D01*
X28411Y18175D01*
X27949Y18366D01*
D02*
G37*
G36*
X44870Y9055D02*
Y6209D01*
X47717D01*
X47503Y7006D01*
X47061Y7773D01*
X46435Y8399D01*
X45668Y8842D01*
X44870Y9055D01*
D02*
G37*
G36*
X43870D02*
X43072Y8842D01*
X42306Y8399D01*
X41680Y7773D01*
X41237Y7006D01*
X41023Y6209D01*
X43870D01*
Y9055D01*
D02*
G37*
G36*
X11248D02*
Y6209D01*
X14095D01*
X13881Y7006D01*
X13439Y7773D01*
X12812Y8399D01*
X12046Y8842D01*
X11248Y9055D01*
D02*
G37*
G36*
X10248D02*
X9450Y8842D01*
X8684Y8399D01*
X8058Y7773D01*
X7615Y7006D01*
X7401Y6209D01*
X10248D01*
Y9055D01*
D02*
G37*
G36*
X47717Y5209D02*
X44870D01*
Y2362D01*
X45668Y2576D01*
X46435Y3018D01*
X47061Y3644D01*
X47503Y4411D01*
X47717Y5209D01*
D02*
G37*
G36*
X43870D02*
X41023D01*
X41237Y4411D01*
X41680Y3644D01*
X42306Y3018D01*
X43072Y2576D01*
X43870Y2362D01*
Y5209D01*
D02*
G37*
G36*
X14095D02*
X11248D01*
Y2362D01*
X12046Y2576D01*
X12812Y3018D01*
X13439Y3644D01*
X13881Y4411D01*
X14095Y5209D01*
D02*
G37*
G36*
X10248D02*
X7401D01*
X7615Y4411D01*
X8058Y3644D01*
X8684Y3018D01*
X9450Y2576D01*
X10248Y2362D01*
Y5209D01*
D02*
G37*
G36*
X320994Y90250D02*
X320006D01*
X319053Y89994D01*
X318198Y89500D01*
X317500Y88802D01*
X317006Y87947D01*
X316750Y86994D01*
Y86006D01*
X317006Y85053D01*
X317500Y84198D01*
X318198Y83500D01*
X319053Y83006D01*
X320006Y82750D01*
X320994D01*
X321947Y83006D01*
X322802Y83500D01*
X323500Y84198D01*
X323994Y85053D01*
X324250Y86006D01*
Y86994D01*
X323994Y87947D01*
X323500Y88802D01*
X322802Y89500D01*
X321947Y89994D01*
X320994Y90250D01*
D02*
G37*
G36*
X354177Y86000D02*
X350528D01*
Y82350D01*
X350574D01*
X351629Y82633D01*
X352575Y83179D01*
X353348Y83952D01*
X353894Y84898D01*
X354177Y85954D01*
Y86000D01*
D02*
G37*
G36*
X349528D02*
X345878D01*
Y85954D01*
X346161Y84898D01*
X346707Y83952D01*
X347480Y83179D01*
X348426Y82633D01*
X349481Y82350D01*
X349528D01*
Y86000D01*
D02*
G37*
G36*
X303900Y84000D02*
X300500D01*
Y81500D01*
X303900D01*
Y84000D01*
D02*
G37*
G36*
X360448Y66500D02*
X360421D01*
Y63000D01*
X363921D01*
Y63027D01*
X363649Y64044D01*
X363122Y64956D01*
X362377Y65701D01*
X361465Y66227D01*
X360448Y66500D01*
D02*
G37*
G36*
X359421D02*
X359395D01*
X358377Y66227D01*
X357465Y65701D01*
X356720Y64956D01*
X356194Y64044D01*
X355921Y63027D01*
Y63000D01*
X359421D01*
Y66500D01*
D02*
G37*
G36*
X350553Y66100D02*
X349605D01*
X348689Y65855D01*
X347868Y65381D01*
X347198Y64710D01*
X346724Y63889D01*
X346479Y62974D01*
Y62026D01*
X346724Y61111D01*
X347198Y60290D01*
X347868Y59619D01*
X348689Y59145D01*
X349605Y58900D01*
X350553D01*
X351468Y59145D01*
X352289Y59619D01*
X352959Y60290D01*
X353433Y61111D01*
X353679Y62026D01*
Y62974D01*
X353433Y63889D01*
X352959Y64710D01*
X352289Y65381D01*
X351468Y65855D01*
X350553Y66100D01*
D02*
G37*
G36*
X363921Y62000D02*
X360421D01*
Y58500D01*
X360448D01*
X361465Y58773D01*
X362377Y59299D01*
X363122Y60044D01*
X363649Y60956D01*
X363921Y61973D01*
Y62000D01*
D02*
G37*
G36*
X359421D02*
X355921D01*
Y61973D01*
X356194Y60956D01*
X356720Y60044D01*
X357465Y59299D01*
X358377Y58773D01*
X359395Y58500D01*
X359421D01*
Y62000D01*
D02*
G37*
G36*
X178342Y101547D02*
X173000D01*
Y96500D01*
X178342D01*
Y97731D01*
X178365Y97754D01*
X178674Y98500D01*
X176500D01*
Y99500D01*
X178674D01*
X178365Y100246D01*
X178342Y100269D01*
Y101547D01*
D02*
G37*
G36*
X172000D02*
X166657D01*
Y100269D01*
X166635Y100246D01*
X166326Y99500D01*
X168500D01*
Y98500D01*
X166326D01*
X166635Y97754D01*
X166657Y97731D01*
Y96500D01*
X172000D01*
Y101547D01*
D02*
G37*
G36*
X178342Y95500D02*
X173000D01*
Y90453D01*
X178342D01*
Y91731D01*
X178365Y91754D01*
X178674Y92500D01*
X176500D01*
Y93500D01*
X178674D01*
X178365Y94246D01*
X178342Y94269D01*
Y95500D01*
D02*
G37*
G36*
X172000D02*
X166657D01*
Y94269D01*
X166635Y94246D01*
X166326Y93500D01*
X168500D01*
Y92500D01*
X166326D01*
X166635Y91754D01*
X166657Y91731D01*
Y90453D01*
X172000D01*
Y95500D01*
D02*
G37*
G36*
X179404Y52198D02*
Y47729D01*
X182939D01*
Y48229D01*
X182801Y49273D01*
X182398Y50246D01*
X181757Y51082D01*
X180922Y51723D01*
X179948Y52126D01*
X179404Y52198D01*
D02*
G37*
G36*
X178404D02*
X177860Y52126D01*
X176887Y51723D01*
X176051Y51082D01*
X175410Y50246D01*
X175007Y49273D01*
X174870Y48229D01*
Y47729D01*
X178404D01*
Y52198D01*
D02*
G37*
G36*
X169204Y51860D02*
X168264Y51736D01*
X167389Y51374D01*
X166637Y50797D01*
X166060Y50045D01*
X165697Y49169D01*
X165573Y48229D01*
Y46229D01*
X165697Y45289D01*
X166060Y44414D01*
X166637Y43662D01*
X167389Y43084D01*
X168264Y42722D01*
X169204Y42598D01*
X170144Y42722D01*
X171020Y43084D01*
X171772Y43662D01*
X172349Y44414D01*
X172712Y45289D01*
X172835Y46229D01*
Y48229D01*
X172712Y49169D01*
X172349Y50045D01*
X171772Y50797D01*
X171020Y51374D01*
X170144Y51736D01*
X169204Y51860D01*
D02*
G37*
G36*
X161304D02*
X160364Y51736D01*
X159489Y51374D01*
X158737Y50797D01*
X158160Y50045D01*
X157797Y49169D01*
X157673Y48229D01*
Y46229D01*
X157797Y45289D01*
X158160Y44414D01*
X158737Y43662D01*
X159489Y43084D01*
X160364Y42722D01*
X161304Y42598D01*
X162244Y42722D01*
X163120Y43084D01*
X163872Y43662D01*
X164449Y44414D01*
X164812Y45289D01*
X164935Y46229D01*
Y48229D01*
X164812Y49169D01*
X164449Y50045D01*
X163872Y50797D01*
X163120Y51374D01*
X162244Y51736D01*
X161304Y51860D01*
D02*
G37*
G36*
X182939Y46729D02*
X179404D01*
Y42260D01*
X179948Y42332D01*
X180922Y42735D01*
X181757Y43376D01*
X182398Y44212D01*
X182801Y45185D01*
X182939Y46229D01*
Y46729D01*
D02*
G37*
G36*
X178404D02*
X174870D01*
Y46229D01*
X175007Y45185D01*
X175410Y44212D01*
X176051Y43376D01*
X176887Y42735D01*
X177860Y42332D01*
X178404Y42260D01*
Y46729D01*
D02*
G37*
G36*
X191953Y44229D02*
X190456D01*
X188988Y43937D01*
X187604Y43364D01*
X186360Y42532D01*
X185301Y41474D01*
X184469Y40229D01*
X183896Y38846D01*
X183604Y37378D01*
Y35881D01*
X183896Y34412D01*
X184469Y33029D01*
X185301Y31784D01*
X186360Y30726D01*
X187604Y29894D01*
X188988Y29321D01*
X190456Y29029D01*
X191953D01*
X193421Y29321D01*
X194804Y29894D01*
X196049Y30726D01*
X197108Y31784D01*
X197939Y33029D01*
X198512Y34412D01*
X198804Y35881D01*
Y37378D01*
X198512Y38846D01*
X197939Y40229D01*
X197108Y41474D01*
X196049Y42532D01*
X194804Y43364D01*
X193421Y43937D01*
X191953Y44229D01*
D02*
G37*
G36*
X15000Y68000D02*
X12500D01*
Y64600D01*
X15000D01*
Y68000D01*
D02*
G37*
G36*
X11500D02*
X9000D01*
Y64600D01*
X11500D01*
Y68000D01*
D02*
G37*
G36*
X13000Y55500D02*
X9600D01*
Y53000D01*
X13000D01*
Y55500D01*
D02*
G37*
G36*
Y52000D02*
X9600D01*
Y49500D01*
X13000D01*
Y52000D01*
D02*
G37*
G36*
X108538Y52198D02*
Y47729D01*
X112073D01*
Y48229D01*
X111935Y49273D01*
X111532Y50246D01*
X110891Y51082D01*
X110055Y51723D01*
X109082Y52126D01*
X108538Y52198D01*
D02*
G37*
G36*
X107538D02*
X106994Y52126D01*
X106021Y51723D01*
X105185Y51082D01*
X104544Y50246D01*
X104141Y49273D01*
X104004Y48229D01*
Y47729D01*
X107538D01*
Y52198D01*
D02*
G37*
G36*
X15000Y48400D02*
X12500D01*
Y45000D01*
X15000D01*
Y48400D01*
D02*
G37*
G36*
X11500D02*
X9000D01*
Y45000D01*
X11500D01*
Y48400D01*
D02*
G37*
G36*
X98338Y51860D02*
X97398Y51736D01*
X96523Y51374D01*
X95771Y50797D01*
X95194Y50045D01*
X94831Y49169D01*
X94707Y48229D01*
Y46229D01*
X94831Y45289D01*
X95194Y44414D01*
X95771Y43662D01*
X96523Y43084D01*
X97398Y42722D01*
X98338Y42598D01*
X99278Y42722D01*
X100154Y43084D01*
X100906Y43662D01*
X101483Y44414D01*
X101846Y45289D01*
X101969Y46229D01*
Y48229D01*
X101846Y49169D01*
X101483Y50045D01*
X100906Y50797D01*
X100154Y51374D01*
X99278Y51736D01*
X98338Y51860D01*
D02*
G37*
G36*
X90438D02*
X89498Y51736D01*
X88623Y51374D01*
X87871Y50797D01*
X87294Y50045D01*
X86931Y49169D01*
X86807Y48229D01*
Y46229D01*
X86931Y45289D01*
X87294Y44414D01*
X87871Y43662D01*
X88623Y43084D01*
X89498Y42722D01*
X90438Y42598D01*
X91378Y42722D01*
X92254Y43084D01*
X93006Y43662D01*
X93583Y44414D01*
X93945Y45289D01*
X94069Y46229D01*
Y48229D01*
X93945Y49169D01*
X93583Y50045D01*
X93006Y50797D01*
X92254Y51374D01*
X91378Y51736D01*
X90438Y51860D01*
D02*
G37*
G36*
X112073Y46729D02*
X108538D01*
Y42260D01*
X109082Y42332D01*
X110055Y42735D01*
X110891Y43376D01*
X111532Y44212D01*
X111935Y45185D01*
X112073Y46229D01*
Y46729D01*
D02*
G37*
G36*
X107538D02*
X104004D01*
Y46229D01*
X104141Y45185D01*
X104544Y44212D01*
X105185Y43376D01*
X106021Y42735D01*
X106994Y42332D01*
X107538Y42260D01*
Y46729D01*
D02*
G37*
G36*
X15000Y44000D02*
X12500D01*
Y40600D01*
X15000D01*
Y44000D01*
D02*
G37*
G36*
X11500D02*
X9000D01*
Y40600D01*
X11500D01*
Y44000D01*
D02*
G37*
G36*
X53000Y40500D02*
X50500D01*
Y37100D01*
X53000D01*
Y40500D01*
D02*
G37*
G36*
X49500D02*
X47000D01*
Y37100D01*
X49500D01*
Y40500D01*
D02*
G37*
G36*
X16232Y37161D02*
X16148D01*
X15755Y37083D01*
X15423Y36861D01*
X15200Y36528D01*
X15122Y36136D01*
Y36000D01*
X16232D01*
Y37161D01*
D02*
G37*
G36*
X290980Y45748D02*
X289890D01*
Y44067D01*
X290980D01*
Y45748D01*
D02*
G37*
G36*
X303900Y34000D02*
X300500D01*
Y31500D01*
X303900D01*
Y34000D01*
D02*
G37*
G36*
X299500D02*
X296100D01*
Y31500D01*
X299500D01*
Y34000D01*
D02*
G37*
G36*
X303900Y30500D02*
X300500D01*
Y28000D01*
X303900D01*
Y30500D01*
D02*
G37*
G36*
X299500D02*
X296100D01*
Y28000D01*
X299500D01*
Y30500D01*
D02*
G37*
G36*
X381900Y37000D02*
X378500D01*
Y34500D01*
X381900D01*
Y37000D01*
D02*
G37*
G36*
Y33500D02*
X378500D01*
Y31000D01*
X381900D01*
Y33500D01*
D02*
G37*
G36*
X377500Y37000D02*
X374100D01*
Y36651D01*
X373657Y36512D01*
X373600Y36512D01*
X370500D01*
Y33543D01*
Y30575D01*
X373657D01*
Y30861D01*
X374100Y31000D01*
X374158Y31000D01*
X377500D01*
Y34000D01*
Y37000D01*
D02*
G37*
%LPD*%
D10*
X279000Y186000D02*
D03*
X271000D02*
D03*
X59000Y136500D02*
D03*
X51000D02*
D03*
X101500Y120000D02*
D03*
X93500D02*
D03*
X101500Y105000D02*
D03*
X93500D02*
D03*
X51000Y144500D02*
D03*
X59000D02*
D03*
X64500Y160000D02*
D03*
X72500D02*
D03*
X12500Y179500D02*
D03*
X20500D02*
D03*
X37500Y122500D02*
D03*
X45500D02*
D03*
X35000Y152500D02*
D03*
X43000D02*
D03*
X35000Y144500D02*
D03*
X43000D02*
D03*
X35000Y136500D02*
D03*
X43000D02*
D03*
X12500Y152500D02*
D03*
X20500D02*
D03*
X12500Y144500D02*
D03*
X20500D02*
D03*
Y136500D02*
D03*
X12500D02*
D03*
X130000Y168000D02*
D03*
X138000D02*
D03*
X161000Y167500D02*
D03*
X153000D02*
D03*
X130000Y160000D02*
D03*
X138000D02*
D03*
X130000Y152000D02*
D03*
X138000D02*
D03*
X161000Y159500D02*
D03*
X153000D02*
D03*
X161000Y151500D02*
D03*
X153000D02*
D03*
X191500Y185000D02*
D03*
X183500D02*
D03*
X241500Y186000D02*
D03*
X233500D02*
D03*
X221500Y123500D02*
D03*
X213500D02*
D03*
X266500Y168000D02*
D03*
X258500D02*
D03*
Y160000D02*
D03*
X266500D02*
D03*
X258500Y152000D02*
D03*
X266500D02*
D03*
X252500Y78500D02*
D03*
X260500D02*
D03*
X252500Y70500D02*
D03*
X260500D02*
D03*
X252500Y54500D02*
D03*
X260500D02*
D03*
X186500Y80000D02*
D03*
X178500D02*
D03*
X223000Y87500D02*
D03*
X215000D02*
D03*
Y79500D02*
D03*
X223000D02*
D03*
X215000Y71500D02*
D03*
X223000D02*
D03*
X215000Y63500D02*
D03*
X223000D02*
D03*
X200000Y72000D02*
D03*
X192000D02*
D03*
X145000D02*
D03*
X153000D02*
D03*
X122000Y87500D02*
D03*
X130000D02*
D03*
X122000Y79500D02*
D03*
X130000D02*
D03*
X122000Y71500D02*
D03*
X130000D02*
D03*
X122000Y63500D02*
D03*
X130000D02*
D03*
X89000Y82500D02*
D03*
X81000D02*
D03*
X42000Y41000D02*
D03*
X50000D02*
D03*
X12000Y68500D02*
D03*
X20000D02*
D03*
Y44500D02*
D03*
X12000D02*
D03*
D11*
X51500Y128500D02*
D03*
X58543D02*
D03*
X101043Y112500D02*
D03*
X93957D02*
D03*
X51457Y152500D02*
D03*
X58543D02*
D03*
X316457Y60500D02*
D03*
X323543D02*
D03*
X316457Y52500D02*
D03*
X323543D02*
D03*
X252957Y86500D02*
D03*
X260043D02*
D03*
X252957Y46500D02*
D03*
X260043D02*
D03*
X192457Y80000D02*
D03*
X199543D02*
D03*
X186043Y72000D02*
D03*
X178957D02*
D03*
X152543Y80000D02*
D03*
X145457D02*
D03*
X158957Y72000D02*
D03*
X166043D02*
D03*
X81457Y67000D02*
D03*
X88543D02*
D03*
D12*
X161083Y104957D02*
D03*
Y102398D02*
D03*
Y99839D02*
D03*
Y97280D02*
D03*
Y94721D02*
D03*
Y92161D02*
D03*
Y89602D02*
D03*
Y87043D02*
D03*
X183917D02*
D03*
Y89602D02*
D03*
Y92161D02*
D03*
Y94721D02*
D03*
Y97280D02*
D03*
Y99839D02*
D03*
Y102398D02*
D03*
Y104957D02*
D03*
D13*
X172500Y96000D02*
D03*
D14*
X118642Y105000D02*
D03*
X136358D02*
D03*
X226358D02*
D03*
X208642D02*
D03*
D15*
X66299Y187000D02*
D03*
X103701D02*
D03*
D16*
X34500Y200512D02*
D03*
Y189488D02*
D03*
X138500Y182488D02*
D03*
Y193512D02*
D03*
X160500Y182488D02*
D03*
Y193512D02*
D03*
D17*
X32295Y195000D02*
D03*
X140705Y188000D02*
D03*
X158295D02*
D03*
D18*
X28000Y191161D02*
D03*
Y193720D02*
D03*
Y196280D02*
D03*
Y198839D02*
D03*
X40500D02*
D03*
Y196280D02*
D03*
Y193720D02*
D03*
X40602Y191161D02*
D03*
X145000Y191839D02*
D03*
Y189279D02*
D03*
Y186721D02*
D03*
Y184161D02*
D03*
X132500D02*
D03*
Y186721D02*
D03*
Y189279D02*
D03*
X132398Y191839D02*
D03*
X166602Y184161D02*
D03*
X166500Y186721D02*
D03*
Y189279D02*
D03*
Y191839D02*
D03*
X154000D02*
D03*
Y189279D02*
D03*
Y186721D02*
D03*
Y184161D02*
D03*
D19*
X55012Y180500D02*
D03*
X43988D02*
D03*
X125512Y181000D02*
D03*
X114488D02*
D03*
D20*
X49500Y182705D02*
D03*
X120000Y183205D02*
D03*
D21*
X45661Y187000D02*
D03*
X48221D02*
D03*
X50779D02*
D03*
X53339D02*
D03*
Y174500D02*
D03*
X50779D02*
D03*
X48221D02*
D03*
X45661Y174398D02*
D03*
X116161Y187500D02*
D03*
X118720D02*
D03*
X121280D02*
D03*
X123839D02*
D03*
Y175000D02*
D03*
X121280D02*
D03*
X118720D02*
D03*
X116161Y174898D02*
D03*
X289390Y46248D02*
D03*
X285453D02*
D03*
X283484D02*
D03*
X281516D02*
D03*
X279547D02*
D03*
X277579D02*
D03*
X275610D02*
D03*
X287421D02*
D03*
Y64752D02*
D03*
X275610D02*
D03*
X277579D02*
D03*
X279547D02*
D03*
X281516D02*
D03*
X283484D02*
D03*
X285453D02*
D03*
X289390D02*
D03*
D22*
X85000Y135000D02*
D03*
D23*
X92874Y129488D02*
D03*
Y131063D02*
D03*
Y132638D02*
D03*
Y134213D02*
D03*
Y135787D02*
D03*
Y137362D02*
D03*
Y138937D02*
D03*
Y140512D02*
D03*
X77126Y129488D02*
D03*
Y131063D02*
D03*
Y132638D02*
D03*
Y134213D02*
D03*
Y135787D02*
D03*
Y137362D02*
D03*
Y138937D02*
D03*
Y140512D02*
D03*
D24*
X90512Y142874D02*
D03*
X88937D02*
D03*
X87362D02*
D03*
X85787D02*
D03*
X84213D02*
D03*
X82638D02*
D03*
X81063D02*
D03*
X79488D02*
D03*
X90512Y127126D02*
D03*
X88937D02*
D03*
X87362D02*
D03*
X85787D02*
D03*
X84213D02*
D03*
X82638D02*
D03*
X81063D02*
D03*
X79488D02*
D03*
D25*
X273000Y208500D02*
D03*
X200000D02*
D03*
X235500D02*
D03*
D26*
X262500Y198504D02*
D03*
Y186496D02*
D03*
X250000Y198504D02*
D03*
Y186496D02*
D03*
X212500Y198504D02*
D03*
Y186496D02*
D03*
X225000Y198504D02*
D03*
Y186496D02*
D03*
D27*
X71500Y98500D02*
D03*
Y106500D02*
D03*
X63500Y98500D02*
D03*
Y106500D02*
D03*
X88500Y161500D02*
D03*
Y153500D02*
D03*
X96500D02*
D03*
Y161500D02*
D03*
X107500Y149000D02*
D03*
Y141000D02*
D03*
X175000Y174000D02*
D03*
Y182000D02*
D03*
X201500Y187000D02*
D03*
Y195000D02*
D03*
X200500Y128500D02*
D03*
Y136500D02*
D03*
X300000Y81000D02*
D03*
Y73000D02*
D03*
X378000Y34000D02*
D03*
Y26000D02*
D03*
X300000Y39000D02*
D03*
Y31000D02*
D03*
X13500Y52500D02*
D03*
Y60500D02*
D03*
D28*
X27500Y161000D02*
D03*
Y169000D02*
D03*
D29*
X179500Y161941D02*
D03*
Y142059D02*
D03*
D30*
X183500Y202500D02*
D03*
X191500D02*
D03*
D31*
X212000Y162043D02*
D03*
Y154957D02*
D03*
X370000Y33543D02*
D03*
Y26457D02*
D03*
X331500Y31457D02*
D03*
Y38543D02*
D03*
X323500Y31457D02*
D03*
Y38543D02*
D03*
D32*
X235000Y161500D02*
D03*
D33*
X229193Y156776D02*
D03*
Y158350D02*
D03*
Y159925D02*
D03*
Y161500D02*
D03*
Y163075D02*
D03*
Y164650D02*
D03*
Y166224D02*
D03*
X240807D02*
D03*
Y164650D02*
D03*
Y163075D02*
D03*
Y161500D02*
D03*
Y159925D02*
D03*
Y158350D02*
D03*
Y156776D02*
D03*
D34*
X258524Y132500D02*
D03*
D35*
X232677Y123484D02*
D03*
Y141516D02*
D03*
D36*
X273248Y48610D02*
D03*
Y52547D02*
D03*
Y50579D02*
D03*
Y56484D02*
D03*
Y54516D02*
D03*
Y60421D02*
D03*
Y58453D02*
D03*
X291752D02*
D03*
Y60421D02*
D03*
Y62390D02*
D03*
Y54516D02*
D03*
Y56484D02*
D03*
Y50579D02*
D03*
Y52547D02*
D03*
Y48610D02*
D03*
X273248Y62390D02*
D03*
D37*
X282500Y55500D02*
D03*
D38*
X362500Y26500D02*
D03*
Y33500D02*
D03*
D39*
X379528Y8071D02*
D03*
Y14764D02*
D03*
X357480D02*
D03*
Y8071D02*
D03*
D40*
X346457Y27362D02*
D03*
Y22244D02*
D03*
Y12244D02*
D03*
Y17362D02*
D03*
D41*
X260339Y62500D02*
D03*
X252661D02*
D03*
D42*
X209000Y55000D02*
D03*
Y59500D02*
D03*
X135500D02*
D03*
Y55000D02*
D03*
D43*
X70000Y74500D02*
D03*
D44*
X64095Y71350D02*
D03*
Y72925D02*
D03*
Y74500D02*
D03*
Y76075D02*
D03*
Y77650D02*
D03*
X75906D02*
D03*
Y76075D02*
D03*
Y74500D02*
D03*
Y72925D02*
D03*
Y71350D02*
D03*
X49409Y83925D02*
D03*
Y85500D02*
D03*
Y87075D02*
D03*
Y88650D02*
D03*
Y90224D02*
D03*
Y91799D02*
D03*
Y93374D02*
D03*
Y94949D02*
D03*
Y96524D02*
D03*
Y98098D02*
D03*
Y99673D02*
D03*
Y101248D02*
D03*
Y102823D02*
D03*
Y104398D02*
D03*
X21929D02*
D03*
Y102823D02*
D03*
Y101248D02*
D03*
Y99673D02*
D03*
Y98098D02*
D03*
Y96524D02*
D03*
Y94949D02*
D03*
Y93374D02*
D03*
Y91799D02*
D03*
Y90224D02*
D03*
Y88650D02*
D03*
Y87075D02*
D03*
Y85500D02*
D03*
Y83925D02*
D03*
D45*
X66850Y80405D02*
D03*
X68425D02*
D03*
X70000D02*
D03*
X71575D02*
D03*
X73150D02*
D03*
Y68594D02*
D03*
X71575D02*
D03*
X70000D02*
D03*
X68425D02*
D03*
X66850D02*
D03*
X27008Y80382D02*
D03*
X28583D02*
D03*
X30158D02*
D03*
X31732D02*
D03*
X33307D02*
D03*
X34882D02*
D03*
X36457D02*
D03*
X38032D02*
D03*
X39606D02*
D03*
X41181D02*
D03*
X42756D02*
D03*
X44331D02*
D03*
X45906D02*
D03*
Y107941D02*
D03*
X44331D02*
D03*
X42756D02*
D03*
X41181D02*
D03*
X39606D02*
D03*
X38032D02*
D03*
X36457D02*
D03*
X34882D02*
D03*
X33307D02*
D03*
X31732D02*
D03*
X30158D02*
D03*
X28583D02*
D03*
X27008D02*
D03*
X25433D02*
D03*
D46*
X41575Y86799D02*
D03*
X29961D02*
D03*
D47*
X25433Y80382D02*
D03*
D48*
X35669Y98216D02*
D03*
D49*
X30512Y33779D02*
D03*
X26575D02*
D03*
X28543D02*
D03*
X24606D02*
D03*
X32480D02*
D03*
X34449D02*
D03*
X36417D02*
D03*
X38386D02*
D03*
X22638D02*
D03*
X20669D02*
D03*
X18701D02*
D03*
X16732D02*
D03*
D50*
X27559Y15748D02*
D03*
Y3543D02*
D03*
D51*
X271000Y132000D02*
D03*
X275500D02*
D03*
D52*
X280250Y176500D02*
D03*
Y169500D02*
D03*
D53*
X287750Y176500D02*
D03*
Y169500D02*
D03*
D54*
X44370Y19130D02*
Y24331D01*
X10748Y17752D02*
Y24331D01*
X200500Y128500D02*
X205000D01*
X200500Y124500D02*
Y128500D01*
Y132000D01*
X209500Y123500D02*
X213500D01*
Y127889D01*
X179500Y154000D02*
Y161941D01*
X185441D01*
X174059D02*
X179500D01*
Y170000D01*
X130000Y168000D02*
Y174000D01*
X126500Y168000D02*
X130000D01*
X126500Y160000D02*
X130000D01*
X126000Y152000D02*
X130000D01*
Y160000D02*
Y168000D01*
Y152000D02*
Y160000D01*
X43000Y136500D02*
X46500D01*
X43000Y144500D02*
X46500D01*
X43000Y152500D02*
X46500D01*
X39500Y136500D02*
X43000D01*
X39000Y144500D02*
X43000D01*
X39000Y152500D02*
X43000D01*
Y131500D02*
Y136500D01*
Y152500D02*
Y156500D01*
Y144500D02*
Y152500D01*
Y136500D02*
Y144500D01*
X50000Y36174D02*
Y41000D01*
X53500D01*
X46500D02*
X50000D01*
X12000Y64500D02*
Y68500D01*
X15500D01*
X8000D02*
X12000D01*
X9000Y52500D02*
X13500D01*
Y56500D01*
Y49500D02*
Y52500D01*
X12000Y48000D02*
X13500Y49500D01*
X12000Y44500D02*
Y48000D01*
Y44500D02*
X15500D01*
X12000Y40000D02*
Y44500D01*
X7500D02*
X12000D01*
X258524Y119524D02*
Y132500D01*
X268500D02*
X273500Y137500D01*
X268000Y132500D02*
X273500Y127000D01*
X12500Y179500D02*
X12500D01*
Y182900D01*
Y179500D02*
X16000D01*
X12500Y175500D02*
Y179500D01*
X8000D02*
X12500D01*
X20000Y65500D02*
Y68500D01*
X15000Y60500D02*
X20000Y65500D01*
X13500Y60500D02*
X15000D01*
X20000Y68500D02*
Y73000D01*
X266500Y152000D02*
Y160000D01*
X54006Y99673D02*
X56327D01*
X56500Y99500D01*
X63500Y106500D02*
X71500D01*
X97500Y127000D02*
X100500D01*
X51500Y128500D02*
Y136000D01*
X51000Y136500D02*
X51500Y136000D01*
X96500Y98500D02*
X109000D01*
X89500Y91500D02*
X96500Y98500D01*
X109000D02*
Y101000D01*
X89500Y89500D02*
Y91500D01*
X273000Y97000D02*
X275000Y95000D01*
D55*
X235000Y165043D02*
Y168500D01*
Y161500D02*
Y165043D01*
X243000Y132500D02*
X258524D01*
Y145476D01*
X226358Y46858D02*
Y79500D01*
Y105000D01*
X118642Y79500D02*
Y105000D01*
Y63642D02*
Y79500D01*
X185000Y49000D02*
X209000D01*
X135500Y50000D02*
Y53500D01*
X117000Y50000D02*
X135500D01*
X209000Y49000D02*
Y53500D01*
X183229Y47229D02*
X185000Y49000D01*
X178904Y47229D02*
X183229D01*
X114229D02*
X117000Y50000D01*
X108038Y47229D02*
X114229D01*
X204303Y24803D02*
X226358Y46858D01*
X169197Y24803D02*
X204303D01*
X151504Y42496D02*
X169197Y24803D01*
X111500Y56500D02*
X118500Y63500D01*
X86500Y56500D02*
X111500D01*
X80638Y50638D02*
X86500Y56500D01*
X80638Y47229D02*
Y50638D01*
X151504Y42496D02*
Y47229D01*
D56*
X27500Y144500D02*
Y154500D01*
Y130500D02*
Y144500D01*
X8500Y111500D02*
X27500Y130500D01*
X144882Y137795D02*
X175236D01*
X144500Y138000D02*
Y173000D01*
X175236Y137795D02*
X175500D01*
X144776Y137902D02*
X144882Y137795D01*
X8500Y79500D02*
Y111500D01*
D57*
X14942Y161000D02*
X27500D01*
X14942Y169000D02*
X27500D01*
X282500Y55500D02*
X289390Y48610D01*
X272312Y40000D02*
X272750D01*
X340185Y83685D02*
Y86500D01*
X327500Y71000D02*
X340185Y83685D01*
X310500Y71000D02*
X327500D01*
X298500Y72500D02*
X299000Y72000D01*
X302000Y75000D02*
X324000D01*
X300000Y73000D02*
X302000Y75000D01*
X320843Y77000D02*
X330343Y86500D01*
X294000Y77000D02*
X320843D01*
X200000Y54500D02*
Y72000D01*
X57500Y27500D02*
Y40000D01*
X80500Y63000D01*
X276000Y176500D02*
X280250D01*
X289390Y46248D02*
Y48610D01*
X273248Y56484D02*
X281516D01*
X277579Y60421D02*
Y64752D01*
X305500Y66000D02*
X310500Y71000D01*
X300000Y67500D02*
Y71000D01*
X324000Y67500D02*
X335236D01*
X320000Y63500D02*
X324000Y67500D01*
X320000Y49000D02*
Y63500D01*
X315413Y60500D02*
X316457Y61543D01*
X289390Y64752D02*
Y76890D01*
X64095Y76075D02*
Y77650D01*
Y74500D02*
Y76075D01*
X145000Y57500D02*
Y72000D01*
X141000Y53500D02*
X145000Y57500D01*
X287421Y78760D02*
X299661Y91000D01*
X300081D01*
X354000Y92000D02*
X358435Y87565D01*
X304500Y92000D02*
X354000D01*
X289390Y76890D02*
X304500Y92000D01*
X363351Y33500D02*
X370394Y26457D01*
X260043Y45043D02*
X261136Y46136D01*
X266083Y22500D02*
X306000D01*
X260043Y28539D02*
X266083Y22500D01*
X260043Y28539D02*
Y45043D01*
X287421Y64752D02*
Y78760D01*
X269047Y58453D02*
X273248D01*
X266500Y61000D02*
X269047Y58453D01*
X266500Y61000D02*
Y74000D01*
X322500Y31457D02*
X323500Y30457D01*
X328000Y24500D02*
X340500D01*
X323500Y29000D02*
X328000Y24500D01*
X323500Y29000D02*
Y30457D01*
X330500Y31457D02*
X331500Y30457D01*
X333138Y27362D02*
X346457D01*
X331500Y29000D02*
X333138Y27362D01*
X331500Y29000D02*
Y30457D01*
X300000Y39000D02*
Y43500D01*
X294890Y48610D02*
X300000Y43500D01*
X291752Y48610D02*
X294890D01*
X311500Y58500D02*
Y60500D01*
X307516Y54516D02*
X311500Y58500D01*
X291752Y54516D02*
X307516D01*
X80000Y65500D02*
Y65543D01*
Y65000D02*
Y65500D01*
X56437Y50937D02*
X63000Y57500D01*
X80500Y63000D02*
Y65500D01*
X80000Y65543D02*
X81457Y67000D01*
X89000Y79000D02*
Y82500D01*
X87650Y77650D02*
X89000Y79000D01*
X75906Y77650D02*
X87650D01*
X101500Y112957D02*
Y120000D01*
X101043Y112500D02*
X101500Y112957D01*
X94000Y112500D02*
X101500Y105000D01*
X111500Y157500D02*
X115500Y161500D01*
X85000Y157500D02*
X111500D01*
X82000Y160500D02*
X85000Y157500D01*
X82000Y160500D02*
Y162500D01*
X40500Y198839D02*
Y207500D01*
X200000Y72000D02*
Y79543D01*
X145000Y72000D02*
Y79543D01*
X342500Y14000D02*
Y22500D01*
X340500Y24500D02*
X342500Y22500D01*
Y14000D02*
X344256Y12244D01*
X335236Y67500D02*
X340236Y62500D01*
X282500Y85405D02*
X285453Y82453D01*
Y64752D02*
Y82453D01*
X318500Y47500D02*
X320000Y49000D01*
X302000Y47500D02*
X318500D01*
X298921Y50579D02*
X302000Y47500D01*
X318500Y35000D02*
X362000D01*
X306000Y22500D02*
X318500Y35000D01*
X347744Y22244D02*
X356000Y30500D01*
X346457Y22244D02*
X347744D01*
X349362Y17362D02*
X355500Y23500D01*
X346457Y17362D02*
X349362D01*
X354429Y8071D02*
X357480D01*
X353000Y9500D02*
X354429Y8071D01*
X353000Y9500D02*
Y17000D01*
X362500Y26500D01*
X344256Y12244D02*
X346457D01*
X331457Y38500D02*
X331500Y38543D01*
X269000Y94000D02*
X283484Y79516D01*
X264500Y94000D02*
X281516Y76984D01*
Y64752D02*
Y76984D01*
X283484Y64752D02*
Y79516D01*
X287421Y27579D02*
X288000Y27000D01*
X287421Y27579D02*
Y46248D01*
X284500Y30000D02*
X285453Y30953D01*
X272500Y40500D02*
X275610Y43610D01*
X277579Y37579D02*
Y46248D01*
X275610Y43610D02*
Y46248D01*
X285453Y30953D02*
Y46248D01*
X268500Y46000D02*
X271110Y48610D01*
X268500Y27000D02*
Y46000D01*
X265000D02*
X269579Y50579D01*
X265000Y30000D02*
Y46000D01*
X253500Y45957D02*
X253750Y45707D01*
X252957Y46500D02*
X253500Y45957D01*
Y36000D02*
Y45957D01*
X267547Y52547D02*
X273248D01*
X261500Y46500D02*
X267547Y52547D01*
X259500Y44500D02*
X260043Y45043D01*
Y46500D01*
X260772D02*
X261500D01*
X260043D02*
X260772D01*
X261136Y46136D02*
X261500Y46500D01*
X260772D02*
X261136Y46136D01*
X271110Y48610D02*
X273248D01*
X211646Y161299D02*
X212039D01*
X311500Y52500D02*
X316457D01*
X291752Y52547D02*
X311453D01*
X311500Y52500D01*
Y60500D02*
X315413D01*
X316457D02*
Y61543D01*
X357370Y86500D02*
X358435Y87565D01*
X260484Y54516D02*
X273248D01*
X260016D02*
X260484D01*
X260500Y54500D01*
X252661Y62339D02*
X260484Y54516D01*
X275610Y64752D02*
Y72390D01*
X269500Y78500D02*
X275610Y72390D01*
X260500Y78500D02*
X269500D01*
X267500Y86500D02*
X279547Y74453D01*
X260043Y86500D02*
X267500D01*
X108000Y63000D02*
Y92000D01*
X104000Y63000D02*
Y92500D01*
X303984Y56484D02*
X305500Y58000D01*
X291752Y56484D02*
X303984D01*
X301953Y58453D02*
X305500Y62000D01*
X291752Y58453D02*
X301953D01*
X299921Y60421D02*
X305500Y66000D01*
X291752Y60421D02*
X299921D01*
X291752Y50579D02*
X298921D01*
X269579D02*
X273248D01*
X260500Y70500D02*
Y78500D01*
Y62661D02*
Y70500D01*
X260339Y62500D02*
X260500Y62661D01*
X294890Y62390D02*
X300000Y67500D01*
X291752Y62390D02*
X294890D01*
X279547Y64752D02*
Y74453D01*
X370394Y26457D02*
X377543D01*
X357480Y8071D02*
X379528D01*
X57500Y48500D02*
X66500Y57500D01*
X58000Y46000D02*
X68000Y56000D01*
X29563Y50937D02*
X56437D01*
X31626Y46000D02*
X58000D01*
X30500Y48500D02*
X57500D01*
X59000Y145543D02*
Y152500D01*
Y144500D02*
Y145543D01*
X27000Y45000D02*
X30500Y48500D01*
X28543Y33779D02*
Y42917D01*
X31626Y46000D01*
X24606Y45980D02*
X29563Y50937D01*
X26575Y33779D02*
Y44449D01*
X21929Y83925D02*
X26933D01*
X41433Y86925D02*
X44732Y90224D01*
X49409D01*
X44433Y83925D02*
X49409D01*
X21929Y90224D02*
X26634D01*
X272500Y169500D02*
X280250D01*
X24606Y33779D02*
Y45980D01*
X49409Y99673D02*
X53342D01*
X27500Y169000D02*
X37500D01*
X51500Y155000D01*
X190500Y191000D02*
Y201500D01*
X184500Y191000D02*
Y201500D01*
Y186000D02*
Y191000D01*
X190500Y186000D02*
Y191000D01*
D58*
X284500Y117500D02*
Y157000D01*
X239000Y33000D02*
Y94500D01*
X254000Y109500D01*
X276500D02*
X284500Y117500D01*
X254000Y109500D02*
X276500D01*
D59*
X87362Y137362D02*
Y142874D01*
X163500Y179000D02*
Y191000D01*
X33307Y100579D02*
Y107941D01*
X28807Y91799D02*
X35433Y98425D01*
X42059Y91799D01*
X67835Y72921D02*
X68583D01*
X67835Y71346D02*
X70157D01*
X64095Y76075D02*
X68425D01*
X31732Y65268D02*
X33000Y64000D01*
X75906Y76075D02*
X94000D01*
X277579Y34579D02*
Y37579D01*
X277500Y34500D02*
X277579Y34579D01*
X21699Y93396D02*
X21803Y93500D01*
X66850Y80405D02*
Y87650D01*
X65500Y89000D02*
X66850Y87650D01*
X65500Y89000D02*
Y90500D01*
X68425Y88925D02*
X69000Y89500D01*
X68425Y80405D02*
Y88925D01*
X61500Y98500D02*
Y99000D01*
X53435Y96935D02*
X65565D01*
X71575Y81406D02*
Y90925D01*
X65565Y96935D02*
X71575Y90925D01*
X67000Y102500D02*
X73150Y96350D01*
Y81406D02*
Y96350D01*
X77500Y110000D02*
X85787Y118287D01*
X58815Y110000D02*
X77500D01*
X51638Y102823D02*
X58815Y110000D01*
X84213Y120713D02*
Y127126D01*
X75500Y112000D02*
X84213Y120713D01*
X58315Y112000D02*
X75500D01*
X50713Y104398D02*
X58315Y112000D01*
X53315Y102500D02*
X67000D01*
X57500Y116500D02*
X60000Y119000D01*
X53000Y116500D02*
X57500D01*
X45906Y109406D02*
X53000Y116500D01*
X65000Y123500D02*
X72563Y131063D01*
X77126D01*
X118713Y135787D02*
X121000Y133500D01*
X70000Y74500D02*
Y80405D01*
Y74500D02*
X75906D01*
X64095D02*
X70000D01*
X64095Y77650D02*
X66850D01*
X68425Y68594D02*
Y69595D01*
Y56425D02*
Y68594D01*
X17500Y88650D02*
X21929D01*
X17343D02*
X17500D01*
Y93396D02*
X21699D01*
X17474D02*
X17500D01*
X17343Y93528D02*
X17474Y93396D01*
X21803Y93500D02*
X21929Y93374D01*
X80000Y65500D02*
X80500D01*
X74500D02*
X80000D01*
Y65000D02*
X80457D01*
X90043Y66500D02*
Y68457D01*
X87150Y71350D02*
X90043Y68457D01*
X75906Y71350D02*
X87150D01*
X73150Y66850D02*
X74500Y65500D01*
X73150Y66850D02*
Y68594D01*
X93075Y72925D02*
X94000Y72000D01*
X75906Y72925D02*
X93075D01*
X100500Y124500D02*
X101500Y123500D01*
X91000Y124500D02*
X100500D01*
X90512Y124988D02*
X91000Y124500D01*
X90512Y124988D02*
Y127126D01*
X101500Y120000D02*
Y123500D01*
X59000Y125000D02*
Y136000D01*
X75988Y129488D02*
X77126D01*
X67000Y120500D02*
X75988Y129488D01*
X63500Y120500D02*
X67000D01*
X65500Y136000D02*
X65713Y135787D01*
X74500Y165000D02*
X86000Y153500D01*
X61000Y165000D02*
X74500D01*
X53339Y172661D02*
X61000Y165000D01*
X53339Y172661D02*
Y174500D01*
X87500Y153500D02*
X88500D01*
X84213Y150213D02*
X87500Y153500D01*
X84213Y142874D02*
Y150213D01*
X134000Y148000D02*
Y178500D01*
X132500Y180000D02*
X134000Y178500D01*
X132500Y180000D02*
Y184161D01*
X131000Y145000D02*
X134000Y148000D01*
X102500Y145000D02*
X131000D01*
X95000Y149000D02*
X107500D01*
X90512Y144512D02*
X95000Y149000D01*
X96500Y155000D02*
X98000Y153500D01*
X123839Y159839D02*
Y175000D01*
X117500Y153500D02*
X123839Y159839D01*
X98000Y153500D02*
X117500D01*
X240807Y161500D02*
X248000D01*
X362500Y26500D02*
Y26500D01*
X213634Y153500D02*
X222000D01*
X225276Y156776D01*
X229193D01*
X224425Y159925D02*
X229193D01*
X221000Y156500D02*
X224425Y159925D01*
X221276Y166224D02*
X229193D01*
X220000Y167500D02*
X221276Y166224D01*
X202000Y161000D02*
Y163500D01*
Y160500D02*
Y161000D01*
X218650Y164650D02*
X229193D01*
X217543Y163543D02*
X218650Y164650D01*
X212000Y163543D02*
X217543D01*
X204543D02*
X212000D01*
X221000Y161500D02*
X229193D01*
X45906Y107941D02*
Y109406D01*
X79000Y122000D02*
X82638Y125638D01*
X78500Y122000D02*
X79000D01*
X49000Y116500D02*
X49500D01*
X44331Y111831D02*
X49000Y116500D01*
X71575Y65925D02*
X75000Y62500D01*
X71575Y65925D02*
Y68594D01*
X73500Y154000D02*
X81063Y146437D01*
X69500Y154000D02*
X73500D01*
X68500Y150000D02*
X74500D01*
X64500Y154000D02*
X68500Y150000D01*
X64500Y154000D02*
Y160000D01*
X83463Y120963D02*
Y121000D01*
X83000Y120500D02*
X83463Y120963D01*
Y121000D02*
X83925D01*
X85787Y118287D02*
Y127126D01*
X44331Y107941D02*
Y111831D01*
X59000Y125000D02*
X63500Y120500D01*
X69563Y138937D02*
X77126D01*
X65000Y143500D02*
X69563Y138937D01*
X67138Y137362D02*
X77126D01*
X65000Y139500D02*
X67138Y137362D01*
X70138Y132638D02*
X77126D01*
X65000Y127500D02*
X70138Y132638D01*
X68213Y134213D02*
X77126D01*
X65500Y131500D02*
X68213Y134213D01*
X82638Y125638D02*
Y127126D01*
X70000Y61750D02*
X71000Y60750D01*
X70000Y61750D02*
Y68594D01*
X66500Y57500D02*
X66850Y57850D01*
X68000Y56000D02*
X68425Y56425D01*
X58350Y88650D02*
X60000Y87000D01*
X49409Y88650D02*
X58350D01*
X55925Y87075D02*
X60000Y83000D01*
X49409Y87075D02*
X55925D01*
X53500Y85500D02*
X60000Y79000D01*
X66850Y57850D02*
Y69595D01*
X36457Y107941D02*
Y121457D01*
X41181Y112681D02*
X45000Y116500D01*
X41181Y107941D02*
Y112681D01*
X39606Y115606D02*
X40500Y116500D01*
X39606Y107941D02*
Y115606D01*
X49409Y85500D02*
X53500D01*
X52063Y101248D02*
X53315Y102500D01*
X62500Y160000D02*
X64500D01*
X57500Y165000D02*
X62500Y160000D01*
X64500D02*
Y162500D01*
X59000Y152500D02*
X61000D01*
X58587D02*
X59000D01*
X61000D02*
X72988Y140512D01*
X71250Y159750D02*
X82638Y148362D01*
X34882Y99004D02*
Y107941D01*
X31732Y103626D02*
Y107941D01*
X30158Y103728D02*
Y107941D01*
X212317Y154817D02*
X213276Y153858D01*
X212500Y155000D02*
Y156000D01*
X39000Y64000D02*
X39606Y64606D01*
X36000Y70000D02*
X38032Y72031D01*
X33307Y69193D02*
X36000Y66500D01*
X39606Y64606D02*
Y80382D01*
X38032Y72031D02*
Y80382D01*
X33307Y69193D02*
Y80382D01*
X31732Y65268D02*
Y80382D01*
X36457D02*
Y83142D01*
X40240Y86925D01*
X30945D02*
X34882Y82988D01*
Y80382D02*
Y82988D01*
X21929Y91799D02*
X28807D01*
X42059D02*
X49409D01*
Y101248D02*
X52063D01*
X49409Y102823D02*
X51638D01*
X49409Y104398D02*
X50713D01*
X248000Y161500D02*
X250000Y163500D01*
X202000Y160500D02*
X204000Y158500D01*
X98012Y140512D02*
X102500Y145000D01*
X92874Y140512D02*
X98012D01*
X190500Y201500D02*
X191500Y202500D01*
X92874Y137362D02*
X144000D01*
X96500Y153500D02*
Y155000D01*
X90512Y142874D02*
Y144512D01*
X85787Y145787D02*
X88500Y148500D01*
X85787Y142874D02*
Y145787D01*
X88937Y142874D02*
Y145437D01*
X96500Y153000D01*
Y153500D01*
X82638Y142874D02*
Y148362D01*
X74500Y150000D02*
X79488Y145012D01*
Y142874D02*
Y145012D01*
X250000Y152000D02*
X258500D01*
X245224Y156776D02*
X250000Y152000D01*
X240807Y156776D02*
X245224D01*
X248150Y158350D02*
X250000Y156500D01*
X240807Y158350D02*
X248150D01*
X250000Y156000D02*
Y156500D01*
X240807Y159925D02*
X258425D01*
X257075Y166575D02*
X258500Y168000D01*
X72988Y140512D02*
X77126D01*
X58500Y154587D02*
X58587Y154500D01*
X65713Y135787D02*
X77126D01*
X81063Y142874D02*
Y146437D01*
X49409Y98098D02*
X52272D01*
X53435Y96935D01*
X163500Y191000D02*
X164339Y191839D01*
X166500D01*
X92874Y135787D02*
X118713D01*
X92874Y131063D02*
X105937D01*
X109500Y127500D01*
X92874Y132638D02*
X109362D01*
X114500Y127500D01*
X92874Y134213D02*
X114287D01*
X118000Y130500D01*
X92874Y129488D02*
X102512D01*
X104500Y127500D01*
X92874Y138937D02*
X118937D01*
X121000Y141000D01*
D60*
X162000Y65500D02*
X167272Y70772D01*
X369713Y75000D02*
Y86500D01*
Y52787D02*
Y75000D01*
X341500D02*
X369713D01*
X139504Y36629D02*
Y46591D01*
X158413Y65500D02*
X162000D01*
X139504Y46591D02*
X158413Y65500D01*
X248575Y166575D02*
X257075D01*
X252500Y78500D02*
Y86043D01*
Y70500D02*
Y78500D01*
X300000Y39000D02*
X329957D01*
X102000Y95500D02*
X112500D01*
X98500Y92000D02*
X102000Y95500D01*
X98500Y82500D02*
Y92000D01*
X166043Y72000D02*
X167272Y70772D01*
X151504Y47229D02*
Y48504D01*
X93598Y62598D02*
X98500Y67500D01*
X84098Y62598D02*
X93598D01*
X76000Y54500D02*
X84098Y62598D01*
X32480Y33779D02*
Y40000D01*
X22638Y33779D02*
Y48000D01*
Y28858D02*
Y33779D01*
X272000Y98000D02*
X273000Y97000D01*
X262000Y98000D02*
X272000D01*
X256500Y92500D02*
X262000Y98000D01*
X275000Y95000D02*
X365000D01*
X323543Y39587D02*
Y52500D01*
X323831Y52787D02*
Y60213D01*
Y52787D02*
X369713D01*
X385000Y17500D02*
Y37500D01*
X369713Y52787D02*
X385000Y37500D01*
X369713Y86500D02*
Y90287D01*
X379528Y14764D02*
X382264D01*
X357480D02*
X379528D01*
X382264D02*
X385000Y17500D01*
X365000Y95000D02*
X369713Y90287D01*
X256500Y82500D02*
Y92500D01*
Y82500D02*
X260500Y78500D01*
X98500Y67500D02*
Y82500D01*
X89000D02*
X98500D01*
X192000Y72000D02*
X192457Y72457D01*
X191779Y94721D02*
X192500Y94000D01*
X199543Y80000D02*
X200000Y79543D01*
X152543Y72457D02*
Y80000D01*
Y85043D01*
X189839Y92161D02*
X192500Y89500D01*
X192457Y80000D02*
Y85043D01*
X187898Y89602D02*
X192457Y85043D01*
Y72457D02*
Y80000D01*
X152543Y72457D02*
X153000Y72000D01*
X145000Y79543D02*
X145457Y80000D01*
X152500Y94000D02*
X153220Y94721D01*
X152500Y89500D02*
X155161Y92161D01*
X183917Y89602D02*
X187898D01*
X153000Y72000D02*
X158957D01*
X155161Y92161D02*
X161083D01*
X153220Y94721D02*
X161083D01*
X186043Y72000D02*
X192000D01*
X183917Y92161D02*
X189839D01*
X183917Y94721D02*
X191779D01*
X152543Y85043D02*
X157102Y89602D01*
X161083D01*
X246000Y164000D02*
X248575Y166575D01*
X377543Y26457D02*
X378000Y26000D01*
X32480Y29055D02*
Y33779D01*
D61*
X174729Y47229D02*
X178904D01*
Y52904D01*
Y39404D02*
Y47229D01*
X104504D02*
X108038D01*
Y40538D02*
Y47229D01*
X139504Y18004D02*
Y36629D01*
X120338Y18162D02*
Y36629D01*
X68638Y19138D02*
Y36629D01*
D62*
X38583Y28740D02*
X41260D01*
X14642Y28858D02*
X16535D01*
D63*
X232500Y118875D02*
Y123661D01*
X207500Y141516D02*
X231177D01*
X200500Y136500D02*
X205500Y141500D01*
X208000D01*
X232500Y118875D02*
X236375Y115000D01*
X240250D01*
X244000D01*
X244000Y115000D01*
X222516Y123484D02*
X231177D01*
D64*
X172500Y135059D02*
X175236Y137795D01*
X29126Y57000D02*
X54000D01*
Y73000D01*
D65*
X137000Y105000D02*
X142161Y99839D01*
X161083D01*
X191398Y102398D02*
X192500Y103500D01*
X202720Y99839D02*
X207882Y105000D01*
X152500Y103500D02*
X153602Y102398D01*
X185500Y80000D02*
Y87000D01*
X135500Y90500D02*
X142280Y97280D01*
X202720D02*
X209000Y91000D01*
X153602Y102398D02*
X161083D01*
X183917D02*
X191398D01*
X183917Y99839D02*
X202720D01*
X142280Y97280D02*
X161083D01*
X183917D02*
X202720D01*
X53342Y99673D02*
X54006D01*
D66*
X28543Y31417D02*
Y33779D01*
X25984Y28858D02*
X28543Y31417D01*
D67*
X63000Y57500D02*
Y58000D01*
X40240Y86925D02*
X41433D01*
X29933D02*
X30945D01*
X27183Y89675D02*
X29933Y86925D01*
D68*
X245075Y163075D02*
X246000Y164000D01*
X240807Y163075D02*
X245075D01*
D69*
X172500Y112500D02*
Y135059D01*
D70*
X32283Y28858D02*
X32480Y29055D01*
D71*
X172500Y96000D02*
D03*
D72*
X209000Y56950D02*
D03*
X135500Y56950D02*
D03*
D73*
X273550Y132000D02*
D03*
D74*
X202000Y161000D02*
D03*
D75*
Y151000D02*
D03*
D76*
X369713Y86500D02*
D03*
D77*
X359870D02*
D03*
X350028D02*
D03*
X340185D02*
D03*
X330343D02*
D03*
X320500D02*
D03*
D78*
X369764Y62500D02*
D03*
X359921D02*
D03*
X350079D02*
D03*
X340236D02*
D03*
D79*
X25984Y28858D02*
D03*
X24409Y26102D02*
D03*
X22835Y28858D02*
D03*
X21260Y26102D02*
D03*
X19685Y28858D02*
D03*
X29134D02*
D03*
X30709Y26102D02*
D03*
X32283Y28858D02*
D03*
X33858Y26102D02*
D03*
X35433Y28858D02*
D03*
X38583Y28740D02*
D03*
X37008Y25984D02*
D03*
X18110Y26102D02*
D03*
X16535Y28858D02*
D03*
D80*
X44370Y24331D02*
D03*
X10748D02*
D03*
Y5709D02*
D03*
X44370D02*
D03*
D81*
X346457Y5512D02*
D03*
D82*
Y31496D02*
D03*
D83*
X68638Y36629D02*
D03*
X120338D02*
D03*
X139504D02*
D03*
X191204D02*
D03*
D84*
X80638Y47229D02*
D03*
X90438D02*
D03*
X98338D02*
D03*
X108038D02*
D03*
X151504D02*
D03*
X161304D02*
D03*
X169204D02*
D03*
X178904D02*
D03*
D85*
X168500Y99000D02*
D03*
X172500D02*
D03*
X176500D02*
D03*
X168500Y93000D02*
D03*
X172500D02*
D03*
X176500D02*
D03*
X235000Y161500D02*
D03*
Y165043D02*
D03*
Y157957D02*
D03*
X14942Y161000D02*
D03*
Y169000D02*
D03*
X273500Y127000D02*
D03*
X163500Y179000D02*
D03*
X192500D02*
D03*
Y174500D02*
D03*
X197500D02*
D03*
Y179000D02*
D03*
X90000Y211000D02*
D03*
X85000D02*
D03*
X80000D02*
D03*
X109500Y170000D02*
D03*
X104500D02*
D03*
X99500D02*
D03*
X109500Y175000D02*
D03*
X104500D02*
D03*
X99500D02*
D03*
X65500D02*
D03*
Y170000D02*
D03*
X70500D02*
D03*
Y175000D02*
D03*
X10000Y159000D02*
D03*
Y162500D02*
D03*
Y166000D02*
D03*
Y169500D02*
D03*
Y173000D02*
D03*
X50500Y27000D02*
D03*
Y30500D02*
D03*
Y34000D02*
D03*
X260000Y23000D02*
D03*
X255000D02*
D03*
X341500Y75000D02*
D03*
X324000D02*
D03*
X294000Y77000D02*
D03*
X200000Y54500D02*
D03*
X33000Y64000D02*
D03*
X57500Y27500D02*
D03*
X276000Y176500D02*
D03*
X262500Y20000D02*
D03*
X257500D02*
D03*
X252500D02*
D03*
X360000Y43500D02*
D03*
X355000D02*
D03*
X350000D02*
D03*
X345000D02*
D03*
X340000D02*
D03*
X277500Y34500D02*
D03*
X286500Y55500D02*
D03*
X282500D02*
D03*
X286500Y52000D02*
D03*
X282500D02*
D03*
X278500D02*
D03*
X287500Y105000D02*
D03*
X291500D02*
D03*
Y109000D02*
D03*
X273500Y122500D02*
D03*
Y147500D02*
D03*
Y142500D02*
D03*
Y137500D02*
D03*
X227500Y130000D02*
D03*
Y135000D02*
D03*
X207500Y130000D02*
D03*
X212500D02*
D03*
X217500D02*
D03*
X222500D02*
D03*
Y135000D02*
D03*
X217500D02*
D03*
X212500D02*
D03*
X207500D02*
D03*
X175000Y140500D02*
D03*
X170000D02*
D03*
X172500Y137000D02*
D03*
X167500D02*
D03*
X162500D02*
D03*
X165000Y140500D02*
D03*
X160000D02*
D03*
X236375Y115000D02*
D03*
X240250D02*
D03*
X244000Y115000D02*
D03*
X208000Y141500D02*
D03*
X212500D02*
D03*
X217500D02*
D03*
X222500D02*
D03*
X84500Y88500D02*
D03*
X81500D02*
D03*
X78500D02*
D03*
Y91500D02*
D03*
X81500D02*
D03*
X84500D02*
D03*
X56500Y99500D02*
D03*
X54006Y99673D02*
D03*
X69000Y89500D02*
D03*
X89500Y89000D02*
D03*
Y91500D02*
D03*
X65500Y90500D02*
D03*
X138500Y121000D02*
D03*
X134500D02*
D03*
X138500Y125000D02*
D03*
X142500D02*
D03*
X134500D02*
D03*
X109000Y98500D02*
D03*
Y101000D02*
D03*
X112500Y95500D02*
D03*
X97500Y127000D02*
D03*
X62000Y64500D02*
D03*
Y67500D02*
D03*
X56000Y119500D02*
D03*
X52500D02*
D03*
X60000Y119000D02*
D03*
X184500Y191000D02*
D03*
X121000Y133500D02*
D03*
X141000Y53500D02*
D03*
X172500Y82000D02*
D03*
X168500D02*
D03*
X15500Y75500D02*
D03*
Y79000D02*
D03*
X19000D02*
D03*
Y75500D02*
D03*
X22500D02*
D03*
Y79000D02*
D03*
X300081Y91000D02*
D03*
X17500Y93396D02*
D03*
Y88650D02*
D03*
X273000Y97000D02*
D03*
X275000Y95000D02*
D03*
X94000Y76000D02*
D03*
X76000Y54500D02*
D03*
X63000Y58000D02*
D03*
X39000Y64000D02*
D03*
X94000Y72000D02*
D03*
X73000Y130000D02*
D03*
X115500Y161500D02*
D03*
X82000Y162500D02*
D03*
X40500Y207500D02*
D03*
X144000Y108500D02*
D03*
X152500Y94000D02*
D03*
Y103500D02*
D03*
X192500Y94000D02*
D03*
Y103500D02*
D03*
X201000Y108500D02*
D03*
X152500Y89500D02*
D03*
X192500D02*
D03*
X253500Y36000D02*
D03*
X290000Y75000D02*
D03*
X282500Y85405D02*
D03*
X355500Y23500D02*
D03*
X269000Y94000D02*
D03*
X264500D02*
D03*
X284500Y30000D02*
D03*
X272500Y40500D02*
D03*
X268500Y26000D02*
D03*
X265000Y29000D02*
D03*
X288000Y27000D02*
D03*
X266500Y74000D02*
D03*
X220000Y167500D02*
D03*
X221000Y156500D02*
D03*
Y161500D02*
D03*
X311500Y52500D02*
D03*
Y60500D02*
D03*
X78500Y122000D02*
D03*
X49500Y116500D02*
D03*
X108000Y92500D02*
D03*
X104000D02*
D03*
X108000Y63000D02*
D03*
X104000D02*
D03*
X75000Y62500D02*
D03*
X69500Y154000D02*
D03*
X86500Y118000D02*
D03*
X83463Y121000D02*
D03*
X305500Y58000D02*
D03*
Y62000D02*
D03*
Y66000D02*
D03*
X71000Y61000D02*
D03*
X356000Y30500D02*
D03*
X60000Y87000D02*
D03*
Y83000D02*
D03*
Y79000D02*
D03*
X45000Y116500D02*
D03*
X40500D02*
D03*
X34000Y42500D02*
D03*
Y39000D02*
D03*
X38000D02*
D03*
Y42500D02*
D03*
X57500Y165000D02*
D03*
X65000Y131500D02*
D03*
Y123500D02*
D03*
X27000Y45000D02*
D03*
X30000Y59000D02*
D03*
X26500D02*
D03*
X23000D02*
D03*
Y55500D02*
D03*
X26500D02*
D03*
X30000D02*
D03*
X43000Y65000D02*
D03*
X46500Y71000D02*
D03*
Y68000D02*
D03*
Y65000D02*
D03*
X43000Y71000D02*
D03*
Y68000D02*
D03*
X36000Y66500D02*
D03*
Y70000D02*
D03*
X88500Y148500D02*
D03*
X250000Y163500D02*
D03*
Y156500D02*
D03*
X65000Y143500D02*
D03*
Y139500D02*
D03*
Y135500D02*
D03*
Y127500D02*
D03*
X82500Y137500D02*
D03*
X87500D02*
D03*
X82500Y132500D02*
D03*
X87500D02*
D03*
X85000Y135000D02*
D03*
X272500Y169500D02*
D03*
X253500Y166500D02*
D03*
X190500Y191000D02*
D03*
X109500Y127500D02*
D03*
X114500D02*
D03*
X118000Y130500D02*
D03*
X104500Y127500D02*
D03*
X121000Y141000D02*
D03*
D86*
X72165Y76665D02*
D03*
Y72335D02*
D03*
X70000Y74500D02*
D03*
X67835Y76665D02*
D03*
Y72335D02*
D03*
D87*
X26433Y84925D02*
D03*
X33433D02*
D03*
X29933D02*
D03*
X26433Y88925D02*
D03*
X29933D02*
D03*
X33433D02*
D03*
X37933Y84925D02*
D03*
X44933D02*
D03*
X41433D02*
D03*
X37933Y88925D02*
D03*
X41433D02*
D03*
X44933D02*
D03*
X26433Y93425D02*
D03*
X44433D02*
D03*
X31933D02*
D03*
X38433D02*
D03*
X26433Y103425D02*
D03*
X31933D02*
D03*
X44433D02*
D03*
X38433D02*
D03*
X29433Y98425D02*
D03*
X35433D02*
D03*
X41433D02*
D03*
D88*
X207000Y39500D02*
D03*
X212500Y45500D02*
D03*
X217500Y51500D02*
D03*
X243000Y51000D02*
D03*
Y43500D02*
D03*
Y36000D02*
D03*
Y28500D02*
D03*
X235000D02*
D03*
Y36000D02*
D03*
Y43500D02*
D03*
Y51000D02*
D03*
X257500Y206500D02*
D03*
X250000D02*
D03*
X242500D02*
D03*
X245000Y177500D02*
D03*
X252500D02*
D03*
X260000D02*
D03*
X267500D02*
D03*
X232500D02*
D03*
X225000D02*
D03*
X217500D02*
D03*
X210000D02*
D03*
X225000Y206500D02*
D03*
X217500D02*
D03*
X210000D02*
D03*
X15000Y205000D02*
D03*
Y197500D02*
D03*
Y190000D02*
D03*
X22000Y205000D02*
D03*
Y197500D02*
D03*
Y190000D02*
D03*
X47500Y205000D02*
D03*
X55000D02*
D03*
X62500D02*
D03*
X70000D02*
D03*
X51000Y199000D02*
D03*
X58500D02*
D03*
X66500D02*
D03*
X127500Y205000D02*
D03*
X120000D02*
D03*
X112500D02*
D03*
X105000D02*
D03*
X124000Y199500D02*
D03*
X116500Y199000D02*
D03*
X109000D02*
D03*
X101000D02*
D03*
X142500Y205000D02*
D03*
X150000D02*
D03*
X157500D02*
D03*
X142500Y197500D02*
D03*
X150000D02*
D03*
X157500D02*
D03*
%TF.MD5,15be463a51c211a50d1ec970a7192ac0*%
M02*
