%TF.GenerationSoftware,Altium Limited,CircuitMaker,2.0.2 (2.0.2.40)*%
G04 Layer_Color=16770453*
%FSLAX25Y25*%
%MOIN*%
%TF.SameCoordinates,55457101-24DF-47E6-B24E-7804918367A6*%
%TF.FilePolarity,Positive*%
%TF.FileFunction,Paste,Bot*%
%TF.Part,Single*%
G01*
G75*
%TA.AperFunction,SMDPad,CuDef*%
%ADD10R,0.04000X0.05800*%
%ADD11R,0.03937X0.05315*%
%ADD27R,0.05800X0.04000*%
%ADD31R,0.05315X0.03937*%
%ADD89R,0.02362X0.05512*%
%ADD90R,0.03543X0.03150*%
D10*
X56500Y125000D02*
D03*
X48500D02*
D03*
X12000Y49000D02*
D03*
X20000D02*
D03*
X49500D02*
D03*
X57500D02*
D03*
X86500Y73000D02*
D03*
X78500D02*
D03*
X76000Y147000D02*
D03*
X84000D02*
D03*
X95000Y133000D02*
D03*
X103000D02*
D03*
X148500Y108500D02*
D03*
X156500D02*
D03*
X196500D02*
D03*
X188500D02*
D03*
X153500Y83500D02*
D03*
X161500D02*
D03*
X191500D02*
D03*
X183500D02*
D03*
X50000Y41000D02*
D03*
X42000D02*
D03*
X90500Y32500D02*
D03*
X98500D02*
D03*
X161500D02*
D03*
X169500D02*
D03*
X20000Y41000D02*
D03*
X12000D02*
D03*
D11*
X56043Y133000D02*
D03*
X48957D02*
D03*
X56043Y141000D02*
D03*
X48957D02*
D03*
X23457Y169000D02*
D03*
X30543D02*
D03*
X23457Y161000D02*
D03*
X30543D02*
D03*
X14457Y144500D02*
D03*
X21543D02*
D03*
X21543Y136500D02*
D03*
X14457D02*
D03*
X28457Y144500D02*
D03*
X35543D02*
D03*
Y136500D02*
D03*
X28457D02*
D03*
X43543Y48874D02*
D03*
X36457D02*
D03*
X93043Y64500D02*
D03*
X85957D02*
D03*
X83543Y155000D02*
D03*
X76457D02*
D03*
X102543Y141000D02*
D03*
X95457D02*
D03*
X265543Y56000D02*
D03*
X258457D02*
D03*
X265543Y48000D02*
D03*
X258457D02*
D03*
X342957Y24000D02*
D03*
X350043D02*
D03*
X342957Y16000D02*
D03*
X350043D02*
D03*
X258457Y64000D02*
D03*
X265543D02*
D03*
D27*
X41000Y168000D02*
D03*
Y176000D02*
D03*
Y154000D02*
D03*
Y162000D02*
D03*
X14250Y61000D02*
D03*
Y69000D02*
D03*
X55500Y57500D02*
D03*
Y65500D02*
D03*
X99500Y156500D02*
D03*
Y148500D02*
D03*
X154000Y139500D02*
D03*
Y131500D02*
D03*
X190000Y129000D02*
D03*
Y121000D02*
D03*
X274500Y78500D02*
D03*
Y86500D02*
D03*
X60500Y95500D02*
D03*
Y103500D02*
D03*
D31*
X30000Y122457D02*
D03*
Y129543D02*
D03*
X22000Y122457D02*
D03*
Y129543D02*
D03*
X30000Y116543D02*
D03*
Y109457D02*
D03*
X22000D02*
D03*
Y116543D02*
D03*
X107500Y148957D02*
D03*
Y156043D02*
D03*
X115500Y148957D02*
D03*
Y156043D02*
D03*
X130000Y144457D02*
D03*
Y151543D02*
D03*
X138000D02*
D03*
Y144457D02*
D03*
X148000Y123543D02*
D03*
Y116457D02*
D03*
X156000Y116457D02*
D03*
Y123543D02*
D03*
X258500Y86043D02*
D03*
Y78957D02*
D03*
X266500D02*
D03*
Y86043D02*
D03*
X262000Y33957D02*
D03*
Y41043D02*
D03*
X76500Y95957D02*
D03*
Y103043D02*
D03*
X68500Y95957D02*
D03*
Y103043D02*
D03*
D89*
X180500Y108500D02*
D03*
X175500D02*
D03*
X170500D02*
D03*
X165500D02*
D03*
X180500Y129500D02*
D03*
X175500D02*
D03*
X170500D02*
D03*
X165500D02*
D03*
D90*
X363563Y26760D02*
D03*
Y34240D02*
D03*
X371437Y30500D02*
D03*
X363563Y11260D02*
D03*
Y18740D02*
D03*
X371437Y15000D02*
D03*
%TF.MD5,9545756491eea4913c26292537103629*%
M02*
