%TF.GenerationSoftware,Altium Limited,CircuitMaker,2.0.2 (2.0.2.40)*%
G04 Layer_Color=13813960*
%FSLAX25Y25*%
%MOIN*%
%TF.SameCoordinates,55457101-24DF-47E6-B24E-7804918367A6*%
%TF.FilePolarity,Positive*%
%TF.FileFunction,Legend,Bot*%
%TF.Part,Single*%
G01*
G75*
%TA.AperFunction,NonConductor*%
%ADD91C,0.00787*%
%ADD93C,0.00984*%
%ADD94C,0.01181*%
G36*
X69921Y21428D02*
X69931D01*
Y21417D01*
X69942D01*
Y21407D01*
X69952D01*
Y21397D01*
X69962D01*
Y21386D01*
X69973D01*
Y21376D01*
X69983D01*
Y21335D01*
X69993D01*
Y21293D01*
X70004D01*
Y21220D01*
X70014D01*
Y21169D01*
X70025D01*
Y21127D01*
X70035D01*
Y21055D01*
X70045D01*
Y21013D01*
X70056D01*
Y20941D01*
X70066D01*
Y20899D01*
X70076D01*
Y20847D01*
X70087D01*
Y20775D01*
X70097D01*
Y20733D01*
X70108D01*
Y20661D01*
X70118D01*
Y20619D01*
X70128D01*
Y20557D01*
X70139D01*
Y20495D01*
X70149D01*
Y20453D01*
X70159D01*
Y20381D01*
X70170D01*
Y20339D01*
X70180D01*
Y20267D01*
X70190D01*
Y20225D01*
X70201D01*
Y20174D01*
X70211D01*
Y20101D01*
X70222D01*
Y20070D01*
X70232D01*
Y19987D01*
X70242D01*
Y19945D01*
X70253D01*
Y19883D01*
X70263D01*
Y19831D01*
X70273D01*
Y19790D01*
X70284D01*
Y19717D01*
X70294D01*
Y19676D01*
X70304D01*
Y19603D01*
X70315D01*
Y19552D01*
X70325D01*
Y19500D01*
X70336D01*
Y19437D01*
X70346D01*
Y19396D01*
X70356D01*
Y19323D01*
X70367D01*
Y19282D01*
X70377D01*
Y19230D01*
X70387D01*
Y19209D01*
X70398D01*
Y19189D01*
X70408D01*
Y19168D01*
X70418D01*
Y19158D01*
X70429D01*
Y19147D01*
X70439D01*
Y19137D01*
X70450D01*
Y19127D01*
X70470D01*
Y19116D01*
X70491D01*
Y19106D01*
X70512D01*
Y19095D01*
X70543D01*
Y19085D01*
X70553D01*
Y19075D01*
X70595D01*
Y19064D01*
X70605D01*
Y19054D01*
X70636D01*
Y19044D01*
X70667D01*
Y19033D01*
X70678D01*
Y19023D01*
X70719D01*
Y19012D01*
X70729D01*
Y19002D01*
X70771D01*
Y18992D01*
X70792D01*
Y18981D01*
X70812D01*
Y18971D01*
X70843D01*
Y18961D01*
X70854D01*
Y18950D01*
X70895D01*
Y18940D01*
X70916D01*
Y18929D01*
X70937D01*
Y18919D01*
X70968D01*
Y18909D01*
X70989D01*
Y18898D01*
X71020D01*
Y18888D01*
X71040D01*
Y18878D01*
X71071D01*
Y18867D01*
X71092D01*
Y18857D01*
X71113D01*
Y18847D01*
X71144D01*
Y18836D01*
X71165D01*
Y18826D01*
X71196D01*
Y18815D01*
X71217D01*
Y18805D01*
X71248D01*
Y18795D01*
X71268D01*
Y18784D01*
X71289D01*
Y18774D01*
X71320D01*
Y18764D01*
X71341D01*
Y18753D01*
X71372D01*
Y18743D01*
X71393D01*
Y18733D01*
X71424D01*
Y18722D01*
X71445D01*
Y18712D01*
X71465D01*
Y18701D01*
X71507D01*
Y18691D01*
X71517D01*
Y18681D01*
X71548D01*
Y18670D01*
X71569D01*
Y18660D01*
X71590D01*
Y18650D01*
X71631D01*
Y18639D01*
X71642D01*
Y18629D01*
X71673D01*
Y18619D01*
X71693D01*
Y18608D01*
X71725D01*
Y18598D01*
X71756D01*
Y18587D01*
X71766D01*
Y18577D01*
X71807D01*
Y18567D01*
X71818D01*
Y18556D01*
X71849D01*
Y18546D01*
X71880D01*
Y18536D01*
X71901D01*
Y18525D01*
X71973D01*
Y18515D01*
X71984D01*
Y18525D01*
X72025D01*
Y18536D01*
X72056D01*
Y18546D01*
X72077D01*
Y18556D01*
X72087D01*
Y18567D01*
X72098D01*
Y18577D01*
X72119D01*
Y18587D01*
X72129D01*
Y18598D01*
X72150D01*
Y18608D01*
X72170D01*
Y18619D01*
X72181D01*
Y18629D01*
X72201D01*
Y18639D01*
X72212D01*
Y18650D01*
X72222D01*
Y18660D01*
X72243D01*
Y18670D01*
X72253D01*
Y18681D01*
X72274D01*
Y18691D01*
X72284D01*
Y18701D01*
X72305D01*
Y18712D01*
X72316D01*
Y18722D01*
X72336D01*
Y18733D01*
X72347D01*
Y18743D01*
X72357D01*
Y18753D01*
X72378D01*
Y18764D01*
X72388D01*
Y18774D01*
X72409D01*
Y18784D01*
X72419D01*
Y18795D01*
X72440D01*
Y18805D01*
X72450D01*
Y18815D01*
X72461D01*
Y18826D01*
X72481D01*
Y18836D01*
X72492D01*
Y18847D01*
X72512D01*
Y18857D01*
X72523D01*
Y18867D01*
X72544D01*
Y18878D01*
X72564D01*
Y18888D01*
X72575D01*
Y18898D01*
X72585D01*
Y18909D01*
X72606D01*
Y18919D01*
X72616D01*
Y18929D01*
X72637D01*
Y18940D01*
X72647D01*
Y18950D01*
X72668D01*
Y18961D01*
X72678D01*
Y18971D01*
X72689D01*
Y18981D01*
X72709D01*
Y18992D01*
X72720D01*
Y19002D01*
X72741D01*
Y19012D01*
X72751D01*
Y19023D01*
X72772D01*
Y19033D01*
X72782D01*
Y19044D01*
X72803D01*
Y19054D01*
X72813D01*
Y19064D01*
X72823D01*
Y19075D01*
X72844D01*
Y19085D01*
X72855D01*
Y19095D01*
X72875D01*
Y19106D01*
X72886D01*
Y19116D01*
X72906D01*
Y19127D01*
X72917D01*
Y19137D01*
X72927D01*
Y19147D01*
X72948D01*
Y19158D01*
X72969D01*
Y19168D01*
X72979D01*
Y19178D01*
X73000D01*
Y19189D01*
X73010D01*
Y19199D01*
X73031D01*
Y19209D01*
X73041D01*
Y19220D01*
X73052D01*
Y19230D01*
X73072D01*
Y19241D01*
X73083D01*
Y19251D01*
X73103D01*
Y19261D01*
X73114D01*
Y19272D01*
X73134D01*
Y19282D01*
X73145D01*
Y19292D01*
X73155D01*
Y19303D01*
X73176D01*
Y19313D01*
X73186D01*
Y19323D01*
X73207D01*
Y19334D01*
X73217D01*
Y19344D01*
X73238D01*
Y19354D01*
X73248D01*
Y19365D01*
X73269D01*
Y19375D01*
X73280D01*
Y19386D01*
X73290D01*
Y19396D01*
X73311D01*
Y19406D01*
X73321D01*
Y19417D01*
X73342D01*
Y19427D01*
X73362D01*
Y19437D01*
X73373D01*
Y19448D01*
X73394D01*
Y19458D01*
X73404D01*
Y19469D01*
X73414D01*
Y19479D01*
X73435D01*
Y19489D01*
X73445D01*
Y19500D01*
X73466D01*
Y19510D01*
X73476D01*
Y19520D01*
X73497D01*
Y19531D01*
X73508D01*
Y19541D01*
X73518D01*
Y19552D01*
X73539D01*
Y19562D01*
X73549D01*
Y19572D01*
X73570D01*
Y19583D01*
X73580D01*
Y19593D01*
X73601D01*
Y19603D01*
X73611D01*
Y19614D01*
X73622D01*
Y19624D01*
X73642D01*
Y19634D01*
X73653D01*
Y19645D01*
X73673D01*
Y19655D01*
X73684D01*
Y19666D01*
X73705D01*
Y19676D01*
X73715D01*
Y19686D01*
X73736D01*
Y19697D01*
X73756D01*
Y19707D01*
X73767D01*
Y19717D01*
X73777D01*
Y19728D01*
X73798D01*
Y19738D01*
X73808D01*
Y19748D01*
X73829D01*
Y19759D01*
X73839D01*
Y19769D01*
X73933D01*
Y19759D01*
X73943D01*
Y19748D01*
X73964D01*
Y19738D01*
X73974D01*
Y19728D01*
X73984D01*
Y19717D01*
X73995D01*
Y19707D01*
X74005D01*
Y19697D01*
X74015D01*
Y19686D01*
X74026D01*
Y19676D01*
X74036D01*
Y19666D01*
X74047D01*
Y19655D01*
X74057D01*
Y19645D01*
X74067D01*
Y19634D01*
X74078D01*
Y19624D01*
X74088D01*
Y19614D01*
X74098D01*
Y19603D01*
X74109D01*
Y19593D01*
X74119D01*
Y19583D01*
X74130D01*
Y19572D01*
X74140D01*
Y19562D01*
X74150D01*
Y19552D01*
X74161D01*
Y19541D01*
X74171D01*
Y19531D01*
X74181D01*
Y19520D01*
X74192D01*
Y19510D01*
X74202D01*
Y19500D01*
X74212D01*
Y19489D01*
X74223D01*
Y19479D01*
X74233D01*
Y19469D01*
X74244D01*
Y19458D01*
X74254D01*
Y19448D01*
X74264D01*
Y19437D01*
X74275D01*
Y19427D01*
X74285D01*
Y19417D01*
X74295D01*
Y19406D01*
X74306D01*
Y19396D01*
X74316D01*
Y19386D01*
X74326D01*
Y19375D01*
X74337D01*
Y19365D01*
X74347D01*
Y19354D01*
X74358D01*
Y19344D01*
X74368D01*
Y19334D01*
X74378D01*
Y19323D01*
X74389D01*
Y19313D01*
X74399D01*
Y19303D01*
X74410D01*
Y19292D01*
X74420D01*
Y19282D01*
X74430D01*
Y19272D01*
X74441D01*
Y19261D01*
X74451D01*
Y19251D01*
X74461D01*
Y19241D01*
X74472D01*
Y19230D01*
X74482D01*
Y19220D01*
X74492D01*
Y19209D01*
X74503D01*
Y19199D01*
X74513D01*
Y19189D01*
X74524D01*
Y19178D01*
X74534D01*
Y19168D01*
X74544D01*
Y19158D01*
X74555D01*
Y19147D01*
X74565D01*
Y19137D01*
X74575D01*
Y19127D01*
X74586D01*
Y19116D01*
X74596D01*
Y19106D01*
X74606D01*
Y19095D01*
X74617D01*
Y19085D01*
X74627D01*
Y19075D01*
X74638D01*
Y19064D01*
X74648D01*
Y19054D01*
X74658D01*
Y19044D01*
X74669D01*
Y19033D01*
X74679D01*
Y19023D01*
X74689D01*
Y19012D01*
X74700D01*
Y19002D01*
X74710D01*
Y18992D01*
X74721D01*
Y18981D01*
X74731D01*
Y18971D01*
X74741D01*
Y18961D01*
X74752D01*
Y18950D01*
X74762D01*
Y18940D01*
X74772D01*
Y18929D01*
X74783D01*
Y18919D01*
X74793D01*
Y18909D01*
X74803D01*
Y18898D01*
X74814D01*
Y18888D01*
X74824D01*
Y18878D01*
X74835D01*
Y18867D01*
X74845D01*
Y18857D01*
X74855D01*
Y18847D01*
X74866D01*
Y18836D01*
X74876D01*
Y18826D01*
X74886D01*
Y18815D01*
X74897D01*
Y18805D01*
X74907D01*
Y18795D01*
X74917D01*
Y18784D01*
X74928D01*
Y18774D01*
X74938D01*
Y18764D01*
X74949D01*
Y18753D01*
X74959D01*
Y18743D01*
X74969D01*
Y18733D01*
X74980D01*
Y18722D01*
X74990D01*
Y18712D01*
X75000D01*
Y18701D01*
X75011D01*
Y18691D01*
X75021D01*
Y18681D01*
X75031D01*
Y18670D01*
X75042D01*
Y18660D01*
X75052D01*
Y18650D01*
X75063D01*
Y18639D01*
X75073D01*
Y18629D01*
X75083D01*
Y18619D01*
X75094D01*
Y18608D01*
X75104D01*
Y18598D01*
X75114D01*
Y18587D01*
X75125D01*
Y18577D01*
X75135D01*
Y18567D01*
X75146D01*
Y18556D01*
X75156D01*
Y18546D01*
X75166D01*
Y18536D01*
X75177D01*
Y18525D01*
X75187D01*
Y18515D01*
X75197D01*
Y18505D01*
X75208D01*
Y18494D01*
X75218D01*
Y18484D01*
X75228D01*
Y18473D01*
X75239D01*
Y18463D01*
X75249D01*
Y18453D01*
X75260D01*
Y18442D01*
X75270D01*
Y18432D01*
X75280D01*
Y18422D01*
X75291D01*
Y18411D01*
X75301D01*
Y18401D01*
X75311D01*
Y18391D01*
X75322D01*
Y18380D01*
X75332D01*
Y18370D01*
X75342D01*
Y18359D01*
X75353D01*
Y18349D01*
X75363D01*
Y18339D01*
X75374D01*
Y18328D01*
X75384D01*
Y18318D01*
X75394D01*
Y18307D01*
X75405D01*
Y18297D01*
X75415D01*
Y18287D01*
X75425D01*
Y18276D01*
X75436D01*
Y18266D01*
X75446D01*
Y18256D01*
X75457D01*
Y18235D01*
X75467D01*
Y18225D01*
X75477D01*
Y18121D01*
X75467D01*
Y18111D01*
X75457D01*
Y18090D01*
X75446D01*
Y18079D01*
X75436D01*
Y18059D01*
X75425D01*
Y18048D01*
X75415D01*
Y18028D01*
X75405D01*
Y18017D01*
X75394D01*
Y18007D01*
X75384D01*
Y17986D01*
X75374D01*
Y17966D01*
X75363D01*
Y17955D01*
X75353D01*
Y17934D01*
X75342D01*
Y17924D01*
X75332D01*
Y17903D01*
X75322D01*
Y17893D01*
X75311D01*
Y17883D01*
X75301D01*
Y17862D01*
X75291D01*
Y17851D01*
X75280D01*
Y17831D01*
X75270D01*
Y17820D01*
X75260D01*
Y17800D01*
X75249D01*
Y17789D01*
X75239D01*
Y17779D01*
X75228D01*
Y17758D01*
X75218D01*
Y17748D01*
X75208D01*
Y17727D01*
X75197D01*
Y17717D01*
X75187D01*
Y17696D01*
X75177D01*
Y17686D01*
X75166D01*
Y17675D01*
X75156D01*
Y17654D01*
X75146D01*
Y17634D01*
X75135D01*
Y17623D01*
X75125D01*
Y17603D01*
X75114D01*
Y17592D01*
X75104D01*
Y17571D01*
X75094D01*
Y17561D01*
X75083D01*
Y17540D01*
X75073D01*
Y17530D01*
X75063D01*
Y17520D01*
X75052D01*
Y17499D01*
X75042D01*
Y17489D01*
X75031D01*
Y17468D01*
X75021D01*
Y17458D01*
X75011D01*
Y17437D01*
X75000D01*
Y17426D01*
X74990D01*
Y17416D01*
X74980D01*
Y17395D01*
X74969D01*
Y17385D01*
X74959D01*
Y17364D01*
X74949D01*
Y17354D01*
X74938D01*
Y17333D01*
X74928D01*
Y17323D01*
X74917D01*
Y17302D01*
X74907D01*
Y17292D01*
X74897D01*
Y17281D01*
X74886D01*
Y17260D01*
X74876D01*
Y17240D01*
X74866D01*
Y17229D01*
X74855D01*
Y17209D01*
X74845D01*
Y17198D01*
X74835D01*
Y17178D01*
X74824D01*
Y17167D01*
X74814D01*
Y17157D01*
X74803D01*
Y17136D01*
X74793D01*
Y17126D01*
X74783D01*
Y17105D01*
X74772D01*
Y17095D01*
X74762D01*
Y17074D01*
X74752D01*
Y17064D01*
X74741D01*
Y17053D01*
X74731D01*
Y17032D01*
X74721D01*
Y17022D01*
X74710D01*
Y17001D01*
X74700D01*
Y16991D01*
X74689D01*
Y16970D01*
X74679D01*
Y16960D01*
X74669D01*
Y16939D01*
X74658D01*
Y16918D01*
X74648D01*
Y16908D01*
X74638D01*
Y16898D01*
X74627D01*
Y16877D01*
X74617D01*
Y16867D01*
X74606D01*
Y16846D01*
X74596D01*
Y16836D01*
X74586D01*
Y16815D01*
X74575D01*
Y16804D01*
X74565D01*
Y16794D01*
X74555D01*
Y16773D01*
X74544D01*
Y16763D01*
X74534D01*
Y16742D01*
X74524D01*
Y16732D01*
X74513D01*
Y16711D01*
X74503D01*
Y16701D01*
X74492D01*
Y16680D01*
X74482D01*
Y16670D01*
X74472D01*
Y16659D01*
X74461D01*
Y16639D01*
X74451D01*
Y16628D01*
X74441D01*
Y16608D01*
X74430D01*
Y16587D01*
X74420D01*
Y16576D01*
X74410D01*
Y16566D01*
X74399D01*
Y16545D01*
X74389D01*
Y16535D01*
X74378D01*
Y16514D01*
X74368D01*
Y16504D01*
X74358D01*
Y16483D01*
X74347D01*
Y16473D01*
X74337D01*
Y16452D01*
X74326D01*
Y16442D01*
X74316D01*
Y16431D01*
X74306D01*
Y16410D01*
X74295D01*
Y16400D01*
X74285D01*
Y16379D01*
X74275D01*
Y16359D01*
X74264D01*
Y16317D01*
X74254D01*
Y16255D01*
X74264D01*
Y16203D01*
X74275D01*
Y16183D01*
X74285D01*
Y16151D01*
X74295D01*
Y16131D01*
X74306D01*
Y16110D01*
X74316D01*
Y16079D01*
X74326D01*
Y16068D01*
X74337D01*
Y16027D01*
X74347D01*
Y16017D01*
X74358D01*
Y15985D01*
X74368D01*
Y15965D01*
X74378D01*
Y15944D01*
X74389D01*
Y15913D01*
X74399D01*
Y15892D01*
X74410D01*
Y15861D01*
X74420D01*
Y15840D01*
X74430D01*
Y15820D01*
X74441D01*
Y15789D01*
X74451D01*
Y15778D01*
X74461D01*
Y15737D01*
X74472D01*
Y15726D01*
X74482D01*
Y15695D01*
X74492D01*
Y15675D01*
X74503D01*
Y15654D01*
X74513D01*
Y15623D01*
X74524D01*
Y15602D01*
X74534D01*
Y15571D01*
X74544D01*
Y15550D01*
X74555D01*
Y15529D01*
X74565D01*
Y15498D01*
X74575D01*
Y15488D01*
X74586D01*
Y15446D01*
X74596D01*
Y15436D01*
X74606D01*
Y15405D01*
X74617D01*
Y15384D01*
X74627D01*
Y15363D01*
X74638D01*
Y15332D01*
X74648D01*
Y15312D01*
X74658D01*
Y15281D01*
X74669D01*
Y15260D01*
X74679D01*
Y15239D01*
X74689D01*
Y15208D01*
X74700D01*
Y15198D01*
X74710D01*
Y15156D01*
X74721D01*
Y15146D01*
X74731D01*
Y15115D01*
X74741D01*
Y15094D01*
X74752D01*
Y15073D01*
X74762D01*
Y15042D01*
X74772D01*
Y15021D01*
X74783D01*
Y14990D01*
X74793D01*
Y14970D01*
X74803D01*
Y14949D01*
X74814D01*
Y14918D01*
X74824D01*
Y14907D01*
X74835D01*
Y14866D01*
X74845D01*
Y14856D01*
X74855D01*
Y14825D01*
X74866D01*
Y14804D01*
X74876D01*
Y14783D01*
X74886D01*
Y14752D01*
X74897D01*
Y14741D01*
X74907D01*
Y14721D01*
X74917D01*
Y14710D01*
X74928D01*
Y14700D01*
X74938D01*
Y14690D01*
X74949D01*
Y14679D01*
X74959D01*
Y14669D01*
X74990D01*
Y14659D01*
X75000D01*
Y14648D01*
X75052D01*
Y14638D01*
X75094D01*
Y14627D01*
X75146D01*
Y14617D01*
X75208D01*
Y14607D01*
X75249D01*
Y14596D01*
X75332D01*
Y14586D01*
X75363D01*
Y14576D01*
X75436D01*
Y14565D01*
X75488D01*
Y14555D01*
X75529D01*
Y14545D01*
X75602D01*
Y14534D01*
X75643D01*
Y14524D01*
X75716D01*
Y14514D01*
X75757D01*
Y14503D01*
X75819D01*
Y14493D01*
X75881D01*
Y14482D01*
X75923D01*
Y14472D01*
X75995D01*
Y14462D01*
X76037D01*
Y14451D01*
X76099D01*
Y14441D01*
X76151D01*
Y14431D01*
X76203D01*
Y14420D01*
X76275D01*
Y14410D01*
X76306D01*
Y14399D01*
X76389D01*
Y14389D01*
X76431D01*
Y14379D01*
X76483D01*
Y14368D01*
X76545D01*
Y14358D01*
X76586D01*
Y14348D01*
X76669D01*
Y14337D01*
X76700D01*
Y14327D01*
X76773D01*
Y14317D01*
X76825D01*
Y14306D01*
X76866D01*
Y14296D01*
X76939D01*
Y14285D01*
X76980D01*
Y14275D01*
X77053D01*
Y14265D01*
X77074D01*
Y14254D01*
X77094D01*
Y14244D01*
X77105D01*
Y14234D01*
X77115D01*
Y14223D01*
X77125D01*
Y14202D01*
X77146D01*
Y12015D01*
X77136D01*
Y12005D01*
X77125D01*
Y11994D01*
X77115D01*
Y11974D01*
X77105D01*
Y11963D01*
X77084D01*
Y11953D01*
X77063D01*
Y11943D01*
X77022D01*
Y11932D01*
X76960D01*
Y11922D01*
X76918D01*
Y11912D01*
X76846D01*
Y11901D01*
X76804D01*
Y11891D01*
X76742D01*
Y11880D01*
X76680D01*
Y11870D01*
X76638D01*
Y11860D01*
X76566D01*
Y11849D01*
X76524D01*
Y11839D01*
X76452D01*
Y11829D01*
X76410D01*
Y11818D01*
X76358D01*
Y11808D01*
X76286D01*
Y11797D01*
X76255D01*
Y11787D01*
X76172D01*
Y11777D01*
X76130D01*
Y11766D01*
X76068D01*
Y11756D01*
X76016D01*
Y11746D01*
X75975D01*
Y11735D01*
X75892D01*
Y11725D01*
X75861D01*
Y11715D01*
X75788D01*
Y11704D01*
X75736D01*
Y11694D01*
X75684D01*
Y11683D01*
X75622D01*
Y11673D01*
X75581D01*
Y11663D01*
X75508D01*
Y11652D01*
X75467D01*
Y11642D01*
X75405D01*
Y11632D01*
X75342D01*
Y11621D01*
X75301D01*
Y11611D01*
X75228D01*
Y11601D01*
X75187D01*
Y11590D01*
X75114D01*
Y11580D01*
X75073D01*
Y11569D01*
X75052D01*
Y11559D01*
X75021D01*
Y11549D01*
X75011D01*
Y11538D01*
X74990D01*
Y11528D01*
X74980D01*
Y11507D01*
X74969D01*
Y11497D01*
X74959D01*
Y11476D01*
X74949D01*
Y11466D01*
X74938D01*
Y11445D01*
X74928D01*
Y11414D01*
X74917D01*
Y11393D01*
X74907D01*
Y11362D01*
X74897D01*
Y11341D01*
X74886D01*
Y11310D01*
X74876D01*
Y11279D01*
X74866D01*
Y11259D01*
X74855D01*
Y11227D01*
X74845D01*
Y11217D01*
X74835D01*
Y11175D01*
X74824D01*
Y11155D01*
X74814D01*
Y11134D01*
X74803D01*
Y11103D01*
X74793D01*
Y11082D01*
X74783D01*
Y11041D01*
X74772D01*
Y11030D01*
X74762D01*
Y10999D01*
X74752D01*
Y10968D01*
X74741D01*
Y10948D01*
X74731D01*
Y10916D01*
X74721D01*
Y10896D01*
X74710D01*
Y10864D01*
X74700D01*
Y10844D01*
X74689D01*
Y10823D01*
X74679D01*
Y10792D01*
X74669D01*
Y10771D01*
X74658D01*
Y10730D01*
X74648D01*
Y10719D01*
X74638D01*
Y10688D01*
X74627D01*
Y10657D01*
X74617D01*
Y10637D01*
X74606D01*
Y10605D01*
X74596D01*
Y10585D01*
X74586D01*
Y10554D01*
X74575D01*
Y10533D01*
X74565D01*
Y10512D01*
X74555D01*
Y10481D01*
X74544D01*
Y10460D01*
X74534D01*
Y10419D01*
X74524D01*
Y10408D01*
X74513D01*
Y10377D01*
X74503D01*
Y10346D01*
X74492D01*
Y10326D01*
X74482D01*
Y10294D01*
X74472D01*
Y10274D01*
X74461D01*
Y10243D01*
X74451D01*
Y10222D01*
X74441D01*
Y10191D01*
X74430D01*
Y10170D01*
X74420D01*
Y10149D01*
X74410D01*
Y10108D01*
X74399D01*
Y10097D01*
X74389D01*
Y10066D01*
X74378D01*
Y10035D01*
X74368D01*
Y10014D01*
X74358D01*
Y9983D01*
X74347D01*
Y9963D01*
X74337D01*
Y9932D01*
X74326D01*
Y9911D01*
X74316D01*
Y9849D01*
X74306D01*
Y9828D01*
X74316D01*
Y9787D01*
X74326D01*
Y9766D01*
X74337D01*
Y9735D01*
X74347D01*
Y9724D01*
X74358D01*
Y9703D01*
X74368D01*
Y9693D01*
X74378D01*
Y9683D01*
X74389D01*
Y9662D01*
X74399D01*
Y9652D01*
X74410D01*
Y9631D01*
X74420D01*
Y9621D01*
X74430D01*
Y9600D01*
X74441D01*
Y9589D01*
X74451D01*
Y9579D01*
X74461D01*
Y9558D01*
X74472D01*
Y9548D01*
X74482D01*
Y9527D01*
X74492D01*
Y9517D01*
X74503D01*
Y9496D01*
X74513D01*
Y9476D01*
X74524D01*
Y9465D01*
X74534D01*
Y9455D01*
X74544D01*
Y9434D01*
X74555D01*
Y9424D01*
X74565D01*
Y9403D01*
X74575D01*
Y9392D01*
X74586D01*
Y9372D01*
X74596D01*
Y9361D01*
X74606D01*
Y9341D01*
X74617D01*
Y9330D01*
X74627D01*
Y9320D01*
X74638D01*
Y9299D01*
X74648D01*
Y9289D01*
X74658D01*
Y9268D01*
X74669D01*
Y9258D01*
X74679D01*
Y9237D01*
X74689D01*
Y9227D01*
X74700D01*
Y9216D01*
X74710D01*
Y9196D01*
X74721D01*
Y9185D01*
X74731D01*
Y9165D01*
X74741D01*
Y9154D01*
X74752D01*
Y9133D01*
X74762D01*
Y9123D01*
X74772D01*
Y9102D01*
X74783D01*
Y9082D01*
X74793D01*
Y9071D01*
X74803D01*
Y9061D01*
X74814D01*
Y9040D01*
X74824D01*
Y9030D01*
X74835D01*
Y9009D01*
X74845D01*
Y8999D01*
X74855D01*
Y8978D01*
X74866D01*
Y8968D01*
X74876D01*
Y8957D01*
X74886D01*
Y8936D01*
X74897D01*
Y8926D01*
X74907D01*
Y8905D01*
X74917D01*
Y8895D01*
X74928D01*
Y8874D01*
X74938D01*
Y8864D01*
X74949D01*
Y8854D01*
X74959D01*
Y8833D01*
X74969D01*
Y8822D01*
X74980D01*
Y8802D01*
X74990D01*
Y8791D01*
X75000D01*
Y8771D01*
X75011D01*
Y8750D01*
X75021D01*
Y8739D01*
X75031D01*
Y8729D01*
X75042D01*
Y8708D01*
X75052D01*
Y8698D01*
X75063D01*
Y8677D01*
X75073D01*
Y8667D01*
X75083D01*
Y8646D01*
X75094D01*
Y8636D01*
X75104D01*
Y8615D01*
X75114D01*
Y8605D01*
X75125D01*
Y8594D01*
X75135D01*
Y8574D01*
X75146D01*
Y8563D01*
X75156D01*
Y8542D01*
X75166D01*
Y8532D01*
X75177D01*
Y8511D01*
X75187D01*
Y8501D01*
X75197D01*
Y8491D01*
X75208D01*
Y8470D01*
X75218D01*
Y8460D01*
X75228D01*
Y8439D01*
X75239D01*
Y8428D01*
X75249D01*
Y8408D01*
X75260D01*
Y8387D01*
X75270D01*
Y8377D01*
X75280D01*
Y8356D01*
X75291D01*
Y8345D01*
X75301D01*
Y8335D01*
X75311D01*
Y8314D01*
X75322D01*
Y8304D01*
X75332D01*
Y8283D01*
X75342D01*
Y8273D01*
X75353D01*
Y8252D01*
X75363D01*
Y8242D01*
X75374D01*
Y8231D01*
X75384D01*
Y8211D01*
X75394D01*
Y8200D01*
X75405D01*
Y8180D01*
X75415D01*
Y8169D01*
X75425D01*
Y8149D01*
X75436D01*
Y8138D01*
X75446D01*
Y8117D01*
X75457D01*
Y8097D01*
X75467D01*
Y8086D01*
X75477D01*
Y7983D01*
X75467D01*
Y7972D01*
X75457D01*
Y7962D01*
X75446D01*
Y7952D01*
X75436D01*
Y7941D01*
X75425D01*
Y7931D01*
X75415D01*
Y7920D01*
X75405D01*
Y7910D01*
X75394D01*
Y7900D01*
X75384D01*
Y7889D01*
X75374D01*
Y7879D01*
X75363D01*
Y7869D01*
X75353D01*
Y7858D01*
X75342D01*
Y7848D01*
X75332D01*
Y7838D01*
X75322D01*
Y7827D01*
X75311D01*
Y7817D01*
X75301D01*
Y7807D01*
X75291D01*
Y7796D01*
X75280D01*
Y7786D01*
X75270D01*
Y7775D01*
X75260D01*
Y7765D01*
X75249D01*
Y7755D01*
X75239D01*
Y7744D01*
X75228D01*
Y7734D01*
X75218D01*
Y7724D01*
X75208D01*
Y7713D01*
X75197D01*
Y7703D01*
X75187D01*
Y7693D01*
X75177D01*
Y7682D01*
X75166D01*
Y7672D01*
X75156D01*
Y7661D01*
X75146D01*
Y7651D01*
X75135D01*
Y7641D01*
X75125D01*
Y7630D01*
X75114D01*
Y7620D01*
X75104D01*
Y7609D01*
X75094D01*
Y7599D01*
X75083D01*
Y7589D01*
X75073D01*
Y7578D01*
X75063D01*
Y7568D01*
X75052D01*
Y7558D01*
X75042D01*
Y7547D01*
X75031D01*
Y7537D01*
X75021D01*
Y7527D01*
X75011D01*
Y7516D01*
X75000D01*
Y7506D01*
X74990D01*
Y7496D01*
X74980D01*
Y7485D01*
X74969D01*
Y7475D01*
X74959D01*
Y7464D01*
X74949D01*
Y7454D01*
X74938D01*
Y7444D01*
X74928D01*
Y7433D01*
X74917D01*
Y7423D01*
X74907D01*
Y7413D01*
X74897D01*
Y7402D01*
X74886D01*
Y7392D01*
X74876D01*
Y7382D01*
X74866D01*
Y7371D01*
X74855D01*
Y7361D01*
X74845D01*
Y7350D01*
X74835D01*
Y7340D01*
X74824D01*
Y7330D01*
X74814D01*
Y7319D01*
X74803D01*
Y7309D01*
X74793D01*
Y7299D01*
X74783D01*
Y7288D01*
X74772D01*
Y7278D01*
X74762D01*
Y7267D01*
X74752D01*
Y7257D01*
X74741D01*
Y7247D01*
X74731D01*
Y7236D01*
X74721D01*
Y7226D01*
X74710D01*
Y7216D01*
X74700D01*
Y7205D01*
X74689D01*
Y7195D01*
X74679D01*
Y7185D01*
X74669D01*
Y7174D01*
X74658D01*
Y7164D01*
X74648D01*
Y7153D01*
X74638D01*
Y7143D01*
X74627D01*
Y7133D01*
X74617D01*
Y7122D01*
X74606D01*
Y7112D01*
X74596D01*
Y7102D01*
X74586D01*
Y7081D01*
X74565D01*
Y7070D01*
X74555D01*
Y7060D01*
X74544D01*
Y7050D01*
X74534D01*
Y7039D01*
X74524D01*
Y7029D01*
X74513D01*
Y7008D01*
X74492D01*
Y6998D01*
X74482D01*
Y6988D01*
X74472D01*
Y6977D01*
X74461D01*
Y6956D01*
X74441D01*
Y6936D01*
X74420D01*
Y6925D01*
X74410D01*
Y6905D01*
X74389D01*
Y6884D01*
X74368D01*
Y6863D01*
X74347D01*
Y6853D01*
X74337D01*
Y6832D01*
X74316D01*
Y6811D01*
X74295D01*
Y6801D01*
X74285D01*
Y6780D01*
X74264D01*
Y6759D01*
X74244D01*
Y6739D01*
X74233D01*
Y6728D01*
X74212D01*
Y6708D01*
X74192D01*
Y6687D01*
X74171D01*
Y6666D01*
X74161D01*
Y6656D01*
X74140D01*
Y6635D01*
X74119D01*
Y6614D01*
X74109D01*
Y6604D01*
X74088D01*
Y6583D01*
X74067D01*
Y6563D01*
X74057D01*
Y6552D01*
X74047D01*
Y6542D01*
X74036D01*
Y6531D01*
X74015D01*
Y6511D01*
X73995D01*
Y6490D01*
X73984D01*
Y6480D01*
X73964D01*
Y6469D01*
X73953D01*
Y6459D01*
X73933D01*
Y6438D01*
X73839D01*
Y6459D01*
X73819D01*
Y6469D01*
X73798D01*
Y6480D01*
X73787D01*
Y6490D01*
X73767D01*
Y6500D01*
X73756D01*
Y6511D01*
X73736D01*
Y6521D01*
X73725D01*
Y6531D01*
X73705D01*
Y6542D01*
X73694D01*
Y6552D01*
X73684D01*
Y6563D01*
X73663D01*
Y6573D01*
X73653D01*
Y6583D01*
X73632D01*
Y6594D01*
X73622D01*
Y6604D01*
X73601D01*
Y6614D01*
X73590D01*
Y6625D01*
X73580D01*
Y6635D01*
X73559D01*
Y6645D01*
X73539D01*
Y6656D01*
X73528D01*
Y6666D01*
X73508D01*
Y6677D01*
X73497D01*
Y6687D01*
X73476D01*
Y6697D01*
X73466D01*
Y6708D01*
X73456D01*
Y6718D01*
X73435D01*
Y6728D01*
X73425D01*
Y6739D01*
X73404D01*
Y6749D01*
X73394D01*
Y6759D01*
X73373D01*
Y6770D01*
X73362D01*
Y6780D01*
X73352D01*
Y6791D01*
X73331D01*
Y6801D01*
X73321D01*
Y6811D01*
X73300D01*
Y6822D01*
X73290D01*
Y6832D01*
X73269D01*
Y6842D01*
X73259D01*
Y6853D01*
X73238D01*
Y6863D01*
X73228D01*
Y6874D01*
X73217D01*
Y6884D01*
X73197D01*
Y6894D01*
X73186D01*
Y6905D01*
X73166D01*
Y6915D01*
X73145D01*
Y6925D01*
X73134D01*
Y6936D01*
X73124D01*
Y6946D01*
X73103D01*
Y6956D01*
X73093D01*
Y6967D01*
X73072D01*
Y6977D01*
X73062D01*
Y6988D01*
X73041D01*
Y6998D01*
X73031D01*
Y7008D01*
X73010D01*
Y7019D01*
X73000D01*
Y7029D01*
X72989D01*
Y7039D01*
X72969D01*
Y7050D01*
X72958D01*
Y7060D01*
X72938D01*
Y7070D01*
X72927D01*
Y7081D01*
X72906D01*
Y7091D01*
X72896D01*
Y7102D01*
X72886D01*
Y7112D01*
X72865D01*
Y7122D01*
X72855D01*
Y7133D01*
X72834D01*
Y7143D01*
X72823D01*
Y7153D01*
X72803D01*
Y7164D01*
X72792D01*
Y7174D01*
X72772D01*
Y7185D01*
X72761D01*
Y7195D01*
X72741D01*
Y7205D01*
X72730D01*
Y7216D01*
X72709D01*
Y7226D01*
X72699D01*
Y7236D01*
X72678D01*
Y7247D01*
X72668D01*
Y7257D01*
X72647D01*
Y7267D01*
X72637D01*
Y7278D01*
X72627D01*
Y7288D01*
X72606D01*
Y7299D01*
X72595D01*
Y7309D01*
X72575D01*
Y7319D01*
X72564D01*
Y7330D01*
X72544D01*
Y7340D01*
X72533D01*
Y7350D01*
X72523D01*
Y7361D01*
X72502D01*
Y7371D01*
X72492D01*
Y7382D01*
X72471D01*
Y7392D01*
X72461D01*
Y7402D01*
X72440D01*
Y7413D01*
X72430D01*
Y7423D01*
X72419D01*
Y7433D01*
X72398D01*
Y7444D01*
X72388D01*
Y7454D01*
X72367D01*
Y7464D01*
X72347D01*
Y7475D01*
X72336D01*
Y7485D01*
X72316D01*
Y7496D01*
X72305D01*
Y7506D01*
X72295D01*
Y7516D01*
X72274D01*
Y7527D01*
X72264D01*
Y7537D01*
X72243D01*
Y7547D01*
X72233D01*
Y7558D01*
X72212D01*
Y7568D01*
X72201D01*
Y7578D01*
X72160D01*
Y7589D01*
X72087D01*
Y7578D01*
X72046D01*
Y7568D01*
X72025D01*
Y7558D01*
X72004D01*
Y7547D01*
X71984D01*
Y7537D01*
X71963D01*
Y7527D01*
X71942D01*
Y7516D01*
X71932D01*
Y7506D01*
X71901D01*
Y7496D01*
X71890D01*
Y7485D01*
X71870D01*
Y7475D01*
X71849D01*
Y7464D01*
X71828D01*
Y7454D01*
X71807D01*
Y7444D01*
X71797D01*
Y7433D01*
X71766D01*
Y7423D01*
X71756D01*
Y7413D01*
X71735D01*
Y7402D01*
X71714D01*
Y7392D01*
X71704D01*
Y7382D01*
X71673D01*
Y7371D01*
X71662D01*
Y7361D01*
X71631D01*
Y7350D01*
X71621D01*
Y7340D01*
X71600D01*
Y7330D01*
X71579D01*
Y7319D01*
X71559D01*
Y7309D01*
X71538D01*
Y7299D01*
X71528D01*
Y7288D01*
X71496D01*
Y7278D01*
X71486D01*
Y7267D01*
X71465D01*
Y7257D01*
X71445D01*
Y7247D01*
X71424D01*
Y7236D01*
X71403D01*
Y7226D01*
X71382D01*
Y7216D01*
X71372D01*
Y7205D01*
X71341D01*
Y7195D01*
X71331D01*
Y7185D01*
X71268D01*
Y7195D01*
X71248D01*
Y7205D01*
X71237D01*
Y7216D01*
X71227D01*
Y7236D01*
X71217D01*
Y7247D01*
X71206D01*
Y7278D01*
X71196D01*
Y7309D01*
X71186D01*
Y7330D01*
X71175D01*
Y7361D01*
X71165D01*
Y7371D01*
X71154D01*
Y7413D01*
X71144D01*
Y7423D01*
X71134D01*
Y7454D01*
X71123D01*
Y7485D01*
X71113D01*
Y7496D01*
X71103D01*
Y7537D01*
X71092D01*
Y7547D01*
X71082D01*
Y7578D01*
X71071D01*
Y7609D01*
X71061D01*
Y7630D01*
X71051D01*
Y7661D01*
X71040D01*
Y7672D01*
X71030D01*
Y7713D01*
X71020D01*
Y7724D01*
X71009D01*
Y7755D01*
X70999D01*
Y7786D01*
X70989D01*
Y7796D01*
X70978D01*
Y7838D01*
X70968D01*
Y7848D01*
X70957D01*
Y7879D01*
X70947D01*
Y7910D01*
X70937D01*
Y7931D01*
X70926D01*
Y7962D01*
X70916D01*
Y7972D01*
X70906D01*
Y8014D01*
X70895D01*
Y8024D01*
X70885D01*
Y8055D01*
X70875D01*
Y8086D01*
X70864D01*
Y8097D01*
X70854D01*
Y8138D01*
X70843D01*
Y8149D01*
X70833D01*
Y8180D01*
X70823D01*
Y8211D01*
X70812D01*
Y8231D01*
X70802D01*
Y8263D01*
X70792D01*
Y8273D01*
X70781D01*
Y8314D01*
X70771D01*
Y8335D01*
X70761D01*
Y8356D01*
X70750D01*
Y8387D01*
X70740D01*
Y8397D01*
X70729D01*
Y8439D01*
X70719D01*
Y8449D01*
X70709D01*
Y8491D01*
X70698D01*
Y8511D01*
X70688D01*
Y8532D01*
X70678D01*
Y8563D01*
X70667D01*
Y8574D01*
X70657D01*
Y8615D01*
X70647D01*
Y8636D01*
X70636D01*
Y8657D01*
X70626D01*
Y8688D01*
X70615D01*
Y8698D01*
X70605D01*
Y8739D01*
X70595D01*
Y8760D01*
X70584D01*
Y8791D01*
X70574D01*
Y8812D01*
X70564D01*
Y8833D01*
X70553D01*
Y8864D01*
X70543D01*
Y8874D01*
X70533D01*
Y8916D01*
X70522D01*
Y8936D01*
X70512D01*
Y8957D01*
X70501D01*
Y8988D01*
X70491D01*
Y9009D01*
X70481D01*
Y9040D01*
X70470D01*
Y9061D01*
X70460D01*
Y9092D01*
X70450D01*
Y9113D01*
X70439D01*
Y9133D01*
X70429D01*
Y9165D01*
X70418D01*
Y9185D01*
X70408D01*
Y9216D01*
X70398D01*
Y9237D01*
X70387D01*
Y9258D01*
X70377D01*
Y9289D01*
X70367D01*
Y9310D01*
X70356D01*
Y9341D01*
X70346D01*
Y9361D01*
X70336D01*
Y9392D01*
X70325D01*
Y9413D01*
X70315D01*
Y9434D01*
X70304D01*
Y9465D01*
X70294D01*
Y9486D01*
X70284D01*
Y9517D01*
X70273D01*
Y9538D01*
X70263D01*
Y9558D01*
X70253D01*
Y9589D01*
X70242D01*
Y9610D01*
X70232D01*
Y9641D01*
X70222D01*
Y9662D01*
X70211D01*
Y9693D01*
X70201D01*
Y9714D01*
X70190D01*
Y9735D01*
X70180D01*
Y9766D01*
X70170D01*
Y9787D01*
X70159D01*
Y9818D01*
X70149D01*
Y9838D01*
X70139D01*
Y9859D01*
X70128D01*
Y9890D01*
X70118D01*
Y9911D01*
X70108D01*
Y9942D01*
X70097D01*
Y9963D01*
X70087D01*
Y9994D01*
X70076D01*
Y10014D01*
X70066D01*
Y10035D01*
X70056D01*
Y10066D01*
X70045D01*
Y10087D01*
X70035D01*
Y10118D01*
X70025D01*
Y10139D01*
X70014D01*
Y10160D01*
X70004D01*
Y10191D01*
X69993D01*
Y10211D01*
X69983D01*
Y10243D01*
X69973D01*
Y10263D01*
X69962D01*
Y10294D01*
X69952D01*
Y10315D01*
X69942D01*
Y10336D01*
X69931D01*
Y10367D01*
X69921D01*
Y10388D01*
X69911D01*
Y10419D01*
X69900D01*
Y10440D01*
X69890D01*
Y10460D01*
X69879D01*
Y10491D01*
X69869D01*
Y10512D01*
X69859D01*
Y10543D01*
X69848D01*
Y10564D01*
X69838D01*
Y10595D01*
X69828D01*
Y10616D01*
X69817D01*
Y10637D01*
X69807D01*
Y10668D01*
X69797D01*
Y10688D01*
X69786D01*
Y10719D01*
X69776D01*
Y10740D01*
X69765D01*
Y10771D01*
X69755D01*
Y10792D01*
X69745D01*
Y10813D01*
X69734D01*
Y10864D01*
X69745D01*
Y10885D01*
X69755D01*
Y10906D01*
X69765D01*
Y10916D01*
X69776D01*
Y10927D01*
X69786D01*
Y10937D01*
X69797D01*
Y10948D01*
X69817D01*
Y10958D01*
X69828D01*
Y10968D01*
X69848D01*
Y10979D01*
X69869D01*
Y10989D01*
X69890D01*
Y10999D01*
X69900D01*
Y11010D01*
X69921D01*
Y11020D01*
X69931D01*
Y11030D01*
X69952D01*
Y11041D01*
X69973D01*
Y11051D01*
X69983D01*
Y11062D01*
X69993D01*
Y11072D01*
X70004D01*
Y11082D01*
X70025D01*
Y11093D01*
X70035D01*
Y11103D01*
X70045D01*
Y11113D01*
X70066D01*
Y11124D01*
X70076D01*
Y11134D01*
X70087D01*
Y11144D01*
X70108D01*
Y11155D01*
X70118D01*
Y11165D01*
X70139D01*
Y11175D01*
X70149D01*
Y11186D01*
X70159D01*
Y11196D01*
X70180D01*
Y11207D01*
X70190D01*
Y11217D01*
X70201D01*
Y11227D01*
X70211D01*
Y11238D01*
X70232D01*
Y11248D01*
X70242D01*
Y11259D01*
X70263D01*
Y11269D01*
X70273D01*
Y11279D01*
X70284D01*
Y11290D01*
X70304D01*
Y11300D01*
X70315D01*
Y11310D01*
X70325D01*
Y11321D01*
X70336D01*
Y11331D01*
X70346D01*
Y11341D01*
X70356D01*
Y11352D01*
X70367D01*
Y11362D01*
X70377D01*
Y11372D01*
X70387D01*
Y11383D01*
X70408D01*
Y11393D01*
X70418D01*
Y11404D01*
X70429D01*
Y11414D01*
X70439D01*
Y11424D01*
X70450D01*
Y11435D01*
X70460D01*
Y11445D01*
X70470D01*
Y11455D01*
X70481D01*
Y11466D01*
X70491D01*
Y11476D01*
X70501D01*
Y11486D01*
X70512D01*
Y11497D01*
X70522D01*
Y11507D01*
X70533D01*
Y11518D01*
X70543D01*
Y11528D01*
X70553D01*
Y11549D01*
X70564D01*
Y11559D01*
X70574D01*
Y11569D01*
X70584D01*
Y11580D01*
X70595D01*
Y11590D01*
X70605D01*
Y11611D01*
X70615D01*
Y11621D01*
X70626D01*
Y11632D01*
X70636D01*
Y11642D01*
X70647D01*
Y11652D01*
X70657D01*
Y11673D01*
X70667D01*
Y11683D01*
X70678D01*
Y11694D01*
X70688D01*
Y11704D01*
X70698D01*
Y11715D01*
X70709D01*
Y11735D01*
X70719D01*
Y11746D01*
X70729D01*
Y11766D01*
X70740D01*
Y11777D01*
X70750D01*
Y11797D01*
X70761D01*
Y11818D01*
X70771D01*
Y11829D01*
X70781D01*
Y11849D01*
X70792D01*
Y11860D01*
X70802D01*
Y11880D01*
X70812D01*
Y11891D01*
X70823D01*
Y11912D01*
X70833D01*
Y11932D01*
X70843D01*
Y11943D01*
X70854D01*
Y11963D01*
X70864D01*
Y11974D01*
X70875D01*
Y12005D01*
X70885D01*
Y12026D01*
X70895D01*
Y12046D01*
X70906D01*
Y12067D01*
X70916D01*
Y12088D01*
X70926D01*
Y12119D01*
X70937D01*
Y12129D01*
X70947D01*
Y12150D01*
X70957D01*
Y12181D01*
X70968D01*
Y12191D01*
X70978D01*
Y12223D01*
X70989D01*
Y12243D01*
X70999D01*
Y12285D01*
X71009D01*
Y12316D01*
X71020D01*
Y12337D01*
X71030D01*
Y12378D01*
X71040D01*
Y12399D01*
X71051D01*
Y12440D01*
X71061D01*
Y12471D01*
X71071D01*
Y12492D01*
X71082D01*
Y12554D01*
X71092D01*
Y12596D01*
X71103D01*
Y12668D01*
X71113D01*
Y12710D01*
X71123D01*
Y12772D01*
X71134D01*
Y12886D01*
X71144D01*
Y13000D01*
X71154D01*
Y13207D01*
X71144D01*
Y13342D01*
X71134D01*
Y13415D01*
X71123D01*
Y13487D01*
X71113D01*
Y13539D01*
X71103D01*
Y13601D01*
X71092D01*
Y13632D01*
X71082D01*
Y13684D01*
X71071D01*
Y13715D01*
X71061D01*
Y13746D01*
X71051D01*
Y13798D01*
X71040D01*
Y13819D01*
X71030D01*
Y13860D01*
X71020D01*
Y13881D01*
X71009D01*
Y13902D01*
X70999D01*
Y13943D01*
X70989D01*
Y13964D01*
X70978D01*
Y13995D01*
X70968D01*
Y14016D01*
X70957D01*
Y14037D01*
X70947D01*
Y14057D01*
X70937D01*
Y14078D01*
X70926D01*
Y14109D01*
X70916D01*
Y14120D01*
X70906D01*
Y14151D01*
X70895D01*
Y14161D01*
X70885D01*
Y14192D01*
X70875D01*
Y14213D01*
X70864D01*
Y14223D01*
X70854D01*
Y14244D01*
X70843D01*
Y14254D01*
X70833D01*
Y14275D01*
X70823D01*
Y14296D01*
X70812D01*
Y14306D01*
X70802D01*
Y14327D01*
X70792D01*
Y14348D01*
X70781D01*
Y14368D01*
X70771D01*
Y14379D01*
X70761D01*
Y14399D01*
X70750D01*
Y14410D01*
X70740D01*
Y14420D01*
X70729D01*
Y14441D01*
X70719D01*
Y14451D01*
X70709D01*
Y14472D01*
X70698D01*
Y14482D01*
X70688D01*
Y14493D01*
X70678D01*
Y14514D01*
X70667D01*
Y14524D01*
X70657D01*
Y14534D01*
X70647D01*
Y14545D01*
X70636D01*
Y14565D01*
X70626D01*
Y14576D01*
X70615D01*
Y14586D01*
X70605D01*
Y14596D01*
X70595D01*
Y14607D01*
X70584D01*
Y14627D01*
X70574D01*
Y14638D01*
X70564D01*
Y14648D01*
X70553D01*
Y14659D01*
X70543D01*
Y14669D01*
X70533D01*
Y14679D01*
X70522D01*
Y14690D01*
X70512D01*
Y14700D01*
X70501D01*
Y14710D01*
X70491D01*
Y14721D01*
X70481D01*
Y14741D01*
X70470D01*
Y14752D01*
X70450D01*
Y14762D01*
X70439D01*
Y14773D01*
X70429D01*
Y14783D01*
X70418D01*
Y14793D01*
X70408D01*
Y14804D01*
X70398D01*
Y14814D01*
X70387D01*
Y14825D01*
X70377D01*
Y14835D01*
X70367D01*
Y14845D01*
X70346D01*
Y14856D01*
X70336D01*
Y14866D01*
X70325D01*
Y14876D01*
X70315D01*
Y14887D01*
X70304D01*
Y14897D01*
X70294D01*
Y14907D01*
X70284D01*
Y14918D01*
X70263D01*
Y14928D01*
X70253D01*
Y14939D01*
X70242D01*
Y14949D01*
X70222D01*
Y14959D01*
X70211D01*
Y14970D01*
X70190D01*
Y14980D01*
X70180D01*
Y14990D01*
X70170D01*
Y15001D01*
X70149D01*
Y15011D01*
X70139D01*
Y15021D01*
X70118D01*
Y15032D01*
X70108D01*
Y15042D01*
X70087D01*
Y15053D01*
X70076D01*
Y15063D01*
X70056D01*
Y15073D01*
X70035D01*
Y15084D01*
X70025D01*
Y15094D01*
X70004D01*
Y15104D01*
X69993D01*
Y15115D01*
X69973D01*
Y15125D01*
X69952D01*
Y15135D01*
X69942D01*
Y15146D01*
X69911D01*
Y15156D01*
X69900D01*
Y15167D01*
X69869D01*
Y15177D01*
X69848D01*
Y15187D01*
X69838D01*
Y15198D01*
X69807D01*
Y15208D01*
X69797D01*
Y15218D01*
X69765D01*
Y15229D01*
X69745D01*
Y15239D01*
X69724D01*
Y15249D01*
X69693D01*
Y15260D01*
X69672D01*
Y15270D01*
X69631D01*
Y15281D01*
X69610D01*
Y15291D01*
X69579D01*
Y15301D01*
X69548D01*
Y15312D01*
X69527D01*
Y15322D01*
X69485D01*
Y15332D01*
X69454D01*
Y15343D01*
X69402D01*
Y15353D01*
X69371D01*
Y15363D01*
X69330D01*
Y15374D01*
X69268D01*
Y15384D01*
X69226D01*
Y15395D01*
X69133D01*
Y15405D01*
X69081D01*
Y15415D01*
X68863D01*
Y15426D01*
X68791D01*
Y15415D01*
X68573D01*
Y15405D01*
X68521D01*
Y15395D01*
X68428D01*
Y15384D01*
X68387D01*
Y15374D01*
X68325D01*
Y15363D01*
X68283D01*
Y15353D01*
X68252D01*
Y15343D01*
X68200D01*
Y15332D01*
X68169D01*
Y15322D01*
X68128D01*
Y15312D01*
X68107D01*
Y15301D01*
X68076D01*
Y15291D01*
X68045D01*
Y15281D01*
X68024D01*
Y15270D01*
X67982D01*
Y15260D01*
X67962D01*
Y15249D01*
X67931D01*
Y15239D01*
X67910D01*
Y15229D01*
X67889D01*
Y15218D01*
X67858D01*
Y15208D01*
X67848D01*
Y15198D01*
X67817D01*
Y15187D01*
X67806D01*
Y15177D01*
X67785D01*
Y15167D01*
X67754D01*
Y15156D01*
X67744D01*
Y15146D01*
X67713D01*
Y15135D01*
X67703D01*
Y15125D01*
X67682D01*
Y15115D01*
X67661D01*
Y15104D01*
X67651D01*
Y15094D01*
X67630D01*
Y15084D01*
X67620D01*
Y15073D01*
X67599D01*
Y15063D01*
X67578D01*
Y15053D01*
X67568D01*
Y15042D01*
X67547D01*
Y15032D01*
X67537D01*
Y15021D01*
X67516D01*
Y15011D01*
X67506D01*
Y15001D01*
X67485D01*
Y14990D01*
X67474D01*
Y14980D01*
X67464D01*
Y14970D01*
X67443D01*
Y14959D01*
X67433D01*
Y14949D01*
X67412D01*
Y14939D01*
X67402D01*
Y14928D01*
X67392D01*
Y14918D01*
X67371D01*
Y14907D01*
X67360D01*
Y14897D01*
X67350D01*
Y14887D01*
X67340D01*
Y14876D01*
X67329D01*
Y14866D01*
X67319D01*
Y14856D01*
X67309D01*
Y14845D01*
X67288D01*
Y14835D01*
X67277D01*
Y14825D01*
X67267D01*
Y14814D01*
X67257D01*
Y14804D01*
X67246D01*
Y14793D01*
X67236D01*
Y14783D01*
X67226D01*
Y14773D01*
X67215D01*
Y14762D01*
X67205D01*
Y14752D01*
X67184D01*
Y14741D01*
X67174D01*
Y14721D01*
X67153D01*
Y14700D01*
X67143D01*
Y14690D01*
X67132D01*
Y14679D01*
X67122D01*
Y14669D01*
X67112D01*
Y14659D01*
X67101D01*
Y14648D01*
X67091D01*
Y14638D01*
X67080D01*
Y14627D01*
X67070D01*
Y14607D01*
X67060D01*
Y14596D01*
X67049D01*
Y14586D01*
X67039D01*
Y14576D01*
X67029D01*
Y14565D01*
X67018D01*
Y14545D01*
X67008D01*
Y14534D01*
X66998D01*
Y14524D01*
X66987D01*
Y14514D01*
X66977D01*
Y14493D01*
X66966D01*
Y14482D01*
X66956D01*
Y14472D01*
X66946D01*
Y14451D01*
X66935D01*
Y14441D01*
X66925D01*
Y14420D01*
X66915D01*
Y14410D01*
X66904D01*
Y14399D01*
X66894D01*
Y14379D01*
X66884D01*
Y14368D01*
X66873D01*
Y14348D01*
X66863D01*
Y14327D01*
X66852D01*
Y14306D01*
X66842D01*
Y14296D01*
X66832D01*
Y14275D01*
X66821D01*
Y14254D01*
X66811D01*
Y14244D01*
X66801D01*
Y14223D01*
X66790D01*
Y14213D01*
X66780D01*
Y14192D01*
X66769D01*
Y14161D01*
X66759D01*
Y14151D01*
X66749D01*
Y14120D01*
X66738D01*
Y14109D01*
X66728D01*
Y14078D01*
X66718D01*
Y14057D01*
X66707D01*
Y14037D01*
X66697D01*
Y14016D01*
X66687D01*
Y13995D01*
X66676D01*
Y13964D01*
X66666D01*
Y13943D01*
X66655D01*
Y13902D01*
X66645D01*
Y13881D01*
X66635D01*
Y13860D01*
X66624D01*
Y13819D01*
X66614D01*
Y13798D01*
X66604D01*
Y13746D01*
X66593D01*
Y13715D01*
X66583D01*
Y13684D01*
X66573D01*
Y13632D01*
X66562D01*
Y13601D01*
X66552D01*
Y13539D01*
X66541D01*
Y13487D01*
X66531D01*
Y13404D01*
X66521D01*
Y13342D01*
X66510D01*
Y13207D01*
X66500D01*
Y13000D01*
X66510D01*
Y12876D01*
X66521D01*
Y12762D01*
X66531D01*
Y12710D01*
X66541D01*
Y12668D01*
X66552D01*
Y12596D01*
X66562D01*
Y12554D01*
X66573D01*
Y12492D01*
X66583D01*
Y12471D01*
X66593D01*
Y12440D01*
X66604D01*
Y12399D01*
X66614D01*
Y12378D01*
X66624D01*
Y12337D01*
X66635D01*
Y12316D01*
X66645D01*
Y12285D01*
X66655D01*
Y12243D01*
X66666D01*
Y12223D01*
X66676D01*
Y12191D01*
X66687D01*
Y12181D01*
X66697D01*
Y12150D01*
X66707D01*
Y12129D01*
X66718D01*
Y12119D01*
X66728D01*
Y12088D01*
X66738D01*
Y12067D01*
X66749D01*
Y12046D01*
X66759D01*
Y12026D01*
X66769D01*
Y12005D01*
X66780D01*
Y11974D01*
X66790D01*
Y11963D01*
X66801D01*
Y11943D01*
X66811D01*
Y11932D01*
X66821D01*
Y11912D01*
X66832D01*
Y11891D01*
X66842D01*
Y11880D01*
X66852D01*
Y11860D01*
X66863D01*
Y11849D01*
X66873D01*
Y11829D01*
X66884D01*
Y11818D01*
X66894D01*
Y11797D01*
X66904D01*
Y11777D01*
X66915D01*
Y11766D01*
X66925D01*
Y11746D01*
X66935D01*
Y11735D01*
X66946D01*
Y11715D01*
X66956D01*
Y11704D01*
X66966D01*
Y11694D01*
X66977D01*
Y11683D01*
X66987D01*
Y11673D01*
X66998D01*
Y11652D01*
X67008D01*
Y11642D01*
X67018D01*
Y11632D01*
X67029D01*
Y11621D01*
X67039D01*
Y11611D01*
X67049D01*
Y11590D01*
X67060D01*
Y11580D01*
X67070D01*
Y11569D01*
X67080D01*
Y11559D01*
X67091D01*
Y11549D01*
X67101D01*
Y11528D01*
X67112D01*
Y11518D01*
X67122D01*
Y11507D01*
X67132D01*
Y11497D01*
X67143D01*
Y11486D01*
X67153D01*
Y11476D01*
X67163D01*
Y11466D01*
X67174D01*
Y11455D01*
X67184D01*
Y11445D01*
X67194D01*
Y11435D01*
X67205D01*
Y11424D01*
X67215D01*
Y11414D01*
X67226D01*
Y11404D01*
X67236D01*
Y11393D01*
X67246D01*
Y11383D01*
X67267D01*
Y11372D01*
X67277D01*
Y11362D01*
X67288D01*
Y11352D01*
X67298D01*
Y11341D01*
X67309D01*
Y11331D01*
X67319D01*
Y11321D01*
X67329D01*
Y11310D01*
X67340D01*
Y11300D01*
X67350D01*
Y11290D01*
X67371D01*
Y11279D01*
X67381D01*
Y11269D01*
X67392D01*
Y11259D01*
X67412D01*
Y11248D01*
X67423D01*
Y11238D01*
X67443D01*
Y11227D01*
X67454D01*
Y11217D01*
X67464D01*
Y11207D01*
X67474D01*
Y11196D01*
X67495D01*
Y11186D01*
X67506D01*
Y11175D01*
X67516D01*
Y11165D01*
X67537D01*
Y11155D01*
X67547D01*
Y11144D01*
X67568D01*
Y11134D01*
X67578D01*
Y11124D01*
X67589D01*
Y11113D01*
X67609D01*
Y11103D01*
X67620D01*
Y11093D01*
X67630D01*
Y11082D01*
X67651D01*
Y11072D01*
X67661D01*
Y11062D01*
X67671D01*
Y11051D01*
X67682D01*
Y11041D01*
X67703D01*
Y11030D01*
X67723D01*
Y11020D01*
X67734D01*
Y11010D01*
X67754D01*
Y10999D01*
X67765D01*
Y10989D01*
X67785D01*
Y10979D01*
X67806D01*
Y10968D01*
X67827D01*
Y10958D01*
X67837D01*
Y10948D01*
X67858D01*
Y10937D01*
X67868D01*
Y10927D01*
X67879D01*
Y10916D01*
X67889D01*
Y10906D01*
X67899D01*
Y10885D01*
X67910D01*
Y10864D01*
X67920D01*
Y10813D01*
X67910D01*
Y10792D01*
X67899D01*
Y10761D01*
X67889D01*
Y10740D01*
X67879D01*
Y10719D01*
X67868D01*
Y10688D01*
X67858D01*
Y10668D01*
X67848D01*
Y10637D01*
X67837D01*
Y10616D01*
X67827D01*
Y10595D01*
X67817D01*
Y10564D01*
X67806D01*
Y10543D01*
X67796D01*
Y10512D01*
X67785D01*
Y10491D01*
X67775D01*
Y10460D01*
X67765D01*
Y10440D01*
X67754D01*
Y10419D01*
X67744D01*
Y10388D01*
X67734D01*
Y10367D01*
X67723D01*
Y10336D01*
X67713D01*
Y10315D01*
X67703D01*
Y10294D01*
X67692D01*
Y10263D01*
X67682D01*
Y10243D01*
X67671D01*
Y10211D01*
X67661D01*
Y10191D01*
X67651D01*
Y10160D01*
X67640D01*
Y10139D01*
X67630D01*
Y10118D01*
X67620D01*
Y10087D01*
X67609D01*
Y10066D01*
X67599D01*
Y10035D01*
X67589D01*
Y10014D01*
X67578D01*
Y9994D01*
X67568D01*
Y9963D01*
X67557D01*
Y9942D01*
X67547D01*
Y9911D01*
X67537D01*
Y9890D01*
X67526D01*
Y9859D01*
X67516D01*
Y9838D01*
X67506D01*
Y9818D01*
X67495D01*
Y9787D01*
X67485D01*
Y9766D01*
X67474D01*
Y9735D01*
X67464D01*
Y9714D01*
X67454D01*
Y9693D01*
X67443D01*
Y9662D01*
X67433D01*
Y9641D01*
X67423D01*
Y9610D01*
X67412D01*
Y9589D01*
X67402D01*
Y9558D01*
X67392D01*
Y9538D01*
X67381D01*
Y9517D01*
X67371D01*
Y9486D01*
X67360D01*
Y9465D01*
X67350D01*
Y9434D01*
X67340D01*
Y9413D01*
X67329D01*
Y9392D01*
X67319D01*
Y9361D01*
X67309D01*
Y9341D01*
X67298D01*
Y9310D01*
X67288D01*
Y9289D01*
X67277D01*
Y9258D01*
X67267D01*
Y9237D01*
X67257D01*
Y9216D01*
X67246D01*
Y9185D01*
X67236D01*
Y9165D01*
X67226D01*
Y9133D01*
X67215D01*
Y9113D01*
X67205D01*
Y9092D01*
X67194D01*
Y9061D01*
X67184D01*
Y9040D01*
X67174D01*
Y9009D01*
X67163D01*
Y8988D01*
X67153D01*
Y8957D01*
X67143D01*
Y8936D01*
X67132D01*
Y8916D01*
X67122D01*
Y8874D01*
X67112D01*
Y8864D01*
X67101D01*
Y8833D01*
X67091D01*
Y8812D01*
X67080D01*
Y8791D01*
X67070D01*
Y8760D01*
X67060D01*
Y8739D01*
X67049D01*
Y8698D01*
X67039D01*
Y8688D01*
X67029D01*
Y8657D01*
X67018D01*
Y8636D01*
X67008D01*
Y8615D01*
X66998D01*
Y8574D01*
X66987D01*
Y8563D01*
X66977D01*
Y8532D01*
X66966D01*
Y8511D01*
X66956D01*
Y8480D01*
X66946D01*
Y8449D01*
X66935D01*
Y8439D01*
X66925D01*
Y8397D01*
X66915D01*
Y8387D01*
X66904D01*
Y8356D01*
X66894D01*
Y8335D01*
X66884D01*
Y8314D01*
X66873D01*
Y8273D01*
X66863D01*
Y8263D01*
X66852D01*
Y8231D01*
X66842D01*
Y8211D01*
X66832D01*
Y8180D01*
X66821D01*
Y8149D01*
X66811D01*
Y8138D01*
X66801D01*
Y8097D01*
X66790D01*
Y8086D01*
X66780D01*
Y8055D01*
X66769D01*
Y8024D01*
X66759D01*
Y8014D01*
X66749D01*
Y7972D01*
X66738D01*
Y7962D01*
X66728D01*
Y7931D01*
X66718D01*
Y7910D01*
X66707D01*
Y7879D01*
X66697D01*
Y7848D01*
X66687D01*
Y7838D01*
X66676D01*
Y7796D01*
X66666D01*
Y7786D01*
X66655D01*
Y7755D01*
X66645D01*
Y7724D01*
X66635D01*
Y7713D01*
X66624D01*
Y7672D01*
X66614D01*
Y7661D01*
X66604D01*
Y7630D01*
X66593D01*
Y7609D01*
X66583D01*
Y7578D01*
X66573D01*
Y7547D01*
X66562D01*
Y7537D01*
X66552D01*
Y7496D01*
X66541D01*
Y7485D01*
X66531D01*
Y7454D01*
X66521D01*
Y7423D01*
X66510D01*
Y7413D01*
X66500D01*
Y7371D01*
X66490D01*
Y7361D01*
X66479D01*
Y7330D01*
X66469D01*
Y7309D01*
X66458D01*
Y7278D01*
X66448D01*
Y7247D01*
X66438D01*
Y7236D01*
X66427D01*
Y7216D01*
X66417D01*
Y7205D01*
X66407D01*
Y7195D01*
X66386D01*
Y7185D01*
X66324D01*
Y7195D01*
X66313D01*
Y7205D01*
X66293D01*
Y7216D01*
X66272D01*
Y7226D01*
X66251D01*
Y7236D01*
X66230D01*
Y7247D01*
X66210D01*
Y7257D01*
X66189D01*
Y7267D01*
X66179D01*
Y7278D01*
X66158D01*
Y7288D01*
X66127D01*
Y7299D01*
X66116D01*
Y7309D01*
X66096D01*
Y7319D01*
X66075D01*
Y7330D01*
X66054D01*
Y7340D01*
X66034D01*
Y7350D01*
X66023D01*
Y7361D01*
X65992D01*
Y7371D01*
X65982D01*
Y7382D01*
X65961D01*
Y7392D01*
X65940D01*
Y7402D01*
X65920D01*
Y7413D01*
X65899D01*
Y7423D01*
X65888D01*
Y7433D01*
X65857D01*
Y7444D01*
X65847D01*
Y7454D01*
X65826D01*
Y7464D01*
X65806D01*
Y7475D01*
X65785D01*
Y7485D01*
X65764D01*
Y7496D01*
X65754D01*
Y7506D01*
X65723D01*
Y7516D01*
X65712D01*
Y7527D01*
X65691D01*
Y7537D01*
X65671D01*
Y7547D01*
X65650D01*
Y7558D01*
X65629D01*
Y7568D01*
X65609D01*
Y7578D01*
X65567D01*
Y7589D01*
X65495D01*
Y7578D01*
X65453D01*
Y7568D01*
X65443D01*
Y7558D01*
X65422D01*
Y7547D01*
X65412D01*
Y7537D01*
X65391D01*
Y7527D01*
X65380D01*
Y7516D01*
X65370D01*
Y7506D01*
X65349D01*
Y7496D01*
X65339D01*
Y7485D01*
X65318D01*
Y7475D01*
X65308D01*
Y7464D01*
X65287D01*
Y7454D01*
X65266D01*
Y7444D01*
X65256D01*
Y7433D01*
X65235D01*
Y7423D01*
X65225D01*
Y7413D01*
X65215D01*
Y7402D01*
X65194D01*
Y7392D01*
X65184D01*
Y7382D01*
X65163D01*
Y7371D01*
X65152D01*
Y7361D01*
X65132D01*
Y7350D01*
X65121D01*
Y7340D01*
X65111D01*
Y7330D01*
X65090D01*
Y7319D01*
X65080D01*
Y7309D01*
X65059D01*
Y7299D01*
X65049D01*
Y7288D01*
X65028D01*
Y7278D01*
X65018D01*
Y7267D01*
X65007D01*
Y7257D01*
X64986D01*
Y7247D01*
X64976D01*
Y7236D01*
X64955D01*
Y7226D01*
X64945D01*
Y7216D01*
X64924D01*
Y7205D01*
X64914D01*
Y7195D01*
X64893D01*
Y7185D01*
X64883D01*
Y7174D01*
X64862D01*
Y7164D01*
X64852D01*
Y7153D01*
X64831D01*
Y7143D01*
X64821D01*
Y7133D01*
X64800D01*
Y7122D01*
X64790D01*
Y7112D01*
X64769D01*
Y7102D01*
X64758D01*
Y7091D01*
X64748D01*
Y7081D01*
X64727D01*
Y7070D01*
X64717D01*
Y7060D01*
X64696D01*
Y7050D01*
X64686D01*
Y7039D01*
X64665D01*
Y7029D01*
X64655D01*
Y7019D01*
X64644D01*
Y7008D01*
X64624D01*
Y6998D01*
X64613D01*
Y6988D01*
X64593D01*
Y6977D01*
X64582D01*
Y6967D01*
X64561D01*
Y6956D01*
X64551D01*
Y6946D01*
X64530D01*
Y6936D01*
X64520D01*
Y6925D01*
X64510D01*
Y6915D01*
X64489D01*
Y6905D01*
X64468D01*
Y6894D01*
X64458D01*
Y6884D01*
X64437D01*
Y6874D01*
X64427D01*
Y6863D01*
X64416D01*
Y6853D01*
X64396D01*
Y6842D01*
X64385D01*
Y6832D01*
X64364D01*
Y6822D01*
X64354D01*
Y6811D01*
X64333D01*
Y6801D01*
X64323D01*
Y6791D01*
X64302D01*
Y6780D01*
X64292D01*
Y6770D01*
X64282D01*
Y6759D01*
X64261D01*
Y6749D01*
X64250D01*
Y6739D01*
X64230D01*
Y6728D01*
X64219D01*
Y6718D01*
X64199D01*
Y6708D01*
X64188D01*
Y6697D01*
X64178D01*
Y6687D01*
X64157D01*
Y6677D01*
X64147D01*
Y6666D01*
X64126D01*
Y6656D01*
X64116D01*
Y6645D01*
X64095D01*
Y6635D01*
X64074D01*
Y6625D01*
X64064D01*
Y6614D01*
X64054D01*
Y6604D01*
X64033D01*
Y6594D01*
X64022D01*
Y6583D01*
X64002D01*
Y6573D01*
X63991D01*
Y6563D01*
X63971D01*
Y6552D01*
X63960D01*
Y6542D01*
X63950D01*
Y6531D01*
X63929D01*
Y6521D01*
X63919D01*
Y6511D01*
X63898D01*
Y6500D01*
X63888D01*
Y6490D01*
X63867D01*
Y6480D01*
X63857D01*
Y6469D01*
X63836D01*
Y6459D01*
X63815D01*
Y6438D01*
X63722D01*
Y6459D01*
X63701D01*
Y6469D01*
X63691D01*
Y6480D01*
X63670D01*
Y6490D01*
X63660D01*
Y6511D01*
X63639D01*
Y6531D01*
X63618D01*
Y6542D01*
X63608D01*
Y6552D01*
X63597D01*
Y6563D01*
X63587D01*
Y6583D01*
X63566D01*
Y6604D01*
X63546D01*
Y6614D01*
X63535D01*
Y6635D01*
X63515D01*
Y6656D01*
X63494D01*
Y6666D01*
X63483D01*
Y6687D01*
X63463D01*
Y6708D01*
X63442D01*
Y6728D01*
X63421D01*
Y6739D01*
X63411D01*
Y6759D01*
X63390D01*
Y6780D01*
X63369D01*
Y6801D01*
X63359D01*
Y6811D01*
X63338D01*
Y6832D01*
X63318D01*
Y6853D01*
X63307D01*
Y6863D01*
X63297D01*
Y6874D01*
X63287D01*
Y6884D01*
X63266D01*
Y6905D01*
X63245D01*
Y6925D01*
X63235D01*
Y6936D01*
X63224D01*
Y6946D01*
X63214D01*
Y6956D01*
X63193D01*
Y6977D01*
X63183D01*
Y6988D01*
X63172D01*
Y6998D01*
X63162D01*
Y7008D01*
X63141D01*
Y7029D01*
X63131D01*
Y7039D01*
X63121D01*
Y7050D01*
X63110D01*
Y7060D01*
X63100D01*
Y7070D01*
X63090D01*
Y7081D01*
X63069D01*
Y7102D01*
X63058D01*
Y7112D01*
X63048D01*
Y7122D01*
X63038D01*
Y7133D01*
X63027D01*
Y7143D01*
X63017D01*
Y7153D01*
X63007D01*
Y7164D01*
X62996D01*
Y7174D01*
X62986D01*
Y7185D01*
X62976D01*
Y7195D01*
X62965D01*
Y7205D01*
X62955D01*
Y7216D01*
X62944D01*
Y7226D01*
X62934D01*
Y7236D01*
X62924D01*
Y7247D01*
X62913D01*
Y7257D01*
X62903D01*
Y7267D01*
X62893D01*
Y7278D01*
X62882D01*
Y7288D01*
X62872D01*
Y7299D01*
X62861D01*
Y7309D01*
X62851D01*
Y7319D01*
X62841D01*
Y7330D01*
X62830D01*
Y7340D01*
X62820D01*
Y7350D01*
X62810D01*
Y7361D01*
X62799D01*
Y7371D01*
X62789D01*
Y7382D01*
X62779D01*
Y7392D01*
X62768D01*
Y7402D01*
X62758D01*
Y7413D01*
X62747D01*
Y7423D01*
X62737D01*
Y7433D01*
X62727D01*
Y7444D01*
X62716D01*
Y7454D01*
X62706D01*
Y7464D01*
X62696D01*
Y7475D01*
X62685D01*
Y7485D01*
X62675D01*
Y7496D01*
X62665D01*
Y7506D01*
X62654D01*
Y7516D01*
X62644D01*
Y7527D01*
X62633D01*
Y7537D01*
X62623D01*
Y7547D01*
X62613D01*
Y7558D01*
X62602D01*
Y7568D01*
X62592D01*
Y7578D01*
X62582D01*
Y7589D01*
X62571D01*
Y7599D01*
X62561D01*
Y7609D01*
X62550D01*
Y7620D01*
X62540D01*
Y7630D01*
X62530D01*
Y7641D01*
X62519D01*
Y7651D01*
X62509D01*
Y7661D01*
X62499D01*
Y7672D01*
X62488D01*
Y7682D01*
X62478D01*
Y7693D01*
X62467D01*
Y7703D01*
X62457D01*
Y7713D01*
X62447D01*
Y7724D01*
X62436D01*
Y7734D01*
X62426D01*
Y7744D01*
X62416D01*
Y7755D01*
X62405D01*
Y7765D01*
X62395D01*
Y7775D01*
X62385D01*
Y7786D01*
X62374D01*
Y7796D01*
X62364D01*
Y7807D01*
X62353D01*
Y7817D01*
X62343D01*
Y7827D01*
X62333D01*
Y7838D01*
X62322D01*
Y7848D01*
X62312D01*
Y7858D01*
X62302D01*
Y7869D01*
X62291D01*
Y7879D01*
X62281D01*
Y7889D01*
X62271D01*
Y7900D01*
X62260D01*
Y7910D01*
X62250D01*
Y7920D01*
X62239D01*
Y7931D01*
X62229D01*
Y7941D01*
X62219D01*
Y7952D01*
X62208D01*
Y7962D01*
X62198D01*
Y7972D01*
X62188D01*
Y7983D01*
X62177D01*
Y8086D01*
X62188D01*
Y8097D01*
X62198D01*
Y8117D01*
X62208D01*
Y8138D01*
X62219D01*
Y8149D01*
X62229D01*
Y8169D01*
X62239D01*
Y8180D01*
X62250D01*
Y8200D01*
X62260D01*
Y8211D01*
X62271D01*
Y8231D01*
X62281D01*
Y8242D01*
X62291D01*
Y8252D01*
X62302D01*
Y8273D01*
X62312D01*
Y8283D01*
X62322D01*
Y8304D01*
X62333D01*
Y8314D01*
X62343D01*
Y8335D01*
X62353D01*
Y8345D01*
X62364D01*
Y8356D01*
X62374D01*
Y8377D01*
X62385D01*
Y8387D01*
X62395D01*
Y8408D01*
X62405D01*
Y8428D01*
X62416D01*
Y8439D01*
X62426D01*
Y8460D01*
X62436D01*
Y8470D01*
X62447D01*
Y8491D01*
X62457D01*
Y8501D01*
X62467D01*
Y8511D01*
X62478D01*
Y8532D01*
X62488D01*
Y8542D01*
X62499D01*
Y8563D01*
X62509D01*
Y8574D01*
X62519D01*
Y8594D01*
X62530D01*
Y8605D01*
X62540D01*
Y8615D01*
X62550D01*
Y8636D01*
X62561D01*
Y8646D01*
X62571D01*
Y8667D01*
X62582D01*
Y8677D01*
X62592D01*
Y8698D01*
X62602D01*
Y8708D01*
X62613D01*
Y8719D01*
X62623D01*
Y8739D01*
X62633D01*
Y8750D01*
X62644D01*
Y8771D01*
X62654D01*
Y8781D01*
X62665D01*
Y8802D01*
X62675D01*
Y8822D01*
X62685D01*
Y8833D01*
X62696D01*
Y8843D01*
X62706D01*
Y8864D01*
X62716D01*
Y8874D01*
X62727D01*
Y8895D01*
X62737D01*
Y8905D01*
X62747D01*
Y8926D01*
X62758D01*
Y8936D01*
X62768D01*
Y8957D01*
X62779D01*
Y8968D01*
X62789D01*
Y8978D01*
X62799D01*
Y8999D01*
X62810D01*
Y9009D01*
X62820D01*
Y9030D01*
X62830D01*
Y9040D01*
X62841D01*
Y9061D01*
X62851D01*
Y9071D01*
X62861D01*
Y9082D01*
X62872D01*
Y9102D01*
X62882D01*
Y9123D01*
X62893D01*
Y9133D01*
X62903D01*
Y9154D01*
X62913D01*
Y9165D01*
X62924D01*
Y9185D01*
X62934D01*
Y9196D01*
X62944D01*
Y9216D01*
X62955D01*
Y9227D01*
X62965D01*
Y9237D01*
X62976D01*
Y9258D01*
X62986D01*
Y9268D01*
X62996D01*
Y9289D01*
X63007D01*
Y9299D01*
X63017D01*
Y9320D01*
X63027D01*
Y9330D01*
X63038D01*
Y9341D01*
X63048D01*
Y9361D01*
X63058D01*
Y9372D01*
X63069D01*
Y9392D01*
X63079D01*
Y9403D01*
X63090D01*
Y9424D01*
X63100D01*
Y9434D01*
X63110D01*
Y9455D01*
X63121D01*
Y9465D01*
X63131D01*
Y9476D01*
X63141D01*
Y9496D01*
X63152D01*
Y9517D01*
X63162D01*
Y9527D01*
X63172D01*
Y9548D01*
X63183D01*
Y9558D01*
X63193D01*
Y9579D01*
X63204D01*
Y9589D01*
X63214D01*
Y9600D01*
X63224D01*
Y9621D01*
X63235D01*
Y9631D01*
X63245D01*
Y9652D01*
X63255D01*
Y9662D01*
X63266D01*
Y9683D01*
X63276D01*
Y9693D01*
X63287D01*
Y9703D01*
X63297D01*
Y9724D01*
X63307D01*
Y9735D01*
X63318D01*
Y9766D01*
X63328D01*
Y9787D01*
X63338D01*
Y9818D01*
X63349D01*
Y9849D01*
X63338D01*
Y9911D01*
X63328D01*
Y9932D01*
X63318D01*
Y9963D01*
X63307D01*
Y9983D01*
X63297D01*
Y10014D01*
X63287D01*
Y10035D01*
X63276D01*
Y10066D01*
X63266D01*
Y10097D01*
X63255D01*
Y10108D01*
X63245D01*
Y10149D01*
X63235D01*
Y10170D01*
X63224D01*
Y10201D01*
X63214D01*
Y10222D01*
X63204D01*
Y10243D01*
X63193D01*
Y10274D01*
X63183D01*
Y10294D01*
X63172D01*
Y10326D01*
X63162D01*
Y10346D01*
X63152D01*
Y10377D01*
X63141D01*
Y10408D01*
X63131D01*
Y10419D01*
X63121D01*
Y10460D01*
X63110D01*
Y10481D01*
X63100D01*
Y10512D01*
X63090D01*
Y10533D01*
X63079D01*
Y10554D01*
X63069D01*
Y10585D01*
X63058D01*
Y10605D01*
X63048D01*
Y10637D01*
X63038D01*
Y10657D01*
X63027D01*
Y10688D01*
X63017D01*
Y10719D01*
X63007D01*
Y10730D01*
X62996D01*
Y10771D01*
X62986D01*
Y10792D01*
X62976D01*
Y10823D01*
X62965D01*
Y10844D01*
X62955D01*
Y10864D01*
X62944D01*
Y10896D01*
X62934D01*
Y10916D01*
X62924D01*
Y10948D01*
X62913D01*
Y10968D01*
X62903D01*
Y10999D01*
X62893D01*
Y11030D01*
X62882D01*
Y11041D01*
X62872D01*
Y11082D01*
X62861D01*
Y11103D01*
X62851D01*
Y11134D01*
X62841D01*
Y11155D01*
X62830D01*
Y11175D01*
X62820D01*
Y11217D01*
X62810D01*
Y11227D01*
X62799D01*
Y11269D01*
X62789D01*
Y11279D01*
X62779D01*
Y11310D01*
X62768D01*
Y11341D01*
X62758D01*
Y11362D01*
X62747D01*
Y11393D01*
X62737D01*
Y11414D01*
X62727D01*
Y11445D01*
X62716D01*
Y11466D01*
X62706D01*
Y11476D01*
X62696D01*
Y11497D01*
X62685D01*
Y11507D01*
X62675D01*
Y11528D01*
X62665D01*
Y11538D01*
X62644D01*
Y11549D01*
X62633D01*
Y11559D01*
X62602D01*
Y11569D01*
X62582D01*
Y11580D01*
X62540D01*
Y11590D01*
X62467D01*
Y11601D01*
X62426D01*
Y11611D01*
X62353D01*
Y11621D01*
X62312D01*
Y11632D01*
X62250D01*
Y11642D01*
X62188D01*
Y11652D01*
X62146D01*
Y11663D01*
X62074D01*
Y11673D01*
X62032D01*
Y11683D01*
X61970D01*
Y11694D01*
X61918D01*
Y11704D01*
X61866D01*
Y11715D01*
X61794D01*
Y11725D01*
X61763D01*
Y11735D01*
X61680D01*
Y11746D01*
X61638D01*
Y11756D01*
X61586D01*
Y11766D01*
X61524D01*
Y11777D01*
X61483D01*
Y11787D01*
X61400D01*
Y11797D01*
X61369D01*
Y11808D01*
X61296D01*
Y11818D01*
X61244D01*
Y11829D01*
X61203D01*
Y11839D01*
X61130D01*
Y11849D01*
X61089D01*
Y11860D01*
X61016D01*
Y11870D01*
X60975D01*
Y11880D01*
X60913D01*
Y11891D01*
X60850D01*
Y11901D01*
X60809D01*
Y11912D01*
X60736D01*
Y11922D01*
X60695D01*
Y11932D01*
X60633D01*
Y11943D01*
X60591D01*
Y11953D01*
X60571D01*
Y11963D01*
X60550D01*
Y11974D01*
X60539D01*
Y11984D01*
X60529D01*
Y12005D01*
X60519D01*
Y12015D01*
X60508D01*
Y14202D01*
X60529D01*
Y14223D01*
X60539D01*
Y14234D01*
X60550D01*
Y14244D01*
X60560D01*
Y14254D01*
X60581D01*
Y14265D01*
X60602D01*
Y14275D01*
X60674D01*
Y14285D01*
X60716D01*
Y14296D01*
X60788D01*
Y14306D01*
X60830D01*
Y14317D01*
X60882D01*
Y14327D01*
X60954D01*
Y14337D01*
X60985D01*
Y14348D01*
X61068D01*
Y14358D01*
X61110D01*
Y14368D01*
X61172D01*
Y14379D01*
X61224D01*
Y14389D01*
X61265D01*
Y14399D01*
X61348D01*
Y14410D01*
X61379D01*
Y14420D01*
X61452D01*
Y14431D01*
X61503D01*
Y14441D01*
X61555D01*
Y14451D01*
X61617D01*
Y14462D01*
X61659D01*
Y14472D01*
X61731D01*
Y14482D01*
X61773D01*
Y14493D01*
X61835D01*
Y14503D01*
X61897D01*
Y14514D01*
X61939D01*
Y14524D01*
X62011D01*
Y14534D01*
X62053D01*
Y14545D01*
X62125D01*
Y14555D01*
X62167D01*
Y14565D01*
X62219D01*
Y14576D01*
X62291D01*
Y14586D01*
X62322D01*
Y14596D01*
X62405D01*
Y14607D01*
X62447D01*
Y14617D01*
X62509D01*
Y14627D01*
X62561D01*
Y14638D01*
X62602D01*
Y14648D01*
X62654D01*
Y14659D01*
X62665D01*
Y14669D01*
X62696D01*
Y14679D01*
X62706D01*
Y14690D01*
X62716D01*
Y14700D01*
X62727D01*
Y14710D01*
X62737D01*
Y14721D01*
X62747D01*
Y14741D01*
X62758D01*
Y14752D01*
X62768D01*
Y14783D01*
X62779D01*
Y14804D01*
X62789D01*
Y14825D01*
X62799D01*
Y14856D01*
X62810D01*
Y14866D01*
X62820D01*
Y14907D01*
X62830D01*
Y14918D01*
X62841D01*
Y14949D01*
X62851D01*
Y14970D01*
X62861D01*
Y14990D01*
X62872D01*
Y15021D01*
X62882D01*
Y15042D01*
X62893D01*
Y15073D01*
X62903D01*
Y15094D01*
X62913D01*
Y15115D01*
X62924D01*
Y15146D01*
X62934D01*
Y15156D01*
X62944D01*
Y15198D01*
X62955D01*
Y15208D01*
X62965D01*
Y15239D01*
X62976D01*
Y15260D01*
X62986D01*
Y15281D01*
X62996D01*
Y15312D01*
X63007D01*
Y15332D01*
X63017D01*
Y15363D01*
X63027D01*
Y15384D01*
X63038D01*
Y15405D01*
X63048D01*
Y15436D01*
X63058D01*
Y15446D01*
X63069D01*
Y15488D01*
X63079D01*
Y15498D01*
X63090D01*
Y15529D01*
X63100D01*
Y15550D01*
X63110D01*
Y15571D01*
X63121D01*
Y15602D01*
X63131D01*
Y15623D01*
X63141D01*
Y15654D01*
X63152D01*
Y15675D01*
X63162D01*
Y15695D01*
X63172D01*
Y15726D01*
X63183D01*
Y15737D01*
X63193D01*
Y15778D01*
X63204D01*
Y15789D01*
X63214D01*
Y15820D01*
X63224D01*
Y15840D01*
X63235D01*
Y15861D01*
X63245D01*
Y15892D01*
X63255D01*
Y15913D01*
X63266D01*
Y15944D01*
X63276D01*
Y15965D01*
X63287D01*
Y15985D01*
X63297D01*
Y16017D01*
X63307D01*
Y16027D01*
X63318D01*
Y16068D01*
X63328D01*
Y16079D01*
X63338D01*
Y16110D01*
X63349D01*
Y16131D01*
X63359D01*
Y16151D01*
X63369D01*
Y16183D01*
X63380D01*
Y16203D01*
X63390D01*
Y16255D01*
X63401D01*
Y16317D01*
X63390D01*
Y16359D01*
X63380D01*
Y16379D01*
X63369D01*
Y16400D01*
X63359D01*
Y16410D01*
X63349D01*
Y16431D01*
X63338D01*
Y16442D01*
X63328D01*
Y16452D01*
X63318D01*
Y16473D01*
X63307D01*
Y16483D01*
X63297D01*
Y16504D01*
X63287D01*
Y16514D01*
X63276D01*
Y16535D01*
X63266D01*
Y16556D01*
X63255D01*
Y16566D01*
X63245D01*
Y16576D01*
X63235D01*
Y16597D01*
X63224D01*
Y16608D01*
X63214D01*
Y16628D01*
X63204D01*
Y16639D01*
X63193D01*
Y16659D01*
X63183D01*
Y16670D01*
X63172D01*
Y16690D01*
X63162D01*
Y16701D01*
X63152D01*
Y16711D01*
X63141D01*
Y16732D01*
X63131D01*
Y16742D01*
X63121D01*
Y16763D01*
X63110D01*
Y16773D01*
X63100D01*
Y16794D01*
X63090D01*
Y16804D01*
X63079D01*
Y16815D01*
X63069D01*
Y16836D01*
X63058D01*
Y16846D01*
X63048D01*
Y16867D01*
X63038D01*
Y16877D01*
X63027D01*
Y16898D01*
X63017D01*
Y16908D01*
X63007D01*
Y16929D01*
X62996D01*
Y16950D01*
X62986D01*
Y16960D01*
X62976D01*
Y16970D01*
X62965D01*
Y16991D01*
X62955D01*
Y17001D01*
X62944D01*
Y17022D01*
X62934D01*
Y17032D01*
X62924D01*
Y17053D01*
X62913D01*
Y17064D01*
X62903D01*
Y17074D01*
X62893D01*
Y17095D01*
X62882D01*
Y17105D01*
X62872D01*
Y17126D01*
X62861D01*
Y17136D01*
X62851D01*
Y17157D01*
X62841D01*
Y17167D01*
X62830D01*
Y17178D01*
X62820D01*
Y17198D01*
X62810D01*
Y17209D01*
X62799D01*
Y17229D01*
X62789D01*
Y17240D01*
X62779D01*
Y17260D01*
X62768D01*
Y17281D01*
X62758D01*
Y17292D01*
X62747D01*
Y17302D01*
X62737D01*
Y17323D01*
X62727D01*
Y17333D01*
X62716D01*
Y17354D01*
X62706D01*
Y17364D01*
X62696D01*
Y17385D01*
X62685D01*
Y17395D01*
X62675D01*
Y17416D01*
X62665D01*
Y17426D01*
X62654D01*
Y17437D01*
X62644D01*
Y17458D01*
X62633D01*
Y17468D01*
X62623D01*
Y17489D01*
X62613D01*
Y17499D01*
X62602D01*
Y17520D01*
X62592D01*
Y17530D01*
X62582D01*
Y17540D01*
X62571D01*
Y17561D01*
X62561D01*
Y17571D01*
X62550D01*
Y17592D01*
X62540D01*
Y17603D01*
X62530D01*
Y17623D01*
X62519D01*
Y17634D01*
X62509D01*
Y17654D01*
X62499D01*
Y17675D01*
X62488D01*
Y17686D01*
X62478D01*
Y17696D01*
X62467D01*
Y17717D01*
X62457D01*
Y17727D01*
X62447D01*
Y17748D01*
X62436D01*
Y17758D01*
X62426D01*
Y17779D01*
X62416D01*
Y17789D01*
X62405D01*
Y17800D01*
X62395D01*
Y17820D01*
X62385D01*
Y17831D01*
X62374D01*
Y17851D01*
X62364D01*
Y17862D01*
X62353D01*
Y17883D01*
X62343D01*
Y17893D01*
X62333D01*
Y17914D01*
X62322D01*
Y17924D01*
X62312D01*
Y17934D01*
X62302D01*
Y17955D01*
X62291D01*
Y17966D01*
X62281D01*
Y17986D01*
X62271D01*
Y18007D01*
X62260D01*
Y18017D01*
X62250D01*
Y18038D01*
X62239D01*
Y18048D01*
X62229D01*
Y18059D01*
X62219D01*
Y18079D01*
X62208D01*
Y18090D01*
X62198D01*
Y18111D01*
X62188D01*
Y18121D01*
X62177D01*
Y18225D01*
X62188D01*
Y18235D01*
X62198D01*
Y18256D01*
X62208D01*
Y18266D01*
X62219D01*
Y18276D01*
X62229D01*
Y18287D01*
X62239D01*
Y18297D01*
X62250D01*
Y18307D01*
X62260D01*
Y18318D01*
X62271D01*
Y18328D01*
X62281D01*
Y18339D01*
X62291D01*
Y18349D01*
X62302D01*
Y18359D01*
X62312D01*
Y18370D01*
X62322D01*
Y18380D01*
X62333D01*
Y18391D01*
X62343D01*
Y18401D01*
X62353D01*
Y18411D01*
X62364D01*
Y18422D01*
X62374D01*
Y18432D01*
X62385D01*
Y18442D01*
X62395D01*
Y18453D01*
X62405D01*
Y18463D01*
X62416D01*
Y18473D01*
X62426D01*
Y18484D01*
X62436D01*
Y18494D01*
X62447D01*
Y18505D01*
X62457D01*
Y18515D01*
X62467D01*
Y18525D01*
X62478D01*
Y18536D01*
X62488D01*
Y18546D01*
X62499D01*
Y18556D01*
X62509D01*
Y18567D01*
X62519D01*
Y18577D01*
X62530D01*
Y18587D01*
X62540D01*
Y18598D01*
X62550D01*
Y18608D01*
X62561D01*
Y18619D01*
X62571D01*
Y18629D01*
X62582D01*
Y18639D01*
X62592D01*
Y18650D01*
X62602D01*
Y18660D01*
X62613D01*
Y18670D01*
X62623D01*
Y18681D01*
X62633D01*
Y18691D01*
X62644D01*
Y18701D01*
X62654D01*
Y18712D01*
X62665D01*
Y18722D01*
X62675D01*
Y18733D01*
X62685D01*
Y18743D01*
X62696D01*
Y18753D01*
X62706D01*
Y18764D01*
X62716D01*
Y18774D01*
X62727D01*
Y18784D01*
X62737D01*
Y18795D01*
X62747D01*
Y18805D01*
X62758D01*
Y18815D01*
X62768D01*
Y18826D01*
X62779D01*
Y18836D01*
X62789D01*
Y18847D01*
X62799D01*
Y18857D01*
X62810D01*
Y18867D01*
X62820D01*
Y18878D01*
X62830D01*
Y18888D01*
X62841D01*
Y18898D01*
X62851D01*
Y18909D01*
X62861D01*
Y18919D01*
X62872D01*
Y18929D01*
X62882D01*
Y18940D01*
X62893D01*
Y18950D01*
X62903D01*
Y18961D01*
X62913D01*
Y18971D01*
X62924D01*
Y18981D01*
X62934D01*
Y18992D01*
X62944D01*
Y19002D01*
X62955D01*
Y19012D01*
X62965D01*
Y19023D01*
X62976D01*
Y19033D01*
X62986D01*
Y19044D01*
X62996D01*
Y19054D01*
X63007D01*
Y19064D01*
X63017D01*
Y19075D01*
X63027D01*
Y19085D01*
X63038D01*
Y19095D01*
X63048D01*
Y19106D01*
X63058D01*
Y19116D01*
X63069D01*
Y19127D01*
X63079D01*
Y19137D01*
X63090D01*
Y19147D01*
X63100D01*
Y19158D01*
X63110D01*
Y19168D01*
X63121D01*
Y19178D01*
X63131D01*
Y19189D01*
X63141D01*
Y19199D01*
X63152D01*
Y19209D01*
X63162D01*
Y19220D01*
X63172D01*
Y19230D01*
X63183D01*
Y19241D01*
X63193D01*
Y19251D01*
X63204D01*
Y19261D01*
X63214D01*
Y19272D01*
X63224D01*
Y19282D01*
X63235D01*
Y19292D01*
X63245D01*
Y19303D01*
X63255D01*
Y19313D01*
X63266D01*
Y19323D01*
X63276D01*
Y19334D01*
X63287D01*
Y19344D01*
X63297D01*
Y19354D01*
X63307D01*
Y19365D01*
X63318D01*
Y19375D01*
X63328D01*
Y19386D01*
X63338D01*
Y19396D01*
X63349D01*
Y19406D01*
X63359D01*
Y19417D01*
X63369D01*
Y19427D01*
X63380D01*
Y19437D01*
X63390D01*
Y19448D01*
X63401D01*
Y19458D01*
X63411D01*
Y19469D01*
X63421D01*
Y19479D01*
X63432D01*
Y19489D01*
X63442D01*
Y19500D01*
X63452D01*
Y19510D01*
X63463D01*
Y19520D01*
X63473D01*
Y19531D01*
X63483D01*
Y19541D01*
X63494D01*
Y19552D01*
X63504D01*
Y19562D01*
X63515D01*
Y19572D01*
X63525D01*
Y19583D01*
X63535D01*
Y19593D01*
X63546D01*
Y19603D01*
X63556D01*
Y19614D01*
X63566D01*
Y19624D01*
X63577D01*
Y19634D01*
X63587D01*
Y19645D01*
X63597D01*
Y19655D01*
X63608D01*
Y19666D01*
X63618D01*
Y19676D01*
X63629D01*
Y19686D01*
X63639D01*
Y19697D01*
X63649D01*
Y19707D01*
X63660D01*
Y19717D01*
X63670D01*
Y19728D01*
X63680D01*
Y19738D01*
X63691D01*
Y19748D01*
X63712D01*
Y19759D01*
X63722D01*
Y19769D01*
X63815D01*
Y19759D01*
X63826D01*
Y19748D01*
X63846D01*
Y19738D01*
X63857D01*
Y19728D01*
X63877D01*
Y19717D01*
X63888D01*
Y19707D01*
X63908D01*
Y19697D01*
X63919D01*
Y19686D01*
X63939D01*
Y19676D01*
X63950D01*
Y19666D01*
X63971D01*
Y19655D01*
X63981D01*
Y19645D01*
X64002D01*
Y19634D01*
X64012D01*
Y19624D01*
X64033D01*
Y19614D01*
X64043D01*
Y19603D01*
X64054D01*
Y19593D01*
X64074D01*
Y19583D01*
X64085D01*
Y19572D01*
X64105D01*
Y19562D01*
X64116D01*
Y19552D01*
X64136D01*
Y19541D01*
X64147D01*
Y19531D01*
X64157D01*
Y19520D01*
X64178D01*
Y19510D01*
X64188D01*
Y19500D01*
X64209D01*
Y19489D01*
X64219D01*
Y19479D01*
X64240D01*
Y19469D01*
X64250D01*
Y19458D01*
X64271D01*
Y19448D01*
X64282D01*
Y19437D01*
X64292D01*
Y19427D01*
X64313D01*
Y19417D01*
X64333D01*
Y19406D01*
X64344D01*
Y19396D01*
X64364D01*
Y19386D01*
X64375D01*
Y19375D01*
X64396D01*
Y19365D01*
X64406D01*
Y19354D01*
X64416D01*
Y19344D01*
X64437D01*
Y19334D01*
X64447D01*
Y19323D01*
X64468D01*
Y19313D01*
X64479D01*
Y19303D01*
X64499D01*
Y19292D01*
X64510D01*
Y19282D01*
X64520D01*
Y19272D01*
X64541D01*
Y19261D01*
X64551D01*
Y19251D01*
X64572D01*
Y19241D01*
X64582D01*
Y19230D01*
X64603D01*
Y19220D01*
X64613D01*
Y19209D01*
X64624D01*
Y19199D01*
X64644D01*
Y19189D01*
X64665D01*
Y19178D01*
X64675D01*
Y19168D01*
X64686D01*
Y19158D01*
X64707D01*
Y19147D01*
X64727D01*
Y19137D01*
X64738D01*
Y19127D01*
X64748D01*
Y19116D01*
X64769D01*
Y19106D01*
X64779D01*
Y19095D01*
X64800D01*
Y19085D01*
X64810D01*
Y19075D01*
X64831D01*
Y19064D01*
X64841D01*
Y19054D01*
X64862D01*
Y19044D01*
X64872D01*
Y19033D01*
X64883D01*
Y19023D01*
X64904D01*
Y19012D01*
X64914D01*
Y19002D01*
X64935D01*
Y18992D01*
X64945D01*
Y18981D01*
X64966D01*
Y18971D01*
X64976D01*
Y18961D01*
X64986D01*
Y18950D01*
X65007D01*
Y18940D01*
X65018D01*
Y18929D01*
X65038D01*
Y18919D01*
X65059D01*
Y18909D01*
X65069D01*
Y18898D01*
X65080D01*
Y18888D01*
X65101D01*
Y18878D01*
X65111D01*
Y18867D01*
X65132D01*
Y18857D01*
X65142D01*
Y18847D01*
X65163D01*
Y18836D01*
X65173D01*
Y18826D01*
X65194D01*
Y18815D01*
X65204D01*
Y18805D01*
X65215D01*
Y18795D01*
X65235D01*
Y18784D01*
X65246D01*
Y18774D01*
X65266D01*
Y18764D01*
X65277D01*
Y18753D01*
X65298D01*
Y18743D01*
X65308D01*
Y18733D01*
X65329D01*
Y18722D01*
X65339D01*
Y18712D01*
X65349D01*
Y18701D01*
X65370D01*
Y18691D01*
X65380D01*
Y18681D01*
X65401D01*
Y18670D01*
X65412D01*
Y18660D01*
X65432D01*
Y18650D01*
X65453D01*
Y18639D01*
X65463D01*
Y18629D01*
X65474D01*
Y18619D01*
X65495D01*
Y18608D01*
X65505D01*
Y18598D01*
X65526D01*
Y18587D01*
X65536D01*
Y18577D01*
X65557D01*
Y18567D01*
X65567D01*
Y18556D01*
X65577D01*
Y18546D01*
X65598D01*
Y18536D01*
X65629D01*
Y18525D01*
X65671D01*
Y18515D01*
X65681D01*
Y18525D01*
X65754D01*
Y18536D01*
X65774D01*
Y18546D01*
X65806D01*
Y18556D01*
X65837D01*
Y18567D01*
X65847D01*
Y18577D01*
X65888D01*
Y18587D01*
X65899D01*
Y18598D01*
X65930D01*
Y18608D01*
X65961D01*
Y18619D01*
X65982D01*
Y18629D01*
X66013D01*
Y18639D01*
X66023D01*
Y18650D01*
X66065D01*
Y18660D01*
X66085D01*
Y18670D01*
X66106D01*
Y18681D01*
X66137D01*
Y18691D01*
X66158D01*
Y18701D01*
X66189D01*
Y18712D01*
X66210D01*
Y18722D01*
X66241D01*
Y18733D01*
X66262D01*
Y18743D01*
X66282D01*
Y18753D01*
X66313D01*
Y18764D01*
X66334D01*
Y18774D01*
X66365D01*
Y18784D01*
X66386D01*
Y18795D01*
X66407D01*
Y18805D01*
X66438D01*
Y18815D01*
X66458D01*
Y18826D01*
X66490D01*
Y18836D01*
X66510D01*
Y18847D01*
X66541D01*
Y18857D01*
X66562D01*
Y18867D01*
X66583D01*
Y18878D01*
X66614D01*
Y18888D01*
X66635D01*
Y18898D01*
X66666D01*
Y18909D01*
X66687D01*
Y18919D01*
X66718D01*
Y18929D01*
X66738D01*
Y18940D01*
X66759D01*
Y18950D01*
X66801D01*
Y18961D01*
X66811D01*
Y18971D01*
X66842D01*
Y18981D01*
X66863D01*
Y18992D01*
X66884D01*
Y19002D01*
X66925D01*
Y19012D01*
X66935D01*
Y19023D01*
X66977D01*
Y19033D01*
X66987D01*
Y19044D01*
X67018D01*
Y19054D01*
X67049D01*
Y19064D01*
X67060D01*
Y19075D01*
X67101D01*
Y19085D01*
X67112D01*
Y19095D01*
X67153D01*
Y19106D01*
X67163D01*
Y19116D01*
X67184D01*
Y19127D01*
X67205D01*
Y19137D01*
X67215D01*
Y19147D01*
X67226D01*
Y19158D01*
X67236D01*
Y19168D01*
X67246D01*
Y19189D01*
X67257D01*
Y19209D01*
X67267D01*
Y19230D01*
X67277D01*
Y19282D01*
X67288D01*
Y19323D01*
X67298D01*
Y19396D01*
X67309D01*
Y19437D01*
X67319D01*
Y19500D01*
X67329D01*
Y19552D01*
X67340D01*
Y19603D01*
X67350D01*
Y19676D01*
X67360D01*
Y19717D01*
X67371D01*
Y19790D01*
X67381D01*
Y19831D01*
X67392D01*
Y19883D01*
X67402D01*
Y19945D01*
X67412D01*
Y19987D01*
X67423D01*
Y20070D01*
X67433D01*
Y20101D01*
X67443D01*
Y20174D01*
X67454D01*
Y20225D01*
X67464D01*
Y20267D01*
X67474D01*
Y20339D01*
X67485D01*
Y20381D01*
X67495D01*
Y20453D01*
X67506D01*
Y20495D01*
X67516D01*
Y20557D01*
X67526D01*
Y20619D01*
X67537D01*
Y20661D01*
X67547D01*
Y20733D01*
X67557D01*
Y20775D01*
X67568D01*
Y20847D01*
X67578D01*
Y20899D01*
X67589D01*
Y20941D01*
X67599D01*
Y21013D01*
X67609D01*
Y21055D01*
X67620D01*
Y21127D01*
X67630D01*
Y21169D01*
X67640D01*
Y21220D01*
X67651D01*
Y21293D01*
X67661D01*
Y21324D01*
X67671D01*
Y21376D01*
X67682D01*
Y21386D01*
X67692D01*
Y21397D01*
X67703D01*
Y21407D01*
X67713D01*
Y21417D01*
X67734D01*
Y21438D01*
X69921D01*
Y21428D01*
D02*
G37*
G36*
X173925Y18899D02*
X173935D01*
Y17478D01*
X173925D01*
Y17468D01*
X173748D01*
Y17478D01*
X173474D01*
Y17468D01*
X173317D01*
Y17458D01*
X173161D01*
Y17449D01*
X173092D01*
Y17439D01*
X173023D01*
Y17429D01*
X172955D01*
Y17419D01*
X172915D01*
Y17409D01*
X172857D01*
Y17400D01*
X172827D01*
Y17390D01*
X172778D01*
Y17380D01*
X172749D01*
Y17370D01*
X172720D01*
Y17360D01*
X172680D01*
Y17351D01*
X172661D01*
Y17341D01*
X172631D01*
Y17331D01*
X172612D01*
Y17321D01*
X172582D01*
Y17311D01*
X172563D01*
Y17302D01*
X172543D01*
Y17292D01*
X172524D01*
Y17282D01*
X172514D01*
Y17272D01*
X172484D01*
Y17263D01*
X172475D01*
Y17253D01*
X172465D01*
Y17243D01*
X172445D01*
Y17233D01*
X172426D01*
Y17223D01*
X172416D01*
Y17213D01*
X172396D01*
Y17204D01*
X172386D01*
Y17194D01*
X172377D01*
Y17184D01*
X172367D01*
Y17174D01*
X172357D01*
Y17165D01*
X172347D01*
Y17155D01*
X172337D01*
Y17145D01*
X172328D01*
Y17135D01*
X172318D01*
Y17125D01*
X172308D01*
Y17116D01*
X172298D01*
Y17106D01*
X172288D01*
Y17096D01*
X172279D01*
Y17076D01*
X172269D01*
Y17066D01*
X172259D01*
Y17047D01*
X172249D01*
Y17027D01*
X172239D01*
Y17018D01*
X172230D01*
Y16988D01*
X172220D01*
Y16978D01*
X172210D01*
Y16949D01*
X172200D01*
Y16929D01*
X172190D01*
Y16890D01*
X172181D01*
Y16861D01*
X172171D01*
Y16831D01*
X172161D01*
Y16763D01*
X172151D01*
Y16714D01*
X172141D01*
Y16498D01*
X172151D01*
Y16449D01*
X172161D01*
Y16371D01*
X172171D01*
Y16351D01*
X172181D01*
Y16312D01*
X172190D01*
Y16283D01*
X172200D01*
Y16263D01*
X172210D01*
Y16234D01*
X172220D01*
Y16214D01*
X172230D01*
Y16194D01*
X172239D01*
Y16175D01*
X172249D01*
Y16165D01*
X172259D01*
Y16145D01*
X172269D01*
Y16136D01*
X172279D01*
Y16116D01*
X172288D01*
Y16096D01*
X172298D01*
Y16087D01*
X172308D01*
Y16077D01*
X172318D01*
Y16067D01*
X172328D01*
Y16047D01*
X172347D01*
Y16028D01*
X172367D01*
Y16018D01*
X172377D01*
Y16008D01*
X172386D01*
Y15998D01*
X172396D01*
Y15989D01*
X172406D01*
Y15979D01*
X172416D01*
Y15969D01*
X172426D01*
Y15959D01*
X172445D01*
Y15949D01*
X172465D01*
Y15940D01*
X172475D01*
Y15930D01*
X172484D01*
Y15920D01*
X172504D01*
Y15910D01*
X172524D01*
Y15900D01*
X172543D01*
Y15891D01*
X172553D01*
Y15881D01*
X172582D01*
Y15871D01*
X172602D01*
Y15861D01*
X172631D01*
Y15851D01*
X172651D01*
Y15842D01*
X172671D01*
Y15832D01*
X172710D01*
Y15822D01*
X172729D01*
Y15812D01*
X172778D01*
Y15802D01*
X172808D01*
Y15793D01*
X172847D01*
Y15783D01*
X172896D01*
Y15773D01*
X172935D01*
Y15763D01*
X173013D01*
Y15753D01*
X173063D01*
Y15744D01*
X173151D01*
Y15734D01*
X173249D01*
Y15724D01*
X173366D01*
Y15714D01*
X173925D01*
Y14362D01*
X173915D01*
Y14352D01*
X173905D01*
Y14342D01*
X173895D01*
Y14333D01*
X173886D01*
Y14323D01*
X173876D01*
Y14313D01*
X173866D01*
Y14303D01*
X173856D01*
Y14293D01*
X173846D01*
Y14274D01*
X173837D01*
Y14264D01*
X173827D01*
Y14254D01*
X173817D01*
Y14244D01*
X173807D01*
Y14235D01*
X173797D01*
Y14225D01*
X173788D01*
Y14215D01*
X173778D01*
Y14195D01*
X173758D01*
Y14176D01*
X173748D01*
Y14166D01*
X173739D01*
Y14156D01*
X173729D01*
Y14146D01*
X173719D01*
Y14137D01*
X173709D01*
Y14117D01*
X173699D01*
Y14107D01*
X173690D01*
Y14088D01*
X173680D01*
Y14078D01*
X173670D01*
Y14068D01*
X173660D01*
Y14049D01*
X173650D01*
Y14039D01*
X173641D01*
Y14019D01*
X173631D01*
Y14009D01*
X173621D01*
Y13999D01*
X173611D01*
Y13980D01*
X173601D01*
Y13970D01*
X173592D01*
Y13950D01*
X173582D01*
Y13941D01*
X173572D01*
Y13921D01*
X173562D01*
Y13902D01*
X173552D01*
Y13892D01*
X173543D01*
Y13862D01*
X173533D01*
Y13852D01*
X173523D01*
Y13833D01*
X173513D01*
Y13813D01*
X173503D01*
Y13803D01*
X173494D01*
Y13774D01*
X173484D01*
Y13764D01*
X173474D01*
Y13735D01*
X173464D01*
Y13725D01*
X173454D01*
Y13696D01*
X173445D01*
Y13676D01*
X173435D01*
Y13666D01*
X173425D01*
Y13627D01*
X173415D01*
Y13617D01*
X173406D01*
Y13578D01*
X173396D01*
Y13558D01*
X173386D01*
Y13539D01*
X173376D01*
Y13500D01*
X173366D01*
Y13480D01*
X173356D01*
Y13431D01*
X173347D01*
Y13411D01*
X173337D01*
Y13372D01*
X173327D01*
Y13333D01*
X173317D01*
Y13314D01*
X173308D01*
Y13245D01*
X173298D01*
Y13216D01*
X173288D01*
Y13137D01*
X173278D01*
Y13098D01*
X173268D01*
Y13039D01*
X173258D01*
Y12902D01*
X173249D01*
Y12824D01*
X173239D01*
Y12569D01*
X173249D01*
Y12481D01*
X173258D01*
Y12343D01*
X173268D01*
Y12295D01*
X173278D01*
Y12285D01*
X173288D01*
Y12275D01*
X173337D01*
Y12265D01*
X173925D01*
Y12255D01*
X173935D01*
Y11021D01*
X173944D01*
Y11001D01*
X173954D01*
Y10991D01*
X173964D01*
Y10982D01*
X173974D01*
Y10972D01*
X173984D01*
Y10962D01*
X173993D01*
Y10952D01*
X174003D01*
Y10942D01*
X174023D01*
Y10932D01*
X174033D01*
Y10923D01*
X174042D01*
Y10913D01*
X174052D01*
Y10903D01*
X174062D01*
Y10893D01*
X174082D01*
Y10883D01*
X174091D01*
Y10874D01*
X174101D01*
Y10864D01*
X174111D01*
Y10854D01*
X174121D01*
Y10844D01*
X174140D01*
Y10835D01*
X174150D01*
Y10825D01*
X174170D01*
Y10815D01*
X174180D01*
Y10805D01*
X174189D01*
Y10795D01*
X174209D01*
Y10785D01*
X174219D01*
Y10776D01*
X174238D01*
Y10766D01*
X174248D01*
Y10756D01*
X174258D01*
Y10746D01*
X174277D01*
Y10736D01*
X174287D01*
Y10727D01*
X174307D01*
Y10717D01*
X174317D01*
Y10707D01*
X174336D01*
Y10697D01*
X174356D01*
Y10688D01*
X174366D01*
Y10678D01*
X174395D01*
Y10668D01*
X174405D01*
Y10658D01*
X174425D01*
Y10648D01*
X174444D01*
Y10639D01*
X174454D01*
Y10629D01*
X174483D01*
Y10619D01*
X174493D01*
Y10609D01*
X174522D01*
Y10599D01*
X174542D01*
Y10589D01*
X174562D01*
Y10580D01*
X174581D01*
Y10570D01*
X174601D01*
Y10560D01*
X174640D01*
Y10550D01*
X174650D01*
Y10541D01*
X174689D01*
Y10531D01*
X174709D01*
Y10521D01*
X174738D01*
Y10511D01*
X174777D01*
Y10501D01*
X174787D01*
Y10492D01*
X174846D01*
Y10482D01*
X174865D01*
Y10472D01*
X174934D01*
Y10462D01*
X174963D01*
Y10452D01*
X175003D01*
Y10442D01*
X175110D01*
Y10433D01*
X175159D01*
Y10423D01*
X175493D01*
Y10433D01*
X175542D01*
Y10442D01*
X175649D01*
Y10452D01*
X175689D01*
Y10462D01*
X175718D01*
Y10472D01*
X175787D01*
Y10482D01*
X175806D01*
Y10492D01*
X175855D01*
Y10501D01*
X175875D01*
Y10511D01*
X175914D01*
Y10521D01*
X175943D01*
Y10531D01*
X175963D01*
Y10541D01*
X176002D01*
Y10550D01*
X176012D01*
Y10560D01*
X176041D01*
Y10570D01*
X176061D01*
Y10580D01*
X176081D01*
Y10589D01*
X176110D01*
Y10599D01*
X176129D01*
Y10609D01*
X176159D01*
Y10619D01*
X176169D01*
Y10629D01*
X176188D01*
Y10639D01*
X176208D01*
Y10648D01*
X176218D01*
Y10658D01*
X176247D01*
Y10668D01*
X176257D01*
Y10678D01*
X176277D01*
Y10688D01*
X176296D01*
Y10697D01*
X176306D01*
Y10707D01*
X176326D01*
Y10717D01*
X176335D01*
Y10727D01*
X176365D01*
Y10736D01*
X176374D01*
Y10746D01*
X176384D01*
Y10756D01*
X176404D01*
Y10766D01*
X176414D01*
Y10776D01*
X176433D01*
Y10785D01*
X176443D01*
Y10795D01*
X176463D01*
Y10805D01*
X176472D01*
Y10815D01*
X176482D01*
Y10825D01*
X176502D01*
Y10835D01*
X176512D01*
Y10844D01*
X176522D01*
Y10854D01*
X176531D01*
Y10864D01*
X176551D01*
Y10874D01*
X176561D01*
Y10883D01*
X176570D01*
Y10893D01*
X176580D01*
Y10903D01*
X176590D01*
Y10913D01*
X176610D01*
Y10923D01*
X176619D01*
Y10932D01*
X176629D01*
Y10942D01*
X176639D01*
Y10952D01*
X176649D01*
Y10962D01*
X176659D01*
Y10972D01*
X176668D01*
Y10982D01*
X176688D01*
Y10991D01*
X176698D01*
Y11001D01*
X176708D01*
Y11011D01*
X176717D01*
Y11021D01*
X176727D01*
Y11030D01*
X176737D01*
Y11040D01*
X176747D01*
Y11050D01*
X176757D01*
Y11060D01*
X176766D01*
Y11070D01*
X176776D01*
Y11079D01*
X176786D01*
Y11089D01*
X176796D01*
Y11099D01*
X176806D01*
Y11109D01*
X176815D01*
Y11119D01*
X176825D01*
Y11138D01*
X176835D01*
Y11148D01*
X176845D01*
Y11158D01*
X176855D01*
Y11168D01*
X176864D01*
Y11177D01*
X176874D01*
Y11197D01*
X176884D01*
Y11207D01*
X176894D01*
Y11217D01*
X176904D01*
Y11226D01*
X176913D01*
Y11236D01*
X176923D01*
Y11246D01*
X176933D01*
Y11256D01*
X176943D01*
Y11275D01*
X176953D01*
Y11285D01*
X176962D01*
Y11305D01*
X176972D01*
Y11315D01*
X176982D01*
Y11324D01*
X176992D01*
Y11344D01*
X177002D01*
Y11354D01*
X177011D01*
Y11373D01*
X177021D01*
Y11383D01*
X177031D01*
Y11403D01*
X177041D01*
Y11413D01*
X177051D01*
Y11422D01*
X177060D01*
Y11452D01*
X177070D01*
Y11462D01*
X177080D01*
Y11481D01*
X177090D01*
Y11491D01*
X177100D01*
Y11501D01*
X177109D01*
Y11530D01*
X177119D01*
Y11540D01*
X177129D01*
Y11569D01*
X177139D01*
Y11579D01*
X177149D01*
Y11599D01*
X177158D01*
Y11618D01*
X177168D01*
Y11628D01*
X177178D01*
Y11667D01*
X177188D01*
Y11677D01*
X177198D01*
Y11697D01*
X177207D01*
Y11716D01*
X177217D01*
Y11736D01*
X177227D01*
Y11775D01*
X177237D01*
Y11785D01*
X177247D01*
Y11824D01*
X177256D01*
Y11844D01*
X177266D01*
Y11873D01*
X177276D01*
Y11902D01*
X177286D01*
Y11922D01*
X177296D01*
Y11971D01*
X177305D01*
Y11991D01*
X177315D01*
Y12040D01*
X177325D01*
Y12069D01*
X177335D01*
Y12099D01*
X177345D01*
Y12157D01*
X177354D01*
Y12187D01*
X177364D01*
Y12275D01*
X177374D01*
Y12314D01*
X177384D01*
Y12402D01*
X177393D01*
Y12530D01*
X177403D01*
Y12843D01*
Y12853D01*
X177393D01*
Y12980D01*
X177384D01*
Y13078D01*
X177374D01*
Y13108D01*
X177364D01*
Y13206D01*
X177354D01*
Y13225D01*
X177345D01*
Y13294D01*
X177335D01*
Y13323D01*
X177325D01*
Y13353D01*
X177315D01*
Y13402D01*
X177305D01*
Y13421D01*
X177296D01*
Y13470D01*
X177286D01*
Y13490D01*
X177276D01*
Y13519D01*
X177266D01*
Y13549D01*
X177256D01*
Y13558D01*
X177247D01*
Y13608D01*
X177237D01*
Y13617D01*
X177227D01*
Y13647D01*
X177217D01*
Y13666D01*
X177207D01*
Y13686D01*
X177198D01*
Y13715D01*
X177188D01*
Y13725D01*
X177178D01*
Y13755D01*
X177168D01*
Y13764D01*
X177158D01*
Y13794D01*
X177149D01*
Y13813D01*
X177139D01*
Y13823D01*
X177129D01*
Y13852D01*
X177119D01*
Y13862D01*
X177109D01*
Y13882D01*
X177100D01*
Y13892D01*
X177090D01*
Y13911D01*
X177080D01*
Y13931D01*
X177070D01*
Y13941D01*
X177060D01*
Y13960D01*
X177051D01*
Y13970D01*
X177041D01*
Y13990D01*
X177031D01*
Y13999D01*
X177021D01*
Y14019D01*
X177011D01*
Y14039D01*
X177002D01*
Y14049D01*
X176992D01*
Y14058D01*
X176982D01*
Y14078D01*
X176972D01*
Y14088D01*
X176962D01*
Y14097D01*
X176953D01*
Y14107D01*
X176943D01*
Y14127D01*
X176933D01*
Y14137D01*
X176923D01*
Y14146D01*
X176913D01*
Y14166D01*
X176904D01*
Y14176D01*
X176894D01*
Y14186D01*
X176884D01*
Y14195D01*
X176874D01*
Y14205D01*
X176864D01*
Y14215D01*
X176855D01*
Y14225D01*
X176845D01*
Y14244D01*
X176835D01*
Y14254D01*
X176825D01*
Y14264D01*
X176815D01*
Y14274D01*
X176806D01*
Y14284D01*
X176796D01*
Y14293D01*
X176786D01*
Y14303D01*
X176776D01*
Y14313D01*
X176766D01*
Y14323D01*
X176757D01*
Y14333D01*
X176747D01*
Y14342D01*
X176737D01*
Y14352D01*
X176727D01*
Y15685D01*
X176747D01*
Y15675D01*
X176757D01*
Y15665D01*
X176776D01*
Y15655D01*
X176796D01*
Y15646D01*
X176806D01*
Y15636D01*
X176825D01*
Y15626D01*
X176845D01*
Y15616D01*
X176864D01*
Y15607D01*
X176874D01*
Y15597D01*
X176894D01*
Y15587D01*
X176913D01*
Y15577D01*
X176923D01*
Y15567D01*
X176943D01*
Y15558D01*
X176953D01*
Y15548D01*
X176972D01*
Y15538D01*
X176992D01*
Y15528D01*
X177002D01*
Y15518D01*
X177021D01*
Y15508D01*
X177031D01*
Y15499D01*
X177051D01*
Y15489D01*
X177060D01*
Y15479D01*
X177080D01*
Y15469D01*
X177090D01*
Y15460D01*
X177109D01*
Y15450D01*
X177119D01*
Y15440D01*
X177129D01*
Y15430D01*
X177149D01*
Y15420D01*
X177168D01*
Y15410D01*
X177178D01*
Y15401D01*
X177188D01*
Y15391D01*
X177198D01*
Y15381D01*
X177217D01*
Y15371D01*
X177227D01*
Y15361D01*
X177237D01*
Y15352D01*
X177256D01*
Y15342D01*
X177266D01*
Y15332D01*
X177276D01*
Y15322D01*
X177286D01*
Y15313D01*
X177305D01*
Y15303D01*
X177315D01*
Y15293D01*
X177325D01*
Y15283D01*
X177335D01*
Y15273D01*
X177345D01*
Y15263D01*
X177364D01*
Y15254D01*
X177374D01*
Y15244D01*
X177384D01*
Y15234D01*
X177393D01*
Y15224D01*
X177403D01*
Y15214D01*
X177423D01*
Y15205D01*
X177433D01*
Y15195D01*
X177443D01*
Y15185D01*
X177452D01*
Y15175D01*
X177462D01*
Y15166D01*
X177472D01*
Y15156D01*
X177482D01*
Y15146D01*
X177491D01*
Y15136D01*
X177501D01*
Y15126D01*
X177511D01*
Y15116D01*
X177521D01*
Y15107D01*
X177541D01*
Y15097D01*
X177550D01*
Y15087D01*
X177560D01*
Y15077D01*
X177570D01*
Y15058D01*
X177589D01*
Y15048D01*
X177599D01*
Y15038D01*
X177609D01*
Y15028D01*
X177619D01*
Y15019D01*
X177629D01*
Y15009D01*
X177638D01*
Y14989D01*
X177648D01*
Y14979D01*
X177658D01*
Y14970D01*
X177668D01*
Y14960D01*
X177678D01*
Y14950D01*
X177688D01*
Y14940D01*
X177697D01*
Y14930D01*
X177707D01*
Y14921D01*
X177717D01*
Y14911D01*
X177727D01*
Y14901D01*
X177736D01*
Y14891D01*
X177746D01*
Y14881D01*
X177756D01*
Y14862D01*
X177776D01*
Y14842D01*
X177786D01*
Y14832D01*
X177795D01*
Y14823D01*
X177805D01*
Y14803D01*
X177815D01*
Y14793D01*
X177825D01*
Y14783D01*
X177834D01*
Y14774D01*
X177844D01*
Y14754D01*
X177854D01*
Y14744D01*
X177864D01*
Y14734D01*
X177874D01*
Y14725D01*
X177884D01*
Y14715D01*
X177893D01*
Y14695D01*
X177903D01*
Y14685D01*
X177913D01*
Y14666D01*
X177923D01*
Y14656D01*
X177933D01*
Y14646D01*
X177942D01*
Y14627D01*
X177952D01*
Y14617D01*
X177962D01*
Y14597D01*
X177972D01*
Y14587D01*
X177981D01*
Y14578D01*
X177991D01*
Y14558D01*
X178001D01*
Y14548D01*
X178011D01*
Y14519D01*
X178021D01*
Y14509D01*
X178031D01*
Y14499D01*
X178040D01*
Y14480D01*
X178050D01*
Y14470D01*
X178060D01*
Y14450D01*
X178070D01*
Y14440D01*
X178079D01*
Y14411D01*
X178089D01*
Y14401D01*
X178099D01*
Y14382D01*
X178109D01*
Y14362D01*
X178119D01*
Y14352D01*
X178128D01*
Y14323D01*
X178138D01*
Y14313D01*
X178148D01*
Y14293D01*
X178158D01*
Y14274D01*
X178168D01*
Y14264D01*
X178177D01*
Y14235D01*
X178187D01*
Y14225D01*
X178197D01*
Y14195D01*
X178207D01*
Y14176D01*
X178217D01*
Y14156D01*
X178226D01*
Y14137D01*
X178236D01*
Y14117D01*
X178246D01*
Y14088D01*
X178256D01*
Y14078D01*
X178266D01*
Y14039D01*
X178275D01*
Y14029D01*
X178285D01*
Y14009D01*
X178295D01*
Y13970D01*
X178305D01*
Y13960D01*
X178315D01*
Y13911D01*
X178324D01*
Y13902D01*
X178334D01*
Y13872D01*
X178344D01*
Y13833D01*
X178354D01*
Y13823D01*
X178364D01*
Y13774D01*
X178373D01*
Y13755D01*
X178383D01*
Y13705D01*
X178393D01*
Y13686D01*
X178403D01*
Y13656D01*
X178413D01*
Y13608D01*
X178422D01*
Y13578D01*
X178432D01*
Y13519D01*
X178442D01*
Y13490D01*
X178452D01*
Y13441D01*
X178462D01*
Y13382D01*
X178471D01*
Y13353D01*
X178481D01*
Y13255D01*
X178491D01*
Y13216D01*
X178501D01*
Y13098D01*
X178511D01*
Y13010D01*
X178520D01*
Y12931D01*
X178530D01*
Y12461D01*
X178520D01*
Y12373D01*
X178511D01*
Y12285D01*
X178501D01*
Y12167D01*
X178491D01*
Y12128D01*
X178481D01*
Y12040D01*
X178471D01*
Y12010D01*
X178462D01*
Y11942D01*
X178452D01*
Y11902D01*
X178442D01*
Y11873D01*
X178432D01*
Y11805D01*
X178422D01*
Y11785D01*
X178413D01*
Y11726D01*
X178403D01*
Y11707D01*
X178393D01*
Y11677D01*
X178383D01*
Y11628D01*
X178373D01*
Y11618D01*
X178364D01*
Y11569D01*
X178354D01*
Y11550D01*
X178344D01*
Y11520D01*
X178334D01*
Y11491D01*
X178324D01*
Y11471D01*
X178315D01*
Y11432D01*
X178305D01*
Y11413D01*
X178295D01*
Y11383D01*
X178285D01*
Y11364D01*
X178275D01*
Y11344D01*
X178266D01*
Y11315D01*
X178256D01*
Y11305D01*
X178246D01*
Y11266D01*
X178236D01*
Y11256D01*
X178226D01*
Y11236D01*
X178217D01*
Y11207D01*
X178207D01*
Y11197D01*
X178197D01*
Y11168D01*
X178187D01*
Y11158D01*
X178177D01*
Y11128D01*
X178168D01*
Y11109D01*
X178158D01*
Y11099D01*
X178148D01*
Y11070D01*
X178138D01*
Y11060D01*
X178128D01*
Y11040D01*
X178119D01*
Y11030D01*
X178109D01*
Y11001D01*
X178099D01*
Y10991D01*
X178089D01*
Y10972D01*
X178079D01*
Y10952D01*
X178070D01*
Y10942D01*
X178060D01*
Y10923D01*
X178050D01*
Y10913D01*
X178040D01*
Y10893D01*
X178031D01*
Y10874D01*
X178021D01*
Y10864D01*
X178011D01*
Y10844D01*
X178001D01*
Y10835D01*
X177991D01*
Y10815D01*
X177981D01*
Y10805D01*
X177972D01*
Y10795D01*
X177962D01*
Y10776D01*
X177952D01*
Y10766D01*
X177942D01*
Y10746D01*
X177933D01*
Y10736D01*
X177923D01*
Y10727D01*
X177913D01*
Y10707D01*
X177903D01*
Y10697D01*
X177893D01*
Y10678D01*
X177884D01*
Y10668D01*
X177874D01*
Y10658D01*
X177864D01*
Y10648D01*
X177854D01*
Y10639D01*
X177844D01*
Y10619D01*
X177834D01*
Y10609D01*
X177825D01*
Y10599D01*
X177815D01*
Y10589D01*
X177805D01*
Y10570D01*
X177795D01*
Y10560D01*
X177786D01*
Y10550D01*
X177776D01*
Y10531D01*
X177766D01*
Y10521D01*
X177756D01*
Y10511D01*
X177746D01*
Y10501D01*
X177736D01*
Y10492D01*
X177727D01*
Y10482D01*
X177717D01*
Y10472D01*
X177707D01*
Y10462D01*
X177697D01*
Y10452D01*
X177688D01*
Y10442D01*
X177678D01*
Y10423D01*
X177658D01*
Y10403D01*
X177648D01*
Y10394D01*
X177638D01*
Y10384D01*
X177629D01*
Y10374D01*
X177619D01*
Y10364D01*
X177609D01*
Y10354D01*
X177599D01*
Y10345D01*
X177589D01*
Y10335D01*
X177580D01*
Y10325D01*
X177570D01*
Y10315D01*
X177560D01*
Y10305D01*
X177550D01*
Y10296D01*
X177541D01*
Y10286D01*
X177531D01*
Y10276D01*
X177511D01*
Y10266D01*
X177501D01*
Y10256D01*
X177491D01*
Y10247D01*
X177482D01*
Y10237D01*
X177472D01*
Y10227D01*
X177462D01*
Y10217D01*
X177452D01*
Y10207D01*
X177443D01*
Y10198D01*
X177433D01*
Y10188D01*
X177423D01*
Y10178D01*
X177403D01*
Y10168D01*
X177393D01*
Y10158D01*
X177384D01*
Y10149D01*
X177374D01*
Y10139D01*
X177364D01*
Y10129D01*
X177345D01*
Y10119D01*
X177335D01*
Y10109D01*
X177325D01*
Y10100D01*
X177315D01*
Y10090D01*
X177305D01*
Y10080D01*
X177286D01*
Y10070D01*
X177276D01*
Y10060D01*
X177266D01*
Y10051D01*
X177256D01*
Y10041D01*
X177237D01*
Y10031D01*
X177227D01*
Y10021D01*
X177217D01*
Y10011D01*
X177198D01*
Y10002D01*
X177188D01*
Y9992D01*
X177178D01*
Y9982D01*
X177158D01*
Y9972D01*
X177149D01*
Y9962D01*
X177129D01*
Y9953D01*
X177119D01*
Y9943D01*
X177109D01*
Y9933D01*
X177090D01*
Y9923D01*
X177080D01*
Y9913D01*
X177060D01*
Y9904D01*
X177051D01*
Y9894D01*
X177031D01*
Y9884D01*
X177021D01*
Y9874D01*
X177002D01*
Y9864D01*
X176992D01*
Y9855D01*
X176972D01*
Y9845D01*
X176953D01*
Y9835D01*
X176943D01*
Y9825D01*
X176923D01*
Y9815D01*
X176913D01*
Y9806D01*
X176894D01*
Y9796D01*
X176874D01*
Y9786D01*
X176864D01*
Y9776D01*
X176845D01*
Y9766D01*
X176825D01*
Y9757D01*
X176806D01*
Y9747D01*
X176796D01*
Y9737D01*
X176776D01*
Y9727D01*
X176747D01*
Y9717D01*
X176737D01*
Y9708D01*
X176708D01*
Y9698D01*
X176698D01*
Y9688D01*
X176678D01*
Y9678D01*
X176659D01*
Y9668D01*
X176639D01*
Y9659D01*
X176610D01*
Y9649D01*
X176600D01*
Y9639D01*
X176570D01*
Y9629D01*
X176551D01*
Y9619D01*
X176531D01*
Y9610D01*
X176502D01*
Y9600D01*
X176492D01*
Y9590D01*
X176453D01*
Y9580D01*
X176433D01*
Y9570D01*
X176414D01*
Y9561D01*
X176374D01*
Y9551D01*
X176365D01*
Y9541D01*
X176316D01*
Y9531D01*
X176296D01*
Y9522D01*
X176267D01*
Y9512D01*
X176237D01*
Y9502D01*
X176208D01*
Y9492D01*
X176159D01*
Y9482D01*
X176149D01*
Y9472D01*
X176081D01*
Y9463D01*
X176061D01*
Y9453D01*
X176031D01*
Y9443D01*
X175963D01*
Y9433D01*
X175943D01*
Y9424D01*
X175855D01*
Y9414D01*
X175816D01*
Y9404D01*
X175738D01*
Y9394D01*
X175659D01*
Y9384D01*
X175600D01*
Y9375D01*
X175052D01*
Y9384D01*
X174993D01*
Y9394D01*
X174915D01*
Y9404D01*
X174826D01*
Y9414D01*
X174797D01*
Y9424D01*
X174709D01*
Y9433D01*
X174679D01*
Y9443D01*
X174620D01*
Y9453D01*
X174581D01*
Y9463D01*
X174562D01*
Y9472D01*
X174503D01*
Y9482D01*
X174483D01*
Y9492D01*
X174425D01*
Y9502D01*
X174405D01*
Y9512D01*
X174375D01*
Y9522D01*
X174346D01*
Y9531D01*
X174327D01*
Y9541D01*
X174277D01*
Y9551D01*
X174268D01*
Y9561D01*
X174229D01*
Y9570D01*
X174209D01*
Y9580D01*
X174189D01*
Y9590D01*
X174160D01*
Y9600D01*
X174140D01*
Y9610D01*
X174111D01*
Y9619D01*
X174091D01*
Y9629D01*
X174072D01*
Y9639D01*
X174042D01*
Y9649D01*
X174033D01*
Y9659D01*
X174003D01*
Y9668D01*
X173993D01*
Y9678D01*
X173964D01*
Y9688D01*
X173944D01*
Y9698D01*
X173935D01*
Y9708D01*
X173905D01*
Y9717D01*
X173895D01*
Y9727D01*
X173866D01*
Y9737D01*
X173856D01*
Y9747D01*
X173837D01*
Y9757D01*
X173817D01*
Y9766D01*
X173807D01*
Y9776D01*
X173778D01*
Y9786D01*
X173768D01*
Y9796D01*
X173748D01*
Y9806D01*
X173739D01*
Y9815D01*
X173719D01*
Y9825D01*
X173699D01*
Y9835D01*
X173690D01*
Y9845D01*
X173670D01*
Y9855D01*
X173660D01*
Y9864D01*
X173641D01*
Y9874D01*
X173621D01*
Y9884D01*
X173611D01*
Y9894D01*
X173592D01*
Y9904D01*
X173582D01*
Y9913D01*
X173562D01*
Y9923D01*
X173552D01*
Y9933D01*
X173543D01*
Y9943D01*
X173523D01*
Y9953D01*
X173513D01*
Y9962D01*
X173494D01*
Y9972D01*
X173484D01*
Y9982D01*
X173474D01*
Y9992D01*
X173454D01*
Y10002D01*
X173445D01*
Y10011D01*
X173435D01*
Y10021D01*
X173425D01*
Y10031D01*
X173406D01*
Y10041D01*
X173396D01*
Y10051D01*
X173386D01*
Y10060D01*
X173366D01*
Y10070D01*
X173356D01*
Y10080D01*
X173347D01*
Y10090D01*
X173337D01*
Y10100D01*
X173327D01*
Y10109D01*
X173308D01*
Y10119D01*
X173298D01*
Y10129D01*
X173288D01*
Y10139D01*
X173278D01*
Y10149D01*
X173268D01*
Y10158D01*
X173249D01*
Y10168D01*
X173239D01*
Y10178D01*
X173229D01*
Y10188D01*
X173219D01*
Y10198D01*
X173210D01*
Y10207D01*
X173200D01*
Y10217D01*
X173190D01*
Y10227D01*
X173180D01*
Y10237D01*
X173170D01*
Y10247D01*
X173161D01*
Y10256D01*
X173151D01*
Y10266D01*
X173141D01*
Y10276D01*
X173131D01*
Y10286D01*
X173111D01*
Y10296D01*
X173102D01*
Y10305D01*
X173092D01*
Y10315D01*
X173082D01*
Y10325D01*
X173072D01*
Y10335D01*
X173063D01*
Y10345D01*
X173053D01*
Y10354D01*
X173043D01*
Y10364D01*
X173033D01*
Y10374D01*
X173023D01*
Y10384D01*
X173013D01*
Y10403D01*
X172994D01*
Y10423D01*
X172984D01*
Y10433D01*
X172974D01*
Y10442D01*
X172965D01*
Y10452D01*
X172955D01*
Y10462D01*
X172945D01*
Y10472D01*
X172935D01*
Y10482D01*
X172925D01*
Y10492D01*
X172915D01*
Y10501D01*
X172906D01*
Y10511D01*
X172896D01*
Y10531D01*
X172886D01*
Y10541D01*
X172876D01*
Y10550D01*
X172866D01*
Y10560D01*
X172857D01*
Y10570D01*
X172847D01*
Y10589D01*
X172837D01*
Y10599D01*
X172827D01*
Y10609D01*
X172818D01*
Y10619D01*
X172808D01*
Y10639D01*
X172798D01*
Y10648D01*
X172788D01*
Y10658D01*
X172778D01*
Y10668D01*
X172768D01*
Y10678D01*
X172759D01*
Y10697D01*
X172749D01*
Y10707D01*
X172739D01*
Y10727D01*
X172729D01*
Y10736D01*
X172720D01*
Y10746D01*
X172710D01*
Y10766D01*
X172700D01*
Y10776D01*
X172690D01*
Y10795D01*
X172680D01*
Y10805D01*
X172671D01*
Y10815D01*
X172661D01*
Y10835D01*
X172651D01*
Y10844D01*
X172641D01*
Y10854D01*
X172631D01*
Y10864D01*
X172592D01*
Y10874D01*
X172494D01*
Y10883D01*
X172445D01*
Y10893D01*
X172386D01*
Y10903D01*
X172328D01*
Y10913D01*
X172288D01*
Y10923D01*
X172210D01*
Y10932D01*
X172181D01*
Y10942D01*
X172122D01*
Y10952D01*
X172083D01*
Y10962D01*
X172053D01*
Y10972D01*
X171994D01*
Y10982D01*
X171975D01*
Y10991D01*
X171926D01*
Y11001D01*
X171897D01*
Y11011D01*
X171857D01*
Y11021D01*
X171818D01*
Y11030D01*
X171799D01*
Y11040D01*
X171749D01*
Y11050D01*
X171730D01*
Y11060D01*
X171691D01*
Y11070D01*
X171671D01*
Y11079D01*
X171651D01*
Y11089D01*
X171612D01*
Y11099D01*
X171593D01*
Y11109D01*
X171554D01*
Y11119D01*
X171534D01*
Y11128D01*
X171514D01*
Y11138D01*
X171485D01*
Y11148D01*
X171465D01*
Y11158D01*
X171426D01*
Y11168D01*
X171416D01*
Y11177D01*
X171387D01*
Y11187D01*
X171367D01*
Y11197D01*
X171358D01*
Y11207D01*
X171328D01*
Y11217D01*
X171309D01*
Y11226D01*
X171279D01*
Y11236D01*
X171269D01*
Y11246D01*
X171250D01*
Y11256D01*
X171230D01*
Y11266D01*
X171211D01*
Y11275D01*
X171191D01*
Y11285D01*
X171181D01*
Y11295D01*
X171152D01*
Y11305D01*
X171142D01*
Y11315D01*
X171122D01*
Y11324D01*
X171103D01*
Y11334D01*
X171093D01*
Y11344D01*
X171073D01*
Y11354D01*
X171054D01*
Y11364D01*
X171044D01*
Y11373D01*
X171024D01*
Y11383D01*
X171015D01*
Y11393D01*
X170995D01*
Y11403D01*
X170985D01*
Y11413D01*
X170966D01*
Y11422D01*
X170946D01*
Y11432D01*
X170936D01*
Y11442D01*
X170926D01*
Y11452D01*
X170917D01*
Y11462D01*
X170897D01*
Y11471D01*
X170887D01*
Y11481D01*
X170868D01*
Y11491D01*
X170858D01*
Y11501D01*
X170848D01*
Y11511D01*
X170828D01*
Y11520D01*
X170819D01*
Y11530D01*
X170809D01*
Y11540D01*
X170799D01*
Y11550D01*
X170779D01*
Y11560D01*
X170770D01*
Y11569D01*
X170760D01*
Y11579D01*
X170750D01*
Y11589D01*
X170740D01*
Y11599D01*
X170721D01*
Y11609D01*
X170711D01*
Y11618D01*
X170701D01*
Y11628D01*
X170691D01*
Y11638D01*
X170681D01*
Y11648D01*
X170672D01*
Y11658D01*
X170662D01*
Y11667D01*
X170652D01*
Y11677D01*
X170642D01*
Y11687D01*
X170632D01*
Y11697D01*
X170623D01*
Y11707D01*
X170613D01*
Y11716D01*
X170603D01*
Y11726D01*
X170593D01*
Y11736D01*
X170583D01*
Y11746D01*
X170574D01*
Y11756D01*
X170564D01*
Y11765D01*
X170554D01*
Y11775D01*
X170544D01*
Y11795D01*
X170534D01*
Y11805D01*
X170525D01*
Y11814D01*
X170515D01*
Y11824D01*
X170505D01*
Y11834D01*
X170495D01*
Y11853D01*
X170485D01*
Y11863D01*
X170476D01*
Y11873D01*
X170466D01*
Y11883D01*
X170456D01*
Y11902D01*
X170446D01*
Y11912D01*
X170436D01*
Y11932D01*
X170427D01*
Y11942D01*
X170417D01*
Y11952D01*
X170407D01*
Y11971D01*
X170397D01*
Y11981D01*
X170387D01*
Y12000D01*
X170378D01*
Y12020D01*
X170368D01*
Y12030D01*
X170358D01*
Y12049D01*
X170348D01*
Y12059D01*
X170338D01*
Y12079D01*
X170329D01*
Y12099D01*
X170319D01*
Y12108D01*
X170309D01*
Y12138D01*
X170299D01*
Y12148D01*
X170290D01*
Y12167D01*
X170280D01*
Y12187D01*
X170270D01*
Y12196D01*
X170260D01*
Y12226D01*
X170250D01*
Y12246D01*
X170240D01*
Y12275D01*
X170231D01*
Y12295D01*
X170221D01*
Y12304D01*
X170211D01*
Y12343D01*
X170201D01*
Y12353D01*
X170192D01*
Y12393D01*
X170182D01*
Y12412D01*
X170172D01*
Y12442D01*
X170162D01*
Y12471D01*
X170152D01*
Y12490D01*
X170142D01*
Y12539D01*
X170133D01*
Y12559D01*
X170123D01*
Y12608D01*
X170113D01*
Y12647D01*
X170103D01*
Y12677D01*
X170094D01*
Y12735D01*
X170084D01*
Y12775D01*
X170074D01*
Y12843D01*
X170064D01*
Y12902D01*
X170054D01*
Y12971D01*
X170045D01*
Y13108D01*
X170035D01*
Y13480D01*
X170045D01*
Y13608D01*
X170054D01*
Y13676D01*
X170064D01*
Y13725D01*
X170074D01*
Y13794D01*
X170084D01*
Y13823D01*
X170094D01*
Y13882D01*
X170103D01*
Y13911D01*
X170113D01*
Y13950D01*
X170123D01*
Y13990D01*
X170133D01*
Y14009D01*
X170142D01*
Y14049D01*
X170152D01*
Y14068D01*
X170162D01*
Y14107D01*
X170172D01*
Y14127D01*
X170182D01*
Y14156D01*
X170192D01*
Y14186D01*
X170201D01*
Y14195D01*
X170211D01*
Y14235D01*
X170221D01*
Y14244D01*
X170231D01*
Y14264D01*
X170240D01*
Y14293D01*
X170250D01*
Y14303D01*
X170260D01*
Y14333D01*
X170270D01*
Y14342D01*
X170280D01*
Y14372D01*
X170290D01*
Y14391D01*
X170299D01*
Y14401D01*
X170309D01*
Y14431D01*
X170319D01*
Y14440D01*
X170329D01*
Y14460D01*
X170338D01*
Y14470D01*
X170348D01*
Y14489D01*
X170358D01*
Y14499D01*
X170368D01*
Y14519D01*
X170378D01*
Y14529D01*
X170387D01*
Y14538D01*
X170397D01*
Y14558D01*
X170407D01*
Y14568D01*
X170417D01*
Y14578D01*
X170427D01*
Y14597D01*
X170436D01*
Y14607D01*
X170446D01*
Y14617D01*
X170456D01*
Y14627D01*
X170466D01*
Y14636D01*
X170476D01*
Y14656D01*
X170485D01*
Y14666D01*
X170495D01*
Y14676D01*
X170505D01*
Y14685D01*
X170515D01*
Y14695D01*
X170525D01*
Y14705D01*
X170534D01*
Y14715D01*
X170544D01*
Y14725D01*
X170554D01*
Y14734D01*
X170564D01*
Y14744D01*
X170574D01*
Y14754D01*
X170593D01*
Y14774D01*
X170613D01*
Y14783D01*
X170623D01*
Y14793D01*
X170632D01*
Y14803D01*
X170652D01*
Y14813D01*
X170662D01*
Y14823D01*
X170672D01*
Y14832D01*
X170681D01*
Y14842D01*
X170701D01*
Y14852D01*
X170711D01*
Y14862D01*
X170721D01*
Y14872D01*
X170740D01*
Y14881D01*
X170750D01*
Y14891D01*
X170770D01*
Y14901D01*
X170779D01*
Y14911D01*
X170789D01*
Y14921D01*
X170809D01*
Y14930D01*
X170819D01*
Y14940D01*
X170838D01*
Y14950D01*
X170858D01*
Y14960D01*
X170868D01*
Y14970D01*
X170887D01*
Y14979D01*
X170897D01*
Y14989D01*
X170926D01*
Y14999D01*
X170936D01*
Y15009D01*
X170956D01*
Y15019D01*
X170975D01*
Y15028D01*
X170985D01*
Y15038D01*
X171015D01*
Y15048D01*
X171024D01*
Y15058D01*
X171054D01*
Y15067D01*
X171073D01*
Y15077D01*
X171093D01*
Y15087D01*
X171113D01*
Y15097D01*
X171122D01*
Y15107D01*
X171162D01*
Y15116D01*
X171171D01*
Y15126D01*
X171201D01*
Y15136D01*
X171220D01*
Y15146D01*
X171240D01*
Y15156D01*
X171269D01*
Y15166D01*
X171289D01*
Y15175D01*
X171318D01*
Y15205D01*
X171299D01*
Y15214D01*
X171289D01*
Y15224D01*
X171269D01*
Y15234D01*
X171259D01*
Y15244D01*
X171240D01*
Y15254D01*
X171220D01*
Y15263D01*
X171211D01*
Y15273D01*
X171191D01*
Y15283D01*
X171181D01*
Y15293D01*
X171162D01*
Y15303D01*
X171152D01*
Y15313D01*
X171142D01*
Y15322D01*
X171122D01*
Y15332D01*
X171113D01*
Y15342D01*
X171103D01*
Y15352D01*
X171083D01*
Y15361D01*
X171073D01*
Y15371D01*
X171064D01*
Y15381D01*
X171054D01*
Y15391D01*
X171034D01*
Y15401D01*
X171024D01*
Y15410D01*
X171015D01*
Y15420D01*
X171005D01*
Y15430D01*
X170995D01*
Y15440D01*
X170985D01*
Y15450D01*
X170975D01*
Y15460D01*
X170956D01*
Y15469D01*
X170946D01*
Y15479D01*
X170936D01*
Y15489D01*
X170926D01*
Y15499D01*
X170917D01*
Y15508D01*
X170907D01*
Y15518D01*
X170897D01*
Y15528D01*
X170887D01*
Y15538D01*
X170877D01*
Y15548D01*
X170868D01*
Y15558D01*
X170858D01*
Y15567D01*
X170848D01*
Y15577D01*
X170838D01*
Y15587D01*
X170828D01*
Y15607D01*
X170819D01*
Y15616D01*
X170809D01*
Y15626D01*
X170799D01*
Y15636D01*
X170789D01*
Y15646D01*
X170779D01*
Y15665D01*
X170770D01*
Y15675D01*
X170760D01*
Y15685D01*
X170750D01*
Y15695D01*
X170740D01*
Y15704D01*
X170730D01*
Y15724D01*
X170721D01*
Y15734D01*
X170711D01*
Y15753D01*
X170701D01*
Y15763D01*
X170691D01*
Y15773D01*
X170681D01*
Y15793D01*
X170672D01*
Y15812D01*
X170662D01*
Y15822D01*
X170652D01*
Y15842D01*
X170642D01*
Y15851D01*
X170632D01*
Y15881D01*
X170623D01*
Y15891D01*
X170613D01*
Y15910D01*
X170603D01*
Y15920D01*
X170593D01*
Y15949D01*
X170583D01*
Y15969D01*
X170574D01*
Y15979D01*
X170564D01*
Y16008D01*
X170554D01*
Y16028D01*
X170544D01*
Y16057D01*
X170534D01*
Y16077D01*
X170525D01*
Y16106D01*
X170515D01*
Y16136D01*
X170505D01*
Y16155D01*
X170495D01*
Y16204D01*
X170485D01*
Y16224D01*
X170476D01*
Y16273D01*
X170466D01*
Y16312D01*
X170456D01*
Y16341D01*
X170446D01*
Y16420D01*
X170436D01*
Y16469D01*
X170427D01*
Y16939D01*
X170436D01*
Y17008D01*
X170446D01*
Y17096D01*
X170456D01*
Y17135D01*
X170466D01*
Y17184D01*
X170476D01*
Y17243D01*
X170485D01*
Y17272D01*
X170495D01*
Y17311D01*
X170505D01*
Y17341D01*
X170515D01*
Y17380D01*
X170525D01*
Y17409D01*
X170534D01*
Y17429D01*
X170544D01*
Y17458D01*
X170554D01*
Y17478D01*
X170564D01*
Y17517D01*
X170574D01*
Y17527D01*
X170583D01*
Y17556D01*
X170593D01*
Y17576D01*
X170603D01*
Y17596D01*
X170613D01*
Y17625D01*
X170623D01*
Y17635D01*
X170632D01*
Y17654D01*
X170642D01*
Y17674D01*
X170652D01*
Y17684D01*
X170662D01*
Y17703D01*
X170672D01*
Y17723D01*
X170681D01*
Y17743D01*
X170691D01*
Y17752D01*
X170701D01*
Y17772D01*
X170711D01*
Y17792D01*
X170721D01*
Y17801D01*
X170730D01*
Y17821D01*
X170740D01*
Y17831D01*
X170750D01*
Y17850D01*
X170760D01*
Y17860D01*
X170770D01*
Y17870D01*
X170779D01*
Y17890D01*
X170789D01*
Y17899D01*
X170799D01*
Y17919D01*
X170809D01*
Y17929D01*
X170819D01*
Y17939D01*
X170828D01*
Y17958D01*
X170838D01*
Y17968D01*
X170848D01*
Y17978D01*
X170858D01*
Y17988D01*
X170868D01*
Y18007D01*
X170877D01*
Y18017D01*
X170887D01*
Y18027D01*
X170897D01*
Y18036D01*
X170907D01*
Y18046D01*
X170917D01*
Y18056D01*
X170926D01*
Y18066D01*
X170936D01*
Y18076D01*
X170946D01*
Y18086D01*
X170956D01*
Y18095D01*
X170966D01*
Y18105D01*
X170975D01*
Y18115D01*
X170985D01*
Y18125D01*
X170995D01*
Y18135D01*
X171005D01*
Y18144D01*
X171015D01*
Y18154D01*
X171024D01*
Y18164D01*
X171034D01*
Y18174D01*
X171044D01*
Y18183D01*
X171054D01*
Y18193D01*
X171064D01*
Y18203D01*
X171073D01*
Y18213D01*
X171083D01*
Y18223D01*
X171103D01*
Y18233D01*
X171113D01*
Y18242D01*
X171122D01*
Y18252D01*
X171132D01*
Y18262D01*
X171152D01*
Y18272D01*
X171162D01*
Y18282D01*
X171171D01*
Y18291D01*
X171181D01*
Y18301D01*
X171201D01*
Y18311D01*
X171211D01*
Y18321D01*
X171230D01*
Y18330D01*
X171240D01*
Y18340D01*
X171250D01*
Y18350D01*
X171269D01*
Y18360D01*
X171279D01*
Y18370D01*
X171299D01*
Y18380D01*
X171318D01*
Y18389D01*
X171328D01*
Y18399D01*
X171348D01*
Y18409D01*
X171358D01*
Y18419D01*
X171387D01*
Y18428D01*
X171397D01*
Y18438D01*
X171416D01*
Y18448D01*
X171436D01*
Y18458D01*
X171446D01*
Y18468D01*
X171475D01*
Y18477D01*
X171485D01*
Y18487D01*
X171504D01*
Y18497D01*
X171524D01*
Y18507D01*
X171544D01*
Y18517D01*
X171563D01*
Y18527D01*
X171583D01*
Y18536D01*
X171612D01*
Y18546D01*
X171632D01*
Y18556D01*
X171651D01*
Y18566D01*
X171671D01*
Y18575D01*
X171691D01*
Y18585D01*
X171730D01*
Y18595D01*
X171740D01*
Y18605D01*
X171779D01*
Y18615D01*
X171799D01*
Y18624D01*
X171828D01*
Y18634D01*
X171857D01*
Y18644D01*
X171877D01*
Y18654D01*
X171916D01*
Y18664D01*
X171936D01*
Y18674D01*
X171975D01*
Y18683D01*
X172014D01*
Y18693D01*
X172034D01*
Y18703D01*
X172083D01*
Y18713D01*
X172112D01*
Y18722D01*
X172161D01*
Y18732D01*
X172190D01*
Y18742D01*
X172230D01*
Y18752D01*
X172288D01*
Y18762D01*
X172318D01*
Y18771D01*
X172396D01*
Y18781D01*
X172435D01*
Y18791D01*
X172494D01*
Y18801D01*
X172553D01*
Y18811D01*
X172592D01*
Y18820D01*
X172680D01*
Y18830D01*
X172729D01*
Y18840D01*
X172818D01*
Y18850D01*
X172886D01*
Y18860D01*
X172965D01*
Y18869D01*
X173092D01*
Y18879D01*
X173170D01*
Y18889D01*
X173366D01*
Y18899D01*
X173513D01*
Y18909D01*
X173925D01*
Y18899D01*
D02*
G37*
G36*
X180852Y20075D02*
X180892D01*
Y20065D01*
X180970D01*
Y20055D01*
X181009D01*
Y20045D01*
X181088D01*
Y20035D01*
X181137D01*
Y20026D01*
X181186D01*
Y20016D01*
X181254D01*
Y20006D01*
X181293D01*
Y19996D01*
X181382D01*
Y19986D01*
X181421D01*
Y19977D01*
X181480D01*
Y19967D01*
X181538D01*
Y19957D01*
X181587D01*
Y19947D01*
X181666D01*
Y19938D01*
X181705D01*
Y19928D01*
X181783D01*
Y19918D01*
X181832D01*
Y19908D01*
X181881D01*
Y19898D01*
X181950D01*
Y19888D01*
X181989D01*
Y19879D01*
X182077D01*
Y19869D01*
X182116D01*
Y19859D01*
X182175D01*
Y19849D01*
X182244D01*
Y19839D01*
X182283D01*
Y19830D01*
X182361D01*
Y19820D01*
X182401D01*
Y19810D01*
X182479D01*
Y19800D01*
X182528D01*
Y19791D01*
X182577D01*
Y19781D01*
X182646D01*
Y19771D01*
X182695D01*
Y19761D01*
X182773D01*
Y19751D01*
X182812D01*
Y19741D01*
X182871D01*
Y19732D01*
X182940D01*
Y19722D01*
X182979D01*
Y19712D01*
X183057D01*
Y19702D01*
X183096D01*
Y19692D01*
X183175D01*
Y19683D01*
X183224D01*
Y19673D01*
X183263D01*
Y19663D01*
X183341D01*
Y19653D01*
X183390D01*
Y19644D01*
X183469D01*
Y19634D01*
X183508D01*
Y19624D01*
X183567D01*
Y19614D01*
X183635D01*
Y19604D01*
X183675D01*
Y19595D01*
X183753D01*
Y19585D01*
X183792D01*
Y19575D01*
X183861D01*
Y19565D01*
X183920D01*
Y19555D01*
X183968D01*
Y19546D01*
X184037D01*
Y19536D01*
X184086D01*
Y19526D01*
X184165D01*
Y19516D01*
X184204D01*
Y19506D01*
X184262D01*
Y19497D01*
X184331D01*
Y19487D01*
X184370D01*
Y19477D01*
X184449D01*
Y19467D01*
X184488D01*
Y19457D01*
X184556D01*
Y19448D01*
X184615D01*
Y19438D01*
X184664D01*
Y19428D01*
X184743D01*
Y19418D01*
X184782D01*
Y19408D01*
X184860D01*
Y19399D01*
X184899D01*
Y19389D01*
X184958D01*
Y19379D01*
X185027D01*
Y19369D01*
X185066D01*
Y19359D01*
X185144D01*
Y19350D01*
X185184D01*
Y19340D01*
X185252D01*
Y19330D01*
X185311D01*
Y19320D01*
X185360D01*
Y19310D01*
X185438D01*
Y19301D01*
X185477D01*
Y19291D01*
X185546D01*
Y19281D01*
X185595D01*
Y19271D01*
X185654D01*
Y19261D01*
X185722D01*
Y19252D01*
X185762D01*
Y19242D01*
X185840D01*
Y19232D01*
X185879D01*
Y19222D01*
X185958D01*
Y19212D01*
X186007D01*
Y19203D01*
X186056D01*
Y19193D01*
X186124D01*
Y19183D01*
X186173D01*
Y19173D01*
X186242D01*
Y19163D01*
X186291D01*
Y19154D01*
X186350D01*
Y19144D01*
X186418D01*
Y19134D01*
X186457D01*
Y19124D01*
X186536D01*
Y19114D01*
X186575D01*
Y19105D01*
X186644D01*
Y19095D01*
X186702D01*
Y19085D01*
X186751D01*
Y19075D01*
X186830D01*
Y19065D01*
X186859D01*
Y19056D01*
X186937D01*
Y19046D01*
X186986D01*
Y19036D01*
X187045D01*
Y19026D01*
X187114D01*
Y19016D01*
X187153D01*
Y19007D01*
X187232D01*
Y18997D01*
X187271D01*
Y18987D01*
X187349D01*
Y17321D01*
X182920D01*
Y17292D01*
X182930D01*
Y17282D01*
X182940D01*
Y17272D01*
X182949D01*
Y17263D01*
X182959D01*
Y17253D01*
X182969D01*
Y17233D01*
X182979D01*
Y17223D01*
X182989D01*
Y17213D01*
X182998D01*
Y17194D01*
X183008D01*
Y17184D01*
X183018D01*
Y17174D01*
X183028D01*
Y17165D01*
X183038D01*
Y17145D01*
X183047D01*
Y17135D01*
X183057D01*
Y17125D01*
X183067D01*
Y17106D01*
X183077D01*
Y17096D01*
X183087D01*
Y17086D01*
X183096D01*
Y17076D01*
X183106D01*
Y17057D01*
X183116D01*
Y17047D01*
X183126D01*
Y17037D01*
X183136D01*
Y17018D01*
X183145D01*
Y17008D01*
X183155D01*
Y16998D01*
X183165D01*
Y16978D01*
X183175D01*
Y16969D01*
X183185D01*
Y16959D01*
X183194D01*
Y16949D01*
X183204D01*
Y16929D01*
X183214D01*
Y16919D01*
X183224D01*
Y16910D01*
X183234D01*
Y16890D01*
X183243D01*
Y16880D01*
X183253D01*
Y16871D01*
X183263D01*
Y16861D01*
X183273D01*
Y16841D01*
X183283D01*
Y16831D01*
X183292D01*
Y16822D01*
X183302D01*
Y16802D01*
X183312D01*
Y16792D01*
X183322D01*
Y16782D01*
X183332D01*
Y16772D01*
X183341D01*
Y16763D01*
X183351D01*
Y16743D01*
X183361D01*
Y16733D01*
X183371D01*
Y16714D01*
X183381D01*
Y16704D01*
X183390D01*
Y16694D01*
X183400D01*
Y16684D01*
X183410D01*
Y16675D01*
X183420D01*
Y16655D01*
X183430D01*
Y16645D01*
X183439D01*
Y16625D01*
X183449D01*
Y16616D01*
X183459D01*
Y16606D01*
X183469D01*
Y16596D01*
X183478D01*
Y16586D01*
X183488D01*
Y16567D01*
X183498D01*
Y16557D01*
X183508D01*
Y16547D01*
X183518D01*
Y16527D01*
X183528D01*
Y16518D01*
X183537D01*
Y16508D01*
X183547D01*
Y16498D01*
X183557D01*
Y16479D01*
X183567D01*
Y16469D01*
X183577D01*
Y16459D01*
X183586D01*
Y16439D01*
X183596D01*
Y16430D01*
X183606D01*
Y16420D01*
X183616D01*
Y16410D01*
X183625D01*
Y16390D01*
X183635D01*
Y16381D01*
X183645D01*
Y16371D01*
X183655D01*
Y16351D01*
X183665D01*
Y16341D01*
X183675D01*
Y16332D01*
X183684D01*
Y16322D01*
X183694D01*
Y16302D01*
X183704D01*
Y16292D01*
X183714D01*
Y16283D01*
X183723D01*
Y16263D01*
X183733D01*
Y16253D01*
X183743D01*
Y16243D01*
X183753D01*
Y16234D01*
X183763D01*
Y16214D01*
X183773D01*
Y16204D01*
X183782D01*
Y16194D01*
X183792D01*
Y16175D01*
X183802D01*
Y16165D01*
X183812D01*
Y16155D01*
X183821D01*
Y16136D01*
X183831D01*
Y16126D01*
X183841D01*
Y16116D01*
X183851D01*
Y16106D01*
X183861D01*
Y16087D01*
X183870D01*
Y16077D01*
X183880D01*
Y16067D01*
X183890D01*
Y16047D01*
X183900D01*
Y16038D01*
X183910D01*
Y16028D01*
X183920D01*
Y16018D01*
X183929D01*
Y15998D01*
X183939D01*
Y15989D01*
X183949D01*
Y15979D01*
X183959D01*
Y15959D01*
X183968D01*
Y15949D01*
X183978D01*
Y15940D01*
X183988D01*
Y15930D01*
X183998D01*
Y15920D01*
X184008D01*
Y15900D01*
X184018D01*
Y15891D01*
X184027D01*
Y15871D01*
X184037D01*
Y15861D01*
X184047D01*
Y15851D01*
X184057D01*
Y15832D01*
X184076D01*
Y15812D01*
X184086D01*
Y15802D01*
X184096D01*
Y15793D01*
X184106D01*
Y15773D01*
X184116D01*
Y15763D01*
X184125D01*
Y15744D01*
X184135D01*
Y15734D01*
X184145D01*
Y15724D01*
X184155D01*
Y15714D01*
X184165D01*
Y15704D01*
X184174D01*
Y15685D01*
X184184D01*
Y15675D01*
X184194D01*
Y15655D01*
X184204D01*
Y15646D01*
X184213D01*
Y15636D01*
X184223D01*
Y15626D01*
X184233D01*
Y15616D01*
X184243D01*
Y15597D01*
X184253D01*
Y15587D01*
X184262D01*
Y15577D01*
X184272D01*
Y15558D01*
X184282D01*
Y15548D01*
X184292D01*
Y15538D01*
X184302D01*
Y15528D01*
X184311D01*
Y15508D01*
X184321D01*
Y15499D01*
X184331D01*
Y15489D01*
X184341D01*
Y15479D01*
X184351D01*
Y15460D01*
X184360D01*
Y15450D01*
X184370D01*
Y15440D01*
X184380D01*
Y15420D01*
X184390D01*
Y15410D01*
X184400D01*
Y15401D01*
X184409D01*
Y15381D01*
X184419D01*
Y15371D01*
X184429D01*
Y15361D01*
X184439D01*
Y15352D01*
X184449D01*
Y15332D01*
X184458D01*
Y15322D01*
X184468D01*
Y15313D01*
X184478D01*
Y15293D01*
X184488D01*
Y15283D01*
X184498D01*
Y15273D01*
X184507D01*
Y15263D01*
X184517D01*
Y15244D01*
X184527D01*
Y15234D01*
X184537D01*
Y15224D01*
X184547D01*
Y15205D01*
X184556D01*
Y15195D01*
X184566D01*
Y15185D01*
X184576D01*
Y15175D01*
X184586D01*
Y15156D01*
X184596D01*
Y15146D01*
X184605D01*
Y15136D01*
X184615D01*
Y15116D01*
X184625D01*
Y15107D01*
X184635D01*
Y15097D01*
X184645D01*
Y15077D01*
X184664D01*
Y15058D01*
X184674D01*
Y15048D01*
X184684D01*
Y15028D01*
X184694D01*
Y15019D01*
X184703D01*
Y15009D01*
X184713D01*
Y14989D01*
X184723D01*
Y14979D01*
X184733D01*
Y14970D01*
X184743D01*
Y14960D01*
X184752D01*
Y14950D01*
X184762D01*
Y14930D01*
X184772D01*
Y14921D01*
X184782D01*
Y14901D01*
X184792D01*
Y14891D01*
X184801D01*
Y14881D01*
X184811D01*
Y14872D01*
X184821D01*
Y14862D01*
X184831D01*
Y14842D01*
X184841D01*
Y14832D01*
X184850D01*
Y14813D01*
X184860D01*
Y14803D01*
X184870D01*
Y14793D01*
X184880D01*
Y14783D01*
X184890D01*
Y14774D01*
X184899D01*
Y14754D01*
X184909D01*
Y14744D01*
X184919D01*
Y14734D01*
X184929D01*
Y14715D01*
X184939D01*
Y14705D01*
X184948D01*
Y14695D01*
X184958D01*
Y14685D01*
X184968D01*
Y14666D01*
X184978D01*
Y14656D01*
X184988D01*
Y14646D01*
X184997D01*
Y14627D01*
X185007D01*
Y14617D01*
X185017D01*
Y14607D01*
X185027D01*
Y14597D01*
X185037D01*
Y14578D01*
X185046D01*
Y14568D01*
X185056D01*
Y14558D01*
X185066D01*
Y14538D01*
X185076D01*
Y14529D01*
X185085D01*
Y14519D01*
X185095D01*
Y14509D01*
X185105D01*
Y14489D01*
X185115D01*
Y14480D01*
X185125D01*
Y14470D01*
X185134D01*
Y14450D01*
X185144D01*
Y14440D01*
X185154D01*
Y14431D01*
X185164D01*
Y14421D01*
X185174D01*
Y14401D01*
X185184D01*
Y14391D01*
X185193D01*
Y14382D01*
X185203D01*
Y14362D01*
X185213D01*
Y14352D01*
X185223D01*
Y14342D01*
X185232D01*
Y14323D01*
X185242D01*
Y14313D01*
X185252D01*
Y14303D01*
X185262D01*
Y14293D01*
X185272D01*
Y14274D01*
X185282D01*
Y14264D01*
X185291D01*
Y14254D01*
X185301D01*
Y14235D01*
X185311D01*
Y14225D01*
X185321D01*
Y14215D01*
X185330D01*
Y14205D01*
X185340D01*
Y14186D01*
X185350D01*
Y14176D01*
X185360D01*
Y14166D01*
X185370D01*
Y14146D01*
X185380D01*
Y14137D01*
X185389D01*
Y14127D01*
X185399D01*
Y14117D01*
X185409D01*
Y14107D01*
X185419D01*
Y14088D01*
X185429D01*
Y14078D01*
X185438D01*
Y14058D01*
X185448D01*
Y14049D01*
X185458D01*
Y14039D01*
X185468D01*
Y14029D01*
X185477D01*
Y14019D01*
X185487D01*
Y13999D01*
X185497D01*
Y13990D01*
X185507D01*
Y13970D01*
X185517D01*
Y13960D01*
X185527D01*
Y13950D01*
X185536D01*
Y13931D01*
X185556D01*
Y13911D01*
X185566D01*
Y13902D01*
X185575D01*
Y13892D01*
X185585D01*
Y13872D01*
X185595D01*
Y13862D01*
X185605D01*
Y13843D01*
X185625D01*
Y13823D01*
X185634D01*
Y13813D01*
X185644D01*
Y13803D01*
X185654D01*
Y13784D01*
X185664D01*
Y13774D01*
X185673D01*
Y13764D01*
X185683D01*
Y13745D01*
X185693D01*
Y13735D01*
X185703D01*
Y13725D01*
X185713D01*
Y13715D01*
X185722D01*
Y13696D01*
X185732D01*
Y13686D01*
X185742D01*
Y13676D01*
X185752D01*
Y13656D01*
X185762D01*
Y13647D01*
X185772D01*
Y13637D01*
X185781D01*
Y13627D01*
X185791D01*
Y13608D01*
X185801D01*
Y13598D01*
X185811D01*
Y13588D01*
X185820D01*
Y13568D01*
X185830D01*
Y13558D01*
X185840D01*
Y13549D01*
X185850D01*
Y13539D01*
X185860D01*
Y13519D01*
X185869D01*
Y13510D01*
X185879D01*
Y13500D01*
X185889D01*
Y13480D01*
X185899D01*
Y13470D01*
X185909D01*
Y13461D01*
X185918D01*
Y13451D01*
X185928D01*
Y13431D01*
X185938D01*
Y13421D01*
X185948D01*
Y13411D01*
X185958D01*
Y13392D01*
X185967D01*
Y13382D01*
X185977D01*
Y13372D01*
X185987D01*
Y13363D01*
X185997D01*
Y13343D01*
X186007D01*
Y13333D01*
X186016D01*
Y13323D01*
X186026D01*
Y13304D01*
X186046D01*
Y13274D01*
X186026D01*
Y13245D01*
X186007D01*
Y13216D01*
X185997D01*
Y13206D01*
X185987D01*
Y13196D01*
X185977D01*
Y13176D01*
X185967D01*
Y13167D01*
X185958D01*
Y13137D01*
X185938D01*
Y13118D01*
X185928D01*
Y13098D01*
X185918D01*
Y13088D01*
X185909D01*
Y13069D01*
X185899D01*
Y13059D01*
X185889D01*
Y13039D01*
X185879D01*
Y13020D01*
X185869D01*
Y13010D01*
X185860D01*
Y12990D01*
X185840D01*
Y12961D01*
X185830D01*
Y12951D01*
X185820D01*
Y12931D01*
X185811D01*
Y12922D01*
X185801D01*
Y12912D01*
X185791D01*
Y12882D01*
X185781D01*
Y12873D01*
X185772D01*
Y12853D01*
X185762D01*
Y12843D01*
X185752D01*
Y12833D01*
X185742D01*
Y12814D01*
X185732D01*
Y12804D01*
X185722D01*
Y12784D01*
X185713D01*
Y12775D01*
X185703D01*
Y12755D01*
X185693D01*
Y12735D01*
X185683D01*
Y12726D01*
X185673D01*
Y12706D01*
X185664D01*
Y12696D01*
X185654D01*
Y12677D01*
X185644D01*
Y12667D01*
X185634D01*
Y12657D01*
X185625D01*
Y12628D01*
X185615D01*
Y12618D01*
X185605D01*
Y12598D01*
X185595D01*
Y12588D01*
X185585D01*
Y12579D01*
X185575D01*
Y12559D01*
X185566D01*
Y12549D01*
X185556D01*
Y12530D01*
X185546D01*
Y12520D01*
X185536D01*
Y12490D01*
X185527D01*
Y12481D01*
X185517D01*
Y12471D01*
X185507D01*
Y12451D01*
X185497D01*
Y12442D01*
X185487D01*
Y12412D01*
X185468D01*
Y12393D01*
X185458D01*
Y12383D01*
X185448D01*
Y12373D01*
X185438D01*
Y12343D01*
X185429D01*
Y12334D01*
X185419D01*
Y12314D01*
X185409D01*
Y12304D01*
X185399D01*
Y12295D01*
X185389D01*
Y12265D01*
X185370D01*
Y12236D01*
X185350D01*
Y12206D01*
X185340D01*
Y12196D01*
X185330D01*
Y12187D01*
X185321D01*
Y12167D01*
X185311D01*
Y12157D01*
X185301D01*
Y12128D01*
X185291D01*
Y12118D01*
X185272D01*
Y12089D01*
X185262D01*
Y12079D01*
X185252D01*
Y12059D01*
X185242D01*
Y12049D01*
X185232D01*
Y12040D01*
X185223D01*
Y12010D01*
X185213D01*
Y12000D01*
X185203D01*
Y11981D01*
X185184D01*
Y11952D01*
X185174D01*
Y11942D01*
X185164D01*
Y11922D01*
X185154D01*
Y11912D01*
X185144D01*
Y11902D01*
X185134D01*
Y11873D01*
X185125D01*
Y11863D01*
X185115D01*
Y11853D01*
X185105D01*
Y11834D01*
X185095D01*
Y11824D01*
X185085D01*
Y11805D01*
X185076D01*
Y11795D01*
X185066D01*
Y11775D01*
X185056D01*
Y11765D01*
X185046D01*
Y11746D01*
X185037D01*
Y11726D01*
X185027D01*
Y11716D01*
X185017D01*
Y11697D01*
X185007D01*
Y11687D01*
X184997D01*
Y11667D01*
X184988D01*
Y11658D01*
X184978D01*
Y11648D01*
X184968D01*
Y11618D01*
X184958D01*
Y11609D01*
X184948D01*
Y11589D01*
X184939D01*
Y11579D01*
X184929D01*
Y11569D01*
X184919D01*
Y11550D01*
X184909D01*
Y11540D01*
X184899D01*
Y11520D01*
X184890D01*
Y11511D01*
X184880D01*
Y11491D01*
X184870D01*
Y11471D01*
X184860D01*
Y11462D01*
X184850D01*
Y11442D01*
X184841D01*
Y11432D01*
X184831D01*
Y11403D01*
X184821D01*
Y11393D01*
X184811D01*
Y11383D01*
X184801D01*
Y11364D01*
X184782D01*
Y11334D01*
X184772D01*
Y11324D01*
X184762D01*
Y11305D01*
X184752D01*
Y11295D01*
X184743D01*
Y11285D01*
X184733D01*
Y11256D01*
X184713D01*
Y11236D01*
X184703D01*
Y11217D01*
X184694D01*
Y11207D01*
X184684D01*
Y11187D01*
X184674D01*
Y11177D01*
X184664D01*
Y11158D01*
X184654D01*
Y11148D01*
X184645D01*
Y11128D01*
X184635D01*
Y11109D01*
X184615D01*
Y11079D01*
X184605D01*
Y11070D01*
X184596D01*
Y11050D01*
X184586D01*
Y11040D01*
X184576D01*
Y11030D01*
X184566D01*
Y11001D01*
X184556D01*
Y10991D01*
X184547D01*
Y10972D01*
X184537D01*
Y10962D01*
X184527D01*
Y10942D01*
X184517D01*
Y10932D01*
X184507D01*
Y10923D01*
X184498D01*
Y10903D01*
X184488D01*
Y10893D01*
X184478D01*
Y10864D01*
X184468D01*
Y10854D01*
X184458D01*
Y10844D01*
X184449D01*
Y10835D01*
X184429D01*
Y10844D01*
X184409D01*
Y10854D01*
X184351D01*
Y10864D01*
X184321D01*
Y10874D01*
X184272D01*
Y10883D01*
X184243D01*
Y10893D01*
X184204D01*
Y10903D01*
X184155D01*
Y10913D01*
X184135D01*
Y10923D01*
X184076D01*
Y10932D01*
X184047D01*
Y10942D01*
X183998D01*
Y10952D01*
X183968D01*
Y10962D01*
X183939D01*
Y10972D01*
X183880D01*
Y10982D01*
X183851D01*
Y10991D01*
X183782D01*
Y10972D01*
X183792D01*
Y10962D01*
X183802D01*
Y10952D01*
X183812D01*
Y10932D01*
X183821D01*
Y10923D01*
X183831D01*
Y10913D01*
X183841D01*
Y10893D01*
X183851D01*
Y10883D01*
X183861D01*
Y10874D01*
X183870D01*
Y10864D01*
X183880D01*
Y10844D01*
X183890D01*
Y10835D01*
X183900D01*
Y10825D01*
X183910D01*
Y10805D01*
X183920D01*
Y10795D01*
X183929D01*
Y10785D01*
X183939D01*
Y10776D01*
X183949D01*
Y10766D01*
X183959D01*
Y10746D01*
X183968D01*
Y10736D01*
X183978D01*
Y10717D01*
X183988D01*
Y10707D01*
X183998D01*
Y10697D01*
X184008D01*
Y10688D01*
X184018D01*
Y10678D01*
X184027D01*
Y10658D01*
X184037D01*
Y10648D01*
X184047D01*
Y10629D01*
X184057D01*
Y10619D01*
X184066D01*
Y10609D01*
X184076D01*
Y10589D01*
X184096D01*
Y10570D01*
X184106D01*
Y10560D01*
X184116D01*
Y10550D01*
X184125D01*
Y10531D01*
X184135D01*
Y10521D01*
X184145D01*
Y10501D01*
X184155D01*
Y10492D01*
X184165D01*
Y10482D01*
X184174D01*
Y10472D01*
X184184D01*
Y10462D01*
X184194D01*
Y10442D01*
X184204D01*
Y10433D01*
X184213D01*
Y10413D01*
X184223D01*
Y10403D01*
X184233D01*
Y10394D01*
X184243D01*
Y10384D01*
X184253D01*
Y10374D01*
X184262D01*
Y10354D01*
X184272D01*
Y10345D01*
X184282D01*
Y10335D01*
X184292D01*
Y10315D01*
X184302D01*
Y10305D01*
X184311D01*
Y10296D01*
X184321D01*
Y10286D01*
X184331D01*
Y10266D01*
X184341D01*
Y10256D01*
X184351D01*
Y10247D01*
X184360D01*
Y10227D01*
X184370D01*
Y10217D01*
X184380D01*
Y10207D01*
X184390D01*
Y10198D01*
X184400D01*
Y10178D01*
X184409D01*
Y10168D01*
X184419D01*
Y10158D01*
X184429D01*
Y10139D01*
X184439D01*
Y10129D01*
X184449D01*
Y10119D01*
X184458D01*
Y10100D01*
X184468D01*
Y10090D01*
X184478D01*
Y10080D01*
X184488D01*
Y10070D01*
X184498D01*
Y10051D01*
X184507D01*
Y10041D01*
X184517D01*
Y10031D01*
X184527D01*
Y10011D01*
X184537D01*
Y10002D01*
X184547D01*
Y9992D01*
X184556D01*
Y9982D01*
X184566D01*
Y9962D01*
X184576D01*
Y9953D01*
X184586D01*
Y9943D01*
X184596D01*
Y9923D01*
X184605D01*
Y9913D01*
X184615D01*
Y9904D01*
X184625D01*
Y9894D01*
X184635D01*
Y9874D01*
X184645D01*
Y9864D01*
X184654D01*
Y9855D01*
X184664D01*
Y9835D01*
X184674D01*
Y9825D01*
X184684D01*
Y9815D01*
X184694D01*
Y9806D01*
X184703D01*
Y9786D01*
X184713D01*
Y9776D01*
X184723D01*
Y9766D01*
X184733D01*
Y9747D01*
X184743D01*
Y9737D01*
X184752D01*
Y9727D01*
X184762D01*
Y9717D01*
X184772D01*
Y9708D01*
X184782D01*
Y9688D01*
X184792D01*
Y9678D01*
X184801D01*
Y9659D01*
X184811D01*
Y9649D01*
X184821D01*
Y9639D01*
X184831D01*
Y9629D01*
X184841D01*
Y9619D01*
X184850D01*
Y9600D01*
X184860D01*
Y9590D01*
X184870D01*
Y9570D01*
X184880D01*
Y9561D01*
X184890D01*
Y9551D01*
X184899D01*
Y9531D01*
X184919D01*
Y9512D01*
X184929D01*
Y9502D01*
X184939D01*
Y9492D01*
X184948D01*
Y9472D01*
X184958D01*
Y9463D01*
X184968D01*
Y9443D01*
X184978D01*
Y9433D01*
X184988D01*
Y9424D01*
X184997D01*
Y9414D01*
X185007D01*
Y9404D01*
X185017D01*
Y9384D01*
X185027D01*
Y9375D01*
X185037D01*
Y9365D01*
X185046D01*
Y9345D01*
X185056D01*
Y9335D01*
X185066D01*
Y9325D01*
X185076D01*
Y9316D01*
X185085D01*
Y9296D01*
X185095D01*
Y9286D01*
X185105D01*
Y9277D01*
X185115D01*
Y9257D01*
X185125D01*
Y9247D01*
X185134D01*
Y9237D01*
X185144D01*
Y9228D01*
X185154D01*
Y9208D01*
X185164D01*
Y9198D01*
X185174D01*
Y9188D01*
X185184D01*
Y9169D01*
X185193D01*
Y9159D01*
X185203D01*
Y9149D01*
X185213D01*
Y9139D01*
X185223D01*
Y9120D01*
X185232D01*
Y9110D01*
X185242D01*
Y9100D01*
X185252D01*
Y9081D01*
X185262D01*
Y9071D01*
X185272D01*
Y9061D01*
X185282D01*
Y9051D01*
X185291D01*
Y9031D01*
X185301D01*
Y9022D01*
X185311D01*
Y9012D01*
X185321D01*
Y8992D01*
X185330D01*
Y8982D01*
X185340D01*
Y8973D01*
X185350D01*
Y8963D01*
X185360D01*
Y8953D01*
X185370D01*
Y8934D01*
X185380D01*
Y8924D01*
X185389D01*
Y8904D01*
X185399D01*
Y8894D01*
X185409D01*
Y8884D01*
X185419D01*
Y8875D01*
X185429D01*
Y8865D01*
X185438D01*
Y8845D01*
X185448D01*
Y8835D01*
X185458D01*
Y8816D01*
X185468D01*
Y8806D01*
X185477D01*
Y8796D01*
X185487D01*
Y8777D01*
X185507D01*
Y8757D01*
X185517D01*
Y8747D01*
X185527D01*
Y8738D01*
X185536D01*
Y8718D01*
X185546D01*
Y8708D01*
X185556D01*
Y8689D01*
X185566D01*
Y8679D01*
X185575D01*
Y8669D01*
X185585D01*
Y8659D01*
X185595D01*
Y8649D01*
X185605D01*
Y8630D01*
X185615D01*
Y8620D01*
X185625D01*
Y8600D01*
X185634D01*
Y8591D01*
X185644D01*
Y8581D01*
X185654D01*
Y8571D01*
X185664D01*
Y8561D01*
X185673D01*
Y8542D01*
X185683D01*
Y8532D01*
X185693D01*
Y8522D01*
X185703D01*
Y8502D01*
X185713D01*
Y8493D01*
X185722D01*
Y8483D01*
X185732D01*
Y8473D01*
X185742D01*
Y8453D01*
X185752D01*
Y8444D01*
X185762D01*
Y8434D01*
X185772D01*
Y8414D01*
X185781D01*
Y8404D01*
X185791D01*
Y8395D01*
X185801D01*
Y8385D01*
X185811D01*
Y8365D01*
X185820D01*
Y8355D01*
X185830D01*
Y8346D01*
X185840D01*
Y8326D01*
X185850D01*
Y8316D01*
X185860D01*
Y8306D01*
X185869D01*
Y8287D01*
X185879D01*
Y8277D01*
X185889D01*
Y8267D01*
X185899D01*
Y8257D01*
X185909D01*
Y8238D01*
X185918D01*
Y8228D01*
X185928D01*
Y8218D01*
X185938D01*
Y8199D01*
X185948D01*
Y8189D01*
X185958D01*
Y8179D01*
X185967D01*
Y8169D01*
X185977D01*
Y8150D01*
X185987D01*
Y8140D01*
X185997D01*
Y8130D01*
X186007D01*
Y8110D01*
X186016D01*
Y8101D01*
X186026D01*
Y8081D01*
X186036D01*
Y8061D01*
X186026D01*
Y8022D01*
X186016D01*
Y8012D01*
X186007D01*
Y7983D01*
X185997D01*
Y7973D01*
X185987D01*
Y7964D01*
X185977D01*
Y7924D01*
X185967D01*
Y7914D01*
X185958D01*
Y7885D01*
X185948D01*
Y7875D01*
X185938D01*
Y7856D01*
X185928D01*
Y7826D01*
X185918D01*
Y7817D01*
X185909D01*
Y7787D01*
X185899D01*
Y7777D01*
X185889D01*
Y7748D01*
X185879D01*
Y7728D01*
X185869D01*
Y7718D01*
X185860D01*
Y7689D01*
X185850D01*
Y7679D01*
X185840D01*
Y7640D01*
X185830D01*
Y7630D01*
X185820D01*
Y7621D01*
X185811D01*
Y7591D01*
X185801D01*
Y7581D01*
X185791D01*
Y7542D01*
X185781D01*
Y7532D01*
X185772D01*
Y7503D01*
X185762D01*
Y7493D01*
X185752D01*
Y7483D01*
X185742D01*
Y7444D01*
X185722D01*
Y7405D01*
X185713D01*
Y7395D01*
X185703D01*
Y7376D01*
X185693D01*
Y7346D01*
X185673D01*
Y7307D01*
X185664D01*
Y7297D01*
X185654D01*
Y7268D01*
X185644D01*
Y7248D01*
X185634D01*
Y7238D01*
X185625D01*
Y7209D01*
X185615D01*
Y7199D01*
X185605D01*
Y7160D01*
X185595D01*
Y7150D01*
X185585D01*
Y7131D01*
X185575D01*
Y7111D01*
X185566D01*
Y7101D01*
X185556D01*
Y7062D01*
X185546D01*
Y7052D01*
X185536D01*
Y7023D01*
X185527D01*
Y7013D01*
X185517D01*
Y6993D01*
X185507D01*
Y6964D01*
X185497D01*
Y6954D01*
X185487D01*
Y6925D01*
X185477D01*
Y6915D01*
X185468D01*
Y6895D01*
X185458D01*
Y6866D01*
X185448D01*
Y6856D01*
X185438D01*
Y6817D01*
X185419D01*
Y6778D01*
X185409D01*
Y6768D01*
X185399D01*
Y6758D01*
X185389D01*
Y6719D01*
X185370D01*
Y6680D01*
X185360D01*
Y6670D01*
X185350D01*
Y6660D01*
X185340D01*
Y6631D01*
X185330D01*
Y6621D01*
X185321D01*
Y6582D01*
X185311D01*
Y6572D01*
X185301D01*
Y6543D01*
X185291D01*
Y6533D01*
X185282D01*
Y6523D01*
X185272D01*
Y6484D01*
X185262D01*
Y6474D01*
X185252D01*
Y6445D01*
X185242D01*
Y6435D01*
X185232D01*
Y6406D01*
X185223D01*
Y6386D01*
X185213D01*
Y6376D01*
X185203D01*
Y6347D01*
X185193D01*
Y6337D01*
X185184D01*
Y6298D01*
X185174D01*
Y6288D01*
X185164D01*
Y6278D01*
X185154D01*
Y6249D01*
X185144D01*
Y6239D01*
X185134D01*
Y6200D01*
X185125D01*
Y6190D01*
X185115D01*
Y6170D01*
X185105D01*
Y6141D01*
X185085D01*
Y6102D01*
X185076D01*
Y6092D01*
X185066D01*
Y6063D01*
X185056D01*
Y6043D01*
X185046D01*
Y6033D01*
X185037D01*
Y6004D01*
X185027D01*
Y5994D01*
X185017D01*
Y5955D01*
X185007D01*
Y5945D01*
X184997D01*
Y5925D01*
X184988D01*
Y5906D01*
X184978D01*
Y5896D01*
X184968D01*
Y5857D01*
X184958D01*
Y5847D01*
X184948D01*
Y5818D01*
X184939D01*
Y5808D01*
X184929D01*
Y5798D01*
X184919D01*
Y5759D01*
X184899D01*
Y5720D01*
X184890D01*
Y5710D01*
X184880D01*
Y5690D01*
X184870D01*
Y5661D01*
X184850D01*
Y5622D01*
X184841D01*
Y5612D01*
X184831D01*
Y5582D01*
X184821D01*
Y5563D01*
X184811D01*
Y5553D01*
X184801D01*
Y5524D01*
X184792D01*
Y5514D01*
X184782D01*
Y5475D01*
X184762D01*
Y5445D01*
X184752D01*
Y5426D01*
X184743D01*
Y5416D01*
X184733D01*
Y5377D01*
X184713D01*
Y5337D01*
X184703D01*
Y5328D01*
X184694D01*
Y5308D01*
X184645D01*
Y5318D01*
X184547D01*
Y5328D01*
X184360D01*
Y5337D01*
X184272D01*
Y5347D01*
X184106D01*
Y5357D01*
X183998D01*
Y5367D01*
X183900D01*
Y5377D01*
X183733D01*
Y5386D01*
X183635D01*
Y5396D01*
X183469D01*
Y5406D01*
X183371D01*
Y5416D01*
X183243D01*
Y5426D01*
X183096D01*
Y5435D01*
X182998D01*
Y5445D01*
X182822D01*
Y5455D01*
X182734D01*
Y5465D01*
X182577D01*
Y5475D01*
X182469D01*
Y5484D01*
X182361D01*
Y5494D01*
X182195D01*
Y5504D01*
X182107D01*
Y5514D01*
X181930D01*
Y5524D01*
X181842D01*
Y5533D01*
X181705D01*
Y5543D01*
X181568D01*
Y5553D01*
X181460D01*
Y5563D01*
X181284D01*
Y5573D01*
X181205D01*
Y5582D01*
X181049D01*
Y5592D01*
X180931D01*
Y5602D01*
X180813D01*
Y5612D01*
X180647D01*
Y5622D01*
X180578D01*
Y5631D01*
X180402D01*
Y5641D01*
X180304D01*
Y5651D01*
X180167D01*
Y5661D01*
X180020D01*
Y5671D01*
X179931D01*
Y5680D01*
X179755D01*
Y5690D01*
X179667D01*
Y5700D01*
X179510D01*
Y5710D01*
X179383D01*
Y5720D01*
X179285D01*
Y5729D01*
X179118D01*
Y5739D01*
X179040D01*
Y5749D01*
X178873D01*
Y5759D01*
X178756D01*
Y5768D01*
X178638D01*
Y5778D01*
X178491D01*
Y5788D01*
X178403D01*
Y5798D01*
X178226D01*
Y5808D01*
X178128D01*
Y5818D01*
X177962D01*
Y5827D01*
X177854D01*
Y5837D01*
X177766D01*
Y5847D01*
X177589D01*
Y5857D01*
X177491D01*
Y5866D01*
X177315D01*
Y5876D01*
X177227D01*
Y5886D01*
X177109D01*
Y5896D01*
X176962D01*
Y5906D01*
X176855D01*
Y5915D01*
X176688D01*
Y5925D01*
X176600D01*
Y5935D01*
X176443D01*
Y5945D01*
X176326D01*
Y5955D01*
X176208D01*
Y5965D01*
X176051D01*
Y5974D01*
X175963D01*
Y5984D01*
X175787D01*
Y5994D01*
X175698D01*
Y6004D01*
X175571D01*
Y6013D01*
X175424D01*
Y6023D01*
X175326D01*
Y6033D01*
X175150D01*
Y6043D01*
X175071D01*
Y6053D01*
X174915D01*
Y6063D01*
X174787D01*
Y6072D01*
X174679D01*
Y6082D01*
X174513D01*
Y6092D01*
X174434D01*
Y6102D01*
X174258D01*
Y6112D01*
X174160D01*
Y6121D01*
X174023D01*
Y6131D01*
X173876D01*
Y6141D01*
X173797D01*
Y6151D01*
X173621D01*
Y6160D01*
X173523D01*
Y6170D01*
X173366D01*
Y6180D01*
X173249D01*
Y6190D01*
X173151D01*
Y6200D01*
X172984D01*
Y6210D01*
X172886D01*
Y6219D01*
X172729D01*
Y6229D01*
X172622D01*
Y6239D01*
X172494D01*
Y6249D01*
X172347D01*
Y6259D01*
X172259D01*
Y6268D01*
X172092D01*
Y6278D01*
X171985D01*
Y6288D01*
X171828D01*
Y6298D01*
X171720D01*
Y6307D01*
X171622D01*
Y6317D01*
X171456D01*
Y6327D01*
X171358D01*
Y6337D01*
X171181D01*
Y6347D01*
X171093D01*
Y6357D01*
X170966D01*
Y6366D01*
X170819D01*
Y6376D01*
X170711D01*
Y6386D01*
X170544D01*
Y6396D01*
X170456D01*
Y6406D01*
X170299D01*
Y6415D01*
X170192D01*
Y6425D01*
X170074D01*
Y6435D01*
X169907D01*
Y6445D01*
X169829D01*
Y6454D01*
X169652D01*
Y6464D01*
X169555D01*
Y6474D01*
X169427D01*
Y6484D01*
X169270D01*
Y6494D01*
X169182D01*
Y6503D01*
X169025D01*
Y6513D01*
X168937D01*
Y6523D01*
X168849D01*
Y8071D01*
X182538D01*
Y8101D01*
X182528D01*
Y8110D01*
X182518D01*
Y8120D01*
X182509D01*
Y8140D01*
X182499D01*
Y8150D01*
X182489D01*
Y8169D01*
X182469D01*
Y8189D01*
X182459D01*
Y8199D01*
X182450D01*
Y8208D01*
X182440D01*
Y8228D01*
X182430D01*
Y8238D01*
X182420D01*
Y8257D01*
X182411D01*
Y8267D01*
X182401D01*
Y8277D01*
X182391D01*
Y8287D01*
X182381D01*
Y8297D01*
X182371D01*
Y8316D01*
X182361D01*
Y8326D01*
X182352D01*
Y8336D01*
X182342D01*
Y8346D01*
X182332D01*
Y8365D01*
X182322D01*
Y8375D01*
X182313D01*
Y8385D01*
X182303D01*
Y8404D01*
X182293D01*
Y8414D01*
X182283D01*
Y8424D01*
X182273D01*
Y8434D01*
X182264D01*
Y8453D01*
X182254D01*
Y8463D01*
X182244D01*
Y8473D01*
X182234D01*
Y8493D01*
X182224D01*
Y8502D01*
X182214D01*
Y8512D01*
X182205D01*
Y8532D01*
X182195D01*
Y8542D01*
X182185D01*
Y8551D01*
X182175D01*
Y8561D01*
X182166D01*
Y8581D01*
X182156D01*
Y8591D01*
X182146D01*
Y8600D01*
X182136D01*
Y8620D01*
X182126D01*
Y8630D01*
X182116D01*
Y8640D01*
X182107D01*
Y8649D01*
X182097D01*
Y8669D01*
X182087D01*
Y8679D01*
X182077D01*
Y8689D01*
X182068D01*
Y8708D01*
X182058D01*
Y8718D01*
X182048D01*
Y8728D01*
X182038D01*
Y8738D01*
X182028D01*
Y8747D01*
X182018D01*
Y8767D01*
X182009D01*
Y8777D01*
X181999D01*
Y8796D01*
X181989D01*
Y8806D01*
X181979D01*
Y8816D01*
X181970D01*
Y8826D01*
X181960D01*
Y8835D01*
X181950D01*
Y8855D01*
X181940D01*
Y8865D01*
X181930D01*
Y8884D01*
X181921D01*
Y8894D01*
X181911D01*
Y8904D01*
X181901D01*
Y8924D01*
X181881D01*
Y8943D01*
X181872D01*
Y8953D01*
X181862D01*
Y8963D01*
X181852D01*
Y8982D01*
X181842D01*
Y8992D01*
X181832D01*
Y9012D01*
X181823D01*
Y9022D01*
X181813D01*
Y9031D01*
X181803D01*
Y9041D01*
X181793D01*
Y9051D01*
X181783D01*
Y9071D01*
X181774D01*
Y9081D01*
X181764D01*
Y9090D01*
X181754D01*
Y9110D01*
X181744D01*
Y9120D01*
X181734D01*
Y9129D01*
X181725D01*
Y9139D01*
X181715D01*
Y9159D01*
X181705D01*
Y9169D01*
X181695D01*
Y9178D01*
X181685D01*
Y9198D01*
X181676D01*
Y9208D01*
X181666D01*
Y9218D01*
X181656D01*
Y9228D01*
X181646D01*
Y9247D01*
X181636D01*
Y9257D01*
X181627D01*
Y9267D01*
X181617D01*
Y9286D01*
X181607D01*
Y9296D01*
X181597D01*
Y9306D01*
X181587D01*
Y9316D01*
X181578D01*
Y9335D01*
X181568D01*
Y9345D01*
X181558D01*
Y9355D01*
X181548D01*
Y9375D01*
X181538D01*
Y9384D01*
X181529D01*
Y9394D01*
X181519D01*
Y9404D01*
X181509D01*
Y9424D01*
X181499D01*
Y9433D01*
X181489D01*
Y9443D01*
X181480D01*
Y9463D01*
X181470D01*
Y9472D01*
X181460D01*
Y9482D01*
X181450D01*
Y9492D01*
X181440D01*
Y9502D01*
X181431D01*
Y9522D01*
X181421D01*
Y9531D01*
X181411D01*
Y9551D01*
X181401D01*
Y9561D01*
X181391D01*
Y9570D01*
X181382D01*
Y9580D01*
X181372D01*
Y9590D01*
X181362D01*
Y9610D01*
X181352D01*
Y9619D01*
X181342D01*
Y9639D01*
X181333D01*
Y9649D01*
X181323D01*
Y9659D01*
X181313D01*
Y9668D01*
X181303D01*
Y9678D01*
X181293D01*
Y9698D01*
X181284D01*
Y9708D01*
X181274D01*
Y9717D01*
X181264D01*
Y9737D01*
X181254D01*
Y9747D01*
X181244D01*
Y9766D01*
X181235D01*
Y9776D01*
X181225D01*
Y9786D01*
X181215D01*
Y9796D01*
X181205D01*
Y9806D01*
X181195D01*
Y9825D01*
X181186D01*
Y9835D01*
X181176D01*
Y9855D01*
X181166D01*
Y9864D01*
X181156D01*
Y9874D01*
X181147D01*
Y9884D01*
X181137D01*
Y9894D01*
X181127D01*
Y9913D01*
X181117D01*
Y9923D01*
X181107D01*
Y9933D01*
X181097D01*
Y9953D01*
X181088D01*
Y9962D01*
X181078D01*
Y9972D01*
X181068D01*
Y9982D01*
X181058D01*
Y10002D01*
X181049D01*
Y10011D01*
X181039D01*
Y10021D01*
X181029D01*
Y10041D01*
X181019D01*
Y10051D01*
X181009D01*
Y10070D01*
X180990D01*
Y10090D01*
X180980D01*
Y10100D01*
X180970D01*
Y10109D01*
X180960D01*
Y10129D01*
X180950D01*
Y10139D01*
X180941D01*
Y10149D01*
X180931D01*
Y10168D01*
X180921D01*
Y10178D01*
X180911D01*
Y10188D01*
X180902D01*
Y10198D01*
X180892D01*
Y10217D01*
X180882D01*
Y10227D01*
X180872D01*
Y10237D01*
X180862D01*
Y10247D01*
X180852D01*
Y10266D01*
X180843D01*
Y10276D01*
X180833D01*
Y10286D01*
X180823D01*
Y10305D01*
X180813D01*
Y10315D01*
X180804D01*
Y10325D01*
X180794D01*
Y10335D01*
X180784D01*
Y10345D01*
X180774D01*
Y10364D01*
X180764D01*
Y10374D01*
X180754D01*
Y10394D01*
X180745D01*
Y10403D01*
X180735D01*
Y10413D01*
X180725D01*
Y10423D01*
X180715D01*
Y10433D01*
X180705D01*
Y10452D01*
X180696D01*
Y10462D01*
X180686D01*
Y10482D01*
X180676D01*
Y10492D01*
X180666D01*
Y10501D01*
X180657D01*
Y10521D01*
X180647D01*
Y10531D01*
X180637D01*
Y10541D01*
X180627D01*
Y10550D01*
X180617D01*
Y10560D01*
X180607D01*
Y10580D01*
X180598D01*
Y10589D01*
X180588D01*
Y10609D01*
X180578D01*
Y10619D01*
X180568D01*
Y10629D01*
X180559D01*
Y10639D01*
X180549D01*
Y10648D01*
X180539D01*
Y10668D01*
X180529D01*
Y10678D01*
X180519D01*
Y10697D01*
X180509D01*
Y10707D01*
X180500D01*
Y10717D01*
X180490D01*
Y10727D01*
X180480D01*
Y10736D01*
X180470D01*
Y10756D01*
X180461D01*
Y10766D01*
X180451D01*
Y10776D01*
X180441D01*
Y10795D01*
X180431D01*
Y10805D01*
X180421D01*
Y10825D01*
X180402D01*
Y10844D01*
X180392D01*
Y10854D01*
X180382D01*
Y10864D01*
X180372D01*
Y10883D01*
X180363D01*
Y10893D01*
X180353D01*
Y10903D01*
X180343D01*
Y10923D01*
X180333D01*
Y10932D01*
X180323D01*
Y10942D01*
X180314D01*
Y10952D01*
X180304D01*
Y10972D01*
X180294D01*
Y10982D01*
X180284D01*
Y10991D01*
X180274D01*
Y11011D01*
X180265D01*
Y11021D01*
X180255D01*
Y11030D01*
X180245D01*
Y11040D01*
X180235D01*
Y11060D01*
X180225D01*
Y11070D01*
X180216D01*
Y11079D01*
X180206D01*
Y11099D01*
X180196D01*
Y11109D01*
X180186D01*
Y11119D01*
X180176D01*
Y11128D01*
X180167D01*
Y11148D01*
X180157D01*
Y11158D01*
X180147D01*
Y11168D01*
X180137D01*
Y11187D01*
X180127D01*
Y11197D01*
X180118D01*
Y11207D01*
X180108D01*
Y11217D01*
X180098D01*
Y11236D01*
X180088D01*
Y11246D01*
X180078D01*
Y11256D01*
X180069D01*
Y11275D01*
X180059D01*
Y11285D01*
X180049D01*
Y11295D01*
X180039D01*
Y11305D01*
X180029D01*
Y11315D01*
X180020D01*
Y11334D01*
X180010D01*
Y11344D01*
X180000D01*
Y11364D01*
X179990D01*
Y11373D01*
X179980D01*
Y11383D01*
X179971D01*
Y11393D01*
X179961D01*
Y11403D01*
X179951D01*
Y11422D01*
X179941D01*
Y11432D01*
X179931D01*
Y11452D01*
X179922D01*
Y11462D01*
X179912D01*
Y11471D01*
X179902D01*
Y11481D01*
X179892D01*
Y11491D01*
X179882D01*
Y11511D01*
X179873D01*
Y11520D01*
X179863D01*
Y11530D01*
X179853D01*
Y11550D01*
X179843D01*
Y11560D01*
X179833D01*
Y11569D01*
X179824D01*
Y11579D01*
X179814D01*
Y11599D01*
X179804D01*
Y11609D01*
X179794D01*
Y11618D01*
X179784D01*
Y11638D01*
X179775D01*
Y11648D01*
X179765D01*
Y11667D01*
X179755D01*
Y11677D01*
X179745D01*
Y11687D01*
X179735D01*
Y11697D01*
X179726D01*
Y11707D01*
X179716D01*
Y11726D01*
X179706D01*
Y11736D01*
X179696D01*
Y11746D01*
X179686D01*
Y11765D01*
X179677D01*
Y11775D01*
X179667D01*
Y11785D01*
X179657D01*
Y11795D01*
X179647D01*
Y11814D01*
X179637D01*
Y11824D01*
X179628D01*
Y11834D01*
X179618D01*
Y11853D01*
X179608D01*
Y11863D01*
X179598D01*
Y11873D01*
X179588D01*
Y11883D01*
X179579D01*
Y11902D01*
X179569D01*
Y11912D01*
X179559D01*
Y11922D01*
X179549D01*
Y11942D01*
X179540D01*
Y11952D01*
X179530D01*
Y11961D01*
X179520D01*
Y11981D01*
X179510D01*
Y11991D01*
X179500D01*
Y12000D01*
X179490D01*
Y12010D01*
X179481D01*
Y12030D01*
X179471D01*
Y12040D01*
X179461D01*
Y12049D01*
X179451D01*
Y12059D01*
X179441D01*
Y12079D01*
X179432D01*
Y12089D01*
X179422D01*
Y12099D01*
X179412D01*
Y12118D01*
X179422D01*
Y12128D01*
X179432D01*
Y12157D01*
X179441D01*
Y12167D01*
X179451D01*
Y12177D01*
X179461D01*
Y12196D01*
X179471D01*
Y12206D01*
X179481D01*
Y12226D01*
X179490D01*
Y12236D01*
X179500D01*
Y12255D01*
X179510D01*
Y12265D01*
X179520D01*
Y12285D01*
X179530D01*
Y12304D01*
X179540D01*
Y12314D01*
X179549D01*
Y12334D01*
X179559D01*
Y12343D01*
X179569D01*
Y12363D01*
X179579D01*
Y12373D01*
X179588D01*
Y12383D01*
X179598D01*
Y12412D01*
X179608D01*
Y12422D01*
X179618D01*
Y12442D01*
X179628D01*
Y12451D01*
X179637D01*
Y12461D01*
X179647D01*
Y12481D01*
X179657D01*
Y12490D01*
X179667D01*
Y12510D01*
X179677D01*
Y12520D01*
X179686D01*
Y12539D01*
X179696D01*
Y12559D01*
X179706D01*
Y12569D01*
X179716D01*
Y12588D01*
X179726D01*
Y12598D01*
X179735D01*
Y12618D01*
X179745D01*
Y12637D01*
X179755D01*
Y12647D01*
X179765D01*
Y12667D01*
X179775D01*
Y12677D01*
X179784D01*
Y12696D01*
X179794D01*
Y12706D01*
X179804D01*
Y12716D01*
X179814D01*
Y12735D01*
X179824D01*
Y12745D01*
X179833D01*
Y12775D01*
X179843D01*
Y12784D01*
X179853D01*
Y12794D01*
X179863D01*
Y12814D01*
X179873D01*
Y12824D01*
X179882D01*
Y12843D01*
X179892D01*
Y12853D01*
X179902D01*
Y12873D01*
X179912D01*
Y12882D01*
X179922D01*
Y12902D01*
X179931D01*
Y12922D01*
X179941D01*
Y12931D01*
X179951D01*
Y12951D01*
X179961D01*
Y12961D01*
X179971D01*
Y12980D01*
X179980D01*
Y12990D01*
X179990D01*
Y13000D01*
X180000D01*
Y13029D01*
X180010D01*
Y13039D01*
X180020D01*
Y13059D01*
X180029D01*
Y13069D01*
X180039D01*
Y13078D01*
X180049D01*
Y13098D01*
X180059D01*
Y13108D01*
X180069D01*
Y13127D01*
X180078D01*
Y13137D01*
X180088D01*
Y13157D01*
X180098D01*
Y13176D01*
X180108D01*
Y13186D01*
X180118D01*
Y13206D01*
X180127D01*
Y13216D01*
X180137D01*
Y13235D01*
X180147D01*
Y13245D01*
X180157D01*
Y13265D01*
X180167D01*
Y13284D01*
X180176D01*
Y13294D01*
X180186D01*
Y13314D01*
X180196D01*
Y13323D01*
X180206D01*
Y13343D01*
X180216D01*
Y13353D01*
X180225D01*
Y13372D01*
X180235D01*
Y13382D01*
X180245D01*
Y13392D01*
X180255D01*
Y13421D01*
X180265D01*
Y13431D01*
X180274D01*
Y13441D01*
X180284D01*
Y13461D01*
X180294D01*
Y13470D01*
X180304D01*
Y13490D01*
X180314D01*
Y13500D01*
X180323D01*
Y13519D01*
X180333D01*
Y13529D01*
X180343D01*
Y13549D01*
X180353D01*
Y13568D01*
X180363D01*
Y13578D01*
X180372D01*
Y13598D01*
X180382D01*
Y13608D01*
X180392D01*
Y13627D01*
X180402D01*
Y13647D01*
X180412D01*
Y13656D01*
X180421D01*
Y13676D01*
X180431D01*
Y13686D01*
X180441D01*
Y13705D01*
X180451D01*
Y13715D01*
X180461D01*
Y13725D01*
X180470D01*
Y13745D01*
X180480D01*
Y13755D01*
X180490D01*
Y13784D01*
X180500D01*
Y13794D01*
X180509D01*
Y13803D01*
X180519D01*
Y13823D01*
X180529D01*
Y13833D01*
X180539D01*
Y13852D01*
X180549D01*
Y13862D01*
X180559D01*
Y13882D01*
X180568D01*
Y13902D01*
X180578D01*
Y13911D01*
X180588D01*
Y13931D01*
X180598D01*
Y13941D01*
X180607D01*
Y13960D01*
X180617D01*
Y13970D01*
X180627D01*
Y13990D01*
X180637D01*
Y13999D01*
X180647D01*
Y14009D01*
X180657D01*
Y14039D01*
X180666D01*
Y14049D01*
X180676D01*
Y14058D01*
X180686D01*
Y14078D01*
X180696D01*
Y14088D01*
X180705D01*
Y14107D01*
X180715D01*
Y14117D01*
X180725D01*
Y14137D01*
X180735D01*
Y14146D01*
X180745D01*
Y14166D01*
X180754D01*
Y14186D01*
X180764D01*
Y14195D01*
X180774D01*
Y14215D01*
X180784D01*
Y14225D01*
X180794D01*
Y14244D01*
X180804D01*
Y14254D01*
X180813D01*
Y14264D01*
X180823D01*
Y14293D01*
X180833D01*
Y14303D01*
X180843D01*
Y14323D01*
X180852D01*
Y14333D01*
X180862D01*
Y14342D01*
X180872D01*
Y14362D01*
X180882D01*
Y14372D01*
X180892D01*
Y14391D01*
X180902D01*
Y14401D01*
X180911D01*
Y14421D01*
X180921D01*
Y14440D01*
X180931D01*
Y14450D01*
X180941D01*
Y14470D01*
X180950D01*
Y14480D01*
X180960D01*
Y14499D01*
X180970D01*
Y14509D01*
X180980D01*
Y14529D01*
X180990D01*
Y14548D01*
X181039D01*
Y14538D01*
X181088D01*
Y14529D01*
X181117D01*
Y14519D01*
X181166D01*
Y14509D01*
X181195D01*
Y14499D01*
X181235D01*
Y14489D01*
X181284D01*
Y14480D01*
X181313D01*
Y14470D01*
X181362D01*
Y14460D01*
X181391D01*
Y14450D01*
X181440D01*
Y14440D01*
X181480D01*
Y14431D01*
X181509D01*
Y14421D01*
X181558D01*
Y14411D01*
X181587D01*
Y14401D01*
X181636D01*
Y14391D01*
X181666D01*
Y14382D01*
X181685D01*
Y14391D01*
X181695D01*
Y14401D01*
X181685D01*
Y14411D01*
X181676D01*
Y14431D01*
X181666D01*
Y14440D01*
X181656D01*
Y14450D01*
X181646D01*
Y14460D01*
X181636D01*
Y14470D01*
X181627D01*
Y14480D01*
X181617D01*
Y14499D01*
X181607D01*
Y14509D01*
X181597D01*
Y14529D01*
X181587D01*
Y14538D01*
X181578D01*
Y14548D01*
X181568D01*
Y14568D01*
X181548D01*
Y14587D01*
X181538D01*
Y14597D01*
X181529D01*
Y14617D01*
X181519D01*
Y14627D01*
X181509D01*
Y14636D01*
X181499D01*
Y14656D01*
X181489D01*
Y14666D01*
X181480D01*
Y14676D01*
X181470D01*
Y14685D01*
X181460D01*
Y14695D01*
X181450D01*
Y14715D01*
X181440D01*
Y14725D01*
X181431D01*
Y14744D01*
X181421D01*
Y14754D01*
X181411D01*
Y14764D01*
X181401D01*
Y14774D01*
X181391D01*
Y14783D01*
X181382D01*
Y14803D01*
X181372D01*
Y14813D01*
X181362D01*
Y14823D01*
X181352D01*
Y14842D01*
X181342D01*
Y14852D01*
X181333D01*
Y14862D01*
X181323D01*
Y14872D01*
X181313D01*
Y14891D01*
X181303D01*
Y14901D01*
X181293D01*
Y14911D01*
X181284D01*
Y14930D01*
X181274D01*
Y14940D01*
X181264D01*
Y14950D01*
X181254D01*
Y14960D01*
X181244D01*
Y14979D01*
X181235D01*
Y14989D01*
X181225D01*
Y14999D01*
X181215D01*
Y15019D01*
X181205D01*
Y15028D01*
X181195D01*
Y15038D01*
X181186D01*
Y15048D01*
X181176D01*
Y15067D01*
X181166D01*
Y15077D01*
X181156D01*
Y15087D01*
X181147D01*
Y15107D01*
X181137D01*
Y15116D01*
X181127D01*
Y15126D01*
X181117D01*
Y15136D01*
X181107D01*
Y15156D01*
X181097D01*
Y15166D01*
X181088D01*
Y15175D01*
X181078D01*
Y15195D01*
X181068D01*
Y15205D01*
X181058D01*
Y15214D01*
X181049D01*
Y15224D01*
X181039D01*
Y15244D01*
X181029D01*
Y15254D01*
X181019D01*
Y15263D01*
X181009D01*
Y15283D01*
X181000D01*
Y15293D01*
X180990D01*
Y15303D01*
X180980D01*
Y15322D01*
X180970D01*
Y15332D01*
X180960D01*
Y15342D01*
X180950D01*
Y15352D01*
X180941D01*
Y15371D01*
X180931D01*
Y15381D01*
X180921D01*
Y15391D01*
X180911D01*
Y15410D01*
X180902D01*
Y15420D01*
X180892D01*
Y15430D01*
X180882D01*
Y15440D01*
X180872D01*
Y15460D01*
X180862D01*
Y15469D01*
X180852D01*
Y15479D01*
X180843D01*
Y15499D01*
X180833D01*
Y15508D01*
X180823D01*
Y15518D01*
X180813D01*
Y15528D01*
X180804D01*
Y15538D01*
X180794D01*
Y15558D01*
X180784D01*
Y15567D01*
X180774D01*
Y15587D01*
X180764D01*
Y15597D01*
X180754D01*
Y15607D01*
X180745D01*
Y15626D01*
X180725D01*
Y15646D01*
X180715D01*
Y15655D01*
X180705D01*
Y15665D01*
X180696D01*
Y15685D01*
X180686D01*
Y15695D01*
X180676D01*
Y15714D01*
X180657D01*
Y15734D01*
X180647D01*
Y15744D01*
X180637D01*
Y15753D01*
X180627D01*
Y15773D01*
X180617D01*
Y15783D01*
X180607D01*
Y15793D01*
X180598D01*
Y15802D01*
X180588D01*
Y15822D01*
X180578D01*
Y15832D01*
X180568D01*
Y15842D01*
X180559D01*
Y15861D01*
X180549D01*
Y15871D01*
X180539D01*
Y15881D01*
X180529D01*
Y15891D01*
X180519D01*
Y15910D01*
X180509D01*
Y15920D01*
X180500D01*
Y15930D01*
X180490D01*
Y15949D01*
X180480D01*
Y15959D01*
X180470D01*
Y15969D01*
X180461D01*
Y15979D01*
X180451D01*
Y15998D01*
X180441D01*
Y16008D01*
X180431D01*
Y16018D01*
X180421D01*
Y16038D01*
X180412D01*
Y16047D01*
X180402D01*
Y16057D01*
X180392D01*
Y16077D01*
X180382D01*
Y16087D01*
X180372D01*
Y16096D01*
X180363D01*
Y16106D01*
X180353D01*
Y16126D01*
X180343D01*
Y16136D01*
X180333D01*
Y16145D01*
X180323D01*
Y16165D01*
X180314D01*
Y16175D01*
X180304D01*
Y16185D01*
X180294D01*
Y16194D01*
X180284D01*
Y16214D01*
X180274D01*
Y16224D01*
X180265D01*
Y16234D01*
X180255D01*
Y16253D01*
X180245D01*
Y16263D01*
X180235D01*
Y16273D01*
X180225D01*
Y16283D01*
X180216D01*
Y16292D01*
X180206D01*
Y16312D01*
X180196D01*
Y16322D01*
X180186D01*
Y16341D01*
X180176D01*
Y16351D01*
X180167D01*
Y16361D01*
X180157D01*
Y16381D01*
X180137D01*
Y16400D01*
X180127D01*
Y16410D01*
X180118D01*
Y16430D01*
X180108D01*
Y16439D01*
X180098D01*
Y16449D01*
X180088D01*
Y16469D01*
X180078D01*
Y16479D01*
X180069D01*
Y16488D01*
X180059D01*
Y16498D01*
X180049D01*
Y16508D01*
X180039D01*
Y16527D01*
X180029D01*
Y16537D01*
X180020D01*
Y16557D01*
X180010D01*
Y16567D01*
X180000D01*
Y16577D01*
X179990D01*
Y16586D01*
X179980D01*
Y16596D01*
X179971D01*
Y16616D01*
X179961D01*
Y16625D01*
X179951D01*
Y16645D01*
X179941D01*
Y16655D01*
X179931D01*
Y16665D01*
X179922D01*
Y16675D01*
X179912D01*
Y16684D01*
X179902D01*
Y16704D01*
X179892D01*
Y16714D01*
X179882D01*
Y16724D01*
X179873D01*
Y16733D01*
X179863D01*
Y16753D01*
X179853D01*
Y16763D01*
X179843D01*
Y16772D01*
X179833D01*
Y16792D01*
X179824D01*
Y16802D01*
X179814D01*
Y16812D01*
X179804D01*
Y16831D01*
X179794D01*
Y16841D01*
X179784D01*
Y16851D01*
X179775D01*
Y16861D01*
X179765D01*
Y16880D01*
X179755D01*
Y16890D01*
X179745D01*
Y16900D01*
X179735D01*
Y16919D01*
X179726D01*
Y16929D01*
X179716D01*
Y16939D01*
X179706D01*
Y16949D01*
X179696D01*
Y16969D01*
X179686D01*
Y16978D01*
X179677D01*
Y16988D01*
X179667D01*
Y17008D01*
X179657D01*
Y17018D01*
X179647D01*
Y17027D01*
X179637D01*
Y17037D01*
X179628D01*
Y17057D01*
X179618D01*
Y17066D01*
X179608D01*
Y17076D01*
X179598D01*
Y17096D01*
X179588D01*
Y17106D01*
X179579D01*
Y17116D01*
X179569D01*
Y17125D01*
X179559D01*
Y17145D01*
X179549D01*
Y17155D01*
X179540D01*
Y17165D01*
X179530D01*
Y17184D01*
X179520D01*
Y17194D01*
X179510D01*
Y17204D01*
X179500D01*
Y17223D01*
X179490D01*
Y17233D01*
X179481D01*
Y17243D01*
X179471D01*
Y17253D01*
X179461D01*
Y17272D01*
X179451D01*
Y17282D01*
X179441D01*
Y17292D01*
X179432D01*
Y17311D01*
X179422D01*
Y17321D01*
X179412D01*
Y17331D01*
X179422D01*
Y17341D01*
X179432D01*
Y17370D01*
X179441D01*
Y17390D01*
X179451D01*
Y17409D01*
X179461D01*
Y17429D01*
X179471D01*
Y17439D01*
X179481D01*
Y17468D01*
X179490D01*
Y17488D01*
X179500D01*
Y17507D01*
X179510D01*
Y17527D01*
X179520D01*
Y17537D01*
X179530D01*
Y17576D01*
X179540D01*
Y17586D01*
X179549D01*
Y17615D01*
X179559D01*
Y17625D01*
X179569D01*
Y17645D01*
X179579D01*
Y17674D01*
X179588D01*
Y17684D01*
X179598D01*
Y17713D01*
X179608D01*
Y17723D01*
X179618D01*
Y17752D01*
X179628D01*
Y17772D01*
X179637D01*
Y17782D01*
X179647D01*
Y17811D01*
X179657D01*
Y17821D01*
X179667D01*
Y17850D01*
X179677D01*
Y17870D01*
X179686D01*
Y17890D01*
X179696D01*
Y17909D01*
X179706D01*
Y17919D01*
X179716D01*
Y17948D01*
X179726D01*
Y17968D01*
X179735D01*
Y17988D01*
X179745D01*
Y18007D01*
X179755D01*
Y18027D01*
X179765D01*
Y18056D01*
X179775D01*
Y18066D01*
X179784D01*
Y18095D01*
X179794D01*
Y18105D01*
X179804D01*
Y18125D01*
X179814D01*
Y18154D01*
X179824D01*
Y18164D01*
X179833D01*
Y18193D01*
X179843D01*
Y18203D01*
X179853D01*
Y18233D01*
X179863D01*
Y18252D01*
X179873D01*
Y18262D01*
X179882D01*
Y18291D01*
X179892D01*
Y18301D01*
X179902D01*
Y18330D01*
X179912D01*
Y18350D01*
X179922D01*
Y18370D01*
X179931D01*
Y18389D01*
X179941D01*
Y18399D01*
X179951D01*
Y18438D01*
X179961D01*
Y18448D01*
X179971D01*
Y18468D01*
X179980D01*
Y18487D01*
X179990D01*
Y18507D01*
X180000D01*
Y18536D01*
X180010D01*
Y18546D01*
X180020D01*
Y18575D01*
X180029D01*
Y18585D01*
X180039D01*
Y18605D01*
X180049D01*
Y18634D01*
X180059D01*
Y18644D01*
X180069D01*
Y18674D01*
X180078D01*
Y18683D01*
X180088D01*
Y18713D01*
X180098D01*
Y18732D01*
X180108D01*
Y18742D01*
X180118D01*
Y18771D01*
X180127D01*
Y18781D01*
X180137D01*
Y18811D01*
X180147D01*
Y18830D01*
X180157D01*
Y18850D01*
X180167D01*
Y18869D01*
X180176D01*
Y18889D01*
X180186D01*
Y18918D01*
X180196D01*
Y18928D01*
X180206D01*
Y18958D01*
X180216D01*
Y18967D01*
X180225D01*
Y18987D01*
X180235D01*
Y19016D01*
X180245D01*
Y19026D01*
X180255D01*
Y19056D01*
X180265D01*
Y19065D01*
X180274D01*
Y19085D01*
X180284D01*
Y19114D01*
X180294D01*
Y19124D01*
X180304D01*
Y19154D01*
X180314D01*
Y19173D01*
X180323D01*
Y19193D01*
X180333D01*
Y19212D01*
X180343D01*
Y19222D01*
X180353D01*
Y19252D01*
X180363D01*
Y19271D01*
X180372D01*
Y19301D01*
X180382D01*
Y19310D01*
X180392D01*
Y19330D01*
X180402D01*
Y19359D01*
X180412D01*
Y19369D01*
X180421D01*
Y19399D01*
X180431D01*
Y19408D01*
X180441D01*
Y19438D01*
X180451D01*
Y19457D01*
X180461D01*
Y19467D01*
X180470D01*
Y19497D01*
X180480D01*
Y19506D01*
X180490D01*
Y19536D01*
X180500D01*
Y19546D01*
X180509D01*
Y19575D01*
X180519D01*
Y19595D01*
X180529D01*
Y19604D01*
X180539D01*
Y19634D01*
X180549D01*
Y19644D01*
X180559D01*
Y19673D01*
X180568D01*
Y19692D01*
X180578D01*
Y19712D01*
X180588D01*
Y19732D01*
X180598D01*
Y19751D01*
X180607D01*
Y19781D01*
X180617D01*
Y19791D01*
X180627D01*
Y19810D01*
X180637D01*
Y19830D01*
X180647D01*
Y19849D01*
X180657D01*
Y19879D01*
X180666D01*
Y19888D01*
X180676D01*
Y19918D01*
X180686D01*
Y19928D01*
X180696D01*
Y19947D01*
X180705D01*
Y19977D01*
X180715D01*
Y19986D01*
X180725D01*
Y20016D01*
X180735D01*
Y20035D01*
X180745D01*
Y20055D01*
X180754D01*
Y20075D01*
X180764D01*
Y20085D01*
X180852D01*
Y20075D01*
D02*
G37*
G36*
X174797Y18869D02*
X174934D01*
Y18860D01*
X175052D01*
Y18850D01*
X175150D01*
Y18840D01*
X175306D01*
Y18830D01*
X175385D01*
Y18820D01*
X175502D01*
Y18811D01*
X175571D01*
Y18801D01*
X175669D01*
Y18791D01*
X175757D01*
Y18781D01*
X175806D01*
Y18771D01*
X175875D01*
Y15959D01*
X175865D01*
Y15949D01*
X175875D01*
Y12461D01*
Y12451D01*
Y10952D01*
X175826D01*
Y10942D01*
X175747D01*
Y10932D01*
X175698D01*
Y10923D01*
X175620D01*
Y10913D01*
X175571D01*
Y10903D01*
X175473D01*
Y10893D01*
X175385D01*
Y10883D01*
X175326D01*
Y10874D01*
X175179D01*
Y10864D01*
X175091D01*
Y10854D01*
X174924D01*
Y10844D01*
X174797D01*
Y10835D01*
X174787D01*
Y10844D01*
X174777D01*
Y10854D01*
X174767D01*
Y12588D01*
X174777D01*
Y15998D01*
X174767D01*
Y18860D01*
X174777D01*
Y18869D01*
X174787D01*
Y18879D01*
X174797D01*
Y18869D01*
D02*
G37*
%LPC*%
G36*
X172445Y14205D02*
X172426D01*
Y14195D01*
X172396D01*
Y14186D01*
X172377D01*
Y14176D01*
X172357D01*
Y14166D01*
X172328D01*
Y14156D01*
X172318D01*
Y14146D01*
X172298D01*
Y14137D01*
X172279D01*
Y14127D01*
X172259D01*
Y14117D01*
X172239D01*
Y14107D01*
X172230D01*
Y14097D01*
X172210D01*
Y14088D01*
X172190D01*
Y14078D01*
X172181D01*
Y14068D01*
X172161D01*
Y14058D01*
X172151D01*
Y14049D01*
X172132D01*
Y14039D01*
X172122D01*
Y14029D01*
X172112D01*
Y14019D01*
X172102D01*
Y14009D01*
X172092D01*
Y13999D01*
X172083D01*
Y13990D01*
X172073D01*
Y13980D01*
X172063D01*
Y13970D01*
X172053D01*
Y13960D01*
X172043D01*
Y13950D01*
X172034D01*
Y13941D01*
X172024D01*
Y13931D01*
X172014D01*
Y13911D01*
X172004D01*
Y13902D01*
X171994D01*
Y13892D01*
X171985D01*
Y13882D01*
X171975D01*
Y13862D01*
X171965D01*
Y13852D01*
X171955D01*
Y13833D01*
X171946D01*
Y13813D01*
X171936D01*
Y13794D01*
X171926D01*
Y13764D01*
X171916D01*
Y13755D01*
X171906D01*
Y13725D01*
X171897D01*
Y13705D01*
X171887D01*
Y13676D01*
X171877D01*
Y13637D01*
X171867D01*
Y13608D01*
X171857D01*
Y13529D01*
X171847D01*
Y13500D01*
Y13490D01*
X171838D01*
Y13176D01*
X171847D01*
Y13127D01*
X171857D01*
Y13059D01*
X171867D01*
Y13029D01*
X171877D01*
Y12990D01*
X171887D01*
Y12961D01*
X171897D01*
Y12941D01*
X171906D01*
Y12912D01*
X171916D01*
Y12892D01*
X171926D01*
Y12863D01*
X171936D01*
Y12853D01*
X171946D01*
Y12833D01*
X171955D01*
Y12814D01*
X171965D01*
Y12794D01*
X171975D01*
Y12775D01*
X171985D01*
Y12765D01*
X171994D01*
Y12755D01*
X172004D01*
Y12735D01*
X172014D01*
Y12726D01*
X172024D01*
Y12716D01*
X172034D01*
Y12706D01*
X172043D01*
Y12696D01*
X172053D01*
Y12686D01*
X172063D01*
Y12667D01*
X172073D01*
Y12657D01*
X172092D01*
Y12637D01*
X172122D01*
Y12980D01*
X172132D01*
Y13059D01*
X172141D01*
Y13147D01*
X172151D01*
Y13235D01*
X172161D01*
Y13274D01*
X172171D01*
Y13372D01*
X172181D01*
Y13402D01*
X172190D01*
Y13470D01*
X172200D01*
Y13500D01*
X172210D01*
Y13529D01*
X172220D01*
Y13588D01*
X172230D01*
Y13608D01*
X172239D01*
Y13666D01*
X172249D01*
Y13686D01*
X172259D01*
Y13725D01*
X172269D01*
Y13764D01*
X172279D01*
Y13774D01*
X172288D01*
Y13833D01*
X172298D01*
Y13843D01*
X172308D01*
Y13882D01*
X172318D01*
Y13902D01*
X172328D01*
Y13921D01*
X172337D01*
Y13960D01*
X172347D01*
Y13970D01*
X172357D01*
Y14009D01*
X172367D01*
Y14029D01*
X172377D01*
Y14049D01*
X172386D01*
Y14078D01*
X172396D01*
Y14088D01*
X172406D01*
Y14127D01*
X172416D01*
Y14137D01*
X172426D01*
Y14156D01*
X172435D01*
Y14186D01*
X172445D01*
Y14205D01*
D02*
G37*
%LPD*%
D91*
X52106Y135264D02*
X52894D01*
X52106Y130736D02*
X52894D01*
X52106Y143264D02*
X52894D01*
X52106Y138736D02*
X52894D01*
X26606Y166736D02*
X27394D01*
X26606Y171264D02*
X27394D01*
X26606Y158736D02*
X27394D01*
X26606Y163264D02*
X27394D01*
X17606Y142236D02*
X18394D01*
X17606Y146764D02*
X18394D01*
X17606Y138764D02*
X18394D01*
X17606Y134236D02*
X18394D01*
X31606Y142236D02*
X32394D01*
X31606Y146764D02*
X32394D01*
X31606Y138764D02*
X32394D01*
X31606Y134236D02*
X32394D01*
X32264Y125606D02*
Y126394D01*
X27736Y125606D02*
Y126394D01*
X24264Y125606D02*
Y126394D01*
X19736Y125606D02*
Y126394D01*
X27736Y112606D02*
Y113394D01*
X32264Y112606D02*
Y113394D01*
X24264Y112606D02*
Y113394D01*
X19736Y112606D02*
Y113394D01*
X39606Y51138D02*
X40394D01*
X39606Y46610D02*
X40394D01*
X89106Y66764D02*
X89894D01*
X89106Y62236D02*
X89894D01*
X79606Y157264D02*
X80394D01*
X79606Y152736D02*
X80394D01*
X109764Y152106D02*
Y152894D01*
X105236Y152106D02*
Y152894D01*
X117764Y152106D02*
Y152894D01*
X113236Y152106D02*
Y152894D01*
X98606Y143264D02*
X99394D01*
X98606Y138736D02*
X99394D01*
X132264Y147606D02*
Y148394D01*
X127736Y147606D02*
Y148394D01*
X135736Y147606D02*
Y148394D01*
X140264Y147606D02*
Y148394D01*
X145736Y119606D02*
Y120394D01*
X150264Y119606D02*
Y120394D01*
X158264Y119606D02*
Y120394D01*
X153736Y119606D02*
Y120394D01*
X182843Y114500D02*
Y123594D01*
X163157Y114500D02*
Y123594D01*
Y114500D02*
X182843D01*
X163157Y123594D02*
X182843D01*
X256236Y82106D02*
Y82894D01*
X260764Y82106D02*
Y82894D01*
X268764Y82106D02*
Y82894D01*
X264236Y82106D02*
Y82894D01*
X261606Y58264D02*
X262394D01*
X261606Y53736D02*
X262394D01*
X261606Y50264D02*
X262394D01*
X261606Y45736D02*
X262394D01*
X264264Y37106D02*
Y37894D01*
X259736Y37106D02*
Y37894D01*
X346106Y21736D02*
X346894D01*
X346106Y26264D02*
X346894D01*
X346106Y13736D02*
X346894D01*
X346106Y18264D02*
X346894D01*
X366850Y24752D02*
X370059D01*
Y27350D01*
X366850Y36248D02*
X370059D01*
Y33650D02*
Y36248D01*
X366850Y9252D02*
X370059D01*
Y11850D01*
X366850Y20748D02*
X370059D01*
Y18150D02*
Y20748D01*
X78764Y99106D02*
Y99894D01*
X74236Y99106D02*
Y99894D01*
X261606Y61736D02*
X262394D01*
X261606Y66264D02*
X262394D01*
X70764Y99106D02*
Y99894D01*
X66236Y99106D02*
Y99894D01*
X238926Y77302D02*
X242074D01*
Y78876D01*
X241549Y79401D01*
X240500D01*
X239975Y78876D01*
Y77302D01*
Y78351D02*
X238926Y79401D01*
X241549Y80450D02*
X242074Y80975D01*
Y82025D01*
X241549Y82550D01*
X241025D01*
X240500Y82025D01*
Y81500D01*
Y82025D01*
X239975Y82550D01*
X239451D01*
X238926Y82025D01*
Y80975D01*
X239451Y80450D01*
X238926Y85698D02*
Y83599D01*
X241025Y85698D01*
X241549D01*
X242074Y85173D01*
Y84124D01*
X241549Y83599D01*
X189074Y78049D02*
X189599Y78574D01*
X190649D01*
X191173Y78049D01*
Y75950D01*
X190649Y75426D01*
X189599D01*
X189074Y75950D01*
X185926Y78574D02*
X186975Y78049D01*
X188025Y77000D01*
Y75950D01*
X187500Y75426D01*
X186451D01*
X185926Y75950D01*
Y76475D01*
X186451Y77000D01*
X188025D01*
X184876Y75426D02*
X183827D01*
X184351D01*
Y78574D01*
X184876Y78049D01*
X159640Y78090D02*
X160165Y78615D01*
X161214D01*
X161739Y78090D01*
Y75991D01*
X161214Y75467D01*
X160165D01*
X159640Y75991D01*
X156491Y78615D02*
X157541Y78090D01*
X158590Y77041D01*
Y75991D01*
X158065Y75467D01*
X157016D01*
X156491Y75991D01*
Y76516D01*
X157016Y77041D01*
X158590D01*
X155442Y78090D02*
X154917Y78615D01*
X153867D01*
X153343Y78090D01*
Y75991D01*
X153867Y75467D01*
X154917D01*
X155442Y75991D01*
Y78090D01*
X202099Y102550D02*
X202624Y103074D01*
X203673D01*
X204198Y102550D01*
Y100451D01*
X203673Y99926D01*
X202624D01*
X202099Y100451D01*
X198951Y103074D02*
X201049D01*
Y101500D01*
X200000Y102025D01*
X199475D01*
X198951Y101500D01*
Y100451D01*
X199475Y99926D01*
X200525D01*
X201049Y100451D01*
X197901D02*
X197376Y99926D01*
X196327D01*
X195802Y100451D01*
Y102550D01*
X196327Y103074D01*
X197376D01*
X197901Y102550D01*
Y102025D01*
X197376Y101500D01*
X195802D01*
X146099Y102550D02*
X146624Y103074D01*
X147673D01*
X148198Y102550D01*
Y100451D01*
X147673Y99926D01*
X146624D01*
X146099Y100451D01*
X142950Y103074D02*
X145050D01*
Y101500D01*
X144000Y102025D01*
X143475D01*
X142950Y101500D01*
Y100451D01*
X143475Y99926D01*
X144525D01*
X145050Y100451D01*
X141901Y102550D02*
X141376Y103074D01*
X140327D01*
X139802Y102550D01*
Y102025D01*
X140327Y101500D01*
X140851D01*
X140327D01*
X139802Y100975D01*
Y100451D01*
X140327Y99926D01*
X141376D01*
X141901Y100451D01*
X185500Y137149D02*
Y134525D01*
X184975Y134000D01*
X183926D01*
X183401Y134525D01*
Y137149D01*
X180252D02*
X181302Y136624D01*
X182351Y135574D01*
Y134525D01*
X181827Y134000D01*
X180777D01*
X180252Y134525D01*
Y135049D01*
X180777Y135574D01*
X182351D01*
X376525Y14599D02*
X378624D01*
X379149Y14074D01*
Y13025D01*
X378624Y12500D01*
X376525D01*
X376000Y13025D01*
Y14074D01*
X377049Y13550D02*
X376000Y14599D01*
Y14074D02*
X376525Y14599D01*
X379149Y15649D02*
Y17748D01*
X378624D01*
X376525Y15649D01*
X376000D01*
X376525Y29599D02*
X378624D01*
X379149Y29074D01*
Y28025D01*
X378624Y27500D01*
X376525D01*
X376000Y28025D01*
Y29074D01*
X377049Y28550D02*
X376000Y29599D01*
Y29074D02*
X376525Y29599D01*
X379149Y32748D02*
X378624Y31698D01*
X377574Y30649D01*
X376525D01*
X376000Y31173D01*
Y32223D01*
X376525Y32748D01*
X377049D01*
X377574Y32223D01*
Y30649D01*
X49124Y156099D02*
X49649Y155574D01*
Y154525D01*
X49124Y154000D01*
X47025D01*
X46500Y154525D01*
Y155574D01*
X47025Y156099D01*
X46500Y159248D02*
Y157149D01*
X48599Y159248D01*
X49124D01*
X49649Y158723D01*
Y157673D01*
X49124Y157149D01*
X46500Y162396D02*
Y160297D01*
X48599Y162396D01*
X49124D01*
X49649Y161872D01*
Y160822D01*
X49124Y160297D01*
Y170099D02*
X49649Y169574D01*
Y168525D01*
X49124Y168000D01*
X47025D01*
X46500Y168525D01*
Y169574D01*
X47025Y170099D01*
X46500Y173248D02*
Y171149D01*
X48599Y173248D01*
X49124D01*
X49649Y172723D01*
Y171673D01*
X49124Y171149D01*
Y174297D02*
X49649Y174822D01*
Y175872D01*
X49124Y176396D01*
X48599D01*
X48074Y175872D01*
Y175347D01*
Y175872D01*
X47550Y176396D01*
X47025D01*
X46500Y175872D01*
Y174822D01*
X47025Y174297D01*
X59901Y148624D02*
X60426Y149149D01*
X61475D01*
X62000Y148624D01*
Y146525D01*
X61475Y146000D01*
X60426D01*
X59901Y146525D01*
X58851Y148624D02*
X58327Y149149D01*
X57277D01*
X56752Y148624D01*
Y148099D01*
X57277Y147574D01*
X57802D01*
X57277D01*
X56752Y147049D01*
Y146525D01*
X57277Y146000D01*
X58327D01*
X58851Y146525D01*
X55703Y148624D02*
X55178Y149149D01*
X54128D01*
X53604Y148624D01*
Y146525D01*
X54128Y146000D01*
X55178D01*
X55703Y146525D01*
Y148624D01*
X94124Y150099D02*
X94649Y149574D01*
Y148525D01*
X94124Y148000D01*
X92025D01*
X91500Y148525D01*
Y149574D01*
X92025Y150099D01*
X94124Y151149D02*
X94649Y151673D01*
Y152723D01*
X94124Y153248D01*
X93599D01*
X93074Y152723D01*
Y152198D01*
Y152723D01*
X92550Y153248D01*
X92025D01*
X91500Y152723D01*
Y151673D01*
X92025Y151149D01*
X91500Y156396D02*
Y154297D01*
X93599Y156396D01*
X94124D01*
X94649Y155871D01*
Y154822D01*
X94124Y154297D01*
X76901Y141124D02*
X77426Y141649D01*
X78475D01*
X79000Y141124D01*
Y139025D01*
X78475Y138500D01*
X77426D01*
X76901Y139025D01*
X75851Y141124D02*
X75327Y141649D01*
X74277D01*
X73752Y141124D01*
Y140599D01*
X74277Y140074D01*
X74802D01*
X74277D01*
X73752Y139550D01*
Y139025D01*
X74277Y138500D01*
X75327D01*
X75851Y139025D01*
X72703Y141124D02*
X72178Y141649D01*
X71128D01*
X70604Y141124D01*
Y140599D01*
X71128Y140074D01*
X71653D01*
X71128D01*
X70604Y139550D01*
Y139025D01*
X71128Y138500D01*
X72178D01*
X72703Y139025D01*
X113401Y134124D02*
X113926Y134649D01*
X114975D01*
X115500Y134124D01*
Y132025D01*
X114975Y131500D01*
X113926D01*
X113401Y132025D01*
X112351Y134124D02*
X111827Y134649D01*
X110777D01*
X110252Y134124D01*
Y133599D01*
X110777Y133074D01*
X111302D01*
X110777D01*
X110252Y132550D01*
Y132025D01*
X110777Y131500D01*
X111827D01*
X112351Y132025D01*
X107104Y134649D02*
X109203D01*
Y133074D01*
X108153Y133599D01*
X107629D01*
X107104Y133074D01*
Y132025D01*
X107629Y131500D01*
X108678D01*
X109203Y132025D01*
X252624Y79599D02*
X253149Y79074D01*
Y78025D01*
X252624Y77500D01*
X250525D01*
X250000Y78025D01*
Y79074D01*
X250525Y79599D01*
X252624Y80649D02*
X253149Y81173D01*
Y82223D01*
X252624Y82748D01*
X252099D01*
X251574Y82223D01*
Y81698D01*
Y82223D01*
X251049Y82748D01*
X250525D01*
X250000Y82223D01*
Y81173D01*
X250525Y80649D01*
X252624Y83797D02*
X253149Y84322D01*
Y85372D01*
X252624Y85896D01*
X252099D01*
X251574Y85372D01*
X251049Y85896D01*
X250525D01*
X250000Y85372D01*
Y84322D01*
X250525Y83797D01*
X251049D01*
X251574Y84322D01*
X252099Y83797D01*
X252624D01*
X251574Y84322D02*
Y85372D01*
X22124Y63599D02*
X22649Y63074D01*
Y62025D01*
X22124Y61500D01*
X20025D01*
X19500Y62025D01*
Y63074D01*
X20025Y63599D01*
X19500Y66223D02*
X22649D01*
X21074Y64649D01*
Y66748D01*
X22124Y67797D02*
X22649Y68322D01*
Y69371D01*
X22124Y69896D01*
X21599D01*
X21074Y69371D01*
X20549Y69896D01*
X20025D01*
X19500Y69371D01*
Y68322D01*
X20025Y67797D01*
X20549D01*
X21074Y68322D01*
X21599Y67797D01*
X22124D01*
X21074Y68322D02*
Y69371D01*
X61439Y111662D02*
X61963Y112186D01*
X63013D01*
X63538Y111662D01*
Y109563D01*
X63013Y109038D01*
X61963D01*
X61439Y109563D01*
X58815Y109038D02*
Y112186D01*
X60389Y110612D01*
X58290D01*
X57241Y109563D02*
X56716Y109038D01*
X55666D01*
X55142Y109563D01*
Y111662D01*
X55666Y112186D01*
X56716D01*
X57241Y111662D01*
Y111137D01*
X56716Y110612D01*
X55142D01*
X56624Y71599D02*
X57149Y71074D01*
Y70025D01*
X56624Y69500D01*
X54525D01*
X54000Y70025D01*
Y71074D01*
X54525Y71599D01*
X57149Y74748D02*
Y72649D01*
X55574D01*
X56099Y73698D01*
Y74223D01*
X55574Y74748D01*
X54525D01*
X54000Y74223D01*
Y73173D01*
X54525Y72649D01*
X56624Y75797D02*
X57149Y76322D01*
Y77372D01*
X56624Y77896D01*
X54525D01*
X54000Y77372D01*
Y76322D01*
X54525Y75797D01*
X56624D01*
X198124Y123099D02*
X198649Y122574D01*
Y121525D01*
X198124Y121000D01*
X196025D01*
X195500Y121525D01*
Y122574D01*
X196025Y123099D01*
X198649Y124149D02*
Y126248D01*
X198124D01*
X196025Y124149D01*
X195500D01*
X198124Y127297D02*
X198649Y127822D01*
Y128872D01*
X198124Y129396D01*
X196025D01*
X195500Y128872D01*
Y127822D01*
X196025Y127297D01*
X198124D01*
X155124Y146599D02*
X155649Y146074D01*
Y145025D01*
X155124Y144500D01*
X153025D01*
X152500Y145025D01*
Y146074D01*
X153025Y146599D01*
X155649Y147649D02*
Y149748D01*
X155124D01*
X153025Y147649D01*
X152500D01*
Y150797D02*
Y151847D01*
Y151322D01*
X155649D01*
X155124Y150797D01*
X67901Y50124D02*
X68426Y50649D01*
X69475D01*
X70000Y50124D01*
Y48025D01*
X69475Y47500D01*
X68426D01*
X67901Y48025D01*
X66851Y50649D02*
X64752D01*
Y50124D01*
X66851Y48025D01*
Y47500D01*
X61604D02*
X63703D01*
X61604Y49599D01*
Y50124D01*
X62129Y50649D01*
X63178D01*
X63703Y50124D01*
X17901Y56124D02*
X18426Y56649D01*
X19475D01*
X20000Y56124D01*
Y54025D01*
X19475Y53500D01*
X18426D01*
X17901Y54025D01*
X16851Y56649D02*
X14752D01*
Y56124D01*
X16851Y54025D01*
Y53500D01*
X12128D02*
Y56649D01*
X13703Y55074D01*
X11604D01*
X17901Y35124D02*
X18426Y35649D01*
X19475D01*
X20000Y35124D01*
Y33025D01*
X19475Y32500D01*
X18426D01*
X17901Y33025D01*
X16851Y35649D02*
X14752D01*
Y35124D01*
X16851Y33025D01*
Y32500D01*
X11604Y35649D02*
X13703D01*
Y34074D01*
X12653Y34599D01*
X12128D01*
X11604Y34074D01*
Y33025D01*
X12128Y32500D01*
X13178D01*
X13703Y33025D01*
X45401Y34624D02*
X45926Y35149D01*
X46975D01*
X47500Y34624D01*
Y32525D01*
X46975Y32000D01*
X45926D01*
X45401Y32525D01*
X44351Y35149D02*
X42252D01*
Y34624D01*
X44351Y32525D01*
Y32000D01*
X39104Y35149D02*
X40153Y34624D01*
X41203Y33574D01*
Y32525D01*
X40678Y32000D01*
X39628D01*
X39104Y32525D01*
Y33049D01*
X39628Y33574D01*
X41203D01*
X83901Y80624D02*
X84426Y81149D01*
X85475D01*
X86000Y80624D01*
Y78525D01*
X85475Y78000D01*
X84426D01*
X83901Y78525D01*
X82851Y81149D02*
X80752D01*
Y80624D01*
X82851Y78525D01*
Y78000D01*
X79703Y81149D02*
X77604D01*
Y80624D01*
X79703Y78525D01*
Y78000D01*
X96401Y40624D02*
X96926Y41149D01*
X97975D01*
X98500Y40624D01*
Y38525D01*
X97975Y38000D01*
X96926D01*
X96401Y38525D01*
X95351Y41149D02*
X93252D01*
Y40624D01*
X95351Y38525D01*
Y38000D01*
X92203Y38525D02*
X91678Y38000D01*
X90628D01*
X90104Y38525D01*
Y40624D01*
X90628Y41149D01*
X91678D01*
X92203Y40624D01*
Y40099D01*
X91678Y39574D01*
X90104D01*
X167401Y40624D02*
X167926Y41149D01*
X168975D01*
X169500Y40624D01*
Y38525D01*
X168975Y38000D01*
X167926D01*
X167401Y38525D01*
X166351Y40624D02*
X165827Y41149D01*
X164777D01*
X164252Y40624D01*
Y40099D01*
X164777Y39574D01*
X164252Y39050D01*
Y38525D01*
X164777Y38000D01*
X165827D01*
X166351Y38525D01*
Y39050D01*
X165827Y39574D01*
X166351Y40099D01*
Y40624D01*
X165827Y39574D02*
X164777D01*
X163203Y40624D02*
X162678Y41149D01*
X161628D01*
X161104Y40624D01*
Y38525D01*
X161628Y38000D01*
X162678D01*
X163203Y38525D01*
Y40624D01*
X31000Y153000D02*
Y156149D01*
X29426D01*
X28901Y155624D01*
Y154574D01*
X29426Y154050D01*
X31000D01*
X29950D02*
X28901Y153000D01*
X27851D02*
X26802D01*
X27327D01*
Y156149D01*
X27851Y155624D01*
X25228D02*
X24703Y156149D01*
X23653D01*
X23129Y155624D01*
Y153525D01*
X23653Y153000D01*
X24703D01*
X25228Y153525D01*
Y155624D01*
X30500Y173500D02*
Y176649D01*
X28926D01*
X28401Y176124D01*
Y175074D01*
X28926Y174549D01*
X30500D01*
X29451D02*
X28401Y173500D01*
X27351D02*
X26302D01*
X26827D01*
Y176649D01*
X27351Y176124D01*
X24728Y173500D02*
X23678D01*
X24203D01*
Y176649D01*
X24728Y176124D01*
X128500Y156000D02*
X131649D01*
Y157574D01*
X131124Y158099D01*
X130074D01*
X129550Y157574D01*
Y156000D01*
Y157050D02*
X128500Y158099D01*
Y159149D02*
Y160198D01*
Y159673D01*
X131649D01*
X131124Y159149D01*
X128500Y163347D02*
X131649D01*
X130074Y161772D01*
Y163872D01*
X136500Y156000D02*
X139649D01*
Y157574D01*
X139124Y158099D01*
X138074D01*
X137549Y157574D01*
Y156000D01*
Y157050D02*
X136500Y158099D01*
Y159149D02*
Y160198D01*
Y159673D01*
X139649D01*
X139124Y159149D01*
X139649Y163872D02*
Y161772D01*
X138074D01*
X138599Y162822D01*
Y163347D01*
X138074Y163872D01*
X137025D01*
X136500Y163347D01*
Y162297D01*
X137025Y161772D01*
X62000Y151000D02*
Y154149D01*
X60426D01*
X59901Y153624D01*
Y152574D01*
X60426Y152050D01*
X62000D01*
X60950D02*
X59901Y151000D01*
X58851D02*
X57802D01*
X58327D01*
Y154149D01*
X58851Y153624D01*
X54128Y154149D02*
X55178Y153624D01*
X56228Y152574D01*
Y151525D01*
X55703Y151000D01*
X54653D01*
X54128Y151525D01*
Y152050D01*
X54653Y152574D01*
X56228D01*
X79000Y160000D02*
Y163149D01*
X77426D01*
X76901Y162624D01*
Y161574D01*
X77426Y161049D01*
X79000D01*
X77951D02*
X76901Y160000D01*
X75851D02*
X74802D01*
X75327D01*
Y163149D01*
X75851Y162624D01*
X73228Y163149D02*
X71128D01*
Y162624D01*
X73228Y160525D01*
Y160000D01*
X62000Y156000D02*
Y159149D01*
X60426D01*
X59901Y158624D01*
Y157574D01*
X60426Y157050D01*
X62000D01*
X60950D02*
X59901Y156000D01*
X58851D02*
X57802D01*
X58327D01*
Y159149D01*
X58851Y158624D01*
X56228D02*
X55703Y159149D01*
X54653D01*
X54128Y158624D01*
Y158099D01*
X54653Y157574D01*
X54128Y157050D01*
Y156525D01*
X54653Y156000D01*
X55703D01*
X56228Y156525D01*
Y157050D01*
X55703Y157574D01*
X56228Y158099D01*
Y158624D01*
X55703Y157574D02*
X54653D01*
X115000Y139500D02*
Y142649D01*
X113426D01*
X112901Y142124D01*
Y141074D01*
X113426Y140550D01*
X115000D01*
X113951D02*
X112901Y139500D01*
X111851D02*
X110802D01*
X111327D01*
Y142649D01*
X111851Y142124D01*
X109228Y140025D02*
X108703Y139500D01*
X107653D01*
X107129Y140025D01*
Y142124D01*
X107653Y142649D01*
X108703D01*
X109228Y142124D01*
Y141599D01*
X108703Y141074D01*
X107129D01*
X120000Y148500D02*
X123149D01*
Y150074D01*
X122624Y150599D01*
X121574D01*
X121049Y150074D01*
Y148500D01*
Y149549D02*
X120000Y150599D01*
Y153748D02*
Y151649D01*
X122099Y153748D01*
X122624D01*
X123149Y153223D01*
Y152173D01*
X122624Y151649D01*
X120000Y156896D02*
Y154797D01*
X122099Y156896D01*
X122624D01*
X123149Y156371D01*
Y155322D01*
X122624Y154797D01*
X109500Y161000D02*
Y164149D01*
X107926D01*
X107401Y163624D01*
Y162574D01*
X107926Y162049D01*
X109500D01*
X108450D02*
X107401Y161000D01*
X104252D02*
X106351D01*
X104252Y163099D01*
Y163624D01*
X104777Y164149D01*
X105827D01*
X106351Y163624D01*
X103203D02*
X102678Y164149D01*
X101628D01*
X101104Y163624D01*
Y163099D01*
X101628Y162574D01*
X102153D01*
X101628D01*
X101104Y162049D01*
Y161525D01*
X101628Y161000D01*
X102678D01*
X103203Y161525D01*
X338000Y24500D02*
Y27649D01*
X336426D01*
X335901Y27124D01*
Y26074D01*
X336426Y25550D01*
X338000D01*
X336950D02*
X335901Y24500D01*
X332752D02*
X334851D01*
X332752Y26599D01*
Y27124D01*
X333277Y27649D01*
X334327D01*
X334851Y27124D01*
X331703D02*
X331178Y27649D01*
X330129D01*
X329604Y27124D01*
Y26599D01*
X330129Y26074D01*
X329604Y25550D01*
Y25025D01*
X330129Y24500D01*
X331178D01*
X331703Y25025D01*
Y25550D01*
X331178Y26074D01*
X331703Y26599D01*
Y27124D01*
X331178Y26074D02*
X330129D01*
X338000Y19000D02*
Y22149D01*
X336426D01*
X335901Y21624D01*
Y20574D01*
X336426Y20050D01*
X338000D01*
X336950D02*
X335901Y19000D01*
X332752D02*
X334851D01*
X332752Y21099D01*
Y21624D01*
X333277Y22149D01*
X334327D01*
X334851Y21624D01*
X331703Y19525D02*
X331178Y19000D01*
X330129D01*
X329604Y19525D01*
Y21624D01*
X330129Y22149D01*
X331178D01*
X331703Y21624D01*
Y21099D01*
X331178Y20574D01*
X329604D01*
X244500Y77500D02*
X247649D01*
Y79074D01*
X247124Y79599D01*
X246074D01*
X245550Y79074D01*
Y77500D01*
Y78549D02*
X244500Y79599D01*
X247124Y80649D02*
X247649Y81173D01*
Y82223D01*
X247124Y82748D01*
X246599D01*
X246074Y82223D01*
Y81698D01*
Y82223D01*
X245550Y82748D01*
X245025D01*
X244500Y82223D01*
Y81173D01*
X245025Y80649D01*
X247124Y83797D02*
X247649Y84322D01*
Y85372D01*
X247124Y85896D01*
X246599D01*
X246074Y85372D01*
Y84847D01*
Y85372D01*
X245550Y85896D01*
X245025D01*
X244500Y85372D01*
Y84322D01*
X245025Y83797D01*
X255000Y46500D02*
Y49649D01*
X253426D01*
X252901Y49124D01*
Y48074D01*
X253426Y47550D01*
X255000D01*
X253951D02*
X252901Y46500D01*
X251851Y49124D02*
X251327Y49649D01*
X250277D01*
X249752Y49124D01*
Y48599D01*
X250277Y48074D01*
X250802D01*
X250277D01*
X249752Y47550D01*
Y47025D01*
X250277Y46500D01*
X251327D01*
X251851Y47025D01*
X246604Y49649D02*
X248703D01*
Y48074D01*
X247653Y48599D01*
X247129D01*
X246604Y48074D01*
Y47025D01*
X247129Y46500D01*
X248178D01*
X248703Y47025D01*
X255000Y54500D02*
Y57649D01*
X253426D01*
X252901Y57124D01*
Y56074D01*
X253426Y55550D01*
X255000D01*
X253951D02*
X252901Y54500D01*
X251851Y57124D02*
X251327Y57649D01*
X250277D01*
X249752Y57124D01*
Y56599D01*
X250277Y56074D01*
X250802D01*
X250277D01*
X249752Y55550D01*
Y55025D01*
X250277Y54500D01*
X251327D01*
X251851Y55025D01*
X246604Y57649D02*
X247653Y57124D01*
X248703Y56074D01*
Y55025D01*
X248178Y54500D01*
X247129D01*
X246604Y55025D01*
Y55550D01*
X247129Y56074D01*
X248703D01*
X255000Y62500D02*
Y65649D01*
X253426D01*
X252901Y65124D01*
Y64074D01*
X253426Y63550D01*
X255000D01*
X253951D02*
X252901Y62500D01*
X251851Y65124D02*
X251327Y65649D01*
X250277D01*
X249752Y65124D01*
Y64599D01*
X250277Y64074D01*
X250802D01*
X250277D01*
X249752Y63550D01*
Y63025D01*
X250277Y62500D01*
X251327D01*
X251851Y63025D01*
X248703Y65649D02*
X246604D01*
Y65124D01*
X248703Y63025D01*
Y62500D01*
X266500Y33500D02*
X269649D01*
Y35074D01*
X269124Y35599D01*
X268074D01*
X267549Y35074D01*
Y33500D01*
Y34549D02*
X266500Y35599D01*
X269124Y36649D02*
X269649Y37173D01*
Y38223D01*
X269124Y38748D01*
X268599D01*
X268074Y38223D01*
Y37698D01*
Y38223D01*
X267549Y38748D01*
X267025D01*
X266500Y38223D01*
Y37173D01*
X267025Y36649D01*
X269124Y39797D02*
X269649Y40322D01*
Y41372D01*
X269124Y41896D01*
X268599D01*
X268074Y41372D01*
X267549Y41896D01*
X267025D01*
X266500Y41372D01*
Y40322D01*
X267025Y39797D01*
X267549D01*
X268074Y40322D01*
X268599Y39797D01*
X269124D01*
X268074Y40322D02*
Y41372D01*
X40000Y140600D02*
X43149D01*
Y142174D01*
X42624Y142699D01*
X41574D01*
X41050Y142174D01*
Y140600D01*
Y141649D02*
X40000Y142699D01*
X42624Y143749D02*
X43149Y144273D01*
Y145323D01*
X42624Y145848D01*
X42099D01*
X41574Y145323D01*
Y144798D01*
Y145323D01*
X41050Y145848D01*
X40525D01*
X40000Y145323D01*
Y144273D01*
X40525Y143749D01*
Y146897D02*
X40000Y147422D01*
Y148471D01*
X40525Y148996D01*
X42624D01*
X43149Y148471D01*
Y147422D01*
X42624Y146897D01*
X42099D01*
X41574Y147422D01*
Y148996D01*
X40000Y130000D02*
X43149D01*
Y131574D01*
X42624Y132099D01*
X41574D01*
X41050Y131574D01*
Y130000D01*
Y131050D02*
X40000Y132099D01*
Y134723D02*
X43149D01*
X41574Y133149D01*
Y135248D01*
X42624Y136297D02*
X43149Y136822D01*
Y137872D01*
X42624Y138396D01*
X40525D01*
X40000Y137872D01*
Y136822D01*
X40525Y136297D01*
X42624D01*
X7500Y130500D02*
X10649D01*
Y132074D01*
X10124Y132599D01*
X9074D01*
X8550Y132074D01*
Y130500D01*
Y131550D02*
X7500Y132599D01*
Y135223D02*
X10649D01*
X9074Y133649D01*
Y135748D01*
X7500Y136797D02*
Y137847D01*
Y137322D01*
X10649D01*
X10124Y136797D01*
X71538Y108838D02*
Y111986D01*
X69964D01*
X69439Y111462D01*
Y110412D01*
X69964Y109887D01*
X71538D01*
X70488D02*
X69439Y108838D01*
X66815D02*
Y111986D01*
X68389Y110412D01*
X66290D01*
X63142Y108838D02*
X65241D01*
X63142Y110937D01*
Y111462D01*
X63666Y111986D01*
X64716D01*
X65241Y111462D01*
X79538Y108838D02*
Y111986D01*
X77964D01*
X77439Y111462D01*
Y110412D01*
X77964Y109887D01*
X79538D01*
X78488D02*
X77439Y108838D01*
X74815D02*
Y111986D01*
X76389Y110412D01*
X74290D01*
X73241Y111462D02*
X72716Y111986D01*
X71666D01*
X71142Y111462D01*
Y110937D01*
X71666Y110412D01*
X72191D01*
X71666D01*
X71142Y109887D01*
Y109363D01*
X71666Y108838D01*
X72716D01*
X73241Y109363D01*
X7500Y141500D02*
X10649D01*
Y143074D01*
X10124Y143599D01*
X9074D01*
X8550Y143074D01*
Y141500D01*
Y142550D02*
X7500Y143599D01*
Y146223D02*
X10649D01*
X9074Y144649D01*
Y146748D01*
X7500Y149372D02*
X10649D01*
X9074Y147797D01*
Y149896D01*
X35000Y121500D02*
X38149D01*
Y123074D01*
X37624Y123599D01*
X36574D01*
X36050Y123074D01*
Y121500D01*
Y122549D02*
X35000Y123599D01*
Y126223D02*
X38149D01*
X36574Y124649D01*
Y126748D01*
X38149Y129896D02*
Y127797D01*
X36574D01*
X37099Y128847D01*
Y129372D01*
X36574Y129896D01*
X35525D01*
X35000Y129372D01*
Y128322D01*
X35525Y127797D01*
X35000Y108500D02*
X38149D01*
Y110074D01*
X37624Y110599D01*
X36574D01*
X36050Y110074D01*
Y108500D01*
Y109549D02*
X35000Y110599D01*
Y113223D02*
X38149D01*
X36574Y111649D01*
Y113748D01*
X38149Y116896D02*
X37624Y115847D01*
X36574Y114797D01*
X35525D01*
X35000Y115322D01*
Y116372D01*
X35525Y116896D01*
X36050D01*
X36574Y116372D01*
Y114797D01*
X14000Y121000D02*
X17149D01*
Y122574D01*
X16624Y123099D01*
X15574D01*
X15049Y122574D01*
Y121000D01*
Y122049D02*
X14000Y123099D01*
Y125723D02*
X17149D01*
X15574Y124149D01*
Y126248D01*
X17149Y127297D02*
Y129396D01*
X16624D01*
X14525Y127297D01*
X14000D01*
Y108500D02*
X17149D01*
Y110074D01*
X16624Y110599D01*
X15574D01*
X15049Y110074D01*
Y108500D01*
Y109549D02*
X14000Y110599D01*
Y113223D02*
X17149D01*
X15574Y111649D01*
Y113748D01*
X16624Y114797D02*
X17149Y115322D01*
Y116372D01*
X16624Y116896D01*
X16099D01*
X15574Y116372D01*
X15049Y116896D01*
X14525D01*
X14000Y116372D01*
Y115322D01*
X14525Y114797D01*
X15049D01*
X15574Y115322D01*
X16099Y114797D01*
X16624D01*
X15574Y115322D02*
Y116372D01*
X139000Y129000D02*
X142149D01*
Y130574D01*
X141624Y131099D01*
X140574D01*
X140050Y130574D01*
Y129000D01*
Y130050D02*
X139000Y131099D01*
X142149Y134248D02*
Y132149D01*
X140574D01*
X141099Y133198D01*
Y133723D01*
X140574Y134248D01*
X139525D01*
X139000Y133723D01*
Y132673D01*
X139525Y132149D01*
X141624Y135297D02*
X142149Y135822D01*
Y136872D01*
X141624Y137396D01*
X141099D01*
X140574Y136872D01*
Y136347D01*
Y136872D01*
X140050Y137396D01*
X139525D01*
X139000Y136872D01*
Y135822D01*
X139525Y135297D01*
X144500Y129000D02*
X147649D01*
Y130574D01*
X147124Y131099D01*
X146074D01*
X145549Y130574D01*
Y129000D01*
Y130050D02*
X144500Y131099D01*
X147649Y134248D02*
Y132149D01*
X146074D01*
X146599Y133198D01*
Y133723D01*
X146074Y134248D01*
X145025D01*
X144500Y133723D01*
Y132673D01*
X145025Y132149D01*
X144500Y136872D02*
X147649D01*
X146074Y135297D01*
Y137396D01*
X94000Y56500D02*
Y59649D01*
X92426D01*
X91901Y59124D01*
Y58074D01*
X92426Y57550D01*
X94000D01*
X92950D02*
X91901Y56500D01*
X88752Y59649D02*
X90851D01*
Y58074D01*
X89802Y58599D01*
X89277D01*
X88752Y58074D01*
Y57025D01*
X89277Y56500D01*
X90327D01*
X90851Y57025D01*
X85604Y59649D02*
X87703D01*
Y58074D01*
X86653Y58599D01*
X86128D01*
X85604Y58074D01*
Y57025D01*
X86128Y56500D01*
X87178D01*
X87703Y57025D01*
X43500Y53500D02*
Y56649D01*
X41926D01*
X41401Y56124D01*
Y55074D01*
X41926Y54549D01*
X43500D01*
X42450D02*
X41401Y53500D01*
X38252Y56649D02*
X40351D01*
Y55074D01*
X39302Y55599D01*
X38777D01*
X38252Y55074D01*
Y54025D01*
X38777Y53500D01*
X39827D01*
X40351Y54025D01*
X37203Y56649D02*
X35104D01*
Y56124D01*
X37203Y54025D01*
Y53500D01*
D93*
X162646Y129500D02*
G03*
X162646Y129500I-492J0D01*
G01*
X364055Y23020D02*
G03*
X364055Y23020I-492J0D01*
G01*
Y7520D02*
G03*
X364055Y7520I-492J0D01*
G01*
X237676Y62876D02*
X237020D01*
X236364Y63532D01*
Y66812D01*
X238332D01*
X238988Y66156D01*
Y64844D01*
X238332Y64188D01*
X236364D01*
X235052D02*
X233740D01*
X234396D01*
Y66812D01*
X235052D01*
X231116Y67468D02*
Y66812D01*
X231772D01*
X230461D01*
X231116D01*
Y64844D01*
X230461Y64188D01*
X228493Y68124D02*
Y64188D01*
Y66156D01*
X227837Y66812D01*
X226525D01*
X225869Y66156D01*
Y64188D01*
X224557Y66812D02*
Y64844D01*
X223901Y64188D01*
X221933D01*
Y66812D01*
X220621Y68124D02*
Y64188D01*
X218653D01*
X217997Y64844D01*
Y65500D01*
Y66156D01*
X218653Y66812D01*
X220621D01*
X216685Y64188D02*
Y64844D01*
X216029D01*
Y64188D01*
X216685D01*
X210782Y66812D02*
X212750D01*
X213406Y66156D01*
Y64844D01*
X212750Y64188D01*
X210782D01*
X208814D02*
X207502D01*
X206846Y64844D01*
Y66156D01*
X207502Y66812D01*
X208814D01*
X209470Y66156D01*
Y64844D01*
X208814Y64188D01*
X205534D02*
Y66812D01*
X204878D01*
X204222Y66156D01*
Y64188D01*
Y66156D01*
X203566Y66812D01*
X202910Y66156D01*
Y64188D01*
X201598D02*
X198975Y66812D01*
X197663Y64188D02*
Y68124D01*
Y65500D02*
X195695Y66812D01*
X197663Y65500D02*
X195695Y64188D01*
X193727D02*
Y66812D01*
X191759D01*
X191103Y66156D01*
Y64188D01*
X189791Y66812D02*
Y64844D01*
X189135Y64188D01*
X187167D01*
Y66812D01*
X185199Y64188D02*
Y67468D01*
Y66156D01*
X185855D01*
X184544D01*
X185199D01*
Y67468D01*
X184544Y68124D01*
X181920Y64188D02*
Y67468D01*
Y66156D01*
X182576D01*
X181264D01*
X181920D01*
Y67468D01*
X181264Y68124D01*
X177328Y64188D02*
X178640D01*
X179296Y64844D01*
Y66156D01*
X178640Y66812D01*
X177328D01*
X176672Y66156D01*
Y65500D01*
X179296D01*
X175360Y64188D02*
X174048D01*
X174704D01*
Y68124D01*
X175360D01*
X172080Y66156D02*
X169457D01*
X168145Y66812D02*
X166833Y64188D01*
X165521Y66812D01*
X161585Y64188D02*
X164209D01*
X161585Y66812D01*
Y67468D01*
X162241Y68124D01*
X163553D01*
X164209Y67468D01*
X160273Y64188D02*
X157649Y66812D01*
X154369Y68124D02*
X155681D01*
X156337Y67468D01*
Y64844D01*
X155681Y64188D01*
X154369D01*
X153714Y64844D01*
Y67468D01*
X154369Y68124D01*
X152402D02*
X149778D01*
X151090D01*
Y64188D01*
X148466D02*
Y68124D01*
X146498D01*
X145842Y67468D01*
Y66156D01*
X146498Y65500D01*
X148466D01*
X141906Y64188D02*
X144530D01*
X141906Y66812D01*
Y67468D01*
X142562Y68124D01*
X143874D01*
X144530Y67468D01*
X140594D02*
X139938Y68124D01*
X138627D01*
X137971Y67468D01*
Y64844D01*
X138627Y64188D01*
X139938D01*
X140594Y64844D01*
Y67468D01*
X136659Y63532D02*
X134035D01*
X132067Y64188D02*
X130755D01*
X130099Y64844D01*
Y66156D01*
X130755Y66812D01*
X132067D01*
X132723Y66156D01*
Y64844D01*
X132067Y64188D01*
X128787Y68124D02*
Y64188D01*
X126819D01*
X126163Y64844D01*
Y65500D01*
X126819Y66156D01*
X128787D01*
X126819D01*
X126163Y66812D01*
Y67468D01*
X126819Y68124D01*
X128787D01*
X124196Y66812D02*
X122884D01*
X122228Y66156D01*
Y64188D01*
X124196D01*
X124851Y64844D01*
X124196Y65500D01*
X122228D01*
X120916Y64188D02*
Y66812D01*
X118948D01*
X118292Y66156D01*
Y64188D01*
X116980D02*
Y68124D01*
Y65500D02*
X115012Y66812D01*
X116980Y65500D02*
X115012Y64188D01*
X156658Y8312D02*
X157314Y8968D01*
X158626D01*
X159282Y8312D01*
Y7656D01*
X158626Y7000D01*
X157314D01*
X156658Y6344D01*
Y5688D01*
X157314Y5032D01*
X158626D01*
X159282Y5688D01*
X155346Y5032D02*
Y5688D01*
X154690D01*
Y5032D01*
X155346D01*
X146163Y8968D02*
X147475D01*
X148131Y8312D01*
Y5688D01*
X147475Y5032D01*
X146163D01*
X145507Y5688D01*
Y8312D01*
X146163Y8968D01*
X144195D02*
Y5032D01*
X142227D01*
X141571Y5688D01*
Y6344D01*
Y7000D01*
X142227Y7656D01*
X144195D01*
X138291Y5032D02*
X139603D01*
X140259Y5688D01*
Y7000D01*
X139603Y7656D01*
X138291D01*
X137635Y7000D01*
Y6344D01*
X140259D01*
X136323Y7656D02*
Y5032D01*
Y6344D01*
X135667Y7000D01*
X135011Y7656D01*
X134355D01*
X132387Y5032D02*
X130420D01*
X129764Y5688D01*
X130420Y6344D01*
X131732D01*
X132387Y7000D01*
X131732Y7656D01*
X129764D01*
X125828D02*
X127796D01*
X128452Y7000D01*
Y5688D01*
X127796Y5032D01*
X125828D01*
X124516Y8968D02*
Y5032D01*
Y7000D01*
X123860Y7656D01*
X122548D01*
X121892Y7000D01*
Y5032D01*
X120580Y7656D02*
Y5688D01*
X119924Y5032D01*
X119268Y5688D01*
X118612Y5032D01*
X117956Y5688D01*
Y7656D01*
X114677Y5032D02*
X115989D01*
X116645Y5688D01*
Y7000D01*
X115989Y7656D01*
X114677D01*
X114021Y7000D01*
Y6344D01*
X116645D01*
X112709Y5032D02*
Y7656D01*
X110741D01*
X110085Y7000D01*
Y5032D01*
X106149Y8968D02*
Y5032D01*
X108117D01*
X108773Y5688D01*
Y7000D01*
X108117Y7656D01*
X106149D01*
X104181Y8312D02*
Y7656D01*
X104837D01*
X103525D01*
X104181D01*
Y5688D01*
X103525Y5032D01*
X101558D02*
Y7656D01*
X99590D01*
X98934Y7000D01*
Y5032D01*
X95654D02*
X96966D01*
X97622Y5688D01*
Y7000D01*
X96966Y7656D01*
X95654D01*
X94998Y7000D01*
Y6344D01*
X97622D01*
X93686Y7656D02*
Y5032D01*
Y6344D01*
X93030Y7000D01*
X92374Y7656D01*
X91718D01*
X156603Y13032D02*
X159227D01*
X156603Y15656D01*
Y16312D01*
X157259Y16968D01*
X158571D01*
X159227Y16312D01*
X155291D02*
X154635Y16968D01*
X153323D01*
X152667Y16312D01*
Y13688D01*
X153323Y13032D01*
X154635D01*
X155291Y13688D01*
Y16312D01*
X148732Y13032D02*
X151355D01*
X148732Y15656D01*
Y16312D01*
X149388Y16968D01*
X150699D01*
X151355Y16312D01*
X147420Y13032D02*
X146108D01*
X146764D01*
Y16968D01*
X147420Y16312D01*
X140204Y13032D02*
Y16968D01*
X138236D01*
X137580Y16312D01*
Y15000D01*
X138236Y14344D01*
X140204D01*
X138892D02*
X137580Y13032D01*
X133645Y16968D02*
X136268D01*
Y13032D01*
X133645D01*
X136268Y15000D02*
X134957D01*
X132333Y16968D02*
Y14344D01*
X131021Y13032D01*
X129709Y14344D01*
Y16968D01*
X128397Y13032D02*
Y15656D01*
X127085Y16968D01*
X125773Y15656D01*
Y13032D01*
Y15000D01*
X128397D01*
D94*
X156494Y27452D02*
X158462D01*
X159446Y26468D01*
Y22532D01*
X158462Y21548D01*
X156494D01*
X155510Y22532D01*
Y26468D01*
X156494Y27452D01*
X153542D02*
X149606D01*
X151574D01*
Y21548D01*
X147638D02*
Y27452D01*
X144687D01*
X143703Y26468D01*
Y24500D01*
X144687Y23516D01*
X147638D01*
X141735Y24500D02*
X137799D01*
X131896Y21548D02*
X135831D01*
X131896Y25484D01*
Y26468D01*
X132879Y27452D01*
X134847D01*
X135831Y26468D01*
X129928D02*
X128944Y27452D01*
X126976D01*
X125992Y26468D01*
Y22532D01*
X126976Y21548D01*
X128944D01*
X129928Y22532D01*
Y26468D01*
X117137Y21548D02*
X115169D01*
X114185Y22532D01*
Y24500D01*
X115169Y25484D01*
X117137D01*
X118121Y24500D01*
Y22532D01*
X117137Y21548D01*
X112217Y27452D02*
Y21548D01*
X109265D01*
X108281Y22532D01*
Y23516D01*
X109265Y24500D01*
X112217D01*
X109265D01*
X108281Y25484D01*
Y26468D01*
X109265Y27452D01*
X112217D01*
X105329Y25484D02*
X103361D01*
X102378Y24500D01*
Y21548D01*
X105329D01*
X106313Y22532D01*
X105329Y23516D01*
X102378D01*
X100410Y21548D02*
Y25484D01*
X97458D01*
X96474Y24500D01*
Y21548D01*
X94506D02*
Y27452D01*
Y23516D02*
X91554Y25484D01*
X94506Y23516D02*
X91554Y21548D01*
%TF.MD5,c61dc39e28c7320a4da533f7e6793401*%
M02*
